<?xml version="1.0" encoding="UTF-8"?>
<!--Generator: Apple Native CoreSVG 149-->
<!DOCTYPE svg
PUBLIC "-//W3C//DTD SVG 1.1//EN"
       "http://www.w3.org/Graphics/SVG/1.1/DTD/svg11.dtd">
<svg version="1.1" xmlns="http://www.w3.org/2000/svg" xmlns:xlink="http://www.w3.org/1999/xlink" width="3300" height="2200">
 <!--glyph: "uni100154.medium", point size: 100.000000, font version: "Version 16.0d12e3", template writer version: "8"-->
 <g id="Notes">
  <rect height="2200" id="artboard" style="fill:white;opacity:1" width="3300" x="0" y="0"/>
  <line id="" style="fill:none;stroke:black;opacity:1;stroke-width:0.5;" x1="263" x2="3036" y1="292" y2="292"/>
  <text style="stroke:none;fill:black;font-family:-apple-system,&quot;SF Pro Display&quot;,&quot;SF Pro Text&quot;,Helvetica,sans-serif;font-weight:bold;" transform="matrix(1 0 0 1 263 322)">Weight/Scale Variations</text>
  <text style="stroke:none;fill:black;font-family:-apple-system,&quot;SF Pro Display&quot;,&quot;SF Pro Text&quot;,Helvetica,sans-serif;text-anchor:middle;" transform="matrix(1 0 0 1 559.711 322)">Ultralight</text>
  <text style="stroke:none;fill:black;font-family:-apple-system,&quot;SF Pro Display&quot;,&quot;SF Pro Text&quot;,Helvetica,sans-serif;text-anchor:middle;" transform="matrix(1 0 0 1 856.422 322)">Thin</text>
  <text style="stroke:none;fill:black;font-family:-apple-system,&quot;SF Pro Display&quot;,&quot;SF Pro Text&quot;,Helvetica,sans-serif;text-anchor:middle;" transform="matrix(1 0 0 1 1153.13 322)">Light</text>
  <text style="stroke:none;fill:black;font-family:-apple-system,&quot;SF Pro Display&quot;,&quot;SF Pro Text&quot;,Helvetica,sans-serif;text-anchor:middle;" transform="matrix(1 0 0 1 1449.84 322)">Regular</text>
  <text style="stroke:none;fill:black;font-family:-apple-system,&quot;SF Pro Display&quot;,&quot;SF Pro Text&quot;,Helvetica,sans-serif;text-anchor:middle;" transform="matrix(1 0 0 1 1746.56 322)">Medium</text>
  <text style="stroke:none;fill:black;font-family:-apple-system,&quot;SF Pro Display&quot;,&quot;SF Pro Text&quot;,Helvetica,sans-serif;text-anchor:middle;" transform="matrix(1 0 0 1 2043.27 322)">Semibold</text>
  <text style="stroke:none;fill:black;font-family:-apple-system,&quot;SF Pro Display&quot;,&quot;SF Pro Text&quot;,Helvetica,sans-serif;text-anchor:middle;" transform="matrix(1 0 0 1 2339.98 322)">Bold</text>
  <text style="stroke:none;fill:black;font-family:-apple-system,&quot;SF Pro Display&quot;,&quot;SF Pro Text&quot;,Helvetica,sans-serif;text-anchor:middle;" transform="matrix(1 0 0 1 2636.69 322)">Heavy</text>
  <text style="stroke:none;fill:black;font-family:-apple-system,&quot;SF Pro Display&quot;,&quot;SF Pro Text&quot;,Helvetica,sans-serif;text-anchor:middle;" transform="matrix(1 0 0 1 2933.4 322)">Black</text>
  <line id="" style="fill:none;stroke:black;opacity:1;stroke-width:0.5;" x1="263" x2="3036" y1="1903" y2="1903"/>
  <g id="" transform="matrix(1 0 0 1 263 1933)">
   <path d="M9.24805 0.830078C13.5547 0.830078 17.1387-2.74414 17.1387-7.05078C17.1387-11.3574 13.5449-14.9316 9.23828-14.9316C4.94141-14.9316 1.36719-11.3574 1.36719-7.05078C1.36719-2.74414 4.95117 0.830078 9.24805 0.830078ZM9.24805-0.654297C5.70312-0.654297 2.87109-3.49609 2.87109-7.05078C2.87109-10.6055 5.69336-13.4473 9.23828-13.4473C12.793-13.4473 15.6348-10.6055 15.6445-7.05078C15.6543-3.49609 12.8027-0.654297 9.24805-0.654297ZM9.22852-3.62305C9.69727-3.62305 9.9707-3.93555 9.9707-4.45312L9.9707-6.31836L12.002-6.31836C12.5-6.31836 12.832-6.57227 12.832-7.04102C12.832-7.51953 12.5195-7.7832 12.002-7.7832L9.9707-7.7832L9.9707-9.81445C9.9707-10.332 9.69727-10.6543 9.22852-10.6543C8.75977-10.6543 8.50586-10.3125 8.50586-9.81445L8.50586-7.7832L6.49414-7.7832C5.97656-7.7832 5.64453-7.51953 5.64453-7.04102C5.64453-6.57227 5.99609-6.31836 6.49414-6.31836L8.50586-6.31836L8.50586-4.45312C8.50586-3.95508 8.75977-3.62305 9.22852-3.62305Z"/>
  </g>
  <g id="" transform="matrix(1 0 0 1 281.506 1933)">
   <path d="M11.709 2.91016C17.1582 2.91016 21.6699-1.61133 21.6699-7.05078C21.6699-12.5 17.1484-17.0117 11.6992-17.0117C6.25977-17.0117 1.74805-12.5 1.74805-7.05078C1.74805-1.61133 6.26953 2.91016 11.709 2.91016ZM11.709 1.25C7.09961 1.25 3.41797-2.44141 3.41797-7.05078C3.41797-11.6602 7.08984-15.3516 11.6992-15.3516C16.3086-15.3516 20-11.6602 20.0098-7.05078C20.0195-2.44141 16.3184 1.25 11.709 1.25ZM11.6797-2.66602C12.207-2.66602 12.5098-3.01758 12.5098-3.59375L12.5098-6.23047L15.3223-6.23047C15.8691-6.23047 16.25-6.51367 16.25-7.03125C16.25-7.55859 15.8887-7.86133 15.3223-7.86133L12.5098-7.86133L12.5098-10.6836C12.5098-11.25 12.207-11.6113 11.6797-11.6113C11.1621-11.6113 10.8789-11.2305 10.8789-10.6836L10.8789-7.86133L8.07617-7.86133C7.50977-7.86133 7.13867-7.55859 7.13867-7.03125C7.13867-6.51367 7.5293-6.23047 8.07617-6.23047L10.8789-6.23047L10.8789-3.59375C10.8789-3.03711 11.1621-2.66602 11.6797-2.66602Z"/>
  </g>
  <g id="" transform="matrix(1 0 0 1 304.924 1933)">
   <path d="M14.9707 5.66406C21.9336 5.66406 27.6953-0.0976562 27.6953-7.05078C27.6953-14.0137 21.9238-19.7754 14.9609-19.7754C8.00781-19.7754 2.25586-14.0137 2.25586-7.05078C2.25586-0.0976562 8.01758 5.66406 14.9707 5.66406ZM14.9707 3.84766C8.93555 3.84766 4.08203-1.01562 4.08203-7.05078C4.08203-13.0957 8.92578-17.9492 14.9609-17.9492C21.0059-17.9492 25.8594-13.0957 25.8691-7.05078C25.8789-1.01562 21.0156 3.84766 14.9707 3.84766ZM14.9414-1.38672C15.5176-1.38672 15.8594-1.77734 15.8594-2.38281L15.8594-6.13281L19.7754-6.13281C20.3711-6.13281 20.7812-6.46484 20.7812-7.02148C20.7812-7.59766 20.3906-7.93945 19.7754-7.93945L15.8594-7.93945L15.8594-11.8652C15.8594-12.4805 15.5176-12.8711 14.9414-12.8711C14.375-12.8711 14.0527-12.4609 14.0527-11.8652L14.0527-7.93945L10.1465-7.93945C9.53125-7.93945 9.13086-7.59766 9.13086-7.02148C9.13086-6.46484 9.55078-6.13281 10.1465-6.13281L14.0527-6.13281L14.0527-2.38281C14.0527-1.79688 14.375-1.38672 14.9414-1.38672Z"/>
  </g>
  <text style="stroke:none;fill:black;font-family:-apple-system,&quot;SF Pro Display&quot;,&quot;SF Pro Text&quot;,Helvetica,sans-serif;font-weight:bold;" transform="matrix(1 0 0 1 263 1953)">Design Variations</text>
  <text style="stroke:none;fill:black;font-family:-apple-system,&quot;SF Pro Display&quot;,&quot;SF Pro Text&quot;,Helvetica,sans-serif;" transform="matrix(1 0 0 1 263 1971)">Symbols are supported in up to nine weights and three scales.</text>
  <text style="stroke:none;fill:black;font-family:-apple-system,&quot;SF Pro Display&quot;,&quot;SF Pro Text&quot;,Helvetica,sans-serif;" transform="matrix(1 0 0 1 263 1989)">For optimal layout with text and other symbols, vertically align</text>
  <text style="stroke:none;fill:black;font-family:-apple-system,&quot;SF Pro Display&quot;,&quot;SF Pro Text&quot;,Helvetica,sans-serif;" transform="matrix(1 0 0 1 263 2007)">symbols with the adjacent text.</text>
  <line id="" style="fill:none;stroke:#00AEEF;stroke-width:0.5;opacity:1.0;" x1="776" x2="776" y1="1919" y2="1933"/>
  <g id="" transform="matrix(1 0 0 1 776 1933)">
   <path d="M3.31055 0.126953C3.82812 0.126953 4.08203-0.0683594 4.26758-0.605469L5.52734-4.0625L11.2891-4.0625L12.5488-0.605469C12.7344-0.0683594 12.9883 0.126953 13.4961 0.126953C14.0137 0.126953 14.3457-0.185547 14.3457-0.673828C14.3457-0.839844 14.3164-0.986328 14.2383-1.20117L9.6582-13.3887C9.43359-13.9941 9.0332-14.2871 8.4082-14.2871C7.80273-14.2871 7.39258-13.9941 7.17773-13.3984L2.59766-1.19141C2.51953-0.976562 2.49023-0.830078 2.49023-0.664062C2.49023-0.175781 2.80273 0.126953 3.31055 0.126953ZM6.00586-5.53711L8.37891-12.1094L8.42773-12.1094L10.8008-5.53711Z"/>
  </g>
  <line id="" style="fill:none;stroke:#00AEEF;stroke-width:0.5;opacity:1.0;" x1="792.836" x2="792.836" y1="1919" y2="1933"/>
  <text style="stroke:none;fill:black;font-family:-apple-system,&quot;SF Pro Display&quot;,&quot;SF Pro Text&quot;,Helvetica,sans-serif;font-weight:bold;" transform="matrix(1 0 0 1 776 1953)">Margins</text>
  <text style="stroke:none;fill:black;font-family:-apple-system,&quot;SF Pro Display&quot;,&quot;SF Pro Text&quot;,Helvetica,sans-serif;" transform="matrix(1 0 0 1 776 1971)">Leading and trailing margins on the left and right side of each symbol</text>
  <text style="stroke:none;fill:black;font-family:-apple-system,&quot;SF Pro Display&quot;,&quot;SF Pro Text&quot;,Helvetica,sans-serif;" transform="matrix(1 0 0 1 776 1989)">can be adjusted by modifying the x-location of the margin guidelines.</text>
  <text style="stroke:none;fill:black;font-family:-apple-system,&quot;SF Pro Display&quot;,&quot;SF Pro Text&quot;,Helvetica,sans-serif;" transform="matrix(1 0 0 1 776 2007)">Modifications are automatically applied proportionally to all</text>
  <text style="stroke:none;fill:black;font-family:-apple-system,&quot;SF Pro Display&quot;,&quot;SF Pro Text&quot;,Helvetica,sans-serif;" transform="matrix(1 0 0 1 776 2025)">scales and weights.</text>
  <g id="" transform="matrix(1 0 0 1 1289 1933)">
   <path d="M2.8418 1.86523L4.54102 3.57422C5.40039 4.44336 6.38672 4.38477 7.31445 3.35938L17.4902-7.85156C17.7539-7.76367 18.0273-7.7832 18.3398-7.8418L19.4043-8.03711L20.0684-7.36328L20.0293-6.80664C19.9902-6.30859 20.1172-5.92773 20.6055-5.44922L21.3672-4.70703C21.8457-4.22852 22.4609-4.19922 22.9297-4.66797L25.8398-7.58789C26.3086-8.05664 26.2891-8.65234 25.8105-9.13086L25.0391-9.89258C24.5605-10.3711 24.1895-10.5273 23.7109-10.4883L23.1348-10.4395L22.4902-11.0742L22.7344-12.1973C22.8613-12.7637 22.7051-13.2031 22.1191-13.7891L19.9219-15.9766C16.582-19.2969 12.1484-19.2188 9.25781-16.3281C8.83789-15.918 8.80859-15.3418 9.04297-14.9512C9.27734-14.5898 9.73633-14.3555 10.3809-14.5215C11.8457-14.8633 13.3691-14.9219 14.7949-13.9844L14.209-12.5293C14.0137-12.0508 13.9844-11.6504 14.1113-11.2891L3.04688-0.898438C2.06055 0.0195312 1.98242 0.996094 2.8418 1.86523ZM10.752-15.957C13.1836-17.7344 16.4746-17.4316 18.7012-15.2051L21.1328-12.793C21.3672-12.5586 21.4062-12.373 21.3379-12.0312L21.0156-10.5469L22.5195-9.0625L23.5059-9.12109C23.7598-9.13086 23.8379-9.11133 24.0332-8.91602L24.6094-8.33984L22.168-5.89844L21.5918-6.47461C21.3965-6.66992 21.3672-6.74805 21.377-7.01172L21.4453-7.98828L19.9512-9.47266L18.4277-9.21875C18.1055-9.15039 17.959-9.17969 17.7148-9.41406L15.7129-11.416C15.459-11.6504 15.4297-11.8164 15.5859-12.1875L16.4648-14.2773C14.9023-15.7324 12.8711-16.3574 10.8398-15.7617C10.6836-15.7227 10.625-15.8496 10.752-15.957ZM5.27344 2.30469L4.10156 1.14258C3.63281 0.683594 3.74023 0.341797 4.14062-0.0195312L14.9512-10.1953L16.416-8.71094L6.42578 2.27539C6.07422 2.67578 5.74219 2.77344 5.27344 2.30469Z"/>
  </g>
  <text style="stroke:none;fill:black;font-family:-apple-system,&quot;SF Pro Display&quot;,&quot;SF Pro Text&quot;,Helvetica,sans-serif;font-weight:bold;" transform="matrix(1 0 0 1 1289 1953)">Exporting</text>
  <text style="stroke:none;fill:black;font-family:-apple-system,&quot;SF Pro Display&quot;,&quot;SF Pro Text&quot;,Helvetica,sans-serif;" transform="matrix(1 0 0 1 1289 1971)">Symbols should be outlined when exporting to ensure the</text>
  <text style="stroke:none;fill:black;font-family:-apple-system,&quot;SF Pro Display&quot;,&quot;SF Pro Text&quot;,Helvetica,sans-serif;" transform="matrix(1 0 0 1 1289 1989)">design is preserved when submitting to Xcode.</text>
  <text id="template-version" style="stroke:none;fill:black;font-family:-apple-system,&quot;SF Pro Display&quot;,&quot;SF Pro Text&quot;,Helvetica,sans-serif;text-anchor:end;" transform="matrix(1 0 0 1 3036 1933)">Template v.2.0</text>
  <text style="stroke:none;fill:black;font-family:-apple-system,&quot;SF Pro Display&quot;,&quot;SF Pro Text&quot;,Helvetica,sans-serif;text-anchor:end;" transform="matrix(1 0 0 1 3036 1951)">Requires Xcode 12 or greater</text>
  <text style="stroke:none;fill:black;font-family:-apple-system,&quot;SF Pro Display&quot;,&quot;SF Pro Text&quot;,Helvetica,sans-serif;text-anchor:end;" transform="matrix(1 0 0 1 3036 1969)">Generated from italic</text>
  <text style="stroke:none;fill:black;font-family:-apple-system,&quot;SF Pro Display&quot;,&quot;SF Pro Text&quot;,Helvetica,sans-serif;text-anchor:end;" transform="matrix(1 0 0 1 3036 1987)">Typeset at 100 points</text>
  <text style="stroke:none;fill:black;font-family:-apple-system,&quot;SF Pro Display&quot;,&quot;SF Pro Text&quot;,Helvetica,sans-serif;" transform="matrix(1 0 0 1 263 726)">Small</text>
  <text style="stroke:none;fill:black;font-family:-apple-system,&quot;SF Pro Display&quot;,&quot;SF Pro Text&quot;,Helvetica,sans-serif;" transform="matrix(1 0 0 1 263 1156)">Medium</text>
  <text style="stroke:none;fill:black;font-family:-apple-system,&quot;SF Pro Display&quot;,&quot;SF Pro Text&quot;,Helvetica,sans-serif;" transform="matrix(1 0 0 1 263 1586)">Large</text>
 </g>
 <g id="Guides">
  <g id="H-reference" style="fill:#27AAE1;stroke:none;" transform="matrix(1 0 0 1 339 696)">
   <path d="M0.976562 0L3.66211 0L12.9883-24.4629L45.752-24.4629L55.127 0L57.7637 0L30.6152-70.459L28.125-70.459ZM29.3457-67.1387L29.4434-67.1387L44.873-26.709L13.8672-26.709Z"/>
  </g>
  <line id="Baseline-S" style="fill:none;stroke:#27AAE1;opacity:1;stroke-width:0.5;" x1="263" x2="3036" y1="696" y2="696"/>
  <line id="Capline-S" style="fill:none;stroke:#27AAE1;opacity:1;stroke-width:0.5;" x1="263" x2="3036" y1="625.541" y2="625.541"/>
  <g id="H-reference" style="fill:#27AAE1;stroke:none;" transform="matrix(1 0 0 1 339 1126)">
   <path d="M0.976562 0L3.66211 0L12.9883-24.4629L45.752-24.4629L55.127 0L57.7637 0L30.6152-70.459L28.125-70.459ZM29.3457-67.1387L29.4434-67.1387L44.873-26.709L13.8672-26.709Z"/>
  </g>
  <line id="Baseline-M" style="fill:none;stroke:#27AAE1;opacity:1;stroke-width:0.5;" x1="263" x2="3036" y1="1126" y2="1126"/>
  <line id="Capline-M" style="fill:none;stroke:#27AAE1;opacity:1;stroke-width:0.5;" x1="263" x2="3036" y1="1055.54" y2="1055.54"/>
  <g id="H-reference" style="fill:#27AAE1;stroke:none;" transform="matrix(1 0 0 1 339 1556)">
   <path d="M0.976562 0L3.66211 0L12.9883-24.4629L45.752-24.4629L55.127 0L57.7637 0L30.6152-70.459L28.125-70.459ZM29.3457-67.1387L29.4434-67.1387L44.873-26.709L13.8672-26.709Z"/>
  </g>
  <line id="Baseline-L" style="fill:none;stroke:#27AAE1;opacity:1;stroke-width:0.5;" x1="263" x2="3036" y1="1556" y2="1556"/>
  <line id="Capline-L" style="fill:none;stroke:#27AAE1;opacity:1;stroke-width:0.5;" x1="263" x2="3036" y1="1485.54" y2="1485.54"/>
  <line id="left-margin" style="fill:none;stroke:#00AEEF;stroke-width:0.5;opacity:1.0;" x1="1412.1" x2="1412.1" y1="1030.79" y2="1150.12"/>
  <line id="right-margin" style="fill:none;stroke:#00AEEF;stroke-width:0.5;opacity:1.0;" x1="1487.59" x2="1487.59" y1="1030.79" y2="1150.12"/>
 </g>
 <g id="Symbols">
  <g id="Black-L" transform="matrix(1 0 0 1 2880.15 1556)">
   <path d="M26.2207 12.1582L67.9199 12.1582C73.9746 12.1582 78.0273 8.74023 78.0273 2.7832C78.0273-3.02734 74.1211-6.44531 67.9688-6.44531L59.375-6.44531L71.7773-63.9648L80.3223-63.9648C86.377-63.9648 90.4297-67.334 90.4297-73.1934C90.4297-79.0527 86.5234-82.5195 80.3223-82.5195L38.623-82.5195C32.4707-82.5195 28.4668-79.0527 28.4668-73.1934C28.4668-67.334 32.5684-63.9648 38.623-63.9648L47.2168-63.9648L34.8145-6.44531L26.2207-6.44531C20.0684-6.44531 16.0645-3.02734 16.0645 2.7832C16.0645 8.74023 20.2148 12.1582 26.2207 12.1582Z"/>
  </g>
  <g id="Heavy-L" transform="matrix(1 0 0 1 2584.59 1556)">
   <path d="M24.8535 11.6211L66.1621 11.6211C71.3867 11.6211 74.9023 8.64258 74.9023 3.51562C74.9023-1.51367 71.5332-4.49219 66.2109-4.49219L56.0547-4.49219L69.2871-65.918L79.3945-65.918C84.6191-65.918 88.1348-68.8965 88.1348-73.9746C88.1348-79.0039 84.7168-82.0312 79.4434-82.0312L38.0371-82.0312C32.7637-82.0312 29.2969-79.0039 29.2969-73.9746C29.2969-68.8965 32.8613-65.918 38.0859-65.918L48.1934-65.918L34.9609-4.49219L24.8047-4.49219C19.5312-4.49219 16.0645-1.51367 16.0645 3.51562C16.0645 8.64258 19.6289 11.6211 24.8535 11.6211Z"/>
  </g>
  <g id="Bold-L" transform="matrix(1 0 0 1 2289.15 1556)">
   <path d="M23.291 10.9863L64.209 10.9863C68.5059 10.9863 71.4355 8.49609 71.4355 4.29688C71.4355 0.146484 68.6035-2.34375 64.2578-2.34375L52.3438-2.34375L66.5039-68.1152L78.3691-68.1152C82.666-68.1152 85.5957-70.6055 85.5957-74.8047C85.5957-78.9551 82.7637-81.4453 78.418-81.4453L37.4023-81.4453C33.1055-81.4453 30.2246-78.9551 30.2246-74.8047C30.2246-70.6055 33.1543-68.1152 37.4512-68.1152L49.3164-68.1152L35.1562-2.34375L23.2422-2.34375C18.9453-2.34375 16.0645 0.146484 16.0645 4.29688C16.0645 8.49609 18.9941 10.9863 23.291 10.9863Z"/>
  </g>
  <g id="Semibold-L" transform="matrix(1 0 0 1 1993.32 1556)">
   <path d="M22.2168 10.5957L62.8906 10.5957C66.5039 10.5957 68.9941 8.44727 68.9941 4.83398C68.9941 1.31836 66.6016-0.830078 62.8906-0.830078L49.8047-0.830078L64.5996-69.6289L77.6855-69.6289C81.2988-69.6289 83.8379-71.8262 83.8379-75.3906C83.8379-78.9062 81.3965-81.0547 77.6855-81.0547L37.0117-81.0547C33.3008-81.0547 30.8594-78.9062 30.8594-75.3906C30.8594-71.8262 33.3984-69.6289 37.0117-69.6289L50.0977-69.6289L35.3027-0.830078L22.168-0.830078C18.5059-0.830078 16.0645 1.31836 16.0645 4.83398C16.0645 8.44727 18.6035 10.5957 22.2168 10.5957Z"/>
  </g>
  <g id="Medium-L" transform="matrix(1 0 0 1 1697.29 1556)">
   <path d="M21.4355 10.3027L61.8652 10.3027C64.9902 10.3027 67.1875 8.34961 67.1875 5.22461C67.1875 2.19727 65.0391 0.292969 61.8652 0.292969L47.8516 0.292969L63.1836-70.8008L77.1484-70.8008C80.2734-70.8008 82.4707-72.7051 82.4707-75.8301C82.4707-78.9062 80.3711-80.8105 77.1973-80.8105L36.6699-80.8105C33.4961-80.8105 31.3477-78.9062 31.3477-75.8301C31.3477-72.7051 33.5449-70.8008 36.7188-70.8008L50.6836-70.8008L35.4004 0.292969L21.3867 0.292969C18.2129 0.292969 16.0645 2.19727 16.0645 5.22461C16.0645 8.34961 18.2617 10.3027 21.4355 10.3027Z"/>
  </g>
  <g id="Regular-L" transform="matrix(1 0 0 1 1401.46 1556)">
   <path d="M20.3613 9.86328L60.498 9.86328C63.0371 9.86328 64.7949 8.30078 64.7949 5.76172C64.7949 3.32031 63.0859 1.75781 60.5469 1.75781L45.3613 1.75781L61.2793-72.3145L76.416-72.3145C78.9551-72.3145 80.7129-73.877 80.7129-76.416C80.7129-78.8574 79.0039-80.4199 76.4648-80.4199L36.2305-80.4199C33.6914-80.4199 31.9824-78.8574 31.9824-76.416C31.9824-73.877 33.7891-72.3145 36.2793-72.3145L51.416-72.3145L35.498 1.75781L20.3125 1.75781C17.7734 1.75781 16.0645 3.32031 16.0645 5.76172C16.0645 8.30078 17.8223 9.86328 20.3613 9.86328Z"/>
  </g>
  <g id="Light-L" transform="matrix(1 0 0 1 1105.14 1556)">
   <path d="M19.3359 9.96094L59.9121 9.96094C61.8164 9.96094 63.1836 8.74023 63.1836 6.83594C63.1836 4.93164 61.8652 3.75977 59.9609 3.75977L43.3105 3.75977L60.0586-74.3164L76.6602-74.3164C78.5645-74.3164 79.9316-75.5371 79.9316-77.4414C79.9316-79.3457 78.5645-80.5176 76.6602-80.5176L36.0352-80.5176C34.1309-80.5176 32.8125-79.3457 32.8125-77.4414C32.8125-75.5371 34.1309-74.3164 36.0352-74.3164L52.6855-74.3164L35.9375 3.75977L19.2871 3.75977C17.3828 3.75977 16.0645 4.93164 16.0645 6.83594C16.0645 8.74023 17.4316 9.96094 19.3359 9.96094Z"/>
  </g>
  <g id="Thin-L" transform="matrix(1 0 0 1 808.961 1556)">
   <path d="M17.9688 10.1074L59.1309 10.1074C60.2539 10.1074 61.0352 9.375 61.0352 8.25195C61.0352 7.12891 60.2539 6.39648 59.1309 6.39648L40.5762 6.39648L58.3984-76.9531L76.9531-76.9531C78.0273-76.9531 78.8574-77.7344 78.8574-78.8086C78.8574-79.9805 78.0273-80.6641 76.9531-80.6641L35.7422-80.6641C34.668-80.6641 33.8867-79.9805 33.8867-78.8086C33.8867-77.7344 34.668-76.9531 35.7422-76.9531L54.2969-76.9531L36.5234 6.39648L17.9688 6.39648C16.8457 6.39648 16.0645 7.12891 16.0645 8.25195C16.0645 9.375 16.8457 10.1074 17.9688 10.1074Z"/>
  </g>
  <g id="Ultralight-L" transform="matrix(1 0 0 1 512.543 1556)">
   <path d="M17.2363 10.2051L58.7402 10.2051C59.4238 10.2051 59.9121 9.66797 59.9121 8.98438C59.9121 8.20312 59.4238 7.76367 58.7402 7.76367L39.209 7.76367L57.5684-78.3203L77.0996-78.3203C77.7832-78.3203 78.2715-78.8086 78.2715-79.541C78.2715-80.3223 77.7832-80.7617 77.0996-80.7617L35.6445-80.7617C34.9121-80.7617 34.4238-80.3223 34.4238-79.541C34.4238-78.8086 34.9121-78.3203 35.5957-78.3203L55.1758-78.3203L36.7676 7.76367L17.2363 7.76367C16.5527 7.76367 16.0645 8.20312 16.0645 8.98438C16.0645 9.66797 16.5527 10.2051 17.2363 10.2051Z"/>
  </g>
  <g id="Black-M" transform="matrix(1 0 0 1 2890.8 1126)">
   <path d="M21.6797 2.24609L54.6875 2.24609C60.1562 2.24609 63.8184-0.78125 63.8184-6.10352C63.8184-11.4258 60.3027-14.4531 54.6875-14.4531L49.3652-14.4531L58.3008-55.8594L63.623-55.8594C69.0918-55.8594 72.7539-58.8867 72.7539-64.209C72.7539-69.4824 69.2383-72.6074 63.623-72.6074L30.5664-72.6074C24.9512-72.6074 21.3867-69.4824 21.3867-64.209C21.3867-58.8867 25.0977-55.8594 30.5664-55.8594L35.8887-55.8594L26.9531-14.4531L21.6797-14.4531C16.0645-14.4531 12.4512-11.4258 12.4512-6.10352C12.4512-0.78125 16.1621 2.24609 21.6797 2.24609Z"/>
  </g>
  <g id="Heavy-M" transform="matrix(1 0 0 1 2595.23 1126)">
   <path d="M20.4102 1.66016L52.9297 1.66016C57.666 1.66016 60.8398-0.976562 60.8398-5.61523C60.8398-10.2051 57.7637-12.8418 52.9297-12.8418L46.2891-12.8418L55.9082-57.5195L62.5488-57.5195C67.2852-57.5195 70.459-60.1562 70.459-64.7461C70.459-69.3359 67.3828-72.0215 62.5488-72.0215L30.0293-72.0215C25.1953-72.0215 22.0703-69.3359 22.0703-64.7461C22.0703-60.1562 25.293-57.5195 30.0293-57.5195L36.6699-57.5195L27.0508-12.8418L20.4102-12.8418C15.5762-12.8418 12.4512-10.2051 12.4512-5.61523C12.4512-0.976562 15.6738 1.66016 20.4102 1.66016Z"/>
  </g>
  <g id="Bold-M" transform="matrix(1 0 0 1 2299.82 1126)">
   <path d="M18.9941 0.976562L50.9766 0.976562C54.834 0.976562 57.4707-1.26953 57.4707-5.07812C57.4707-8.83789 54.9316-11.084 50.9766-11.084L42.8223-11.084L53.2227-59.375L61.377-59.375C65.2344-59.375 67.8711-61.5723 67.8711-65.3809C67.8711-69.1406 65.332-71.3867 61.377-71.3867L29.3945-71.3867C25.4395-71.3867 22.8516-69.1406 22.8516-65.3809C22.8516-61.5723 25.5371-59.375 29.3945-59.375L37.5488-59.375L27.1484-11.084L18.9941-11.084C15.0391-11.084 12.4512-8.83789 12.4512-5.07812C12.4512-1.26953 15.1367 0.976562 18.9941 0.976562Z"/>
  </g>
  <g id="Semibold-M" transform="matrix(1 0 0 1 2003.98 1126)">
   <path d="M18.0664 0.488281L49.6094 0.488281C52.9297 0.488281 55.1758-1.46484 55.1758-4.73633C55.1758-7.91016 52.9785-9.81445 49.6582-9.81445L40.4785-9.81445L51.416-60.6445L60.5469-60.6445C63.8672-60.6445 66.1133-62.5488 66.1133-65.8203C66.1133-68.9941 63.916-70.9473 60.5469-70.9473L28.9551-70.9473C25.5859-70.9473 23.3887-68.9941 23.3887-65.8203C23.3887-62.5488 25.6836-60.6445 29.0039-60.6445L38.1348-60.6445L27.1973-9.81445L18.0176-9.81445C14.6484-9.81445 12.4512-7.91016 12.4512-4.73633C12.4512-1.46484 14.7461 0.488281 18.0664 0.488281Z"/>
  </g>
  <g id="Medium-M" transform="matrix(1 0 0 1 1707.93 1126)">
   <path d="M17.334 0.146484L48.584 0.146484C51.4648 0.146484 53.418-1.5625 53.418-4.44336C53.418-7.17773 51.5137-8.88672 48.6328-8.88672L38.6719-8.88672L50-61.5723L59.9121-61.5723C62.793-61.5723 64.7949-63.2812 64.7949-66.1133C64.7949-68.8965 62.8418-70.6055 59.9609-70.6055L28.6133-70.6055C25.7324-70.6055 23.7793-68.8965 23.7793-66.1133C23.7793-63.2812 25.7812-61.5723 28.6621-61.5723L38.5742-61.5723L27.2461-8.88672L17.2852-8.88672C14.4043-8.88672 12.4512-7.17773 12.4512-4.44336C12.4512-1.5625 14.4531 0.146484 17.334 0.146484Z"/>
  </g>
  <g id="Regular-M" transform="matrix(1 0 0 1 1412.1 1126)">
   <path d="M16.3574-0.341797L47.2168-0.341797C49.5117-0.341797 51.1719-1.75781 51.1719-4.05273C51.1719-6.25 49.5605-7.66602 47.2656-7.66602L36.3281-7.66602L48.1934-62.8418L59.1309-62.8418C61.4258-62.8418 63.0371-64.2578 63.0371-66.5527C63.0371-68.75 61.4746-70.166 59.1797-70.166L28.1738-70.166C25.8789-70.166 24.3164-68.75 24.3164-66.5527C24.3164-64.2578 25.9277-62.8418 28.2227-62.8418L39.1602-62.8418L27.2949-7.66602L16.3086-7.66602C14.0137-7.66602 12.4512-6.25 12.4512-4.05273C12.4512-1.75781 14.0625-0.341797 16.3574-0.341797Z"/>
  </g>
  <g id="Light-M" transform="matrix(1 0 0 1 1115.76 1126)">
   <path d="M15.4297-0.244141L46.6797-0.244141C48.4375-0.244141 49.707-1.36719 49.707-3.125C49.707-4.83398 48.4863-5.9082 46.7285-5.9082L34.4727-5.9082L47.0703-64.6484L59.3262-64.6484C61.0352-64.6484 62.3047-65.7227 62.3047-67.4805C62.3047-69.1895 61.084-70.2637 59.3262-70.2637L28.0273-70.2637C26.2695-70.2637 25.0488-69.1895 25.0488-67.4805C25.0488-65.7227 26.3184-64.6484 28.0273-64.6484L40.2832-64.6484L27.6855-5.9082L15.4297-5.9082C13.6719-5.9082 12.4512-4.83398 12.4512-3.125C12.4512-1.36719 13.6719-0.244141 15.4297-0.244141Z"/>
  </g>
  <g id="Thin-M" transform="matrix(1 0 0 1 819.533 1126)">
   <path d="M14.209-0.0976562L45.9961-0.0976562C47.0215-0.0976562 47.7539-0.78125 47.7539-1.80664C47.7539-2.88086 47.0215-3.51562 45.9961-3.51562L32.0312-3.51562L45.6055-66.9922L59.5703-66.9922C60.5957-66.9922 61.3281-67.6758 61.3281-68.7012C61.3281-69.7754 60.5957-70.4102 59.5703-70.4102L27.7832-70.4102C26.7578-70.4102 26.0254-69.7754 26.0254-68.7012C26.0254-67.6758 26.7578-66.9922 27.7832-66.9922L41.748-66.9922L28.1738-3.51562L14.209-3.51562C13.1836-3.51562 12.4512-2.88086 12.4512-1.80664C12.4512-0.78125 13.1836-0.0976562 14.209-0.0976562Z"/>
  </g>
  <g id="Ultralight-M" transform="matrix(1 0 0 1 523.066 1126)">
   <path d="M13.5742-0.0488281L45.6543-0.0488281C46.2891-0.0488281 46.7773-0.537109 46.7773-1.17188C46.7773-1.9043 46.2891-2.29492 45.6543-2.29492L30.8105-2.29492L44.873-68.2129L59.7168-68.2129C60.3516-68.2129 60.8398-68.7012 60.8398-69.3359C60.8398-70.0684 60.3516-70.459 59.7168-70.459L27.6367-70.459C27.002-70.459 26.5137-70.0684 26.5137-69.3359C26.5137-68.7012 27.002-68.2129 27.6367-68.2129L42.4805-68.2129L28.418-2.29492L13.5742-2.29492C12.9395-2.29492 12.4512-1.9043 12.4512-1.17188C12.4512-0.537109 12.9395-0.0488281 13.5742-0.0488281Z"/>
  </g>
  <g id="Black-S" transform="matrix(1 0 0 1 2900.1 696)">
   <path d="M16.8945-5.9082L42.7246-5.9082C46.9727-5.9082 49.8047-8.25195 49.8047-12.4023C49.8047-16.5039 47.0703-18.8477 42.7246-18.8477L38.4766-18.8477L45.5078-51.5137L49.7559-51.5137C54.0039-51.5137 56.8359-53.8574 56.8359-57.959C56.8359-62.0605 54.1016-64.4531 49.7559-64.4531L23.9258-64.4531C19.5801-64.4531 16.7969-62.0605 16.7969-57.959C16.7969-53.8574 19.6777-51.5137 23.9258-51.5137L28.1738-51.5137L21.1426-18.8477L16.8945-18.8477C12.5488-18.8477 9.76562-16.5039 9.76562-12.4023C9.76562-8.25195 12.6465-5.9082 16.8945-5.9082Z"/>
  </g>
  <g id="Heavy-S" transform="matrix(1 0 0 1 2604.22 696)">
   <path d="M16.0645-6.39648L41.4551-6.39648C45.166-6.39648 47.6562-8.49609 47.6562-12.1582C47.6562-15.7227 45.2637-17.8223 41.4551-17.8223L36.3281-17.8223L43.7988-52.5879L48.9258-52.5879C52.6367-52.5879 55.1758-54.6387 55.1758-58.3008C55.1758-61.8652 52.7344-64.0137 48.9258-64.0137L23.5352-64.0137C19.7266-64.0137 17.2363-61.8652 17.2363-58.3008C17.2363-54.6387 19.7754-52.5879 23.5352-52.5879L28.6621-52.5879L21.1426-17.8223L16.0156-17.8223C12.207-17.8223 9.76562-15.7227 9.76562-12.1582C9.76562-8.49609 12.3047-6.39648 16.0645-6.39648Z"/>
  </g>
  <g id="Bold-S" transform="matrix(1 0 0 1 2308.46 696)">
   <path d="M15.0879-6.93359L39.9902-6.93359C43.1641-6.93359 45.3125-8.74023 45.3125-11.8164C45.3125-14.8926 43.2129-16.6992 40.0391-16.6992L33.9355-16.6992L41.8945-53.7598L47.998-53.7598C51.123-53.7598 53.2715-55.5664 53.2715-58.6426C53.2715-61.6699 51.2207-63.5254 47.998-63.5254L23.0469-63.5254C19.873-63.5254 17.7734-61.6699 17.7734-58.6426C17.7734-55.5664 19.9219-53.7598 23.0957-53.7598L29.1504-53.7598L21.1914-16.6992L15.0879-16.6992C11.8652-16.6992 9.76562-14.8926 9.76562-11.8164C9.76562-8.74023 11.9141-6.93359 15.0879-6.93359Z"/>
  </g>
  <g id="Semibold-S" transform="matrix(1 0 0 1 2012.38 696)">
   <path d="M14.4531-7.27539L39.0137-7.27539C41.748-7.27539 43.6523-8.88672 43.6523-11.6211C43.6523-14.3066 41.8457-15.918 39.0137-15.918L32.2754-15.918L40.5762-54.5898L47.3633-54.5898C50.0977-54.5898 52.002-56.2012 52.002-58.8867C52.002-61.5234 50.1465-63.1836 47.3633-63.1836L22.7539-63.1836C19.9707-63.1836 18.1152-61.5234 18.1152-58.8867C18.1152-56.2012 20.0195-54.5898 22.7539-54.5898L29.541-54.5898L21.1914-15.918L14.4043-15.918C11.6211-15.918 9.76562-14.3066 9.76562-11.6211C9.76562-8.88672 11.6699-7.27539 14.4531-7.27539Z"/>
  </g>
  <g id="Medium-S" transform="matrix(1 0 0 1 1716.16 696)">
   <path d="M13.916-7.56836L38.2324-7.56836C40.7227-7.56836 42.4316-9.0332 42.4316-11.4746C42.4316-13.8184 40.7715-15.2832 38.2812-15.2832L31.0059-15.2832L39.5996-55.1758L46.875-55.1758C49.3164-55.1758 51.0254-56.6406 51.0254-59.082C51.0254-61.4258 49.3652-62.8906 46.875-62.8906L22.5098-62.8906C20.0195-62.8906 18.3594-61.4258 18.3594-59.082C18.3594-56.6406 20.0684-55.1758 22.5586-55.1758L29.7852-55.1758L21.1914-15.2832L13.916-15.2832C11.4258-15.2832 9.76562-13.8184 9.76562-11.4746C9.76562-9.0332 11.4746-7.56836 13.916-7.56836Z"/>
  </g>
  <g id="Regular-S" transform="matrix(1 0 0 1 1420.08 696)">
   <path d="M13.2812-7.95898L37.2559-7.95898C39.3555-7.95898 40.7715-9.22852 40.7715-11.2793C40.7715-13.2324 39.4043-14.502 37.3047-14.502L29.3457-14.502L38.2812-56.0059L46.2402-56.0059C48.291-56.0059 49.7559-57.2754 49.7559-59.3262C49.7559-61.2793 48.3398-62.5488 46.2891-62.5488L22.168-62.5488C20.1172-62.5488 18.7012-61.2793 18.7012-59.3262C18.7012-57.2754 20.166-56.0059 22.2168-56.0059L30.1758-56.0059L21.1914-14.502L13.2324-14.502C11.1816-14.502 9.76562-13.2324 9.76562-11.2793C9.76562-9.22852 11.2305-7.95898 13.2812-7.95898Z"/>
  </g>
  <g id="Light-S" transform="matrix(1 0 0 1 1123.71 696)">
   <path d="M12.4512-7.86133L36.8164-7.86133C38.3789-7.86133 39.502-8.83789 39.502-10.4492C39.502-11.9629 38.4277-12.9395 36.8164-12.9395L27.7344-12.9395L37.3047-57.5684L46.3867-57.5684C47.998-57.5684 49.0723-58.5449 49.0723-60.1562C49.0723-61.6699 47.998-62.6465 46.4355-62.6465L22.0215-62.6465C20.459-62.6465 19.3848-61.6699 19.3848-60.1562C19.3848-58.5449 20.459-57.5684 22.0703-57.5684L31.1523-57.5684L21.5332-12.9395L12.4512-12.9395C10.8398-12.9395 9.76562-11.9629 9.76562-10.4492C9.76562-8.83789 10.8887-7.86133 12.4512-7.86133Z"/>
  </g>
  <g id="Thin-S" transform="matrix(1 0 0 1 827.418 696)">
   <path d="M11.377-7.76367L36.1816-7.76367C37.1094-7.76367 37.793-8.34961 37.793-9.32617C37.793-10.2539 37.1582-10.8398 36.1816-10.8398L25.5859-10.8398L36.0352-59.668L46.6309-59.668C47.5586-59.668 48.2422-60.3027 48.2422-61.2305C48.2422-62.1582 47.6074-62.7441 46.6309-62.7441L21.8262-62.7441C20.8496-62.7441 20.2148-62.1582 20.2148-61.2305C20.2148-60.3027 20.8984-59.668 21.8262-59.668L32.4219-59.668L21.9727-10.8398L11.377-10.8398C10.4492-10.8398 9.76562-10.2539 9.76562-9.32617C9.76562-8.34961 10.4492-7.76367 11.377-7.76367Z"/>
  </g>
  <g id="Ultralight-S" transform="matrix(1 0 0 1 530.927 696)">
   <path d="M10.8398-7.66602L35.8398-7.66602C36.4746-7.66602 36.9141-8.10547 36.9141-8.74023C36.9141-9.375 36.4746-9.76562 35.8887-9.76562L24.4629-9.76562L35.3516-60.7422L46.7285-60.7422C47.3633-60.7422 47.8027-61.1816 47.8027-61.7676C47.8027-62.4512 47.3633-62.8418 46.7285-62.8418L21.7285-62.8418C21.0938-62.8418 20.6543-62.4512 20.6543-61.7676C20.6543-61.1816 21.0938-60.7422 21.7285-60.7422L33.1055-60.7422L22.2168-9.76562L10.8398-9.76562C10.2051-9.76562 9.76562-9.375 9.76562-8.74023C9.76562-8.10547 10.2051-7.66602 10.8398-7.66602Z"/>
  </g>
 </g>
</svg>
