<?xml version="1.0" encoding="UTF-8"?>
<!--Generator: Apple Native CoreSVG 149-->
<!DOCTYPE svg
PUBLIC "-//W3C//DTD SVG 1.1//EN"
       "http://www.w3.org/Graphics/SVG/1.1/DTD/svg11.dtd">
<svg version="1.1" xmlns="http://www.w3.org/2000/svg" xmlns:xlink="http://www.w3.org/1999/xlink" width="3300" height="2200">
 <!--glyph: "uni10016E.medium", point size: 100.000000, font version: "Version 16.0d12e3", template writer version: "8"-->
 <g id="Notes">
  <rect height="2200" id="artboard" style="fill:white;opacity:1" width="3300" x="0" y="0"/>
  <line id="" style="fill:none;stroke:black;opacity:1;stroke-width:0.5;" x1="263" x2="3036" y1="292" y2="292"/>
  <text style="stroke:none;fill:black;font-family:-apple-system,&quot;SF Pro Display&quot;,&quot;SF Pro Text&quot;,Helvetica,sans-serif;font-weight:bold;" transform="matrix(1 0 0 1 263 322)">Weight/Scale Variations</text>
  <text style="stroke:none;fill:black;font-family:-apple-system,&quot;SF Pro Display&quot;,&quot;SF Pro Text&quot;,Helvetica,sans-serif;text-anchor:middle;" transform="matrix(1 0 0 1 559.711 322)">Ultralight</text>
  <text style="stroke:none;fill:black;font-family:-apple-system,&quot;SF Pro Display&quot;,&quot;SF Pro Text&quot;,Helvetica,sans-serif;text-anchor:middle;" transform="matrix(1 0 0 1 856.422 322)">Thin</text>
  <text style="stroke:none;fill:black;font-family:-apple-system,&quot;SF Pro Display&quot;,&quot;SF Pro Text&quot;,Helvetica,sans-serif;text-anchor:middle;" transform="matrix(1 0 0 1 1153.13 322)">Light</text>
  <text style="stroke:none;fill:black;font-family:-apple-system,&quot;SF Pro Display&quot;,&quot;SF Pro Text&quot;,Helvetica,sans-serif;text-anchor:middle;" transform="matrix(1 0 0 1 1449.84 322)">Regular</text>
  <text style="stroke:none;fill:black;font-family:-apple-system,&quot;SF Pro Display&quot;,&quot;SF Pro Text&quot;,Helvetica,sans-serif;text-anchor:middle;" transform="matrix(1 0 0 1 1746.56 322)">Medium</text>
  <text style="stroke:none;fill:black;font-family:-apple-system,&quot;SF Pro Display&quot;,&quot;SF Pro Text&quot;,Helvetica,sans-serif;text-anchor:middle;" transform="matrix(1 0 0 1 2043.27 322)">Semibold</text>
  <text style="stroke:none;fill:black;font-family:-apple-system,&quot;SF Pro Display&quot;,&quot;SF Pro Text&quot;,Helvetica,sans-serif;text-anchor:middle;" transform="matrix(1 0 0 1 2339.98 322)">Bold</text>
  <text style="stroke:none;fill:black;font-family:-apple-system,&quot;SF Pro Display&quot;,&quot;SF Pro Text&quot;,Helvetica,sans-serif;text-anchor:middle;" transform="matrix(1 0 0 1 2636.69 322)">Heavy</text>
  <text style="stroke:none;fill:black;font-family:-apple-system,&quot;SF Pro Display&quot;,&quot;SF Pro Text&quot;,Helvetica,sans-serif;text-anchor:middle;" transform="matrix(1 0 0 1 2933.4 322)">Black</text>
  <line id="" style="fill:none;stroke:black;opacity:1;stroke-width:0.5;" x1="263" x2="3036" y1="1903" y2="1903"/>
  <g id="" transform="matrix(1 0 0 1 263 1933)">
   <path d="M9.24805 0.830078C13.5547 0.830078 17.1387-2.74414 17.1387-7.05078C17.1387-11.3574 13.5449-14.9316 9.23828-14.9316C4.94141-14.9316 1.36719-11.3574 1.36719-7.05078C1.36719-2.74414 4.95117 0.830078 9.24805 0.830078ZM9.24805-0.654297C5.70312-0.654297 2.87109-3.49609 2.87109-7.05078C2.87109-10.6055 5.69336-13.4473 9.23828-13.4473C12.793-13.4473 15.6348-10.6055 15.6445-7.05078C15.6543-3.49609 12.8027-0.654297 9.24805-0.654297ZM9.22852-3.62305C9.69727-3.62305 9.9707-3.93555 9.9707-4.45312L9.9707-6.31836L12.002-6.31836C12.5-6.31836 12.832-6.57227 12.832-7.04102C12.832-7.51953 12.5195-7.7832 12.002-7.7832L9.9707-7.7832L9.9707-9.81445C9.9707-10.332 9.69727-10.6543 9.22852-10.6543C8.75977-10.6543 8.50586-10.3125 8.50586-9.81445L8.50586-7.7832L6.49414-7.7832C5.97656-7.7832 5.64453-7.51953 5.64453-7.04102C5.64453-6.57227 5.99609-6.31836 6.49414-6.31836L8.50586-6.31836L8.50586-4.45312C8.50586-3.95508 8.75977-3.62305 9.22852-3.62305Z"/>
  </g>
  <g id="" transform="matrix(1 0 0 1 281.506 1933)">
   <path d="M11.709 2.91016C17.1582 2.91016 21.6699-1.61133 21.6699-7.05078C21.6699-12.5 17.1484-17.0117 11.6992-17.0117C6.25977-17.0117 1.74805-12.5 1.74805-7.05078C1.74805-1.61133 6.26953 2.91016 11.709 2.91016ZM11.709 1.25C7.09961 1.25 3.41797-2.44141 3.41797-7.05078C3.41797-11.6602 7.08984-15.3516 11.6992-15.3516C16.3086-15.3516 20-11.6602 20.0098-7.05078C20.0195-2.44141 16.3184 1.25 11.709 1.25ZM11.6797-2.66602C12.207-2.66602 12.5098-3.01758 12.5098-3.59375L12.5098-6.23047L15.3223-6.23047C15.8691-6.23047 16.25-6.51367 16.25-7.03125C16.25-7.55859 15.8887-7.86133 15.3223-7.86133L12.5098-7.86133L12.5098-10.6836C12.5098-11.25 12.207-11.6113 11.6797-11.6113C11.1621-11.6113 10.8789-11.2305 10.8789-10.6836L10.8789-7.86133L8.07617-7.86133C7.50977-7.86133 7.13867-7.55859 7.13867-7.03125C7.13867-6.51367 7.5293-6.23047 8.07617-6.23047L10.8789-6.23047L10.8789-3.59375C10.8789-3.03711 11.1621-2.66602 11.6797-2.66602Z"/>
  </g>
  <g id="" transform="matrix(1 0 0 1 304.924 1933)">
   <path d="M14.9707 5.66406C21.9336 5.66406 27.6953-0.0976562 27.6953-7.05078C27.6953-14.0137 21.9238-19.7754 14.9609-19.7754C8.00781-19.7754 2.25586-14.0137 2.25586-7.05078C2.25586-0.0976562 8.01758 5.66406 14.9707 5.66406ZM14.9707 3.84766C8.93555 3.84766 4.08203-1.01562 4.08203-7.05078C4.08203-13.0957 8.92578-17.9492 14.9609-17.9492C21.0059-17.9492 25.8594-13.0957 25.8691-7.05078C25.8789-1.01562 21.0156 3.84766 14.9707 3.84766ZM14.9414-1.38672C15.5176-1.38672 15.8594-1.77734 15.8594-2.38281L15.8594-6.13281L19.7754-6.13281C20.3711-6.13281 20.7812-6.46484 20.7812-7.02148C20.7812-7.59766 20.3906-7.93945 19.7754-7.93945L15.8594-7.93945L15.8594-11.8652C15.8594-12.4805 15.5176-12.8711 14.9414-12.8711C14.375-12.8711 14.0527-12.4609 14.0527-11.8652L14.0527-7.93945L10.1465-7.93945C9.53125-7.93945 9.13086-7.59766 9.13086-7.02148C9.13086-6.46484 9.55078-6.13281 10.1465-6.13281L14.0527-6.13281L14.0527-2.38281C14.0527-1.79688 14.375-1.38672 14.9414-1.38672Z"/>
  </g>
  <text style="stroke:none;fill:black;font-family:-apple-system,&quot;SF Pro Display&quot;,&quot;SF Pro Text&quot;,Helvetica,sans-serif;font-weight:bold;" transform="matrix(1 0 0 1 263 1953)">Design Variations</text>
  <text style="stroke:none;fill:black;font-family:-apple-system,&quot;SF Pro Display&quot;,&quot;SF Pro Text&quot;,Helvetica,sans-serif;" transform="matrix(1 0 0 1 263 1971)">Symbols are supported in up to nine weights and three scales.</text>
  <text style="stroke:none;fill:black;font-family:-apple-system,&quot;SF Pro Display&quot;,&quot;SF Pro Text&quot;,Helvetica,sans-serif;" transform="matrix(1 0 0 1 263 1989)">For optimal layout with text and other symbols, vertically align</text>
  <text style="stroke:none;fill:black;font-family:-apple-system,&quot;SF Pro Display&quot;,&quot;SF Pro Text&quot;,Helvetica,sans-serif;" transform="matrix(1 0 0 1 263 2007)">symbols with the adjacent text.</text>
  <line id="" style="fill:none;stroke:#00AEEF;stroke-width:0.5;opacity:1.0;" x1="776" x2="776" y1="1919" y2="1933"/>
  <g id="" transform="matrix(1 0 0 1 776 1933)">
   <path d="M3.31055 0.126953C3.82812 0.126953 4.08203-0.0683594 4.26758-0.605469L5.52734-4.0625L11.2891-4.0625L12.5488-0.605469C12.7344-0.0683594 12.9883 0.126953 13.4961 0.126953C14.0137 0.126953 14.3457-0.185547 14.3457-0.673828C14.3457-0.839844 14.3164-0.986328 14.2383-1.20117L9.6582-13.3887C9.43359-13.9941 9.0332-14.2871 8.4082-14.2871C7.80273-14.2871 7.39258-13.9941 7.17773-13.3984L2.59766-1.19141C2.51953-0.976562 2.49023-0.830078 2.49023-0.664062C2.49023-0.175781 2.80273 0.126953 3.31055 0.126953ZM6.00586-5.53711L8.37891-12.1094L8.42773-12.1094L10.8008-5.53711Z"/>
  </g>
  <line id="" style="fill:none;stroke:#00AEEF;stroke-width:0.5;opacity:1.0;" x1="792.836" x2="792.836" y1="1919" y2="1933"/>
  <text style="stroke:none;fill:black;font-family:-apple-system,&quot;SF Pro Display&quot;,&quot;SF Pro Text&quot;,Helvetica,sans-serif;font-weight:bold;" transform="matrix(1 0 0 1 776 1953)">Margins</text>
  <text style="stroke:none;fill:black;font-family:-apple-system,&quot;SF Pro Display&quot;,&quot;SF Pro Text&quot;,Helvetica,sans-serif;" transform="matrix(1 0 0 1 776 1971)">Leading and trailing margins on the left and right side of each symbol</text>
  <text style="stroke:none;fill:black;font-family:-apple-system,&quot;SF Pro Display&quot;,&quot;SF Pro Text&quot;,Helvetica,sans-serif;" transform="matrix(1 0 0 1 776 1989)">can be adjusted by modifying the x-location of the margin guidelines.</text>
  <text style="stroke:none;fill:black;font-family:-apple-system,&quot;SF Pro Display&quot;,&quot;SF Pro Text&quot;,Helvetica,sans-serif;" transform="matrix(1 0 0 1 776 2007)">Modifications are automatically applied proportionally to all</text>
  <text style="stroke:none;fill:black;font-family:-apple-system,&quot;SF Pro Display&quot;,&quot;SF Pro Text&quot;,Helvetica,sans-serif;" transform="matrix(1 0 0 1 776 2025)">scales and weights.</text>
  <g id="" transform="matrix(1 0 0 1 1289 1933)">
   <path d="M2.8418 1.86523L4.54102 3.57422C5.40039 4.44336 6.38672 4.38477 7.31445 3.35938L17.4902-7.85156C17.7539-7.76367 18.0273-7.7832 18.3398-7.8418L19.4043-8.03711L20.0684-7.36328L20.0293-6.80664C19.9902-6.30859 20.1172-5.92773 20.6055-5.44922L21.3672-4.70703C21.8457-4.22852 22.4609-4.19922 22.9297-4.66797L25.8398-7.58789C26.3086-8.05664 26.2891-8.65234 25.8105-9.13086L25.0391-9.89258C24.5605-10.3711 24.1895-10.5273 23.7109-10.4883L23.1348-10.4395L22.4902-11.0742L22.7344-12.1973C22.8613-12.7637 22.7051-13.2031 22.1191-13.7891L19.9219-15.9766C16.582-19.2969 12.1484-19.2188 9.25781-16.3281C8.83789-15.918 8.80859-15.3418 9.04297-14.9512C9.27734-14.5898 9.73633-14.3555 10.3809-14.5215C11.8457-14.8633 13.3691-14.9219 14.7949-13.9844L14.209-12.5293C14.0137-12.0508 13.9844-11.6504 14.1113-11.2891L3.04688-0.898438C2.06055 0.0195312 1.98242 0.996094 2.8418 1.86523ZM10.752-15.957C13.1836-17.7344 16.4746-17.4316 18.7012-15.2051L21.1328-12.793C21.3672-12.5586 21.4062-12.373 21.3379-12.0312L21.0156-10.5469L22.5195-9.0625L23.5059-9.12109C23.7598-9.13086 23.8379-9.11133 24.0332-8.91602L24.6094-8.33984L22.168-5.89844L21.5918-6.47461C21.3965-6.66992 21.3672-6.74805 21.377-7.01172L21.4453-7.98828L19.9512-9.47266L18.4277-9.21875C18.1055-9.15039 17.959-9.17969 17.7148-9.41406L15.7129-11.416C15.459-11.6504 15.4297-11.8164 15.5859-12.1875L16.4648-14.2773C14.9023-15.7324 12.8711-16.3574 10.8398-15.7617C10.6836-15.7227 10.625-15.8496 10.752-15.957ZM5.27344 2.30469L4.10156 1.14258C3.63281 0.683594 3.74023 0.341797 4.14062-0.0195312L14.9512-10.1953L16.416-8.71094L6.42578 2.27539C6.07422 2.67578 5.74219 2.77344 5.27344 2.30469Z"/>
  </g>
  <text style="stroke:none;fill:black;font-family:-apple-system,&quot;SF Pro Display&quot;,&quot;SF Pro Text&quot;,Helvetica,sans-serif;font-weight:bold;" transform="matrix(1 0 0 1 1289 1953)">Exporting</text>
  <text style="stroke:none;fill:black;font-family:-apple-system,&quot;SF Pro Display&quot;,&quot;SF Pro Text&quot;,Helvetica,sans-serif;" transform="matrix(1 0 0 1 1289 1971)">Symbols should be outlined when exporting to ensure the</text>
  <text style="stroke:none;fill:black;font-family:-apple-system,&quot;SF Pro Display&quot;,&quot;SF Pro Text&quot;,Helvetica,sans-serif;" transform="matrix(1 0 0 1 1289 1989)">design is preserved when submitting to Xcode.</text>
  <text id="template-version" style="stroke:none;fill:black;font-family:-apple-system,&quot;SF Pro Display&quot;,&quot;SF Pro Text&quot;,Helvetica,sans-serif;text-anchor:end;" transform="matrix(1 0 0 1 3036 1933)">Template v.2.0</text>
  <text style="stroke:none;fill:black;font-family:-apple-system,&quot;SF Pro Display&quot;,&quot;SF Pro Text&quot;,Helvetica,sans-serif;text-anchor:end;" transform="matrix(1 0 0 1 3036 1951)">Requires Xcode 12 or greater</text>
  <text style="stroke:none;fill:black;font-family:-apple-system,&quot;SF Pro Display&quot;,&quot;SF Pro Text&quot;,Helvetica,sans-serif;text-anchor:end;" transform="matrix(1 0 0 1 3036 1969)">Generated from function</text>
  <text style="stroke:none;fill:black;font-family:-apple-system,&quot;SF Pro Display&quot;,&quot;SF Pro Text&quot;,Helvetica,sans-serif;text-anchor:end;" transform="matrix(1 0 0 1 3036 1987)">Typeset at 100 points</text>
  <text style="stroke:none;fill:black;font-family:-apple-system,&quot;SF Pro Display&quot;,&quot;SF Pro Text&quot;,Helvetica,sans-serif;" transform="matrix(1 0 0 1 263 726)">Small</text>
  <text style="stroke:none;fill:black;font-family:-apple-system,&quot;SF Pro Display&quot;,&quot;SF Pro Text&quot;,Helvetica,sans-serif;" transform="matrix(1 0 0 1 263 1156)">Medium</text>
  <text style="stroke:none;fill:black;font-family:-apple-system,&quot;SF Pro Display&quot;,&quot;SF Pro Text&quot;,Helvetica,sans-serif;" transform="matrix(1 0 0 1 263 1586)">Large</text>
 </g>
 <g id="Guides">
  <g id="H-reference" style="fill:#27AAE1;stroke:none;" transform="matrix(1 0 0 1 339 696)">
   <path d="M0.976562 0L3.66211 0L12.9883-24.4629L45.752-24.4629L55.127 0L57.7637 0L30.6152-70.459L28.125-70.459ZM29.3457-67.1387L29.4434-67.1387L44.873-26.709L13.8672-26.709Z"/>
  </g>
  <line id="Baseline-S" style="fill:none;stroke:#27AAE1;opacity:1;stroke-width:0.5;" x1="263" x2="3036" y1="696" y2="696"/>
  <line id="Capline-S" style="fill:none;stroke:#27AAE1;opacity:1;stroke-width:0.5;" x1="263" x2="3036" y1="625.541" y2="625.541"/>
  <g id="H-reference" style="fill:#27AAE1;stroke:none;" transform="matrix(1 0 0 1 339 1126)">
   <path d="M0.976562 0L3.66211 0L12.9883-24.4629L45.752-24.4629L55.127 0L57.7637 0L30.6152-70.459L28.125-70.459ZM29.3457-67.1387L29.4434-67.1387L44.873-26.709L13.8672-26.709Z"/>
  </g>
  <line id="Baseline-M" style="fill:none;stroke:#27AAE1;opacity:1;stroke-width:0.5;" x1="263" x2="3036" y1="1126" y2="1126"/>
  <line id="Capline-M" style="fill:none;stroke:#27AAE1;opacity:1;stroke-width:0.5;" x1="263" x2="3036" y1="1055.54" y2="1055.54"/>
  <g id="H-reference" style="fill:#27AAE1;stroke:none;" transform="matrix(1 0 0 1 339 1556)">
   <path d="M0.976562 0L3.66211 0L12.9883-24.4629L45.752-24.4629L55.127 0L57.7637 0L30.6152-70.459L28.125-70.459ZM29.3457-67.1387L29.4434-67.1387L44.873-26.709L13.8672-26.709Z"/>
  </g>
  <line id="Baseline-L" style="fill:none;stroke:#27AAE1;opacity:1;stroke-width:0.5;" x1="263" x2="3036" y1="1556" y2="1556"/>
  <line id="Capline-L" style="fill:none;stroke:#27AAE1;opacity:1;stroke-width:0.5;" x1="263" x2="3036" y1="1485.54" y2="1485.54"/>
  <line id="left-margin" style="fill:none;stroke:#00AEEF;stroke-width:0.5;opacity:1.0;" x1="1372.23" x2="1372.23" y1="1030.79" y2="1150.12"/>
  <line id="right-margin" style="fill:none;stroke:#00AEEF;stroke-width:0.5;opacity:1.0;" x1="1527.46" x2="1527.46" y1="1030.79" y2="1150.12"/>
 </g>
 <g id="Symbols">
  <g id="Black-L" transform="matrix(1 0 0 1 2809.11 1556)">
   <path d="M118.262 13.8672C122.217 13.8672 125.049 11.6211 125.049 7.76367C125.049 6.10352 124.707 4.83398 123.535 1.75781C118.066-11.377 115.625-22.8027 115.625-35.1074C115.625-47.3633 118.018-58.7891 123.535-71.9727C124.707-75.0488 125.049-76.3184 125.049-77.9297C125.049-81.7383 122.217-84.0332 118.262-84.0332C113.477-84.0332 109.766-81.6406 106.104-76.1719C98.6328-65.3809 95.0195-51.709 95.0195-35.1562C95.0195-18.5059 98.7305-4.83398 106.104 5.95703C109.717 11.5234 113.477 13.8672 118.262 13.8672ZM209.277 13.8672C214.062 13.8672 217.773 11.4746 221.436 5.95703C228.906-4.78516 232.52-18.5059 232.52-35.1562C232.52-51.709 228.809-65.332 221.436-76.1719C217.822-81.6895 214.062-84.0332 209.277-84.0332C205.322-84.0332 202.49-81.7383 202.49-77.9297C202.49-76.3184 202.832-75.0488 204.004-71.9727C209.521-58.7891 211.914-47.3633 211.914-35.1074C211.914-22.8027 209.473-11.377 204.004 1.75781C202.832 4.83398 202.49 6.10352 202.49 7.76367C202.49 11.5723 205.322 13.8672 209.277 13.8672ZM29.9316 13.8672C45.8496 13.8672 53.3203 8.05664 56.7383-8.20312L62.6953-36.6211L73.3887-36.6211C78.2227-36.6211 81.9336-39.5508 81.9336-44.9219C81.9336-50.0977 78.418-53.0273 73.8281-53.0273L66.1621-53.0273L67.3828-58.7402C68.6523-64.7949 70.5566-66.8457 75.7324-66.8457C76.7578-66.8457 77.6855-66.9434 78.5156-67.0898C83.1543-67.7734 85.791-70.4102 85.791-74.5605C85.791-80.957 81.1035-84.0332 71.7285-84.0332C55.9082-84.0332 48.291-78.0273 44.9219-61.9629L43.0664-53.0273L36.1328-53.0273C31.1523-53.0273 27.5391-50 27.5391-44.6777C27.5391-39.502 30.957-36.6211 35.6445-36.6211L39.5996-36.6211L34.2773-11.4746C32.959-5.32227 31.0547-3.32031 25.9277-3.32031C25.0977-3.32031 24.2676-3.22266 23.5352-3.17383C18.457-2.44141 16.0645 0.585938 16.0645 4.44336C16.0645 10.7422 20.7031 13.8672 29.9316 13.8672ZM140.332 2.09961C144.238 2.09961 146.338 0.878906 149.561-4.00391L162.158-22.8027L162.5-22.8027L175.586-3.4668C178.174 0.390625 180.176 2.09961 184.326 2.09961C190.137 2.09961 194.385-1.51367 194.385-7.32422C194.385-9.7168 193.604-11.7188 191.992-13.916L176.514-34.7656L191.65-54.5898C193.701-57.3242 194.531-59.3262 194.531-62.0117C194.531-67.5293 190.527-71.0449 184.814-71.0449C180.664-71.0449 178.418-69.1895 175.537-64.6973L163.818-46.6797L163.477-46.6797L151.611-64.7949C148.682-69.3359 146.338-71.0449 141.797-71.0449C136.084-71.0449 131.738-66.9922 131.738-61.6699C131.738-58.9355 132.52-56.8359 134.033-54.7852L149.316-34.375L133.789-13.8672C131.641-11.1328 130.908-9.08203 130.908-6.44531C130.908-1.41602 134.912 2.09961 140.332 2.09961Z"/>
  </g>
  <g id="Heavy-L" transform="matrix(1 0 0 1 2518.48 1556)">
   <path d="M113.672 13.2812C117.139 13.2812 119.629 11.3281 119.629 7.95898C119.629 6.49414 119.287 5.41992 118.262 2.7832C112.207-10.0098 109.18-21.9727 109.18-35.1074C109.18-47.998 112.061-60.2539 118.262-73.0469C119.287-75.6348 119.629-76.709 119.629-78.1738C119.629-81.4941 117.139-83.5449 113.672-83.5449C109.619-83.5449 106.494-81.4941 103.271-76.7578C95.2637-65.7227 91.3086-51.6602 91.3086-35.1562C91.3086-18.5547 95.2637-4.6875 103.271 6.54297C106.445 11.2793 109.619 13.2812 113.672 13.2812ZM197.998 13.2812C202.051 13.2812 205.225 11.2793 208.447 6.54297C216.504-4.63867 220.361-18.5547 220.361-35.1562C220.361-51.6602 216.357-65.6738 208.447-76.7578C205.273-81.543 202.051-83.5449 197.998-83.5449C194.531-83.5449 192.09-81.4941 192.09-78.1738C192.09-76.709 192.383-75.6348 193.408-73.0469C199.609-60.2539 202.49-47.998 202.49-35.1074C202.49-21.9727 199.512-10.0098 193.408 2.7832C192.383 5.41992 192.09 6.49414 192.09 7.95898C192.09 11.2793 194.531 13.2812 197.998 13.2812ZM28.5156 13.2324C43.457 13.2324 50.4395 7.56836 53.7109-8.05664L60.0586-38.3789L71.0938-38.3789C75.4883-38.3789 78.8086-41.0156 78.8086-45.752C78.8086-50.2441 75.7324-52.832 71.6797-52.832L63.1348-52.832L64.502-59.375C65.918-66.0156 67.9688-68.4082 73.6328-68.4082C74.707-68.4082 75.6348-68.5059 76.4648-68.6035C80.6152-69.1895 82.9102-71.5332 82.9102-75.1953C82.9102-80.8105 78.7598-83.4961 70.2148-83.4961C55.4199-83.4961 48.2422-77.5391 45.0195-62.207L43.0664-52.832L35.6934-52.832C31.2012-52.832 27.9297-50.0977 27.9297-45.459C27.9297-40.918 30.957-38.3789 35.1074-38.3789L40.0391-38.3789L34.2285-10.8887C32.8125-4.15039 30.7129-1.85547 25.0977-1.85547C24.2676-1.85547 23.3887-1.75781 22.6562-1.70898C18.2129-1.07422 16.0645 1.5625 16.0645 5.0293C16.0645 10.5469 20.2148 13.2324 28.5156 13.2324ZM133.447 0.341797C136.816 0.341797 138.672-0.683594 141.504-4.88281L154.59-24.2676L154.932-24.2676L168.457-4.44336C170.752-1.02539 172.607 0.341797 176.025 0.341797C181.104 0.341797 184.766-2.83203 184.766-7.8125C184.766-9.86328 184.082-11.5723 182.666-13.5254L166.895-34.9121L182.422-55.4199C184.131-57.7637 184.863-59.5215 184.863-61.8164C184.863-66.6016 181.348-69.6777 176.465-69.6777C172.852-69.6777 170.898-67.9688 168.408-64.209L156.055-45.5566L155.762-45.5566L143.311-64.2578C140.82-68.1152 138.721-69.6777 134.766-69.6777C129.785-69.6777 126.025-66.0645 126.025-61.4746C126.025-59.082 126.758-57.2266 128.076-55.4199L143.555-34.7168L127.734-13.4277C125.879-11.084 125.293-9.27734 125.293-7.03125C125.293-2.73438 128.809 0.341797 133.447 0.341797Z"/>
  </g>
  <g id="Bold-L" transform="matrix(1 0 0 1 2228.53 1556)">
   <path d="M108.594 12.6465C111.475 12.6465 113.525 10.9863 113.525 8.1543C113.525 6.93359 113.232 6.05469 112.354 3.95508C105.615-8.44727 101.953-21.0449 101.953-35.1074C101.953-48.6816 105.42-61.8164 112.402-74.2676C113.232-76.3184 113.525-77.1973 113.525-78.4668C113.525-81.2012 111.475-82.9102 108.594-82.9102C105.322-82.9102 102.783-81.3477 100.049-77.4414C91.4551-66.1133 87.1094-51.6113 87.1094-35.1562C87.1094-18.6035 91.3574-4.54102 100.049 7.12891C102.734 11.084 105.322 12.6465 108.594 12.6465ZM185.352 12.6465C188.623 12.6465 191.162 11.0352 193.896 7.12891C202.637-4.49219 206.836-18.6035 206.836-35.1562C206.836-51.6113 202.441-66.0645 193.896-77.4414C191.211-81.3477 188.623-82.9102 185.352-82.9102C182.471-82.9102 180.42-81.2012 180.42-78.4668C180.42-77.1973 180.713-76.3184 181.543-74.2676C188.525-61.8164 191.992-48.6816 191.992-35.1074C191.992-21.0449 188.33-8.44727 181.592 3.95508C180.713 6.05469 180.42 6.93359 180.42 8.1543C180.42 10.9375 182.471 12.6465 185.352 12.6465ZM26.9531 12.5488C40.7715 12.5488 47.168 6.98242 50.3418-7.91016L57.1289-40.332L68.5059-40.332C72.4609-40.332 75.293-42.627 75.293-46.6797C75.293-50.3906 72.7539-52.5879 69.2383-52.5879L59.7168-52.5879L61.2793-60.1562C62.8418-67.3828 65.0879-70.166 71.2891-70.166C72.3633-70.166 73.3887-70.2148 74.1699-70.3125C77.7832-70.752 79.7363-72.7051 79.7363-75.9277C79.7363-80.6641 76.0742-82.9102 68.5547-82.9102C54.8828-82.9102 48.2422-76.9531 45.166-62.4023L43.1152-52.5879L35.2539-52.5879C31.2012-52.5879 28.418-50.2441 28.418-46.2891C28.418-42.4805 30.9082-40.332 34.4727-40.332L40.5273-40.332L34.1797-10.2051C32.6172-2.7832 30.3223-0.195312 24.2188-0.195312C23.291-0.195312 22.4121-0.146484 21.7285-0.0976562C17.9199 0.439453 16.0645 2.63672 16.0645 5.66406C16.0645 10.3027 19.6777 12.5488 26.9531 12.5488ZM125.732-1.61133C128.516-1.61133 130.176-2.49023 132.471-5.9082L146.143-25.9277L146.436-25.9277L160.449-5.51758C162.451-2.63672 164.062-1.61133 166.797-1.61133C170.996-1.61133 173.975-4.29688 173.975-8.34961C173.975-10.0098 173.438-11.4746 172.266-13.0859L156.152-35.1074L172.07-56.3477C173.438-58.2031 174.072-59.668 174.072-61.6211C174.072-65.5273 171.094-68.0664 167.139-68.0664C164.111-68.0664 162.451-66.6504 160.449-63.623L147.412-44.2383L147.119-44.2383L134.033-63.6719C131.982-66.748 130.225-68.0664 126.904-68.0664C122.803-68.0664 119.678-65.0879 119.678-61.3281C119.678-59.1797 120.361-57.666 121.484-56.1523L137.109-35.0586L120.947-12.9395C119.434-11.0352 118.994-9.57031 118.994-7.71484C118.994-4.15039 121.924-1.61133 125.732-1.61133Z"/>
  </g>
  <g id="Semibold-L" transform="matrix(1 0 0 1 1936.5 1556)">
   <path d="M105.078 12.207C107.568 12.207 109.326 10.791 109.326 8.34961C109.326 7.22656 109.082 6.49414 108.301 4.73633C101.074-7.37305 96.9727-20.4102 96.9727-35.1074C96.9727-49.1211 100.781-62.9395 108.301-75.0977C109.082-76.8066 109.326-77.5391 109.326-78.6133C109.326-81.0059 107.568-82.5195 105.078-82.5195C102.344-82.5195 100.244-81.2012 97.9004-77.8809C88.8184-66.3574 84.2773-51.6113 84.2773-35.1562C84.2773-18.6523 88.6719-4.39453 97.9004 7.56836C100.195 10.8887 102.344 12.207 105.078 12.207ZM176.66 12.207C179.395 12.207 181.494 10.8887 183.838 7.56836C193.066-4.39453 197.461-18.6523 197.461-35.1562C197.461-51.6113 192.871-66.3574 183.838-77.8809C181.494-81.25 179.395-82.5195 176.66-82.5195C174.17-82.5195 172.363-81.0059 172.363-78.6133C172.363-77.5391 172.607-76.8066 173.389-75.0977C180.908-62.9395 184.717-49.1211 184.717-35.1074C184.717-20.4102 180.615-7.37305 173.438 4.73633C172.607 6.49414 172.363 7.22656 172.363 8.34961C172.363 10.6934 174.17 12.207 176.66 12.207ZM25.8301 12.0605C38.916 12.0605 44.9707 6.5918 47.998-7.8125L55.0781-41.6992L66.748-41.6992C70.3613-41.6992 72.8516-43.75 72.8516-47.3145C72.8516-50.4883 70.7031-52.4414 67.5781-52.4414L57.373-52.4414L59.082-60.6445C60.6934-68.3594 63.0859-71.3867 69.6777-71.3867C70.752-71.3867 71.8262-71.3867 72.5586-71.4844C75.8789-71.875 77.5391-73.584 77.5391-76.416C77.5391-80.5664 74.2676-82.4707 67.4316-82.4707C54.541-82.4707 48.1934-76.5625 45.2637-62.5977L43.1641-52.4414L34.9121-52.4414C31.2012-52.4414 28.7109-50.3418 28.7109-46.8262C28.7109-43.6035 30.8594-41.6992 34.0332-41.6992L40.8691-41.6992L34.1309-9.76562C32.4707-1.9043 30.0781 0.976562 23.6328 0.976562C22.6562 0.976562 21.7285 0.976562 21.0449 1.02539C17.7246 1.46484 16.0645 3.36914 16.0645 6.10352C16.0645 10.1562 19.2871 12.0605 25.8301 12.0605ZM120.41-2.92969C122.803-2.92969 124.268-3.71094 126.221-6.5918L140.283-27.0508L140.576-27.0508L154.98-6.25C156.738-3.71094 158.203-2.92969 160.4-2.92969C164.062-2.92969 166.553-5.32227 166.553-8.69141C166.553-10.1074 166.113-11.377 165.088-12.7441L148.73-35.2539L164.941-56.9824C166.113-58.5449 166.602-59.8145 166.602-61.4746C166.602-64.7949 164.014-66.9922 160.693-66.9922C158.057-66.9922 156.592-65.7227 154.932-63.2324L141.455-43.3105L141.162-43.3105L127.588-63.2812C125.928-65.8203 124.365-66.9922 121.484-66.9922C117.969-66.9922 115.332-64.4043 115.332-61.1816C115.332-59.2773 115.918-57.959 116.895-56.6406L132.715-35.3027L116.26-12.6465C115.039-11.0352 114.697-9.7168 114.697-8.20312C114.697-5.12695 117.188-2.92969 120.41-2.92969Z"/>
  </g>
  <g id="Medium-L" transform="matrix(1 0 0 1 1643.33 1556)">
   <path d="M102.393 11.8652C104.59 11.8652 106.152 10.5957 106.152 8.44727C106.152 7.4707 105.908 6.83594 105.225 5.37109C97.6562-6.5918 93.2129-19.9219 93.2129-35.1074C93.2129-49.5117 97.3145-63.7695 105.225-75.7324C105.908-77.1484 106.152-77.7832 106.152-78.7598C106.152-80.8594 104.59-82.2266 102.393-82.2266C100.098-82.2266 98.291-81.1523 96.1914-78.2227C86.8164-66.5527 82.0801-51.5625 82.0801-35.1562C82.0801-18.7012 86.6699-4.29688 96.1914 7.91016C98.2422 10.791 100.098 11.8652 102.393 11.8652ZM170.02 11.8652C172.363 11.8652 174.17 10.791 176.221 7.91016C185.791-4.29688 190.381-18.7012 190.381-35.1562C190.381-51.5625 185.596-66.5527 176.221-78.2227C174.17-81.1523 172.363-82.2266 170.02-82.2266C167.871-82.2266 166.26-80.8594 166.26-78.7598C166.26-77.7832 166.504-77.1484 167.188-75.7324C175.146-63.7695 179.248-49.5117 179.248-35.1074C179.248-19.9219 174.805-6.5918 167.236 5.37109C166.504 6.83594 166.26 7.4707 166.26 8.44727C166.26 10.5469 167.871 11.8652 170.02 11.8652ZM25 11.7188C37.5488 11.7188 43.2617 6.29883 46.1914-7.76367L53.5645-42.7246L65.3809-42.7246C68.75-42.7246 71.0449-44.5801 71.0449-47.7539C71.0449-50.5859 69.1406-52.2949 66.3086-52.2949L55.6152-52.2949L57.4219-61.0352C59.082-69.0918 61.5723-72.2656 68.4082-72.2656C69.5312-72.2656 70.6543-72.3145 71.3867-72.3633C74.3652-72.7051 75.8789-74.2188 75.8789-76.8066C75.8789-80.4688 72.8516-82.1777 66.5527-82.1777C54.248-82.1777 48.1934-76.2695 45.3613-62.6953L43.1641-52.2949L34.668-52.2949C31.25-52.2949 28.9551-50.4395 28.9551-47.2656C28.9551-44.4336 30.8105-42.7246 33.7402-42.7246L41.1133-42.7246L34.082-9.42383C32.373-1.17188 29.834 1.85547 23.1445 1.85547C22.168 1.85547 21.1914 1.85547 20.5566 1.9043C17.5781 2.24609 16.0645 3.95508 16.0645 6.44531C16.0645 10.0098 18.9941 11.7188 25 11.7188ZM116.357-3.95508C118.457-3.95508 119.824-4.63867 121.533-7.12891L135.889-27.9297L136.133-27.9297L150.781-6.78711C152.393-4.54102 153.76-3.95508 155.566-3.95508C158.74-3.95508 160.889-6.10352 160.889-8.98438C160.889-10.2051 160.547-11.3281 159.668-12.5488L143.115-35.3516L159.521-57.4707C160.498-58.7891 160.938-59.9121 160.938-61.3281C160.938-64.209 158.643-66.1621 155.811-66.1621C153.467-66.1621 152.197-65.0391 150.781-62.9395L136.914-42.627L136.67-42.627L122.754-62.9883C121.289-65.1367 119.873-66.1621 117.383-66.1621C114.307-66.1621 112.012-63.8672 112.012-61.1328C112.012-59.375 112.549-58.2031 113.428-56.9824L129.346-35.498L112.695-12.3535C111.67-10.9863 111.377-9.86328 111.377-8.54492C111.377-5.9082 113.574-3.95508 116.357-3.95508Z"/>
  </g>
  <g id="Regular-L" transform="matrix(1 0 0 1 1351.26 1556)">
   <path d="M98.9258 11.4258C100.732 11.4258 102.002 10.4004 102.002 8.59375C102.002 7.76367 101.807 7.27539 101.172 6.15234C93.1641-5.51758 88.2812-19.2871 88.2812-35.1074C88.2812-49.9512 92.7734-64.8438 101.221-76.5625C101.807-77.6367 102.002-78.0762 102.002-78.9551C102.002-80.6641 100.732-81.7871 98.9258-81.7871C97.1191-81.7871 95.8008-81.0059 94.043-78.7109C84.2285-66.7969 79.248-51.5625 79.248-35.1562C79.248-18.75 83.9844-4.19922 94.043 8.30078C95.752 10.6445 97.1191 11.4258 98.9258 11.4258ZM161.426 11.4258C163.184 11.4258 164.6 10.6445 166.309 8.30078C176.367-4.19922 181.104-18.75 181.104-35.1562C181.104-51.5625 176.074-66.7969 166.309-78.7109C164.551-81.0059 163.184-81.7871 161.426-81.7871C159.619-81.7871 158.35-80.6641 158.35-78.9551C158.35-78.0762 158.545-77.6367 159.131-76.5625C167.578-64.8438 172.07-49.9512 172.07-35.1074C172.07-19.2871 167.188-5.51758 159.131 6.15234C158.545 7.27539 158.35 7.76367 158.35 8.59375C158.35 10.3027 159.619 11.4258 161.426 11.4258ZM23.9258 11.2305C35.6934 11.2305 41.0645 5.95703 43.8965-7.61719L51.5625-44.043L63.623-44.043C66.6992-44.043 68.6523-45.7031 68.6523-48.3887C68.6523-50.7324 67.1387-52.1484 64.6484-52.1484L53.2715-52.1484L55.2246-61.5234C57.0312-70.0195 59.6191-73.4863 66.7969-73.4863C67.9688-73.4863 69.0918-73.4863 69.8242-73.5352C72.4609-73.7793 73.6816-75.0488 73.6816-77.2949C73.6816-80.3711 71.0449-81.7383 65.4297-81.7383C53.9062-81.7383 48.1445-75.8789 45.459-62.8906L43.2129-52.1484L34.3262-52.1484C31.25-52.1484 29.248-50.5371 29.248-47.8516C29.248-45.5078 30.8105-44.043 33.3008-44.043L41.4551-44.043L34.082-8.98438C32.2266-0.292969 29.5898 2.97852 22.5586 2.97852C21.5332 2.97852 20.5078 2.97852 19.873 3.02734C17.3828 3.32031 16.0645 4.6875 16.0645 6.88477C16.0645 9.86328 18.6523 11.2305 23.9258 11.2305ZM111.084-5.27344C112.793-5.27344 114.014-5.85938 115.381-7.8125L130.127-29.0527L130.322-29.0527L145.361-7.51953C146.68-5.61523 147.949-5.27344 149.268-5.27344C151.855-5.27344 153.564-7.08008 153.564-9.32617C153.564-10.3027 153.271-11.2305 152.539-12.207L135.791-35.498L152.49-58.1055C153.223-59.082 153.564-60.0098 153.564-61.1816C153.564-63.5254 151.611-65.0879 149.463-65.0879C147.51-65.0879 146.436-64.1602 145.312-62.5488L131.006-41.748L130.762-41.748L116.406-62.5977C115.283-64.209 114.111-65.0879 112.012-65.0879C109.521-65.0879 107.666-63.1836 107.666-60.9863C107.666-59.4238 108.154-58.4961 108.887-57.4707L124.951-35.7422L108.057-12.0117C107.275-10.9863 107.08-10.0098 107.08-8.98438C107.08-6.88477 108.936-5.27344 111.084-5.27344Z"/>
  </g>
  <g id="Light-L" transform="matrix(1 0 0 1 1056.67 1556)">
   <path d="M97.6074 11.5234C98.9258 11.5234 99.9512 10.7422 99.9512 9.32617C99.9512 8.64258 99.7559 8.25195 99.2676 7.37305C90.7715-3.95508 85.1562-17.8711 85.1562-35.0586C85.1562-50.6836 90.1367-66.3086 99.3164-77.7344C99.7559-78.4668 99.9512-78.9062 99.9512-79.5898C99.9512-80.9082 98.9258-81.7871 97.6074-81.7871C96.2402-81.7871 95.2637-81.2012 93.9453-79.4922C83.6914-67.8223 78.3691-52.1973 78.3691-35.0586C78.3691-17.9199 83.3008-3.4668 93.9453 9.22852C95.2148 10.8887 96.2402 11.5234 97.6074 11.5234ZM157.617 11.5234C158.984 11.5234 160.01 10.8887 161.279 9.22852C171.875-3.4668 176.855-17.9199 176.855-35.0586C176.855-52.1973 171.484-67.8223 161.279-79.4922C159.961-81.2012 158.984-81.7871 157.617-81.7871C156.299-81.7871 155.273-80.9082 155.273-79.5898C155.273-78.9062 155.469-78.4668 155.908-77.7344C165.039-66.3086 170.068-50.6836 170.068-35.0586C170.068-17.8711 164.453-3.95508 155.957 7.37305C155.469 8.25195 155.273 8.64258 155.273 9.32617C155.273 10.6934 156.299 11.5234 157.617 11.5234ZM23.0469 11.1816C34.0332 11.1816 38.916 5.95703 41.6016-6.83594L49.8047-45.8984L62.8418-45.8984C65.0879-45.8984 66.5039-47.1191 66.5039-49.1699C66.5039-50.9277 65.332-52.0508 63.4766-52.0508L51.123-52.0508L53.3691-62.6465C55.2734-71.7773 58.0078-75.3906 65.5273-75.3906C66.8457-75.3906 68.1641-75.3418 68.8477-75.3418C70.8984-75.5371 71.8262-76.5137 71.8262-78.1738C71.8262-80.6641 69.6289-81.6895 64.5996-81.6895C53.7598-81.6895 48.6328-76.123 46.0449-63.623L43.6035-52.0508L33.3496-52.0508C31.0547-52.0508 29.541-50.8301 29.541-48.8281C29.541-47.0215 30.7617-45.8984 32.666-45.8984L42.2852-45.8984L34.2285-7.86133C32.2754 1.41602 29.541 4.93164 22.1191 4.93164C20.8984 4.93164 19.6777 4.83398 18.9941 4.88281C17.0898 5.07812 16.0645 6.10352 16.0645 7.76367C16.0645 10.1562 18.2129 11.1816 23.0469 11.1816ZM108.35-5.17578C109.668-5.17578 110.547-5.66406 111.621-7.17773L127.637-30.5664L127.832-30.5664L144.092-6.88477C145.117-5.46875 146.045-5.17578 147.119-5.17578C149.072-5.17578 150.391-6.5918 150.391-8.30078C150.391-8.98438 150.195-9.7168 149.609-10.5469L131.934-35.5957L149.414-59.668C150.098-60.498 150.342-61.1816 150.342-62.1094C150.342-63.916 148.828-65.0879 147.168-65.0879C145.703-65.0879 144.873-64.4043 143.945-63.0371L128.271-40.4297L128.027-40.4297L112.354-63.0371C111.426-64.4043 110.547-65.0879 108.984-65.0879C107.08-65.0879 105.664-63.6719 105.664-62.0117C105.664-60.791 106.055-60.0586 106.641-59.2285L123.73-35.791L106.006-10.4004C105.371-9.52148 105.225-8.78906 105.225-8.05664C105.225-6.39648 106.641-5.17578 108.35-5.17578Z"/>
  </g>
  <g id="Thin-L" transform="matrix(1 0 0 1 762.77 1556)">
   <path d="M95.8008 11.6699C96.5332 11.6699 97.2168 11.1816 97.2168 10.3027C97.2168 9.86328 97.0215 9.52148 96.6797 9.0332C87.5977-1.9043 81.0059-15.9668 81.0059-34.9609C81.0059-51.6113 86.7188-68.3105 96.7773-79.248C97.0215-79.5898 97.2168-79.9316 97.2168-80.4199C97.2168-81.25 96.5332-81.7383 95.8008-81.7383C95.0195-81.7383 94.5801-81.4453 93.7988-80.5664C83.0078-69.1895 77.1484-53.0762 77.1484-34.9609C77.1484-16.8945 82.4219-2.49023 93.7988 10.4004C94.4824 11.2793 95.0195 11.6699 95.8008 11.6699ZM152.588 11.6699C153.369 11.6699 153.906 11.2793 154.639 10.4004C166.016-2.49023 171.24-16.8945 171.24-34.9609C171.24-53.0762 165.43-69.1895 154.639-80.5664C153.857-81.4453 153.369-81.7383 152.588-81.7383C151.855-81.7383 151.221-81.25 151.221-80.4199C151.221-79.9316 151.367-79.5898 151.66-79.248C161.719-68.3105 167.383-51.6113 167.383-34.9609C167.383-15.9668 160.791-1.9043 151.709 9.0332C151.367 9.52148 151.221 9.86328 151.221 10.3027C151.221 11.1816 151.855 11.6699 152.588 11.6699ZM21.9238 11.1328C31.8359 11.1328 36.1328 5.95703 38.5742-5.81055L47.5586-48.291L61.7676-48.291C62.9395-48.291 63.6719-49.0234 63.6719-50.1953C63.6719-51.2695 62.9883-51.9531 61.9141-51.9531L48.3398-51.9531L50.8789-64.0625C53.0273-74.0723 55.8594-77.9297 63.8184-77.9297C65.332-77.9297 66.8945-77.7832 67.627-77.7832C68.7988-77.832 69.3848-78.418 69.3848-79.3457C69.3848-81.0059 67.7734-81.5918 63.4766-81.5918C53.5645-81.5918 49.2676-76.3672 46.8262-64.6484L44.1406-51.9531L32.0312-51.9531C30.7617-51.9531 29.9316-51.2207 29.9316-50.1465C29.9316-48.9746 30.7129-48.291 31.8848-48.291L43.3594-48.291L34.4727-6.39648C32.373 3.61328 29.4922 7.4707 21.582 7.4707C20.0684 7.4707 18.5547 7.32422 17.8223 7.32422C16.6504 7.37305 16.0645 7.95898 16.0645 8.88672C16.0645 10.5469 17.6758 11.1328 21.9238 11.1328ZM104.688-5.07812C105.469-5.07812 105.957-5.37109 106.641-6.29883L124.365-32.5195L124.561-32.5195L142.432-6.05469C142.969-5.27344 143.457-5.07812 144.189-5.07812C145.41-5.07812 146.191-5.9082 146.191-6.93359C146.191-7.27539 146.045-7.71484 145.703-8.30078L126.855-35.791L145.41-61.6699C145.898-62.3535 146.094-62.6953 146.094-63.3301C146.094-64.4043 145.166-65.0879 144.189-65.0879C143.359-65.0879 142.871-64.6973 142.139-63.6719L124.609-38.7207L124.463-38.7207L106.982-63.6719C106.299-64.6484 105.859-65.0879 104.932-65.0879C103.809-65.0879 102.979-64.3066 102.979-63.3301C102.979-62.5977 103.271-62.1582 103.711-61.5234L122.07-35.8398L103.32-8.25195C102.881-7.61719 102.783-7.17773 102.783-6.78711C102.783-5.76172 103.613-5.07812 104.688-5.07812Z"/>
  </g>
  <g id="Ultralight-L" transform="matrix(1 0 0 1 467.499 1556)">
   <path d="M94.9219 11.7188C95.3125 11.7188 95.8008 11.4258 95.8008 10.791C95.8008 10.4492 95.6543 10.1562 95.3613 9.86328C85.9863-0.830078 78.9062-15.0391 78.9062-34.9121C78.9062-52.0508 84.9121-69.2871 95.459-80.0293C95.6543-80.1758 95.8008-80.4688 95.8008-80.8105C95.8008-81.4453 95.3125-81.7383 94.9219-81.7383C94.4336-81.7383 94.2383-81.5918 93.7012-81.1523C82.6172-69.873 76.5625-53.5156 76.5625-34.9121C76.5625-16.3574 81.9336-1.95312 93.7012 11.0352C94.1406 11.4746 94.4336 11.7188 94.9219 11.7188ZM150 11.7188C150.488 11.7188 150.781 11.4746 151.221 11.0352C162.988-1.95312 168.359-16.3574 168.359-34.9121C168.359-53.5156 162.305-69.873 151.221-81.1523C150.684-81.5918 150.488-81.7383 150-81.7383C149.609-81.7383 149.121-81.4453 149.121-80.8105C149.121-80.4688 149.268-80.1758 149.463-80.0293C160.01-69.2871 166.016-52.0508 166.016-34.9121C166.016-15.0391 158.984-0.830078 149.561 9.86328C149.268 10.1562 149.121 10.4492 149.121 10.791C149.121 11.4258 149.609 11.7188 150 11.7188ZM21.3379 11.1328C30.7129 11.1328 34.668 6.00586 37.0117-5.27344L46.3867-49.5605L61.2305-49.5605C61.8652-49.5605 62.2559-49.9512 62.2559-50.7324C62.2559-51.416 61.8164-51.9043 61.1328-51.9043L46.875-51.9043L49.6094-64.7949C51.8555-75.2441 54.7852-79.248 62.9395-79.248C64.5996-79.248 66.2598-79.0527 66.9922-79.0527C67.7246-79.0527 68.1152-79.3945 68.1152-79.9316C68.1152-81.2012 66.8457-81.5918 62.9395-81.5918C53.5156-81.5918 49.6094-76.5137 47.2168-65.1855L44.4336-51.9043L31.3477-51.9043C30.6152-51.9043 30.1758-51.4648 30.1758-50.7812C30.1758-50 30.7129-49.5605 31.4453-49.5605L43.8965-49.5605L34.6191-5.61523C32.4219 4.78516 29.4922 8.78906 21.3379 8.78906C19.6289 8.78906 17.9688 8.59375 17.2363 8.59375C16.4551 8.59375 16.0645 8.93555 16.0645 9.47266C16.0645 10.7422 17.3828 11.1328 21.3379 11.1328ZM102.832-4.98047C103.32-4.98047 103.613-5.22461 104.102-5.85938L122.705-33.4961L122.852-33.4961L141.602-5.61523C141.895-5.12695 142.188-4.98047 142.725-4.98047C143.506-4.98047 143.994-5.61523 143.994-6.20117C143.994-6.34766 143.945-6.68945 143.701-7.12891L124.268-35.8887L143.359-62.6953C143.799-63.3301 143.945-63.4766 143.945-63.9648C143.945-64.6484 143.262-65.0879 142.627-65.0879C142.139-65.0879 141.846-64.8438 141.211-63.9648L122.754-37.793L122.607-37.793L104.248-63.9648C103.662-64.7461 103.467-65.0879 102.881-65.0879C102.1-65.0879 101.611-64.5996 101.611-63.9648C101.611-63.5254 101.807-63.1836 102.197-62.6953L121.24-35.8398L101.904-7.17773C101.562-6.64062 101.514-6.29883 101.514-6.15234C101.514-5.41992 102.1-4.98047 102.832-4.98047Z"/>
  </g>
  <g id="Black-M" transform="matrix(1 0 0 1 2830.03 1126)">
   <path d="M97.1191 3.61328C100.635 3.61328 103.125 1.61133 103.125-1.75781C103.125-3.22266 102.832-4.44336 101.807-7.27539C98.1445-17.7734 96.6797-25.9277 96.6797-35.1562C96.6797-44.1895 98.1445-52.3926 101.807-62.8418C102.832-65.7227 103.125-66.8945 103.125-68.3594C103.125-71.7773 100.635-73.7793 97.1191-73.7793C92.6758-73.7793 89.2578-71.4844 85.9863-66.6016C80.7129-58.6914 78.2227-48.3887 78.2227-35.1562C78.2227-21.7773 80.8594-11.5234 85.9863-3.56445C89.209 1.41602 92.6758 3.61328 97.1191 3.61328ZM175.391 3.61328C179.834 3.61328 183.203 1.36719 186.475-3.56445C191.748-11.4258 194.287-21.7773 194.287-35.1562C194.287-48.3887 191.602-58.6426 186.475-66.6016C183.301-71.582 179.834-73.7793 175.391-73.7793C171.875-73.7793 169.336-71.7773 169.336-68.3594C169.336-66.8945 169.678-65.7227 170.654-62.8418C174.365-52.3926 175.83-44.1895 175.83-35.1562C175.83-25.9277 174.365-17.7734 170.654-7.27539C169.678-4.44336 169.336-3.22266 169.336-1.75781C169.336 1.61133 171.875 3.61328 175.391 3.61328ZM24.6582 3.61328C37.8906 3.61328 44.0918-0.976562 46.8262-14.0625L51.2695-34.9121L59.5215-34.9121C63.4277-34.9121 66.6016-37.4023 66.6016-42.041C66.6016-46.6797 63.3789-49.2188 59.5215-49.2188L54.248-49.2188L55.0781-53.125C56.0059-57.373 57.2754-58.6914 60.8887-58.6914C61.6699-58.6914 62.4512-58.7402 63.1348-58.8379C66.9922-59.4727 69.3359-61.8164 69.3359-65.332C69.3359-70.9961 65.332-73.7793 57.1289-73.7793C43.8965-73.7793 37.6953-69.1895 34.9609-56.1035L33.5449-49.2188L28.0273-49.2188C24.0234-49.2188 20.9473-46.6797 20.9473-42.0898C20.9473-37.4023 24.0234-34.9121 28.0762-34.9121L30.5176-34.9121L26.7578-16.9922C25.8301-12.7441 24.5117-11.4746 20.9473-11.4746C20.2637-11.4746 19.5312-11.4258 18.9453-11.3281C14.4531-10.6934 12.4512-8.00781 12.4512-4.83398C12.4512 0.878906 16.4551 3.61328 24.6582 3.61328ZM116.602-3.90625C120.068-3.90625 121.826-4.98047 124.805-9.47266L134.521-24.3652L134.814-24.3652L145.02-9.0332C147.266-5.61523 148.877-3.90625 152.832-3.90625C158.057-3.90625 161.963-7.03125 161.963-12.4023C161.963-14.5508 161.182-16.3086 159.766-18.3594L147.705-34.668L159.375-49.9512C161.328-52.5391 162.109-54.2969 162.109-56.7383C162.109-61.7676 158.545-64.8926 153.271-64.8926C149.609-64.8926 147.656-63.2812 144.922-59.0332L135.889-44.9707L135.645-44.9707L126.562-59.082C123.779-63.3789 121.777-64.8926 117.725-64.8926C112.549-64.8926 108.643-61.3281 108.643-56.4453C108.643-54.1992 109.326-52.2949 110.693-50.4883L122.803-34.1797L110.742-18.4082C108.74-15.8203 108.057-14.0137 108.057-11.5723C108.057-7.03125 111.621-3.90625 116.602-3.90625Z"/>
  </g>
  <g id="Heavy-M" transform="matrix(1 0 0 1 2539.4 1126)">
   <path d="M92.4316 2.97852C95.5566 2.97852 97.7539 1.2207 97.7539-1.75781C97.7539-3.02734 97.4609-4.05273 96.582-6.49414C92.334-16.6504 90.4297-25.3906 90.4297-35.1562C90.4297-44.6777 92.2852-53.5645 96.582-63.7207C97.4609-66.1621 97.7539-67.1875 97.7539-68.457C97.7539-71.4355 95.5566-73.1934 92.4316-73.1934C88.6719-73.1934 85.791-71.2891 82.9102-67.041C77.1484-58.7891 74.3652-48.1934 74.3652-35.1562C74.3652-22.0215 77.2461-11.5234 82.9102-3.17383C85.7422 1.12305 88.6719 2.97852 92.4316 2.97852ZM164.014 2.97852C167.773 2.97852 170.703 1.07422 173.584-3.17383C179.346-11.4746 182.129-22.0215 182.129-35.1562C182.129-48.1934 179.248-58.7402 173.584-67.041C170.752-71.3379 167.773-73.1934 164.014-73.1934C160.938-73.1934 158.74-71.4355 158.74-68.457C158.74-67.1875 159.033-66.1621 159.912-63.7207C164.209-53.5645 166.064-44.6777 166.064-35.1562C166.064-25.3906 164.16-16.6504 159.912-6.49414C159.033-4.05273 158.74-3.02734 158.74-1.75781C158.74 1.2207 160.938 2.97852 164.014 2.97852ZM23.3398 2.97852C35.6934 2.97852 41.4551-1.5625 44.1406-14.1113L48.8281-36.3281L57.2266-36.3281C60.8398-36.3281 63.7207-38.623 63.7207-42.7734C63.7207-46.7773 60.9375-49.0234 57.4707-49.0234L51.4648-49.0234L52.4414-53.5645C53.418-58.3008 54.8828-59.8633 58.8867-59.8633C59.7168-59.8633 60.4492-59.9121 61.1328-60.0586C64.6484-60.5957 66.6992-62.6465 66.6992-65.8203C66.6992-70.8008 63.0859-73.1934 55.7129-73.1934C43.4082-73.1934 37.5488-68.5547 34.9609-56.1035L33.4473-49.0234L27.832-49.0234C24.1211-49.0234 21.3379-46.7285 21.3379-42.627C21.3379-38.5742 24.0234-36.3281 27.6367-36.3281L30.8105-36.3281L26.6113-16.6504C25.5859-11.9141 24.1699-10.3516 20.166-10.3516C19.4824-10.3516 18.7988-10.3027 18.2129-10.2539C14.2578-9.66797 12.4512-7.32422 12.4512-4.39453C12.4512 0.537109 16.0645 2.97852 23.3398 2.97852ZM109.766-5.81055C112.793-5.81055 114.404-6.78711 116.943-10.5957L126.904-25.6348L127.197-25.6348L137.549-10.2051C139.551-7.22656 141.064-5.81055 144.336-5.81055C148.877-5.81055 152.246-8.64258 152.246-13.1836C152.246-15.0391 151.611-16.6016 150.342-18.3594L138.232-34.8633L150.049-50.4395C151.709-52.6367 152.344-54.1992 152.344-56.2988C152.344-60.5957 149.268-63.3789 144.727-63.3789C141.504-63.3789 139.795-61.9141 137.5-58.3496L128.174-44.043L127.93-44.043L118.506-58.3984C116.162-62.0117 114.355-63.3789 110.84-63.3789C106.348-63.3789 102.979-60.2051 102.979-56.0059C102.979-53.9551 103.613-52.2949 104.785-50.7324L116.846-34.5215L104.639-18.3594C102.93-16.1621 102.393-14.5508 102.393-12.5C102.393-8.59375 105.518-5.81055 109.766-5.81055Z"/>
  </g>
  <g id="Bold-M" transform="matrix(1 0 0 1 2249.47 1126)">
   <path d="M87.2559 2.24609C89.8438 2.24609 91.6992 0.78125 91.6992-1.75781C91.6992-2.83203 91.4551-3.61328 90.6738-5.56641C85.8398-15.4297 83.4473-24.8047 83.4473-35.1562C83.4473-45.2148 85.7422-54.834 90.6738-64.7461C91.4551-66.6504 91.6992-67.4316 91.6992-68.5547C91.6992-71.0449 89.8438-72.5586 87.2559-72.5586C84.2285-72.5586 81.8848-71.0449 79.4922-67.5293C73.1445-58.9355 70.0684-47.9492 70.0684-35.1562C70.0684-22.3145 73.1934-11.5723 79.4922-2.7832C81.8359 0.78125 84.2285 2.24609 87.2559 2.24609ZM151.318 2.24609C154.346 2.24609 156.689 0.732422 159.131-2.7832C165.479-11.5234 168.555-22.3145 168.555-35.1562C168.555-47.9492 165.381-58.8867 159.131-67.5293C156.738-71.0938 154.346-72.5586 151.318-72.5586C148.73-72.5586 146.875-71.0449 146.875-68.5547C146.875-67.4316 147.119-66.6504 147.9-64.7461C152.832-54.834 155.176-45.2148 155.176-35.1562C155.176-24.8047 152.734-15.4297 147.9-5.56641C147.119-3.61328 146.875-2.83203 146.875-1.75781C146.875 0.732422 148.73 2.24609 151.318 2.24609ZM21.875 2.19727C33.252 2.19727 38.5742-2.14844 41.0645-14.1602L46.0938-37.9395L54.6387-37.9395C58.0078-37.9395 60.498-39.9902 60.498-43.5059C60.498-46.875 58.2031-48.8281 55.127-48.8281L48.3887-48.8281L49.4629-54.0527C50.5859-59.2773 52.1973-61.2305 56.6895-61.2305C57.5195-61.2305 58.252-61.2793 58.8867-61.377C62.0117-61.7676 63.7695-63.5254 63.7695-66.3086C63.7695-70.5078 60.5957-72.5586 54.1504-72.5586C42.8711-72.5586 37.4023-67.9199 34.9121-56.1523L33.3984-48.8281L27.5879-48.8281C24.1699-48.8281 21.7285-46.7773 21.7285-43.2617C21.7285-39.8926 23.9746-37.9395 27.0996-37.9395L31.1035-37.9395L26.5137-16.2598C25.3906-10.9375 23.7305-9.08203 19.3359-9.08203C18.6523-9.08203 17.9688-9.0332 17.4316-8.98438C14.0625-8.54492 12.4512-6.54297 12.4512-3.95508C12.4512 0.195312 15.5762 2.19727 21.875 2.19727ZM102.148-8.00781C104.639-8.00781 106.055-8.78906 108.154-11.9141L118.408-27.002L118.652-27.002L129.199-11.5723C130.957-8.98438 132.324-8.00781 134.863-8.00781C138.672-8.00781 141.406-10.4004 141.406-14.0625C141.406-15.625 140.869-16.8945 139.844-18.3594L127.588-35.0098L139.648-51.0254C140.918-52.7344 141.455-54.0527 141.455-55.8105C141.455-59.3262 138.818-61.6211 135.205-61.6211C132.471-61.6211 131.006-60.4004 129.15-57.5684L119.531-43.0176L119.287-43.0176L109.521-57.6172C107.666-60.498 106.104-61.6211 103.125-61.6211C99.4141-61.6211 96.6309-58.9844 96.6309-55.5176C96.6309-53.7109 97.168-52.3438 98.1445-50.9766L110.156-34.8633L97.8516-18.3105C96.4844-16.5527 96.0449-15.1855 96.0449-13.5254C96.0449-10.3027 98.6816-8.00781 102.148-8.00781Z"/>
  </g>
  <g id="Semibold-M" transform="matrix(1 0 0 1 1957.45 1126)">
   <path d="M83.6914 1.75781C85.9375 1.75781 87.5488 0.488281 87.5488-1.70898C87.5488-2.68555 87.3047-3.32031 86.6211-4.98047C81.3965-14.5996 78.6133-24.4141 78.6133-35.1562C78.6133-45.6055 81.25-55.7617 86.6211-65.3809C87.3047-66.9922 87.5488-67.6758 87.5488-68.6035C87.5488-70.752 85.9375-72.1191 83.6914-72.1191C81.1523-72.1191 79.1992-70.8984 77.0996-67.8711C70.4102-58.9844 67.0898-47.8027 67.0898-35.2051C67.0898-22.5586 70.3613-11.5723 77.0996-2.49023C79.1992 0.537109 81.1523 1.75781 83.6914 1.75781ZM142.578 1.75781C145.068 1.75781 147.07 0.537109 149.17-2.49023C155.908-11.5234 159.18-22.5586 159.18-35.2051C159.18-47.8027 155.811-58.9844 149.17-67.8711C147.07-70.8984 145.068-72.1191 142.578-72.1191C140.332-72.1191 138.721-70.752 138.721-68.6035C138.721-67.6758 138.965-66.9922 139.6-65.3809C145.02-55.7617 147.656-45.6055 147.656-35.1562C147.656-24.4141 144.873-14.5996 139.648-4.98047C138.965-3.32031 138.721-2.68555 138.721-1.70898C138.721 0.390625 140.332 1.75781 142.578 1.75781ZM20.8496 1.70898C31.5918 1.70898 36.5234-2.58789 39.0137-14.209L44.1895-39.0625L52.8809-39.0625C56.0547-39.0625 58.3008-40.918 58.3008-44.043C58.3008-46.9727 56.3477-48.6816 53.5645-48.6816L46.2402-48.6816L47.4121-54.3945C48.584-60.0098 50.3418-62.1582 55.1758-62.1582C55.957-62.1582 56.7383-62.207 57.3242-62.2559C60.2051-62.6465 61.7188-64.1602 61.7188-66.6992C61.7188-70.3613 58.8867-72.0703 53.0762-72.0703C42.4805-72.0703 37.2559-67.4316 34.9121-56.1523L33.3496-48.6816L27.4414-48.6816C24.2188-48.6816 22.0215-46.8262 22.0215-43.7012C22.0215-40.7715 23.9258-39.0625 26.7578-39.0625L31.2988-39.0625L26.416-15.9668C25.2441-10.2539 23.4375-8.25195 18.75-8.25195C18.0664-8.25195 17.3828-8.20312 16.8945-8.1543C13.916-7.76367 12.4512-6.05469 12.4512-3.61328C12.4512-0.0488281 15.2832 1.70898 20.8496 1.70898ZM96.875-9.47266C99.0234-9.47266 100.342-10.1562 102.1-12.793L112.5-27.9297L112.744-27.9297L123.438-12.5C125-10.2539 126.27-9.47266 128.32-9.47266C131.592-9.47266 133.887-11.5723 133.887-14.6973C133.887-16.0156 133.496-17.1387 132.568-18.3594L120.215-35.1562L132.471-51.416C133.496-52.7832 133.984-53.9551 133.984-55.4199C133.984-58.4473 131.641-60.4492 128.613-60.4492C126.221-60.4492 124.951-59.3262 123.438-57.0312L113.525-42.2852L113.33-42.2852L103.32-57.0801C101.807-59.4238 100.391-60.4492 97.8516-60.4492C94.6289-60.4492 92.2363-58.1055 92.2363-55.2246C92.2363-53.5156 92.7734-52.3438 93.6035-51.1719L105.566-35.1562L93.1641-18.2617C92.041-16.7969 91.6992-15.625 91.6992-14.209C91.6992-11.4746 93.9453-9.47266 96.875-9.47266Z"/>
  </g>
  <g id="Medium-M" transform="matrix(1 0 0 1 1664.3 1126)">
   <path d="M80.957 1.36719C82.959 1.36719 84.375 0.244141 84.375-1.70898C84.375-2.58789 84.1797-3.125 83.5449-4.49219C77.9785-13.9648 74.9512-24.0723 74.9512-35.1562C74.9512-45.8984 77.832-56.4453 83.5449-65.918C84.1797-67.2852 84.375-67.8223 84.375-68.7012C84.375-70.5566 82.959-71.7773 80.957-71.7773C78.8574-71.7773 77.1973-70.752 75.293-68.1152C68.3105-59.0332 64.8438-47.6562 64.8438-35.2051C64.8438-22.7051 68.2617-11.5723 75.293-2.29492C77.1484 0.390625 78.8574 1.36719 80.957 1.36719ZM135.938 1.36719C138.037 1.36719 139.746 0.390625 141.602-2.29492C148.682-11.5723 152.051-22.7051 152.051-35.2051C152.051-47.6562 148.535-59.0332 141.602-68.1152C139.746-70.8008 138.037-71.7773 135.938-71.7773C133.936-71.7773 132.52-70.5566 132.52-68.7012C132.52-67.8223 132.715-67.2852 133.35-65.918C139.062-56.4453 141.943-45.8984 141.943-35.1562C141.943-24.0723 138.916-13.9648 133.35-4.49219C132.715-3.125 132.52-2.58789 132.52-1.70898C132.52 0.146484 133.936 1.36719 135.938 1.36719ZM20.0684 1.31836C30.2734 1.31836 35.0098-2.92969 37.4023-14.2578L42.7734-39.9414L51.5137-39.9414C54.541-39.9414 56.5918-41.6016 56.5918-44.4824C56.5918-47.0215 54.8828-48.5352 52.3438-48.5352L44.6289-48.5352L45.8984-54.6875C47.1191-60.5469 48.9258-62.8418 54.0039-62.8418C54.834-62.8418 55.5664-62.8906 56.1523-62.9395C58.8379-63.2812 60.1562-64.6484 60.1562-66.9434C60.1562-70.2148 57.5684-71.7285 52.2461-71.7285C42.1875-71.7285 37.1582-67.0898 34.9121-56.2012L33.3008-48.5352L27.3438-48.5352C24.2676-48.5352 22.2168-46.875 22.2168-44.043C22.2168-41.4551 23.9258-39.9414 26.5137-39.9414L31.4941-39.9414L26.3672-15.7715C25.0977-9.76562 23.2422-7.56836 18.2617-7.56836C17.627-7.56836 16.9434-7.56836 16.4551-7.51953C13.8184-7.12891 12.4512-5.61523 12.4512-3.41797C12.4512-0.195312 15.0391 1.31836 20.0684 1.31836ZM92.8711-10.5957C94.7754-10.5957 95.9961-11.2305 97.5098-13.4766L108.057-28.6621L108.252-28.6621L119.043-13.1836C120.508-11.1816 121.729-10.5957 123.389-10.5957C126.27-10.5957 128.223-12.5 128.223-15.1367C128.223-16.2598 127.881-17.2852 127.1-18.3594L114.697-35.2539L127.002-51.709C127.881-52.8809 128.271-53.9062 128.271-55.1758C128.271-57.8125 126.221-59.5703 123.633-59.5703C121.533-59.5703 120.361-58.5449 119.092-56.6406L109.033-41.748L108.789-41.748L98.6328-56.6895C97.3633-58.6426 96.0938-59.5703 93.7988-59.5703C91.0156-59.5703 88.916-57.4707 88.916-54.9316C88.916-53.3691 89.4043-52.3438 90.1855-51.3184L102.1-35.3516L89.5996-18.2129C88.623-16.9922 88.3789-15.9668 88.3789-14.7461C88.3789-12.3535 90.3809-10.5957 92.8711-10.5957Z"/>
  </g>
  <g id="Regular-M" transform="matrix(1 0 0 1 1372.23 1126)">
   <path d="M77.3926 0.878906C79.0527 0.878906 80.2246-0.0488281 80.2246-1.70898C80.2246-2.44141 80.0781-2.83203 79.541-3.85742C73.584-13.0859 70.166-23.6816 70.166-35.1562C70.166-46.2402 73.3887-57.3242 79.541-66.6016C80.0781-67.627 80.2246-68.0176 80.2246-68.75C80.2246-70.3125 79.0527-71.3379 77.3926-71.3379C75.7812-71.3379 74.5117-70.6055 72.9492-68.457C65.5762-59.1309 61.9141-47.5098 61.9141-35.2051C61.9141-22.9004 65.4785-11.6211 72.9492-2.00195C74.5117 0.146484 75.7812 0.878906 77.3926 0.878906ZM127.295 0.878906C128.906 0.878906 130.176 0.146484 131.738-2.00195C139.209-11.6211 142.773-22.9004 142.773-35.2051C142.773-47.5098 139.111-59.1309 131.738-68.457C130.176-70.6055 128.906-71.3379 127.295-71.3379C125.635-71.3379 124.463-70.3125 124.463-68.75C124.463-68.0176 124.609-67.627 125.146-66.6016C131.299-57.3242 134.521-46.2402 134.521-35.1562C134.521-23.6816 131.104-13.0859 125.146-3.85742C124.609-2.83203 124.463-2.44141 124.463-1.70898C124.463-0.146484 125.635 0.878906 127.295 0.878906ZM19.043 0.78125C28.6133 0.78125 33.0078-3.32031 35.3516-14.3066L40.918-41.0156L49.7559-41.0156C52.5879-41.0156 54.3945-42.5293 54.3945-44.9707C54.3945-47.0703 53.0273-48.3887 50.7812-48.3887L42.4805-48.3887L43.8477-55.0293C45.166-61.2305 47.1191-63.7695 52.4902-63.7695C53.3203-63.7695 54.1016-63.8184 54.6387-63.8672C57.0312-64.1113 58.1543-65.2344 58.1543-67.334C58.1543-70.0684 55.8594-71.2891 51.1719-71.2891C41.8457-71.2891 37.0605-66.6504 34.8633-56.2012L33.252-48.3887L27.1973-48.3887C24.3164-48.3887 22.5098-46.875 22.5098-44.4336C22.5098-42.334 23.877-41.0156 26.1719-41.0156L31.6895-41.0156L26.3184-15.4785C24.9512-9.08203 22.9492-6.73828 17.7246-6.73828C17.041-6.73828 16.3574-6.68945 15.918-6.64062C13.6719-6.34766 12.4512-5.12695 12.4512-3.07617C12.4512-0.439453 14.6973 0.78125 19.043 0.78125ZM87.6465-12.0605C89.209-12.0605 90.332-12.5977 91.5527-14.3555L102.246-29.5898L102.441-29.5898L113.379-14.1113C114.6-12.4023 115.771-12.0605 116.943-12.0605C119.287-12.0605 120.801-13.7207 120.801-15.7227C120.801-16.6504 120.557-17.5293 119.922-18.3594L107.422-35.3516L119.922-52.0996C120.508-52.9297 120.85-53.8086 120.85-54.834C120.85-56.9336 119.092-58.3984 117.09-58.3984C115.332-58.3984 114.355-57.5195 113.428-56.1035L103.125-41.0156L102.881-41.0156L92.5293-56.1523C91.5527-57.5684 90.4297-58.3984 88.5742-58.3984C86.2793-58.3984 84.5703-56.5918 84.5703-54.6387C84.5703-53.2227 85.0098-52.3438 85.6445-51.5137L97.5586-35.5957L84.9121-18.1641C84.2285-17.2363 84.082-16.4062 84.082-15.4297C84.082-13.5254 85.6934-12.0605 87.6465-12.0605Z"/>
  </g>
  <g id="Light-M" transform="matrix(1 0 0 1 1077.43 1126)">
   <path d="M76.2207 0.976562C77.4414 0.976562 78.3691 0.244141 78.3691-1.02539C78.3691-1.61133 78.2227-1.95312 77.7832-2.7832C71.4355-11.7188 67.3828-22.4121 67.3828-35.1074C67.3828-46.875 71.0449-58.6914 77.832-67.627C78.2227-68.3594 78.3691-68.7012 78.3691-69.3359C78.3691-70.5078 77.4414-71.3379 76.2207-71.3379C75-71.3379 74.0723-70.752 72.8516-69.1895C65.1367-60.0586 61.1328-48.0957 61.1328-35.1562C61.1328-22.168 64.8926-10.9375 72.8516-1.17188C74.0234 0.390625 75 0.976562 76.2207 0.976562ZM123.877 0.976562C125.098 0.976562 126.074 0.390625 127.246-1.17188C135.205-10.9375 138.965-22.168 138.965-35.1562C138.965-48.0957 134.961-60.0586 127.246-69.1895C126.025-70.752 125.098-71.3379 123.877-71.3379C122.607-71.3379 121.68-70.5078 121.68-69.3359C121.68-68.7012 121.875-68.3594 122.266-67.627C129.053-58.6914 132.715-46.875 132.715-35.1074C132.715-22.4121 128.662-11.7188 122.314-2.7832C121.875-1.95312 121.68-1.61133 121.68-1.02539C121.68 0.195312 122.607 0.976562 123.877 0.976562ZM18.2617 0.78125C27.1484 0.78125 31.1035-3.32031 33.252-13.5742L39.4043-42.6758L49.0723-42.6758C51.1719-42.6758 52.4902-43.7988 52.4902-45.7031C52.4902-47.3145 51.4648-48.3398 49.707-48.3398L40.5762-48.3398L42.1875-56.0059C43.6035-62.793 45.6543-65.4785 51.3672-65.4785C52.2949-65.4785 53.2227-65.4785 53.8086-65.5273C55.6152-65.6738 56.4941-66.5527 56.4941-68.1152C56.4941-70.3125 54.5898-71.2402 50.4395-71.2402C41.6992-71.2402 37.5-66.7969 35.4004-56.8848L33.5938-48.3398L26.2695-48.3398C24.1699-48.3398 22.8027-47.168 22.8027-45.3125C22.8027-43.7012 23.877-42.6758 25.5859-42.6758L32.4219-42.6758L26.4648-14.502C25-7.56836 22.9004-4.98047 17.334-4.98047C16.4551-4.98047 15.625-5.0293 15.1367-4.98047C13.3789-4.78516 12.4512-3.85742 12.4512-2.29492C12.4512-0.195312 14.3066 0.78125 18.2617 0.78125ZM85.2051-12.0117C86.377-12.0117 87.207-12.4023 88.1836-13.7695L100.049-30.957L100.195-30.957L112.256-13.5254C113.184-12.2559 114.014-12.0117 114.99-12.0117C116.797-12.0117 117.969-13.2812 117.969-14.7949C117.969-15.4785 117.773-16.1621 117.285-16.8457L103.955-35.4492L117.188-53.4668C117.725-54.1992 117.969-54.834 117.969-55.6641C117.969-57.2754 116.602-58.3984 115.088-58.3984C113.721-58.3984 112.988-57.7148 112.207-56.543L100.635-39.8438L100.439-39.8438L88.8672-56.5918C88.0859-57.7637 87.2559-58.3984 85.8398-58.3984C84.082-58.3984 82.7637-57.0312 82.7637-55.5176C82.7637-54.4434 83.1055-53.7598 83.6426-53.0273L96.4355-35.6445L83.1055-16.6992C82.5195-15.9668 82.373-15.2832 82.373-14.5996C82.373-13.0859 83.6426-12.0117 85.2051-12.0117Z"/>
  </g>
  <g id="Thin-M" transform="matrix(1 0 0 1 783.229 1126)">
   <path d="M74.6582 1.07422C75.3418 1.07422 75.9277 0.634766 75.9277-0.146484C75.9277-0.537109 75.7812-0.830078 75.4883-1.31836C68.5547-9.81445 63.6719-20.7031 63.6719-35.0586C63.6719-47.7051 67.9199-60.4492 75.5371-68.9941C75.7812-69.3848 75.9277-69.6777 75.9277-70.0684C75.9277-70.8496 75.3418-71.2891 74.6582-71.2891C73.9258-71.2891 73.4375-70.9961 72.7051-70.166C64.502-61.2305 60.0586-48.877 60.0586-35.0586C60.0586-21.2402 64.0625-10.0586 72.7051-0.0976562C73.3887 0.732422 73.9258 1.07422 74.6582 1.07422ZM119.336 1.07422C120.068 1.07422 120.605 0.732422 121.289-0.0976562C129.932-10.0586 133.936-21.2402 133.936-35.0586C133.936-48.877 129.492-61.2305 121.289-70.166C120.557-70.9961 120.068-71.2891 119.336-71.2891C118.652-71.2891 118.066-70.8496 118.066-70.0684C118.066-69.6777 118.213-69.3848 118.457-68.9941C126.025-60.4492 130.322-47.7051 130.322-35.0586C130.322-20.7031 125.391-9.81445 118.506-1.31836C118.213-0.830078 118.066-0.537109 118.066-0.146484C118.066 0.634766 118.652 1.07422 119.336 1.07422ZM17.2363 0.732422C25.1465 0.732422 28.6133-3.32031 30.5664-12.6465L37.3535-44.8242L48.0957-44.8242C49.2676-44.8242 49.9512-45.5078 49.9512-46.6309C49.9512-47.6074 49.3164-48.1934 48.3398-48.1934L38.0859-48.1934L39.9902-57.2754C41.6016-64.8438 43.75-67.7734 49.8047-67.7734C50.9766-67.7734 52.0996-67.6758 52.6855-67.6758C53.7598-67.7734 54.2969-68.3105 54.2969-69.1895C54.2969-70.6543 52.9297-71.1914 49.4141-71.1914C41.5527-71.1914 38.0371-67.041 36.1328-57.8125L34.082-48.1934L25.0977-48.1934C23.9258-48.1934 23.1445-47.5586 23.1445-46.4844C23.1445-45.459 23.8281-44.8242 24.9023-44.8242L33.3984-44.8242L26.6602-13.1836C25.0488-5.61523 22.9004-2.68555 16.8457-2.68555C15.7227-2.68555 14.5996-2.7832 14.0625-2.7832C12.9883-2.68555 12.4512-2.14844 12.4512-1.26953C12.4512 0.146484 13.8184 0.732422 17.2363 0.732422ZM81.9336-11.8652C82.666-11.8652 83.1055-12.1582 83.7402-12.9883L97.1191-32.7148L97.2168-32.7148L110.742-12.793C111.279-12.0605 111.768-11.8652 112.402-11.8652C113.477-11.8652 114.209-12.6465 114.209-13.5742C114.209-13.916 114.111-14.3555 113.77-14.8438L99.4141-35.6445L113.574-55.2734C113.965-55.8594 114.16-56.2012 114.16-56.7383C114.16-57.7148 113.281-58.3984 112.402-58.3984C111.621-58.3984 111.133-58.0078 110.547-57.1289L97.3633-38.2812L97.2168-38.2812L84.082-57.1289C83.4961-57.959 83.0566-58.3984 82.2266-58.3984C81.1523-58.3984 80.3711-57.6172 80.3711-56.6895C80.3711-56.0547 80.6152-55.6152 81.0059-55.127L94.9707-35.6934L80.6641-14.7949C80.2734-14.2578 80.1758-13.8184 80.1758-13.4766C80.1758-12.5488 80.957-11.8652 81.9336-11.8652Z"/>
  </g>
  <g id="Ultralight-M" transform="matrix(1 0 0 1 487.812 1126)">
   <path d="M73.8281 1.12305C74.2676 1.12305 74.6582 0.830078 74.6582 0.292969C74.6582 0 74.5605-0.244141 74.3164-0.537109C67.1387-8.88672 61.7676-19.873 61.7676-35.0098C61.7676-48.1445 66.3574-61.3281 74.3652-69.7266C74.5605-69.873 74.6582-70.1172 74.6582-70.459C74.6582-70.9961 74.2676-71.2891 73.8281-71.2891C73.3398-71.2891 73.1445-71.0938 72.6562-70.6543C64.1602-61.8652 59.5215-49.2676 59.5215-35.0098C59.5215-20.752 63.6719-9.61914 72.6562 0.439453C73.0469 0.878906 73.3398 1.12305 73.8281 1.12305ZM117.041 1.12305C117.529 1.12305 117.822 0.878906 118.213 0.439453C127.197-9.61914 131.348-20.752 131.348-35.0098C131.348-49.2676 126.709-61.8652 118.213-70.6543C117.725-71.0938 117.529-71.2891 117.041-71.2891C116.602-71.2891 116.211-70.9961 116.211-70.459C116.211-70.1172 116.309-69.873 116.504-69.7266C124.512-61.3281 129.102-48.1445 129.102-35.0098C129.102-19.873 123.73-8.88672 116.553-0.537109C116.309-0.244141 116.211 0 116.211 0.292969C116.211 0.830078 116.602 1.12305 117.041 1.12305ZM16.6992 0.683594C24.1699 0.683594 27.2949-3.27148 29.1504-12.1582L36.2793-45.9473L47.6074-45.9473C48.291-45.9473 48.6816-46.3867 48.6816-47.0703C48.6816-47.7539 48.2422-48.1445 47.6074-48.1445L36.7676-48.1445L38.8672-57.959C40.5273-65.8691 42.7734-68.9453 49.0234-68.9453C50.293-68.9453 51.5625-68.7988 52.0996-68.7988C52.832-68.7988 53.1738-69.1895 53.1738-69.7266C53.1738-70.8008 52.0996-71.1426 48.9258-71.1426C41.5039-71.1426 38.3301-67.1875 36.4746-58.3008L34.3262-48.1445L24.5117-48.1445C23.7793-48.1445 23.291-47.7539 23.291-47.0703C23.291-46.3867 23.7793-45.9473 24.5117-45.9473L33.8867-45.9473L26.8066-12.5C25.0977-4.58984 22.8516-1.51367 16.6016-1.51367C15.332-1.51367 14.1113-1.66016 13.5254-1.66016C12.793-1.66016 12.4512-1.26953 12.4512-0.732422C12.4512 0.341797 13.5742 0.683594 16.6992 0.683594ZM80.2246-11.8164C80.7129-11.8164 81.0059-12.0117 81.4453-12.5977L95.6055-33.5938L95.7031-33.5938L110.01-12.4023C110.303-11.9629 110.596-11.8164 111.084-11.8164C111.768-11.8164 112.256-12.3535 112.256-12.9395C112.256-13.1348 112.207-13.4277 111.963-13.8184L97.0703-35.6934L111.719-56.2012C112.061-56.6895 112.207-56.8848 112.207-57.3242C112.207-57.959 111.572-58.3984 110.986-58.3984C110.547-58.3984 110.205-58.1543 109.717-57.4219L95.7031-37.5L95.6055-37.5L81.6406-57.4219C81.1035-58.0566 80.9082-58.3984 80.3711-58.3984C79.6387-58.3984 79.1504-57.9102 79.1504-57.3242C79.1504-56.8848 79.3457-56.5918 79.6387-56.1523L94.2383-35.6934L79.3945-13.8184C79.1016-13.3789 79.0527-13.0859 79.0527-12.8906C79.0527-12.2559 79.5898-11.8164 80.2246-11.8164Z"/>
  </g>
  <g id="Black-S" transform="matrix(1 0 0 1 2852.86 696)">
   <path d="M75.7324-4.83398C78.4668-4.83398 80.4199-6.39648 80.4199-9.0332C80.4199-10.1562 80.1758-11.084 79.3945-13.2812C76.4648-21.4844 75.293-27.9297 75.293-35.1562C75.293-42.2852 76.4648-48.7305 79.3945-56.9336C80.1758-59.1309 80.4199-60.0586 80.4199-61.1816C80.4199-63.8184 78.4668-65.3809 75.7324-65.3809C72.3145-65.3809 69.6777-63.623 67.1387-59.8145C62.9883-53.6133 60.9863-45.5078 60.9863-35.1562C60.9863-24.707 63.0859-16.6504 67.1387-10.4004C69.6289-6.54297 72.3145-4.83398 75.7324-4.83398ZM136.572-4.83398C139.99-4.83398 142.627-6.5918 145.166-10.4004C149.316-16.6016 151.318-24.707 151.318-35.1562C151.318-45.5078 149.219-53.5645 145.166-59.8145C142.676-63.6719 139.99-65.3809 136.572-65.3809C133.838-65.3809 131.885-63.8184 131.885-61.1816C131.885-60.0586 132.129-59.1309 132.91-56.9336C135.84-48.7305 137.012-42.2852 137.012-35.1562C137.012-27.9297 135.84-21.4844 132.91-13.2812C132.129-11.084 131.885-10.1562 131.885-9.0332C131.885-6.39648 133.838-4.83398 136.572-4.83398ZM19.2383-4.83398C29.541-4.83398 34.375-8.44727 36.5234-18.6523L39.9902-35.0586L46.4844-35.0586C49.5117-35.0586 52.002-37.0117 52.002-40.625C52.002-44.1895 49.5117-46.1914 46.4844-46.1914L42.334-46.1914L42.9688-49.2676C43.7012-52.6367 44.7266-53.6621 47.5586-53.6621C48.1934-53.6621 48.7793-53.7109 49.3164-53.8086C52.3438-54.2969 54.1504-56.1035 54.1504-58.8379C54.1504-63.2324 51.0254-65.3809 44.6777-65.3809C34.375-65.3809 29.541-61.7676 27.3926-51.5625L26.2695-46.1914L21.9727-46.1914C18.8477-46.1914 16.4551-44.1895 16.4551-40.625C16.4551-37.0117 18.8477-35.0586 21.9727-35.0586L23.9258-35.0586L20.9473-20.9473C20.2148-17.5781 19.1895-16.5527 16.3574-16.5527C15.8203-16.5527 15.2832-16.5039 14.7949-16.4551C11.3281-15.9668 9.76562-13.8672 9.76562-11.377C9.76562-6.98242 12.8906-4.83398 19.2383-4.83398ZM90.8691-10.8398C93.5547-10.8398 94.9219-11.6699 97.2168-15.1367L104.834-26.8066L105.078-26.8066L113.037-14.7949C114.795-12.1582 116.064-10.8398 119.092-10.8398C123.145-10.8398 126.172-13.2812 126.172-17.4316C126.172-19.0918 125.586-20.459 124.463-22.0215L115.039-34.8145L124.17-46.7773C125.684-48.7793 126.27-50.1465 126.27-52.0508C126.27-55.9082 123.535-58.3496 119.434-58.3496C116.602-58.3496 115.088-57.0801 112.988-53.8086L105.908-42.8223L105.713-42.8223L98.584-53.8574C96.4355-57.1777 94.873-58.3496 91.748-58.3496C87.7441-58.3496 84.7168-55.5664 84.7168-51.8066C84.7168-50.0488 85.2539-48.584 86.2793-47.168L95.752-34.4238L86.3281-22.0703C84.7656-20.0684 84.2285-18.6523 84.2285-16.7969C84.2285-13.2812 87.0117-10.8398 90.8691-10.8398Z"/>
  </g>
  <g id="Heavy-S" transform="matrix(1 0 0 1 2560.59 696)">
   <path d="M72.3145-5.32227C74.7559-5.32227 76.5137-6.73828 76.5137-9.08203C76.5137-10.1074 76.2695-10.8887 75.5859-12.793C72.2656-20.8008 70.8008-27.6855 70.8008-35.1562C70.8008-42.5781 72.2656-49.4629 75.5859-57.4707C76.2695-59.375 76.5137-60.1562 76.5137-61.1816C76.5137-63.5254 74.7559-64.9414 72.3145-64.9414C69.3359-64.9414 67.0898-63.4277 64.7949-60.0586C60.3027-53.6133 58.1543-45.2637 58.1543-35.1562C58.1543-25 60.4004-16.748 64.7949-10.2051C67.041-6.78711 69.3359-5.32227 72.3145-5.32227ZM128.271-5.32227C131.201-5.32227 133.496-6.83594 135.791-10.2051C140.283-16.6992 142.432-25 142.432-35.1562C142.432-45.2637 140.186-53.5645 135.791-60.0586C133.545-63.4766 131.201-64.9414 128.271-64.9414C125.83-64.9414 124.072-63.5254 124.072-61.1816C124.072-60.1562 124.316-59.375 125-57.4707C128.32-49.4629 129.736-42.5781 129.736-35.1562C129.736-27.6855 128.32-20.8008 125-12.793C124.316-10.8887 124.072-10.1074 124.072-9.08203C124.072-6.73828 125.83-5.32227 128.271-5.32227ZM18.3105-5.32227C28.0273-5.32227 32.5684-8.88672 34.668-18.7988L38.2812-35.9863L44.7754-35.9863C47.7051-35.9863 50-37.793 50-41.0645C50-44.2383 47.8027-46.0449 45.0195-46.0449L40.4297-46.0449L41.1133-49.5117C41.8945-53.1738 43.0664-54.3945 46.1914-54.3945C46.7773-54.3945 47.3633-54.4434 47.9004-54.541C50.6836-54.9316 52.2949-56.5918 52.2949-59.1309C52.2949-63.0371 49.4629-64.9414 43.7012-64.9414C34.0332-64.9414 29.3945-61.2793 27.3438-51.5137L26.1719-46.0449L21.9238-46.0449C18.9453-46.0449 16.6992-44.1895 16.6992-40.9668C16.6992-37.7441 18.8477-35.9863 21.6797-35.9863L24.0723-35.9863L20.8496-20.8008C20.0684-17.0898 18.8965-15.8691 15.8203-15.8691C15.2832-15.8691 14.7949-15.8203 14.3555-15.7715C11.2305-15.332 9.76562-13.4766 9.76562-11.1328C9.76562-7.22656 12.5977-5.32227 18.3105-5.32227ZM85.9375-12.3047C88.2812-12.3047 89.5996-13.0859 91.6016-16.0645L99.2676-27.5879L99.4629-27.5879L107.471-15.7715C109.082-13.3789 110.254-12.3047 112.842-12.3047C116.406-12.3047 119.043-14.5508 119.043-18.1152C119.043-19.5801 118.555-20.8008 117.578-22.2168L108.154-34.9121L117.334-47.0215C118.652-48.7305 119.141-49.9512 119.141-51.6113C119.141-54.9805 116.699-57.1777 113.135-57.1777C110.596-57.1777 109.229-56.0059 107.422-53.2227L100.244-42.2363L100.049-42.2363L92.8223-53.2715C91.0156-56.1035 89.5508-57.1777 86.7676-57.1777C83.252-57.1777 80.5664-54.6875 80.5664-51.3672C80.5664-49.7559 81.0547-48.4375 81.9824-47.168L91.3086-34.668L81.8848-22.168C80.5176-20.459 80.0781-19.1895 80.0781-17.5781C80.0781-14.502 82.5684-12.3047 85.9375-12.3047Z"/>
  </g>
  <g id="Bold-S" transform="matrix(1 0 0 1 2268.84 696)">
   <path d="M68.5059-5.9082C70.6055-5.9082 72.1191-7.12891 72.1191-9.13086C72.1191-10.0586 71.9238-10.6934 71.2891-12.2559C67.5781-20.0195 65.8203-27.3438 65.8203-35.1562C65.8203-42.9199 67.5293-50.3418 71.2891-58.1055C71.9238-59.668 72.1191-60.3027 72.1191-61.1816C72.1191-63.1836 70.6055-64.4531 68.5059-64.4531C66.0645-64.4531 64.1602-63.2324 62.1582-60.3516C57.3242-53.5645 54.9316-45.0195 54.9316-35.2051C54.9316-25.293 57.373-16.8457 62.1582-10.0098C64.1113-7.08008 66.0645-5.9082 68.5059-5.9082ZM118.994-5.9082C121.387-5.9082 123.291-7.12891 125.293-10.0098C130.176-16.7969 132.52-25.293 132.52-35.2051C132.52-45.0195 130.078-53.5156 125.293-60.3516C123.34-63.2812 121.387-64.4531 118.994-64.4531C116.846-64.4531 115.381-63.1836 115.381-61.1816C115.381-60.3027 115.576-59.668 116.162-58.1055C119.922-50.3418 121.631-42.9199 121.631-35.1562C121.631-27.3438 119.873-20.0195 116.162-12.2559C115.576-10.6934 115.381-10.0586 115.381-9.13086C115.381-7.12891 116.846-5.9082 118.994-5.9082ZM17.2852-5.9082C26.3672-5.9082 30.5664-9.32617 32.6172-18.8965L36.4258-37.0117L42.9199-37.0117C45.7031-37.0117 47.7539-38.6719 47.7539-41.6016C47.7539-44.2871 45.8984-45.8984 43.4082-45.8984L38.2812-45.8984L39.0625-49.7559C39.9414-53.7109 41.1621-55.2246 44.6289-55.2246C45.2148-55.2246 45.8008-55.2734 46.2891-55.3223C48.877-55.7129 50.2441-57.1289 50.2441-59.4238C50.2441-62.793 47.7051-64.4531 42.5781-64.4531C33.5938-64.4531 29.1992-60.7422 27.2461-51.4648L26.0742-45.8984L21.875-45.8984C18.9941-45.8984 16.9922-44.1895 16.9922-41.3086C16.9922-38.5742 18.7988-37.0117 21.3867-37.0117L24.2188-37.0117L20.752-20.6055C19.873-16.5527 18.6035-15.1367 15.1855-15.1367C14.7461-15.1367 14.2578-15.0879 13.8184-15.0391C11.084-14.6973 9.76562-13.0371 9.76562-10.8887C9.76562-7.56836 12.3047-5.9082 17.2852-5.9082ZM80.3711-13.9648C82.4219-13.9648 83.5938-14.6484 85.3027-17.1387L93.0176-28.5156L93.2129-28.5156L101.221-16.8945C102.637-14.7949 103.809-13.9648 105.811-13.9648C108.936-13.9648 111.084-15.918 111.084-18.9453C111.084-20.166 110.693-21.2402 109.863-22.4121L100.439-35.0586L109.717-47.2656C110.742-48.6328 111.182-49.707 111.182-51.123C111.182-54.0039 109.033-55.8594 106.104-55.8594C103.857-55.8594 102.686-54.834 101.221-52.5879L93.9453-41.6016L93.75-41.6016L86.4258-52.6367C84.9121-54.9316 83.6426-55.8594 81.25-55.8594C78.2227-55.8594 75.9277-53.6621 75.9277-50.8789C75.9277-49.3652 76.416-48.291 77.1973-47.168L86.377-34.9609L76.9043-22.3145C75.7812-20.8984 75.4395-19.8242 75.4395-18.457C75.4395-15.8691 77.5879-13.9648 80.3711-13.9648Z"/>
  </g>
  <g id="Semibold-S" transform="matrix(1 0 0 1 1975.54 696)">
   <path d="M65.8691-6.29883C67.7246-6.29883 69.0918-7.37305 69.0918-9.17969C69.0918-10.0098 68.8965-10.5469 68.3105-11.8652C64.3555-19.4824 62.3535-27.1484 62.3535-35.2051C62.3535-43.1641 64.3066-50.8789 68.3105-58.5449C68.8965-59.8633 69.0918-60.4004 69.0918-61.2305C69.0918-62.9883 67.7246-64.1113 65.8691-64.1113C63.7695-64.1113 62.1582-63.0859 60.3516-60.5469C55.2246-53.5645 52.7344-44.873 52.7344-35.2051C52.7344-25.5371 55.2734-16.8945 60.3516-9.86328C62.1094-7.27539 63.7695-6.29883 65.8691-6.29883ZM112.549-6.29883C114.648-6.29883 116.26-7.27539 118.066-9.86328C123.193-16.8945 125.684-25.5371 125.684-35.2051C125.684-44.873 123.145-53.5156 118.066-60.5469C116.309-63.1348 114.648-64.1113 112.549-64.1113C110.693-64.1113 109.326-62.9883 109.326-61.2305C109.326-60.4004 109.521-59.8633 110.107-58.5449C114.111-50.8789 116.064-43.1641 116.064-35.2051C116.064-27.1484 114.062-19.4824 110.107-11.8652C109.521-10.5469 109.326-10.0098 109.326-9.17969C109.326-7.42188 110.693-6.29883 112.549-6.29883ZM16.5527-6.29883C25.1953-6.29883 29.1992-9.66797 31.2012-18.9941L35.1074-37.7441L41.6016-37.7441C44.3359-37.7441 46.2402-39.2578 46.2402-41.9434C46.2402-44.3359 44.6289-45.8008 42.2852-45.8008L36.8164-45.8008L37.6465-49.9512C38.5254-54.1504 39.8926-55.7617 43.5547-55.7617C44.1406-55.7617 44.6777-55.8105 45.166-55.8594C47.6074-56.2012 48.8281-57.4707 48.8281-59.6191C48.8281-62.6465 46.4844-64.1113 41.7969-64.1113C33.3496-64.1113 29.0527-60.4004 27.1973-51.416L26.0254-45.8008L21.8262-45.8008C19.043-45.8008 17.1875-44.2383 17.1875-41.6016C17.1875-39.1602 18.7988-37.7441 21.1426-37.7441L24.3164-37.7441L20.6543-20.459C19.7754-16.1621 18.4082-14.6484 14.7949-14.6484C14.3066-14.6484 13.8672-14.5996 13.4766-14.5508C10.9863-14.209 9.76562-12.7441 9.76562-10.7422C9.76562-7.76367 12.0605-6.29883 16.5527-6.29883ZM76.5625-15.1367C78.3691-15.1367 79.4922-15.7227 80.957-17.8711L88.7207-29.1016L88.8672-29.1016L96.9238-17.627C98.2422-15.7227 99.3164-15.1367 101.025-15.1367C103.711-15.1367 105.615-16.8945 105.615-19.4824C105.615-20.5566 105.273-21.5332 104.541-22.5098L95.1172-35.1074L104.443-47.4609C105.322-48.584 105.664-49.5605 105.664-50.7812C105.664-53.2715 103.76-54.9316 101.221-54.9316C99.2676-54.9316 98.1445-54.0039 96.9238-52.1484L89.5996-41.1133L89.4043-41.1133L81.9824-52.1973C80.7617-54.1016 79.541-54.9316 77.3926-54.9316C74.7559-54.9316 72.7539-52.9785 72.7539-50.5859C72.7539-49.1699 73.1445-48.1445 73.877-47.2168L82.959-35.1562L73.4375-22.4121C72.5098-21.2402 72.2656-20.2637 72.2656-19.0918C72.2656-16.7969 74.1211-15.1367 76.5625-15.1367Z"/>
  </g>
  <g id="Medium-S" transform="matrix(1 0 0 1 1681.42 696)">
   <path d="M63.8672-6.5918C65.5762-6.5918 66.748-7.56836 66.748-9.22852C66.748-9.96094 66.6016-10.4004 66.0645-11.5723C61.9141-19.0918 59.7656-27.002 59.7656-35.2051C59.7656-43.3105 61.8164-51.3184 66.0645-58.8867C66.6016-60.0098 66.748-60.4492 66.748-61.2305C66.748-62.793 65.5762-63.8672 63.8672-63.8672C62.0605-63.8672 60.5957-62.9883 58.9844-60.6934C53.6621-53.5156 51.0742-44.7266 51.0742-35.2051C51.0742-25.6836 53.6621-16.9434 58.9844-9.7168C60.5957-7.42188 62.0605-6.5918 63.8672-6.5918ZM107.715-6.5918C109.521-6.5918 110.938-7.42188 112.549-9.7168C117.92-16.9434 120.508-25.6836 120.508-35.2051C120.508-44.7266 117.871-53.5156 112.549-60.6934C110.938-62.9883 109.521-63.8672 107.715-63.8672C106.006-63.8672 104.785-62.793 104.785-61.2305C104.785-60.4492 104.932-60.0098 105.469-58.8867C109.717-51.3184 111.816-43.3105 111.816-35.2051C111.816-27.002 109.668-19.0918 105.469-11.5723C104.932-10.4004 104.785-9.96094 104.785-9.22852C104.785-7.61719 106.006-6.5918 107.715-6.5918ZM16.0156-6.5918C24.3164-6.5918 28.1738-9.91211 30.0781-19.0918L34.1309-38.2812L40.625-38.2812C43.2617-38.2812 45.0684-39.7461 45.0684-42.1875C45.0684-44.3848 43.6035-45.7031 41.4062-45.7031L35.6934-45.7031L36.5723-50.0488C37.5-54.4434 38.916-56.2012 42.7734-56.2012C43.3594-56.2012 43.8477-56.25 44.3359-56.2988C46.6309-56.5918 47.7539-57.7637 47.7539-59.7656C47.7539-62.5488 45.5566-63.8672 41.2109-63.8672C33.1055-63.8672 28.9551-60.1074 27.1484-51.3672L25.9766-45.7031L21.7773-45.7031C19.0918-45.7031 17.334-44.2383 17.334-41.7969C17.334-39.5996 18.75-38.2812 20.9961-38.2812L24.3652-38.2812L20.6055-20.3613C19.6777-15.8691 18.2129-14.2578 14.4531-14.2578C14.0137-14.2578 13.5742-14.209 13.2324-14.1602C10.9375-13.8672 9.76562-12.5488 9.76562-10.5957C9.76562-7.91016 11.9141-6.5918 16.0156-6.5918ZM73.6816-16.0156C75.293-16.0156 76.3672-16.5527 77.6367-18.4082L85.4492-29.5898L85.5957-29.5898L93.6523-18.2129C94.873-16.4551 95.9473-16.0156 97.3633-16.0156C99.8047-16.0156 101.465-17.627 101.465-19.873C101.465-20.8496 101.172-21.7285 100.488-22.6074L91.1133-35.2051L100.488-47.6074C101.172-48.5352 101.514-49.4141 101.514-50.5371C101.514-52.7344 99.7559-54.248 97.5586-54.248C95.752-54.248 94.7266-53.3691 93.7012-51.8066L86.2793-40.7715L86.084-40.7715L78.6133-51.8555C77.5879-53.4668 76.4648-54.248 74.5117-54.248C72.1191-54.248 70.3125-52.4414 70.3125-50.3418C70.3125-48.9746 70.7031-48.0957 71.3867-47.2168L80.3711-35.3027L70.8496-22.5098C70.0684-21.4844 69.8242-20.6055 69.8242-19.5312C69.8242-17.5293 71.5332-16.0156 73.6816-16.0156Z"/>
  </g>
  <g id="Regular-S" transform="matrix(1 0 0 1 1388.1 696)">
   <path d="M61.2305-6.98242C62.7441-6.98242 63.7695-7.8125 63.7695-9.27734C63.7695-9.91211 63.623-10.2539 63.1348-11.1816C58.6914-18.6035 56.3477-26.8066 56.3477-35.2051C56.3477-43.5547 58.6426-51.9043 63.1836-59.2773C63.623-60.2051 63.7695-60.5469 63.7695-61.2305C63.7695-62.5977 62.7441-63.5254 61.2305-63.5254C59.7656-63.5254 58.6426-62.8906 57.2266-60.8887C51.6113-53.5156 48.877-44.5801 48.877-35.2539C48.877-25.9277 51.6113-17.041 57.2266-9.57031C58.5938-7.61719 59.7656-6.98242 61.2305-6.98242ZM101.367-6.98242C102.832-6.98242 104.004-7.61719 105.42-9.57031C110.986-17.041 113.721-25.9277 113.721-35.2539C113.721-44.5801 110.986-53.5156 105.42-60.8887C104.004-62.8906 102.832-63.5254 101.367-63.5254C99.8535-63.5254 98.8281-62.5977 98.8281-61.2305C98.8281-60.5469 98.9746-60.2051 99.4629-59.2773C104.004-51.9043 106.25-43.5547 106.25-35.2051C106.25-26.8066 103.906-18.6035 99.4629-11.1816C98.9746-10.2539 98.8281-9.91211 98.8281-9.27734C98.8281-7.91016 99.8535-6.98242 101.367-6.98242ZM15.332-6.98242C23.1445-6.98242 26.8066-10.2539 28.6621-19.1895L32.8125-38.9648L39.3555-38.9648C41.8945-38.9648 43.5547-40.332 43.5547-42.5293C43.5547-44.4336 42.334-45.6055 40.332-45.6055L34.2285-45.6055L35.2051-50.2441C36.1328-54.834 37.5977-56.7383 41.6992-56.7383C42.2852-56.7383 42.7734-56.7871 43.2129-56.8359C45.4102-57.0801 46.3867-58.1055 46.3867-60.0098C46.3867-62.4023 44.3848-63.5254 40.4785-63.5254C32.8613-63.5254 28.8086-59.7656 27.0996-51.3184L25.8789-45.6055L21.7285-45.6055C19.1406-45.6055 17.5293-44.2383 17.5293-42.041C17.5293-40.1367 18.75-38.9648 20.752-38.9648L24.4629-38.9648L20.5566-20.2637C19.5312-15.4785 18.0176-13.7207 14.0625-13.7207C13.623-13.7207 13.2324-13.7207 12.8418-13.6719C10.8398-13.3789 9.76562-12.2559 9.76562-10.4492C9.76562-8.10547 11.7188-6.98242 15.332-6.98242ZM69.873-17.1387C71.2891-17.1387 72.2656-17.5781 73.3398-19.1406L81.2012-30.1758L81.3477-30.1758L89.3555-18.9453C90.4785-17.4316 91.5527-17.1387 92.5781-17.1387C94.6777-17.1387 96.0449-18.6035 96.0449-20.4102C96.0449-21.2402 95.8008-22.0215 95.2637-22.7539L85.8398-35.2539L95.2637-47.7539C95.8008-48.4863 96.0938-49.2676 96.0938-50.1953C96.0938-52.0508 94.5312-53.3691 92.7734-53.3691C91.1621-53.3691 90.2832-52.5879 89.4531-51.3672L81.9824-40.332L81.7871-40.332L74.2188-51.416C73.4375-52.6855 72.4121-53.3691 70.7031-53.3691C68.7012-53.3691 67.1387-51.7578 67.1387-50C67.1387-48.7305 67.5293-47.9492 68.1152-47.2168L76.9531-35.498L67.4316-22.5586C66.8457-21.7773 66.6992-20.9961 66.6992-20.1172C66.6992-18.457 68.1641-17.1387 69.873-17.1387Z"/>
  </g>
  <g id="Light-S" transform="matrix(1 0 0 1 1093.07 696)">
   <path d="M60.2051-6.88477C61.3281-6.88477 62.1094-7.56836 62.1094-8.69141C62.1094-9.22852 62.0117-9.52148 61.6211-10.2051C56.7871-17.334 53.8574-25.6836 53.8574-35.1562C53.8574-44.0918 56.543-53.0762 61.6211-60.2051C62.0117-60.8887 62.1094-61.1816 62.1094-61.7188C62.1094-62.793 61.3281-63.5254 60.2051-63.5254C59.082-63.5254 58.2031-63.0371 57.1289-61.5723C51.2207-54.2969 48.1934-45.0684 48.1934-35.2051C48.1934-25.293 51.0742-16.4551 57.1289-8.88672C58.2031-7.42188 59.082-6.88477 60.2051-6.88477ZM98.3398-6.88477C99.4629-6.88477 100.342-7.42188 101.416-8.88672C107.471-16.4551 110.352-25.293 110.352-35.2051C110.352-45.0684 107.324-54.2969 101.416-61.5723C100.342-63.0371 99.4629-63.5254 98.3398-63.5254C97.2168-63.5254 96.3867-62.793 96.3867-61.7188C96.3867-61.1816 96.5332-60.8887 96.9238-60.2051C102.002-53.0762 104.688-44.0918 104.688-35.1562C104.688-25.6836 101.758-17.334 96.9238-10.2051C96.5332-9.52148 96.3867-9.22852 96.3867-8.69141C96.3867-7.61719 97.2168-6.88477 98.3398-6.88477ZM14.5996-7.03125C21.8262-7.03125 25.0977-10.2539 26.8555-18.5547L31.4453-40.4297L38.7207-40.4297C40.625-40.4297 41.8457-41.4551 41.8457-43.1641C41.8457-44.6289 40.918-45.5078 39.3555-45.5078L32.5195-45.5078L33.6914-51.123C34.7656-56.2012 36.3281-58.3008 40.6738-58.3008C41.3574-58.3008 42.041-58.3008 42.4805-58.3008C44.1406-58.4961 44.9219-59.2773 44.9219-60.6934C44.9219-62.5977 43.2617-63.4766 39.7949-63.4766C32.7637-63.4766 29.1992-59.9121 27.5391-51.9531L26.2207-45.5078L20.9473-45.5078C18.9941-45.5078 17.7734-44.4824 17.7734-42.8223C17.7734-41.3574 18.7012-40.4297 20.2637-40.4297L25.1465-40.4297L20.7031-19.3848C19.5801-14.1602 17.9688-12.207 13.7207-12.207C13.1348-12.207 12.5488-12.207 12.1582-12.1582C10.5957-11.9629 9.76562-11.1328 9.76562-9.7168C9.76562-7.86133 11.377-7.03125 14.5996-7.03125ZM67.6758-17.041C68.7988-17.041 69.5312-17.4316 70.3613-18.6523L79.248-31.3477L79.3457-31.3477L88.3789-18.457C89.209-17.2852 89.9902-17.041 90.8203-17.041C92.4805-17.041 93.5059-18.1641 93.5059-19.5801C93.5059-20.2148 93.3594-20.8008 92.9199-21.4355L82.8125-35.3516L92.8711-48.9746C93.3105-49.6094 93.5547-50.1953 93.5547-50.9277C93.5547-52.3438 92.334-53.3691 90.9668-53.3691C89.7461-53.3691 89.0625-52.7832 88.3789-51.7578L79.7852-39.3066L79.6387-39.3066L71.0449-51.8066C70.3613-52.832 69.5801-53.3691 68.3105-53.3691C66.748-53.3691 65.5762-52.1484 65.5762-50.7812C65.5762-49.8047 65.8691-49.2188 66.3086-48.584L75.9766-35.5469L65.8203-21.2891C65.332-20.6055 65.1855-20.0195 65.1855-19.3848C65.1855-18.0664 66.3574-17.041 67.6758-17.041Z"/>
  </g>
  <g id="Thin-S" transform="matrix(1 0 0 1 798.585 696)">
   <path d="M58.7891-6.78711C59.4238-6.78711 59.9609-7.22656 59.9609-7.91016C59.9609-8.25195 59.8633-8.49609 59.5703-8.93555C54.2969-15.6738 50.5859-24.1699 50.5859-35.1074C50.5859-44.8242 53.8086-54.6387 59.6191-61.4258C59.8633-61.7676 59.9609-62.0117 59.9609-62.3535C59.9609-63.0371 59.4238-63.4766 58.7891-63.4766C58.1055-63.4766 57.666-63.1836 57.0312-62.4023C50.6348-55.3711 47.2656-45.752 47.2656-35.1074C47.2656-24.4629 50.3418-15.6738 57.0312-7.91016C57.6172-7.12891 58.1055-6.78711 58.7891-6.78711ZM94.3848-6.78711C95.0195-6.78711 95.5078-7.12891 96.1426-7.91016C102.783-15.6738 105.908-24.4629 105.908-35.1074C105.908-45.752 102.49-55.3711 96.1426-62.4023C95.5078-63.1836 95.0195-63.4766 94.3848-63.4766C93.7012-63.4766 93.2129-63.0371 93.2129-62.3535C93.2129-62.0117 93.3105-61.7676 93.5547-61.4258C99.3164-54.6387 102.539-44.8242 102.539-35.1074C102.539-24.1699 98.877-15.6738 93.5547-8.93555C93.3105-8.49609 93.2129-8.25195 93.2129-7.91016C93.2129-7.22656 93.7012-6.78711 94.3848-6.78711ZM13.7207-7.03125C20.1172-7.03125 22.9004-10.2051 24.4629-17.7246L29.6387-42.334L37.8906-42.334C38.9648-42.334 39.6484-42.9688 39.6484-43.9453C39.6484-44.873 39.0625-45.4102 38.1348-45.4102L30.3223-45.4102L31.7383-52.2461C32.959-58.0078 34.668-60.3027 39.3555-60.3027C40.1855-60.3027 41.0645-60.2539 41.5039-60.2539C42.4805-60.3027 42.9688-60.791 42.9688-61.6211C42.9688-62.8906 41.7969-63.4277 38.916-63.4277C32.6172-63.4277 29.6875-60.1074 28.1738-52.7344L26.6113-45.4102L19.9219-45.4102C18.7988-45.4102 18.0664-44.8242 18.0664-43.8477C18.0664-42.9199 18.7012-42.334 19.6289-42.334L25.9766-42.334L20.8496-18.2129C19.6289-12.4023 17.9688-10.1562 13.3301-10.1562C12.5-10.1562 11.6699-10.2539 11.2305-10.2051C10.2539-10.1562 9.76562-9.61914 9.76562-8.83789C9.76562-7.56836 10.9375-7.03125 13.7207-7.03125ZM64.7949-16.9434C65.4785-16.9434 65.918-17.1875 66.4551-17.9688L76.6602-32.9102L76.7578-32.9102L87.0605-17.8223C87.5488-17.0898 87.9883-16.9434 88.5742-16.9434C89.5508-16.9434 90.1855-17.6758 90.1855-18.5059C90.1855-18.8477 90.0879-19.2383 89.7949-19.6289L78.7598-35.498L89.6484-50.5859C90.0391-51.0742 90.1855-51.3672 90.1855-51.8555C90.1855-52.7832 89.4043-53.3691 88.5742-53.3691C87.8418-53.3691 87.4512-53.0273 86.9629-52.2461L76.9043-37.9395L76.8066-37.9395L66.7969-52.2949C66.3086-52.9785 65.8691-53.3691 65.0879-53.3691C64.1602-53.3691 63.4277-52.6367 63.4277-51.8066C63.4277-51.2207 63.6719-50.8789 63.9648-50.3906L74.707-35.5469L63.6719-19.5801C63.3301-19.1406 63.2324-18.75 63.2324-18.4082C63.2324-17.5781 63.9648-16.9434 64.7949-16.9434Z"/>
  </g>
  <g id="Ultralight-S" transform="matrix(1 0 0 1 503.022 696)">
   <path d="M58.0566-6.73828C58.4961-6.73828 58.8379-7.03125 58.8379-7.51953C58.8379-7.76367 58.7402-7.95898 58.5449-8.25195C52.9785-14.8438 48.9258-23.4375 48.9258-35.0586C48.9258-45.2148 52.4414-55.4199 58.5938-62.0605C58.7402-62.2559 58.8379-62.4512 58.8379-62.6953C58.8379-63.1836 58.4961-63.4766 58.0566-63.4766C57.6172-63.4766 57.373-63.3301 56.9336-62.8418C50.3418-55.9082 46.7773-46.0938 46.7773-35.0586C46.7773-24.0234 50-15.2832 56.9336-7.42188C57.3242-6.98242 57.6172-6.73828 58.0566-6.73828ZM92.334-6.73828C92.7734-6.73828 93.0664-6.98242 93.457-7.42188C100.391-15.2832 103.613-24.0234 103.613-35.0586C103.613-46.0938 100.049-55.9082 93.457-62.8418C93.0176-63.3301 92.7734-63.4766 92.334-63.4766C91.8945-63.4766 91.5527-63.1836 91.5527-62.6953C91.5527-62.4512 91.6504-62.2559 91.7969-62.0605C97.9492-55.4199 101.465-45.2148 101.465-35.0586C101.465-23.4375 97.4121-14.8438 91.8457-8.25195C91.6504-7.95898 91.5527-7.76367 91.5527-7.51953C91.5527-7.03125 91.8945-6.73828 92.334-6.73828ZM13.2324-7.08008C19.1895-7.08008 21.7285-10.2051 23.2422-17.2852L28.7109-43.3105L37.4512-43.3105C38.0859-43.3105 38.4766-43.7012 38.4766-44.3848C38.4766-44.9707 38.0859-45.3613 37.5-45.3613L29.1504-45.3613L30.7617-52.832C32.0312-58.9844 33.7891-61.3281 38.623-61.3281C39.5996-61.3281 40.5273-61.2305 40.9668-61.2305C41.6504-61.2793 41.9922-61.5723 41.9922-62.1094C41.9922-63.0371 41.0645-63.3789 38.4766-63.3789C32.5195-63.3789 29.9805-60.2051 28.5156-53.1738L26.8555-45.3613L19.3848-45.3613C18.7012-45.3613 18.2129-44.9707 18.2129-44.3848C18.2129-43.7012 18.6523-43.3105 19.3359-43.3105L26.416-43.3105L20.9961-17.627C19.6777-11.4746 17.9199-9.13086 13.0859-9.13086C12.1582-9.13086 11.1816-9.22852 10.7422-9.22852C10.1074-9.17969 9.76562-8.88672 9.76562-8.34961C9.76562-7.42188 10.6934-7.08008 13.2324-7.08008ZM63.3301-16.8945C63.7695-16.8945 64.0625-17.0898 64.4043-17.627L75.293-33.6914L75.3906-33.6914L86.377-17.4805C86.6699-16.9922 86.9629-16.8945 87.4023-16.8945C88.0371-16.8945 88.4766-17.3828 88.4766-17.9688C88.4766-18.1152 88.4277-18.4082 88.1836-18.7012L76.709-35.5957L88.0371-51.416C88.3301-51.8066 88.4277-52.002 88.4277-52.3926C88.4277-52.9785 87.8906-53.3691 87.3535-53.3691C86.9141-53.3691 86.6211-53.125 86.1816-52.5391L75.4395-37.207L75.3418-37.207L64.5996-52.5391C64.209-53.125 63.9648-53.3691 63.4766-53.3691C62.793-53.3691 62.3535-52.9297 62.3535-52.3438C62.3535-52.002 62.5-51.709 62.793-51.3672L74.0234-35.5957L62.5488-18.7012C62.3047-18.3594 62.2559-18.0664 62.2559-17.8711C62.2559-17.2852 62.7441-16.8945 63.3301-16.8945Z"/>
  </g>
 </g>
</svg>
