<?xml version="1.0" encoding="UTF-8"?>
<!--Generator: Apple Native CoreSVG 149-->
<!DOCTYPE svg
PUBLIC "-//W3C//DTD SVG 1.1//EN"
       "http://www.w3.org/Graphics/SVG/1.1/DTD/svg11.dtd">
<svg version="1.1" xmlns="http://www.w3.org/2000/svg" xmlns:xlink="http://www.w3.org/1999/xlink" width="3300" height="2200">
 <!--glyph: "uni100155.medium", point size: 100.000000, font version: "Version 16.0d12e3", template writer version: "8"-->
 <g id="Notes">
  <rect height="2200" id="artboard" style="fill:white;opacity:1" width="3300" x="0" y="0"/>
  <line id="" style="fill:none;stroke:black;opacity:1;stroke-width:0.5;" x1="263" x2="3036" y1="292" y2="292"/>
  <text style="stroke:none;fill:black;font-family:-apple-system,&quot;SF Pro Display&quot;,&quot;SF Pro Text&quot;,Helvetica,sans-serif;font-weight:bold;" transform="matrix(1 0 0 1 263 322)">Weight/Scale Variations</text>
  <text style="stroke:none;fill:black;font-family:-apple-system,&quot;SF Pro Display&quot;,&quot;SF Pro Text&quot;,Helvetica,sans-serif;text-anchor:middle;" transform="matrix(1 0 0 1 559.711 322)">Ultralight</text>
  <text style="stroke:none;fill:black;font-family:-apple-system,&quot;SF Pro Display&quot;,&quot;SF Pro Text&quot;,Helvetica,sans-serif;text-anchor:middle;" transform="matrix(1 0 0 1 856.422 322)">Thin</text>
  <text style="stroke:none;fill:black;font-family:-apple-system,&quot;SF Pro Display&quot;,&quot;SF Pro Text&quot;,Helvetica,sans-serif;text-anchor:middle;" transform="matrix(1 0 0 1 1153.13 322)">Light</text>
  <text style="stroke:none;fill:black;font-family:-apple-system,&quot;SF Pro Display&quot;,&quot;SF Pro Text&quot;,Helvetica,sans-serif;text-anchor:middle;" transform="matrix(1 0 0 1 1449.84 322)">Regular</text>
  <text style="stroke:none;fill:black;font-family:-apple-system,&quot;SF Pro Display&quot;,&quot;SF Pro Text&quot;,Helvetica,sans-serif;text-anchor:middle;" transform="matrix(1 0 0 1 1746.56 322)">Medium</text>
  <text style="stroke:none;fill:black;font-family:-apple-system,&quot;SF Pro Display&quot;,&quot;SF Pro Text&quot;,Helvetica,sans-serif;text-anchor:middle;" transform="matrix(1 0 0 1 2043.27 322)">Semibold</text>
  <text style="stroke:none;fill:black;font-family:-apple-system,&quot;SF Pro Display&quot;,&quot;SF Pro Text&quot;,Helvetica,sans-serif;text-anchor:middle;" transform="matrix(1 0 0 1 2339.98 322)">Bold</text>
  <text style="stroke:none;fill:black;font-family:-apple-system,&quot;SF Pro Display&quot;,&quot;SF Pro Text&quot;,Helvetica,sans-serif;text-anchor:middle;" transform="matrix(1 0 0 1 2636.69 322)">Heavy</text>
  <text style="stroke:none;fill:black;font-family:-apple-system,&quot;SF Pro Display&quot;,&quot;SF Pro Text&quot;,Helvetica,sans-serif;text-anchor:middle;" transform="matrix(1 0 0 1 2933.4 322)">Black</text>
  <line id="" style="fill:none;stroke:black;opacity:1;stroke-width:0.5;" x1="263" x2="3036" y1="1903" y2="1903"/>
  <g id="" transform="matrix(1 0 0 1 263 1933)">
   <path d="M9.24805 0.830078C13.5547 0.830078 17.1387-2.74414 17.1387-7.05078C17.1387-11.3574 13.5449-14.9316 9.23828-14.9316C4.94141-14.9316 1.36719-11.3574 1.36719-7.05078C1.36719-2.74414 4.95117 0.830078 9.24805 0.830078ZM9.24805-0.654297C5.70312-0.654297 2.87109-3.49609 2.87109-7.05078C2.87109-10.6055 5.69336-13.4473 9.23828-13.4473C12.793-13.4473 15.6348-10.6055 15.6445-7.05078C15.6543-3.49609 12.8027-0.654297 9.24805-0.654297ZM9.22852-3.62305C9.69727-3.62305 9.9707-3.93555 9.9707-4.45312L9.9707-6.31836L12.002-6.31836C12.5-6.31836 12.832-6.57227 12.832-7.04102C12.832-7.51953 12.5195-7.7832 12.002-7.7832L9.9707-7.7832L9.9707-9.81445C9.9707-10.332 9.69727-10.6543 9.22852-10.6543C8.75977-10.6543 8.50586-10.3125 8.50586-9.81445L8.50586-7.7832L6.49414-7.7832C5.97656-7.7832 5.64453-7.51953 5.64453-7.04102C5.64453-6.57227 5.99609-6.31836 6.49414-6.31836L8.50586-6.31836L8.50586-4.45312C8.50586-3.95508 8.75977-3.62305 9.22852-3.62305Z"/>
  </g>
  <g id="" transform="matrix(1 0 0 1 281.506 1933)">
   <path d="M11.709 2.91016C17.1582 2.91016 21.6699-1.61133 21.6699-7.05078C21.6699-12.5 17.1484-17.0117 11.6992-17.0117C6.25977-17.0117 1.74805-12.5 1.74805-7.05078C1.74805-1.61133 6.26953 2.91016 11.709 2.91016ZM11.709 1.25C7.09961 1.25 3.41797-2.44141 3.41797-7.05078C3.41797-11.6602 7.08984-15.3516 11.6992-15.3516C16.3086-15.3516 20-11.6602 20.0098-7.05078C20.0195-2.44141 16.3184 1.25 11.709 1.25ZM11.6797-2.66602C12.207-2.66602 12.5098-3.01758 12.5098-3.59375L12.5098-6.23047L15.3223-6.23047C15.8691-6.23047 16.25-6.51367 16.25-7.03125C16.25-7.55859 15.8887-7.86133 15.3223-7.86133L12.5098-7.86133L12.5098-10.6836C12.5098-11.25 12.207-11.6113 11.6797-11.6113C11.1621-11.6113 10.8789-11.2305 10.8789-10.6836L10.8789-7.86133L8.07617-7.86133C7.50977-7.86133 7.13867-7.55859 7.13867-7.03125C7.13867-6.51367 7.5293-6.23047 8.07617-6.23047L10.8789-6.23047L10.8789-3.59375C10.8789-3.03711 11.1621-2.66602 11.6797-2.66602Z"/>
  </g>
  <g id="" transform="matrix(1 0 0 1 304.924 1933)">
   <path d="M14.9707 5.66406C21.9336 5.66406 27.6953-0.0976562 27.6953-7.05078C27.6953-14.0137 21.9238-19.7754 14.9609-19.7754C8.00781-19.7754 2.25586-14.0137 2.25586-7.05078C2.25586-0.0976562 8.01758 5.66406 14.9707 5.66406ZM14.9707 3.84766C8.93555 3.84766 4.08203-1.01562 4.08203-7.05078C4.08203-13.0957 8.92578-17.9492 14.9609-17.9492C21.0059-17.9492 25.8594-13.0957 25.8691-7.05078C25.8789-1.01562 21.0156 3.84766 14.9707 3.84766ZM14.9414-1.38672C15.5176-1.38672 15.8594-1.77734 15.8594-2.38281L15.8594-6.13281L19.7754-6.13281C20.3711-6.13281 20.7812-6.46484 20.7812-7.02148C20.7812-7.59766 20.3906-7.93945 19.7754-7.93945L15.8594-7.93945L15.8594-11.8652C15.8594-12.4805 15.5176-12.8711 14.9414-12.8711C14.375-12.8711 14.0527-12.4609 14.0527-11.8652L14.0527-7.93945L10.1465-7.93945C9.53125-7.93945 9.13086-7.59766 9.13086-7.02148C9.13086-6.46484 9.55078-6.13281 10.1465-6.13281L14.0527-6.13281L14.0527-2.38281C14.0527-1.79688 14.375-1.38672 14.9414-1.38672Z"/>
  </g>
  <text style="stroke:none;fill:black;font-family:-apple-system,&quot;SF Pro Display&quot;,&quot;SF Pro Text&quot;,Helvetica,sans-serif;font-weight:bold;" transform="matrix(1 0 0 1 263 1953)">Design Variations</text>
  <text style="stroke:none;fill:black;font-family:-apple-system,&quot;SF Pro Display&quot;,&quot;SF Pro Text&quot;,Helvetica,sans-serif;" transform="matrix(1 0 0 1 263 1971)">Symbols are supported in up to nine weights and three scales.</text>
  <text style="stroke:none;fill:black;font-family:-apple-system,&quot;SF Pro Display&quot;,&quot;SF Pro Text&quot;,Helvetica,sans-serif;" transform="matrix(1 0 0 1 263 1989)">For optimal layout with text and other symbols, vertically align</text>
  <text style="stroke:none;fill:black;font-family:-apple-system,&quot;SF Pro Display&quot;,&quot;SF Pro Text&quot;,Helvetica,sans-serif;" transform="matrix(1 0 0 1 263 2007)">symbols with the adjacent text.</text>
  <line id="" style="fill:none;stroke:#00AEEF;stroke-width:0.5;opacity:1.0;" x1="776" x2="776" y1="1919" y2="1933"/>
  <g id="" transform="matrix(1 0 0 1 776 1933)">
   <path d="M3.31055 0.126953C3.82812 0.126953 4.08203-0.0683594 4.26758-0.605469L5.52734-4.0625L11.2891-4.0625L12.5488-0.605469C12.7344-0.0683594 12.9883 0.126953 13.4961 0.126953C14.0137 0.126953 14.3457-0.185547 14.3457-0.673828C14.3457-0.839844 14.3164-0.986328 14.2383-1.20117L9.6582-13.3887C9.43359-13.9941 9.0332-14.2871 8.4082-14.2871C7.80273-14.2871 7.39258-13.9941 7.17773-13.3984L2.59766-1.19141C2.51953-0.976562 2.49023-0.830078 2.49023-0.664062C2.49023-0.175781 2.80273 0.126953 3.31055 0.126953ZM6.00586-5.53711L8.37891-12.1094L8.42773-12.1094L10.8008-5.53711Z"/>
  </g>
  <line id="" style="fill:none;stroke:#00AEEF;stroke-width:0.5;opacity:1.0;" x1="792.836" x2="792.836" y1="1919" y2="1933"/>
  <text style="stroke:none;fill:black;font-family:-apple-system,&quot;SF Pro Display&quot;,&quot;SF Pro Text&quot;,Helvetica,sans-serif;font-weight:bold;" transform="matrix(1 0 0 1 776 1953)">Margins</text>
  <text style="stroke:none;fill:black;font-family:-apple-system,&quot;SF Pro Display&quot;,&quot;SF Pro Text&quot;,Helvetica,sans-serif;" transform="matrix(1 0 0 1 776 1971)">Leading and trailing margins on the left and right side of each symbol</text>
  <text style="stroke:none;fill:black;font-family:-apple-system,&quot;SF Pro Display&quot;,&quot;SF Pro Text&quot;,Helvetica,sans-serif;" transform="matrix(1 0 0 1 776 1989)">can be adjusted by modifying the x-location of the margin guidelines.</text>
  <text style="stroke:none;fill:black;font-family:-apple-system,&quot;SF Pro Display&quot;,&quot;SF Pro Text&quot;,Helvetica,sans-serif;" transform="matrix(1 0 0 1 776 2007)">Modifications are automatically applied proportionally to all</text>
  <text style="stroke:none;fill:black;font-family:-apple-system,&quot;SF Pro Display&quot;,&quot;SF Pro Text&quot;,Helvetica,sans-serif;" transform="matrix(1 0 0 1 776 2025)">scales and weights.</text>
  <g id="" transform="matrix(1 0 0 1 1289 1933)">
   <path d="M2.8418 1.86523L4.54102 3.57422C5.40039 4.44336 6.38672 4.38477 7.31445 3.35938L17.4902-7.85156C17.7539-7.76367 18.0273-7.7832 18.3398-7.8418L19.4043-8.03711L20.0684-7.36328L20.0293-6.80664C19.9902-6.30859 20.1172-5.92773 20.6055-5.44922L21.3672-4.70703C21.8457-4.22852 22.4609-4.19922 22.9297-4.66797L25.8398-7.58789C26.3086-8.05664 26.2891-8.65234 25.8105-9.13086L25.0391-9.89258C24.5605-10.3711 24.1895-10.5273 23.7109-10.4883L23.1348-10.4395L22.4902-11.0742L22.7344-12.1973C22.8613-12.7637 22.7051-13.2031 22.1191-13.7891L19.9219-15.9766C16.582-19.2969 12.1484-19.2188 9.25781-16.3281C8.83789-15.918 8.80859-15.3418 9.04297-14.9512C9.27734-14.5898 9.73633-14.3555 10.3809-14.5215C11.8457-14.8633 13.3691-14.9219 14.7949-13.9844L14.209-12.5293C14.0137-12.0508 13.9844-11.6504 14.1113-11.2891L3.04688-0.898438C2.06055 0.0195312 1.98242 0.996094 2.8418 1.86523ZM10.752-15.957C13.1836-17.7344 16.4746-17.4316 18.7012-15.2051L21.1328-12.793C21.3672-12.5586 21.4062-12.373 21.3379-12.0312L21.0156-10.5469L22.5195-9.0625L23.5059-9.12109C23.7598-9.13086 23.8379-9.11133 24.0332-8.91602L24.6094-8.33984L22.168-5.89844L21.5918-6.47461C21.3965-6.66992 21.3672-6.74805 21.377-7.01172L21.4453-7.98828L19.9512-9.47266L18.4277-9.21875C18.1055-9.15039 17.959-9.17969 17.7148-9.41406L15.7129-11.416C15.459-11.6504 15.4297-11.8164 15.5859-12.1875L16.4648-14.2773C14.9023-15.7324 12.8711-16.3574 10.8398-15.7617C10.6836-15.7227 10.625-15.8496 10.752-15.957ZM5.27344 2.30469L4.10156 1.14258C3.63281 0.683594 3.74023 0.341797 4.14062-0.0195312L14.9512-10.1953L16.416-8.71094L6.42578 2.27539C6.07422 2.67578 5.74219 2.77344 5.27344 2.30469Z"/>
  </g>
  <text style="stroke:none;fill:black;font-family:-apple-system,&quot;SF Pro Display&quot;,&quot;SF Pro Text&quot;,Helvetica,sans-serif;font-weight:bold;" transform="matrix(1 0 0 1 1289 1953)">Exporting</text>
  <text style="stroke:none;fill:black;font-family:-apple-system,&quot;SF Pro Display&quot;,&quot;SF Pro Text&quot;,Helvetica,sans-serif;" transform="matrix(1 0 0 1 1289 1971)">Symbols should be outlined when exporting to ensure the</text>
  <text style="stroke:none;fill:black;font-family:-apple-system,&quot;SF Pro Display&quot;,&quot;SF Pro Text&quot;,Helvetica,sans-serif;" transform="matrix(1 0 0 1 1289 1989)">design is preserved when submitting to Xcode.</text>
  <text id="template-version" style="stroke:none;fill:black;font-family:-apple-system,&quot;SF Pro Display&quot;,&quot;SF Pro Text&quot;,Helvetica,sans-serif;text-anchor:end;" transform="matrix(1 0 0 1 3036 1933)">Template v.2.0</text>
  <text style="stroke:none;fill:black;font-family:-apple-system,&quot;SF Pro Display&quot;,&quot;SF Pro Text&quot;,Helvetica,sans-serif;text-anchor:end;" transform="matrix(1 0 0 1 3036 1951)">Requires Xcode 12 or greater</text>
  <text style="stroke:none;fill:black;font-family:-apple-system,&quot;SF Pro Display&quot;,&quot;SF Pro Text&quot;,Helvetica,sans-serif;text-anchor:end;" transform="matrix(1 0 0 1 3036 1969)">Generated from underline</text>
  <text style="stroke:none;fill:black;font-family:-apple-system,&quot;SF Pro Display&quot;,&quot;SF Pro Text&quot;,Helvetica,sans-serif;text-anchor:end;" transform="matrix(1 0 0 1 3036 1987)">Typeset at 100 points</text>
  <text style="stroke:none;fill:black;font-family:-apple-system,&quot;SF Pro Display&quot;,&quot;SF Pro Text&quot;,Helvetica,sans-serif;" transform="matrix(1 0 0 1 263 726)">Small</text>
  <text style="stroke:none;fill:black;font-family:-apple-system,&quot;SF Pro Display&quot;,&quot;SF Pro Text&quot;,Helvetica,sans-serif;" transform="matrix(1 0 0 1 263 1156)">Medium</text>
  <text style="stroke:none;fill:black;font-family:-apple-system,&quot;SF Pro Display&quot;,&quot;SF Pro Text&quot;,Helvetica,sans-serif;" transform="matrix(1 0 0 1 263 1586)">Large</text>
 </g>
 <g id="Guides">
  <g id="H-reference" style="fill:#27AAE1;stroke:none;" transform="matrix(1 0 0 1 339 696)">
   <path d="M0.976562 0L3.66211 0L12.9883-24.4629L45.752-24.4629L55.127 0L57.7637 0L30.6152-70.459L28.125-70.459ZM29.3457-67.1387L29.4434-67.1387L44.873-26.709L13.8672-26.709Z"/>
  </g>
  <line id="Baseline-S" style="fill:none;stroke:#27AAE1;opacity:1;stroke-width:0.5;" x1="263" x2="3036" y1="696" y2="696"/>
  <line id="Capline-S" style="fill:none;stroke:#27AAE1;opacity:1;stroke-width:0.5;" x1="263" x2="3036" y1="625.541" y2="625.541"/>
  <g id="H-reference" style="fill:#27AAE1;stroke:none;" transform="matrix(1 0 0 1 339 1126)">
   <path d="M0.976562 0L3.66211 0L12.9883-24.4629L45.752-24.4629L55.127 0L57.7637 0L30.6152-70.459L28.125-70.459ZM29.3457-67.1387L29.4434-67.1387L44.873-26.709L13.8672-26.709Z"/>
  </g>
  <line id="Baseline-M" style="fill:none;stroke:#27AAE1;opacity:1;stroke-width:0.5;" x1="263" x2="3036" y1="1126" y2="1126"/>
  <line id="Capline-M" style="fill:none;stroke:#27AAE1;opacity:1;stroke-width:0.5;" x1="263" x2="3036" y1="1055.54" y2="1055.54"/>
  <g id="H-reference" style="fill:#27AAE1;stroke:none;" transform="matrix(1 0 0 1 339 1556)">
   <path d="M0.976562 0L3.66211 0L12.9883-24.4629L45.752-24.4629L55.127 0L57.7637 0L30.6152-70.459L28.125-70.459ZM29.3457-67.1387L29.4434-67.1387L44.873-26.709L13.8672-26.709Z"/>
  </g>
  <line id="Baseline-L" style="fill:none;stroke:#27AAE1;opacity:1;stroke-width:0.5;" x1="263" x2="3036" y1="1556" y2="1556"/>
  <line id="Capline-L" style="fill:none;stroke:#27AAE1;opacity:1;stroke-width:0.5;" x1="263" x2="3036" y1="1485.54" y2="1485.54"/>
  <line id="left-margin" style="fill:none;stroke:#00AEEF;stroke-width:0.5;opacity:1.0;" x1="1408.95" x2="1408.95" y1="1030.79" y2="1150.12"/>
  <line id="right-margin" style="fill:none;stroke:#00AEEF;stroke-width:0.5;opacity:1.0;" x1="1490.74" x2="1490.74" y1="1030.79" y2="1150.12"/>
 </g>
 <g id="Symbols">
  <g id="Black-L" transform="matrix(1 0 0 1 2875.44 1556)">
   <path d="M57.959 13.916C83.3008 13.916 99.8535-0.0976562 99.8535-21.4355L99.8535-72.2656C99.8535-79.7852 95.0684-84.1797 87.5488-84.1797C80.0781-84.1797 75.2441-79.7852 75.2441-72.2656L75.2441-24.0234C75.2441-13.0371 69.043-6.49414 57.959-6.49414C46.875-6.49414 40.7227-13.0371 40.7227-24.0234L40.7227-72.2656C40.7227-79.7852 35.8887-84.1797 28.418-84.1797C20.9473-84.1797 16.1133-79.7852 16.1133-72.2656L16.1133-21.4355C16.1133-0.0976562 32.7148 13.916 57.959 13.916ZM23.1445 36.377L92.7734 36.377C96.875 36.377 99.8535 33.5449 99.8535 29.5898C99.8535 25.6348 96.875 22.8027 92.7734 22.8027L23.1445 22.8027C19.0918 22.8027 16.0645 25.6348 16.0645 29.5898C16.0645 33.5449 19.0918 36.377 23.1445 36.377Z"/>
  </g>
  <g id="Heavy-L" transform="matrix(1 0 0 1 2580.1 1556)">
   <path d="M56.5918 13.3301C81.2012 13.3301 97.1191-0.537109 97.1191-21.4844L97.1191-73.3887C97.1191-79.8828 93.0176-83.6426 86.5234-83.6426C80.127-83.6426 76.0254-79.8828 76.0254-73.3887L76.0254-23.6816C76.0254-11.7188 68.9453-4.39453 56.5918-4.39453C44.2383-4.39453 37.2559-11.7188 37.2559-23.6816L37.2559-73.3887C37.2559-79.8828 33.0566-83.6426 26.6602-83.6426C20.2148-83.6426 16.1133-79.8828 16.1133-73.3887L16.1133-21.4844C16.1133-0.537109 32.0312 13.3301 56.5918 13.3301ZM22.2656 34.9121L90.918 34.9121C94.4824 34.9121 97.1191 32.4219 97.1191 28.9551C97.1191 25.4883 94.4824 22.998 90.918 22.998L22.2656 22.998C18.7012 22.998 16.0645 25.4883 16.0645 28.9551C16.0645 32.4219 18.7012 34.9121 22.2656 34.9121Z"/>
  </g>
  <g id="Bold-L" transform="matrix(1 0 0 1 2284.9 1556)">
   <path d="M55.0781 12.6953C78.9062 12.6953 94.0918-1.02539 94.0918-21.582L94.0918-74.6582C94.0918-79.9316 90.6738-83.0566 85.4492-83.0566C80.2246-83.0566 76.8555-79.9316 76.8555-74.6582L76.8555-23.2422C76.8555-10.2539 68.8477-2.00195 55.0781-2.00195C41.3086-2.00195 33.3008-10.2539 33.3008-23.2422L33.3008-74.6582C33.3008-79.9316 29.8828-83.0566 24.6582-83.0566C19.4336-83.0566 16.1133-79.9316 16.1133-74.6582L16.1133-21.582C16.1133-1.02539 31.2988 12.6953 55.0781 12.6953ZM21.2402 33.3008L88.8672 33.3008C91.8457 33.3008 94.0918 31.2012 94.0918 28.2715C94.0918 25.3418 91.8457 23.2422 88.8672 23.2422L21.2402 23.2422C18.3105 23.2422 16.0645 25.3418 16.0645 28.2715C16.0645 31.2012 18.3105 33.3008 21.2402 33.3008Z"/>
  </g>
  <g id="Semibold-L" transform="matrix(1 0 0 1 1989.24 1556)">
   <path d="M54.0039 12.2559C77.2949 12.2559 91.9922-1.31836 91.9922-21.6309L91.9922-75.5371C91.9922-79.9805 89.1113-82.666 84.668-82.666C80.2734-82.666 77.4414-79.9805 77.4414-75.5371L77.4414-22.998C77.4414-9.27734 68.75-0.390625 54.0039-0.390625C39.3066-0.390625 30.6152-9.27734 30.6152-22.998L30.6152-75.5371C30.6152-79.9805 27.7344-82.666 23.291-82.666C18.8965-82.666 16.0645-79.9805 16.0645-75.5371L16.0645-21.6309C16.0645-1.31836 30.7617 12.2559 54.0039 12.2559ZM20.5566 32.1777L87.4512 32.1777C90.0391 32.1777 91.9922 30.3223 91.9922 27.7832C91.9922 25.2441 90.0391 23.3887 87.4512 23.3887L20.5566 23.3887C18.0176 23.3887 16.0645 25.2441 16.0645 27.7832C16.0645 30.3223 18.0176 32.1777 20.5566 32.1777Z"/>
  </g>
  <g id="Medium-L" transform="matrix(1 0 0 1 1693.33 1556)">
   <path d="M53.2227 11.9629C76.0742 11.9629 90.3809-1.61133 90.3809-21.6797L90.3809-76.1719C90.3809-80.0293 87.8906-82.373 84.082-82.373C80.2734-82.373 77.8809-80.0293 77.8809-76.1719L77.8809-22.7539C77.8809-8.49609 68.7012 0.830078 53.2227 0.830078C37.7441 0.830078 28.5645-8.49609 28.5645-22.7539L28.5645-76.1719C28.5645-80.0293 26.0742-82.373 22.2656-82.373C18.5059-82.373 16.0645-80.0293 16.0645-76.1719L16.0645-21.6797C16.0645-1.61133 30.4199 11.9629 53.2227 11.9629ZM20.0195 31.2988L86.377 31.2988C88.6719 31.2988 90.3809 29.6875 90.3809 27.4414C90.3809 25.1953 88.6719 23.5352 86.377 23.5352L20.0195 23.5352C17.8223 23.5352 16.0645 25.1953 16.0645 27.4414C16.0645 29.6875 17.8223 31.2988 20.0195 31.2988Z"/>
  </g>
  <g id="Regular-L" transform="matrix(1 0 0 1 1397.67 1556)">
   <path d="M52.1484 11.5234C74.4629 11.5234 88.2812-1.9043 88.2812-21.7285L88.2812-77.0508C88.2812-80.0781 86.3281-81.9824 83.3496-81.9824C80.3223-81.9824 78.4668-80.0781 78.4668-77.0508L78.4668-22.5098C78.4668-7.51953 68.6523 2.44141 52.1484 2.44141C35.7422 2.44141 25.8789-7.51953 25.8789-22.5098L25.8789-77.0508C25.8789-80.0781 23.9258-81.9824 20.9473-81.9824C17.9199-81.9824 16.0645-80.0781 16.0645-77.0508L16.0645-21.7285C16.0645-1.9043 29.8828 11.5234 52.1484 11.5234ZM19.3848 30.2246L84.9609 30.2246C86.8652 30.2246 88.2812 28.8086 88.2812 26.9531C88.2812 25.0977 86.8652 23.6816 84.9609 23.6816L19.3848 23.6816C17.5293 23.6816 16.0645 25.0977 16.0645 26.9531C16.0645 28.8086 17.5293 30.2246 19.3848 30.2246Z"/>
  </g>
  <g id="Light-L" transform="matrix(1 0 0 1 1101.74 1556)">
   <path d="M51.3672 11.6211C73.1445 11.6211 86.7188-1.5625 86.7188-21.3867L86.7188-78.3691C86.7188-80.6152 85.2539-82.0801 83.0078-82.0801C80.7617-82.0801 79.3457-80.6152 79.3457-78.3691L79.3457-21.9238C79.3457-5.66406 68.75 4.88281 51.3672 4.88281C34.082 4.88281 23.4375-5.66406 23.4375-21.9238L23.4375-78.3691C23.4375-80.6152 21.9238-82.0801 19.7266-82.0801C17.4805-82.0801 16.0645-80.6152 16.0645-78.3691L16.0645-21.3867C16.0645-1.5625 29.6387 11.6211 51.3672 11.6211ZM18.7988 29.4434L84.0332 29.4434C85.5957 29.4434 86.7188 28.3203 86.7188 26.8555C86.7188 25.3418 85.5957 24.2188 84.0332 24.2188L18.7988 24.2188C17.2363 24.2188 16.0645 25.3418 16.0645 26.8555C16.0645 28.3203 17.2363 29.4434 18.7988 29.4434Z"/>
  </g>
  <g id="Thin-L" transform="matrix(1 0 0 1 806.056 1556)">
   <path d="M50.3418 11.8164C71.3867 11.8164 84.668-1.07422 84.668-20.9961L84.668-80.0781C84.668-81.3965 83.8379-82.2266 82.6172-82.2266C81.3477-82.2266 80.5664-81.3965 80.5664-80.0781L80.5664-21.1426C80.5664-3.27148 68.9453 8.05664 50.3418 8.05664C31.8359 8.05664 20.166-3.27148 20.166-21.1426L20.166-80.0781C20.166-81.3965 19.3359-82.2266 18.1152-82.2266C16.8457-82.2266 16.0645-81.3965 16.0645-80.0781L16.0645-20.9961C16.0645-1.07422 29.3457 11.8164 50.3418 11.8164ZM18.0176 28.4668L82.7637 28.4668C83.9844 28.4668 84.668 27.6855 84.668 26.709C84.668 25.6836 83.9844 24.9512 82.7637 24.9512L18.0176 24.9512C16.7969 24.9512 16.0645 25.6836 16.0645 26.709C16.0645 27.6855 16.7969 28.4668 18.0176 28.4668Z"/>
  </g>
  <g id="Ultralight-L" transform="matrix(1 0 0 1 509.882 1556)">
   <path d="M49.8047 11.9141C70.459 11.9141 83.5938-0.830078 83.5938-20.752L83.5938-80.957C83.5938-81.7871 83.1055-82.2754 82.373-82.2754C81.6895-82.2754 81.2012-81.7871 81.2012-80.957L81.2012-20.752C81.2012-2.00195 69.043 9.66797 49.8047 9.66797C30.7129 9.66797 18.457-2.00195 18.457-20.752L18.457-80.957C18.457-81.7871 17.9688-82.2754 17.2852-82.2754C16.5527-82.2754 16.0645-81.7871 16.0645-80.957L16.0645-20.752C16.0645-0.830078 29.1504 11.9141 49.8047 11.9141ZM17.627 27.9297L82.0801 27.9297C83.1543 27.9297 83.5938 27.3926 83.5938 26.6113C83.5938 25.8301 83.1543 25.293 82.0801 25.293L17.627 25.293C16.6016 25.293 16.0645 25.8301 16.0645 26.6113C16.0645 27.3926 16.6016 27.9297 17.627 27.9297Z"/>
  </g>
  <g id="Black-M" transform="matrix(1 0 0 1 2887.06 1126)">
   <path d="M46.3379 3.71094C66.6504 3.71094 80.2246-7.22656 80.2246-24.2676L80.2246-63.1348C80.2246-69.9707 75.8789-73.877 68.9941-73.877C62.207-73.877 57.7637-69.9707 57.7637-63.1348L57.7637-26.7578C57.7637-18.7988 53.7109-14.502 46.3379-14.502C38.9648-14.502 34.9609-18.7988 34.9609-26.7578L34.9609-63.1348C34.9609-69.9707 30.5664-73.877 23.7305-73.877C16.9434-73.877 12.5-69.9707 12.5-63.1348L12.5-24.2676C12.5-7.22656 26.123 3.71094 46.3379 3.71094ZM18.7988 21.8262L73.877 21.8262C77.5879 21.8262 80.2246 19.3359 80.2246 15.7715C80.2246 12.2559 77.5879 9.7168 73.877 9.7168L18.7988 9.7168C15.0879 9.7168 12.4512 12.2559 12.4512 15.7715C12.4512 19.3359 15.0879 21.8262 18.7988 21.8262Z"/>
  </g>
  <g id="Heavy-M" transform="matrix(1 0 0 1 2591.62 1126)">
   <path d="M45.0684 3.02734C64.7461 3.02734 77.6855-7.76367 77.6855-24.4141L77.6855-64.0137C77.6855-69.9219 73.9258-73.291 68.0176-73.291C62.1582-73.291 58.3496-69.9219 58.3496-64.0137L58.3496-26.4648C58.3496-17.8711 53.5645-12.8418 45.0684-12.8418C36.5234-12.8418 31.7871-17.8711 31.7871-26.4648L31.7871-64.0137C31.7871-69.9219 27.9785-73.291 22.1191-73.291C16.2598-73.291 12.5-69.9219 12.5-64.0137L12.5-24.4141C12.5-7.76367 25.4395 3.02734 45.0684 3.02734ZM18.0176 20.459L72.1191 20.459C75.3418 20.459 77.6855 18.2129 77.6855 15.1367C77.6855 12.0605 75.3418 9.81445 72.1191 9.81445L18.0176 9.81445C14.7949 9.81445 12.4512 12.0605 12.4512 15.1367C12.4512 18.2129 14.7949 20.459 18.0176 20.459Z"/>
  </g>
  <g id="Bold-M" transform="matrix(1 0 0 1 2296.35 1126)">
   <path d="M43.6035 2.29492C62.5488 2.29492 74.8047-8.39844 74.8047-24.6094L74.8047-64.9902C74.8047-69.8242 71.6797-72.6562 66.8945-72.6562C62.1094-72.6562 59.0332-69.8242 59.0332-64.9902L59.0332-26.2207C59.0332-16.7969 53.418-10.9375 43.6035-10.9375C33.8379-10.9375 28.2227-16.7969 28.2227-26.2207L28.2227-64.9902C28.2227-69.8242 25.0977-72.6562 20.3125-72.6562C15.5762-72.6562 12.5-69.8242 12.5-64.9902L12.5-24.6094C12.5-8.39844 24.707 2.29492 43.6035 2.29492ZM17.0898 18.8965L70.166 18.8965C72.8027 18.8965 74.8047 16.9922 74.8047 14.4043C74.8047 11.8164 72.8027 9.91211 70.166 9.91211L17.0898 9.91211C14.4531 9.91211 12.4512 11.8164 12.4512 14.4043C12.4512 16.9922 14.4531 18.8965 17.0898 18.8965Z"/>
  </g>
  <g id="Semibold-M" transform="matrix(1 0 0 1 2000.64 1126)">
   <path d="M42.627 1.80664C61.084 1.80664 72.8027-8.83789 72.8027-24.707L72.8027-65.6738C72.8027-69.7754 70.166-72.2168 66.1133-72.2168C62.0605-72.2168 59.4727-69.7754 59.4727-65.6738L59.4727-26.0254C59.4727-16.0645 53.3203-9.66797 42.627-9.66797C31.9336-9.66797 25.7812-16.0645 25.7812-26.0254L25.7812-65.6738C25.7812-69.7754 23.1445-72.2168 19.0918-72.2168C15.0391-72.2168 12.4512-69.7754 12.4512-65.6738L12.4512-24.707C12.4512-8.83789 24.2188 1.80664 42.627 1.80664ZM16.4551 17.7734L68.7988 17.7734C71.0449 17.7734 72.8027 16.1621 72.8027 13.916C72.8027 11.6211 71.0449 10.0098 68.7988 10.0098L16.4551 10.0098C14.209 10.0098 12.4512 11.6211 12.4512 13.916C12.4512 16.1621 14.209 17.7734 16.4551 17.7734Z"/>
  </g>
  <g id="Medium-M" transform="matrix(1 0 0 1 1704.69 1126)">
   <path d="M41.8457 1.41602C59.9609 1.41602 71.2891-9.17969 71.2891-24.8047L71.2891-66.2109C71.2891-69.7266 68.9941-71.875 65.5273-71.875C62.0605-71.875 59.8633-69.7266 59.8633-66.2109L59.8633-25.8789C59.8633-15.5273 53.2227-8.69141 41.8457-8.69141C30.5176-8.69141 23.9258-15.5273 23.9258-25.8789L23.9258-66.2109C23.9258-69.7266 21.6309-71.875 18.1641-71.875C14.6484-71.875 12.4512-69.7266 12.4512-66.2109L12.4512-24.8047C12.4512-9.17969 23.8281 1.41602 41.8457 1.41602ZM15.9668 16.9922L67.7734 16.9922C69.7266 16.9922 71.2891 15.5273 71.2891 13.5254C71.2891 11.5234 69.7266 10.0586 67.7734 10.0586L15.9668 10.0586C14.0137 10.0586 12.4512 11.5234 12.4512 13.5254C12.4512 15.5273 14.0137 16.9922 15.9668 16.9922Z"/>
  </g>
  <g id="Regular-M" transform="matrix(1 0 0 1 1408.95 1126)">
   <path d="M40.8691 0.927734C58.4473 0.927734 69.3359-9.61914 69.3359-24.9512L69.3359-66.8945C69.3359-69.6289 67.5293-71.4355 64.7461-71.4355C62.0117-71.4355 60.3027-69.6289 60.3027-66.8945L60.3027-25.6836C60.3027-14.7949 53.125-7.37305 40.8691-7.37305C28.6621-7.37305 21.4844-14.7949 21.4844-25.6836L21.4844-66.8945C21.4844-69.6289 19.6777-71.4355 16.8945-71.4355C14.1602-71.4355 12.4512-69.6289 12.4512-66.8945L12.4512-24.9512C12.4512-9.61914 23.291 0.927734 40.8691 0.927734ZM15.332 15.918L66.4062 15.918C68.0176 15.918 69.3359 14.6973 69.3359 13.0371C69.3359 11.377 68.0176 10.1074 66.4062 10.1074L15.332 10.1074C13.7695 10.1074 12.4512 11.377 12.4512 13.0371C12.4512 14.6973 13.7695 15.918 15.332 15.918Z"/>
  </g>
  <g id="Light-M" transform="matrix(1 0 0 1 1112.95 1126)">
   <path d="M40.1855 1.02539C57.2754 1.02539 67.9199-9.27734 67.9199-24.6582L67.9199-68.0664C67.9199-70.166 66.5527-71.4844 64.502-71.4844C62.4023-71.4844 61.084-70.166 61.084-68.0664L61.084-25.1465C61.084-13.1348 53.2227-5.22461 40.1855-5.22461C27.1484-5.22461 19.2871-13.1348 19.2871-25.1465L19.2871-68.0664C19.2871-70.166 17.8711-71.4844 15.8203-71.4844C13.7695-71.4844 12.4512-70.166 12.4512-68.0664L12.4512-24.6582C12.4512-9.27734 23.0957 1.02539 40.1855 1.02539ZM14.8438 15.2344L65.5273 15.2344C66.8945 15.2344 67.9199 14.2578 67.9199 12.9395C67.9199 11.5723 66.8945 10.5957 65.5273 10.5957L14.8438 10.5957C13.4766 10.5957 12.4512 11.5723 12.4512 12.9395C12.4512 14.2578 13.4766 15.2344 14.8438 15.2344Z"/>
  </g>
  <g id="Thin-M" transform="matrix(1 0 0 1 817.164 1126)">
   <path d="M39.2578 1.17188C55.7129 1.17188 66.0645-8.83789 66.0645-24.2676L66.0645-69.6289C66.0645-70.8496 65.2832-71.582 64.1113-71.582C62.9395-71.582 62.1582-70.8496 62.1582-69.6289L62.1582-24.4629C62.1582-10.9863 53.3691-2.39258 39.2578-2.39258C25.1465-2.39258 16.3086-10.9863 16.3086-24.4629L16.3086-69.6289C16.3086-70.8496 15.5273-71.582 14.3555-71.582C13.1836-71.582 12.4512-70.8496 12.4512-69.6289L12.4512-24.2676C12.4512-8.83789 22.8027 1.17188 39.2578 1.17188ZM14.1602 14.3555L64.4043 14.3555C65.4297 14.3555 66.0645 13.6719 66.0645 12.793C66.0645 11.9141 65.4297 11.2305 64.4043 11.2305L14.1602 11.2305C13.1348 11.2305 12.4512 11.9141 12.4512 12.793C12.4512 13.6719 13.1348 14.3555 14.1602 14.3555Z"/>
  </g>
  <g id="Ultralight-M" transform="matrix(1 0 0 1 520.942 1126)">
   <path d="M38.7695 1.26953C54.8828 1.26953 65.0879-8.64258 65.0879-24.0723L65.0879-70.4102C65.0879-71.1914 64.6484-71.6797 63.916-71.6797C63.1836-71.6797 62.7441-71.1914 62.7441-70.4102L62.7441-24.1211C62.7441-9.86328 53.4668-0.927734 38.7695-0.927734C24.1699-0.927734 14.8438-9.86328 14.8438-24.1211L14.8438-70.4102C14.8438-71.1914 14.3555-71.6797 13.623-71.6797C12.9395-71.6797 12.4512-71.1914 12.4512-70.4102L12.4512-24.0723C12.4512-8.64258 22.6562 1.26953 38.7695 1.26953ZM13.8184 13.8672L63.8184 13.8672C64.6973 13.8672 65.0879 13.3789 65.0879 12.7441C65.0879 12.0605 64.6973 11.5723 63.8184 11.5723L13.8184 11.5723C12.9395 11.5723 12.4512 12.0605 12.4512 12.7441C12.4512 13.3789 12.9395 13.8672 13.8184 13.8672Z"/>
  </g>
  <g id="Black-S" transform="matrix(1 0 0 1 2897.17 696)">
   <path d="M36.2305-4.78516C52.0996-4.78516 62.6953-13.3301 62.6953-26.6602L62.6953-57.1289C62.6953-62.4512 59.3262-65.4785 54.0039-65.4785C48.7305-65.4785 45.3125-62.4512 45.3125-57.1289L45.3125-28.5645C45.3125-22.3145 42.0898-18.8965 36.2305-18.8965C30.3711-18.8965 27.1973-22.3145 27.1973-28.5645L27.1973-57.1289C27.1973-62.4512 23.7793-65.4785 18.5059-65.4785C13.2324-65.4785 9.81445-62.4512 9.81445-57.1289L9.81445-26.6602C9.81445-13.3301 20.4102-4.78516 36.2305-4.78516ZM14.6973 9.375L57.7637 9.375C60.6445 9.375 62.6953 7.42188 62.6953 4.6875C62.6953 1.95312 60.6445 0 57.7637 0L14.6973 0C11.8164 0 9.76562 1.95312 9.76562 4.6875C9.76562 7.42188 11.8164 9.375 14.6973 9.375Z"/>
  </g>
  <g id="Heavy-S" transform="matrix(1 0 0 1 2601.36 696)">
   <path d="M35.3027-5.32227C50.7324-5.32227 60.8887-13.8184 60.8887-26.8066L60.8887-57.666C60.8887-62.3535 57.9102-65.0391 53.2715-65.0391C48.6328-65.0391 45.6543-62.3535 45.6543-57.666L45.6543-28.418C45.6543-21.7773 41.9434-17.8711 35.3027-17.8711C28.6621-17.8711 25-21.7773 25-28.418L25-57.666C25-62.3535 22.0215-65.0391 17.3828-65.0391C12.793-65.0391 9.81445-62.3535 9.81445-57.666L9.81445-26.8066C9.81445-13.8184 19.9219-5.32227 35.3027-5.32227ZM14.1113 8.39844L56.4941 8.39844C59.0332 8.39844 60.8887 6.64062 60.8887 4.19922C60.8887 1.75781 59.0332 0 56.4941 0L14.1113 0C11.6211 0 9.76562 1.75781 9.76562 4.19922C9.76562 6.64062 11.6211 8.39844 14.1113 8.39844Z"/>
  </g>
  <g id="Bold-S" transform="matrix(1 0 0 1 2305.68 696)">
   <path d="M34.2773-5.85938C49.2676-5.85938 58.8379-14.3066 58.8379-27.002L58.8379-58.3008C58.8379-62.207 56.3477-64.502 52.4414-64.502C48.584-64.502 46.0938-62.207 46.0938-58.3008L46.0938-28.2715C46.0938-21.1426 41.8457-16.6992 34.2773-16.6992C26.8066-16.6992 22.5586-21.1426 22.5586-28.2715L22.5586-58.3008C22.5586-62.207 20.0195-64.502 16.1621-64.502C12.2559-64.502 9.81445-62.207 9.81445-58.3008L9.81445-27.002C9.81445-14.3066 19.3848-5.85938 34.2773-5.85938ZM13.4766 7.27539L55.127 7.27539C57.2266 7.27539 58.8379 5.76172 58.8379 3.66211C58.8379 1.5625 57.2266 0.0488281 55.127 0.0488281L13.4766 0.0488281C11.377 0.0488281 9.76562 1.5625 9.76562 3.66211C9.76562 5.76172 11.377 7.27539 13.4766 7.27539Z"/>
  </g>
  <g id="Semibold-S" transform="matrix(1 0 0 1 2009.65 696)">
   <path d="M33.5938-6.25C48.1934-6.25 57.4707-14.6973 57.4707-27.0996L57.4707-58.7402C57.4707-62.1094 55.2734-64.1602 51.8555-64.1602C48.4863-64.1602 46.3867-62.1094 46.3867-58.7402L46.3867-28.1738C46.3867-20.752 41.748-15.8691 33.5938-15.8691C25.4883-15.8691 20.8496-20.752 20.8496-28.1738L20.8496-58.7402C20.8496-62.1094 18.6523-64.1602 15.2832-64.1602C11.9141-64.1602 9.76562-62.1094 9.76562-58.7402L9.76562-27.0996C9.76562-14.6973 19.043-6.25 33.5938-6.25ZM13.0371 6.49414L54.1504 6.49414C56.0059 6.49414 57.4707 5.12695 57.4707 3.27148C57.4707 1.41602 56.0059 0.0488281 54.1504 0.0488281L13.0371 0.0488281C11.2305 0.0488281 9.76562 1.41602 9.76562 3.27148C9.76562 5.12695 11.2305 6.49414 13.0371 6.49414Z"/>
  </g>
  <g id="Medium-S" transform="matrix(1 0 0 1 1713.47 696)">
   <path d="M33.0566-6.5918C47.4121-6.5918 56.3965-14.9902 56.3965-27.1973L56.3965-59.0332C56.3965-62.0117 54.4434-63.8672 51.4648-63.8672C48.4375-63.8672 46.582-62.0117 46.582-59.0332L46.582-28.0762C46.582-20.4102 41.6504-15.2832 33.0566-15.2832C24.5117-15.2832 19.5801-20.4102 19.5801-28.0762L19.5801-59.0332C19.5801-62.0117 17.627-63.8672 14.6484-63.8672C11.6699-63.8672 9.76562-62.0117 9.76562-59.0332L9.76562-27.1973C9.76562-14.9902 18.75-6.5918 33.0566-6.5918ZM12.6953 5.9082L53.418 5.9082C55.0781 5.9082 56.3965 4.6875 56.3965 2.97852C56.3965 1.31836 55.0781 0.0488281 53.418 0.0488281L12.6953 0.0488281C11.084 0.0488281 9.76562 1.31836 9.76562 2.97852C9.76562 4.6875 11.084 5.9082 12.6953 5.9082Z"/>
  </g>
  <g id="Regular-S" transform="matrix(1 0 0 1 1417.45 696)">
   <path d="M32.373-6.98242C46.3867-6.98242 55.0293-15.332 55.0293-27.2949L55.0293-59.4727C55.0293-61.9629 53.3691-63.5254 50.8789-63.5254C48.3887-63.5254 46.875-61.9629 46.875-59.4727L46.875-27.9785C46.875-20.0195 41.5527-14.4531 32.373-14.4531C23.1934-14.4531 17.9199-20.0195 17.9199-27.9785L17.9199-59.4727C17.9199-61.9629 16.2598-63.5254 13.8184-63.5254C11.3281-63.5254 9.76562-61.9629 9.76562-59.4727L9.76562-27.2949C9.76562-15.332 18.3594-6.98242 32.373-6.98242ZM12.2559 5.17578L52.4414 5.17578C53.8086 5.17578 55.0293 4.10156 55.0293 2.63672C55.0293 1.17188 53.8086 0.0976562 52.4414 0.0976562L12.2559 0.0976562C10.9375 0.0976562 9.76562 1.17188 9.76562 2.63672C9.76562 4.10156 10.9375 5.17578 12.2559 5.17578Z"/>
  </g>
  <g id="Light-S" transform="matrix(1 0 0 1 1121.37 696)">
   <path d="M31.7383-6.88477C45.3613-6.88477 53.7598-15.0391 53.7598-27.0508L53.7598-60.498C53.7598-62.4023 52.5391-63.623 50.6348-63.623C48.7305-63.623 47.5586-62.4023 47.5586-60.498L47.5586-27.5391C47.5586-18.5547 41.6504-12.5488 31.7383-12.5488C21.875-12.5488 15.9668-18.5547 15.9668-27.5391L15.9668-60.498C15.9668-62.4023 14.6973-63.623 12.8418-63.623C10.9375-63.623 9.76562-62.4023 9.76562-60.498L9.76562-27.0508C9.76562-15.0391 18.1641-6.88477 31.7383-6.88477ZM11.8164 4.58984L51.709 4.58984C52.832 4.58984 53.7598 3.71094 53.7598 2.53906C53.7598 1.36719 52.832 0.488281 51.709 0.488281L11.8164 0.488281C10.6934 0.488281 9.76562 1.36719 9.76562 2.53906C9.76562 3.71094 10.6934 4.58984 11.8164 4.58984Z"/>
  </g>
  <g id="Thin-S" transform="matrix(1 0 0 1 825.49 696)">
   <path d="M30.957-6.73828C43.9453-6.73828 52.0996-14.6484 52.0996-26.709L52.0996-61.8652C52.0996-62.9883 51.416-63.7207 50.293-63.7207C49.2188-63.7207 48.5352-62.9883 48.5352-61.8652L48.5352-26.9531C48.5352-16.6504 41.7969-10.0586 30.957-10.0586C20.1172-10.0586 13.3789-16.6504 13.3789-26.9531L13.3789-61.8652C13.3789-62.9883 12.6465-63.7207 11.5723-63.7207C10.4492-63.7207 9.76562-62.9883 9.76562-61.8652L9.76562-26.709C9.76562-14.6484 17.9199-6.73828 30.957-6.73828ZM11.2305 3.75977L50.6836 3.75977C51.5625 3.75977 52.0996 3.22266 52.0996 2.44141C52.0996 1.61133 51.5625 1.07422 50.6836 1.07422L11.2305 1.07422C10.3516 1.07422 9.76562 1.61133 9.76562 2.44141C9.76562 3.22266 10.3516 3.75977 11.2305 3.75977Z"/>
  </g>
  <g id="Ultralight-S" transform="matrix(1 0 0 1 529.194 696)">
   <path d="M30.5176-6.64062C43.2129-6.64062 51.2695-14.4531 51.2695-26.5625L51.2695-62.5977C51.2695-63.3301 50.8301-63.7695 50.1465-63.7695C49.4629-63.7695 49.0234-63.3301 49.0234-62.5977L49.0234-26.6113C49.0234-15.6738 41.8945-8.74023 30.5176-8.74023C19.1895-8.74023 12.0117-15.6738 12.0117-26.6113L12.0117-62.5977C12.0117-63.3301 11.5723-63.7695 10.8887-63.7695C10.2051-63.7695 9.76562-63.3301 9.76562-62.5977L9.76562-26.5625C9.76562-14.4531 17.8223-6.64062 30.5176-6.64062ZM10.8887 3.36914L50.1465 3.36914C50.8789 3.36914 51.2695 2.92969 51.2695 2.34375C51.2695 1.75781 50.8789 1.36719 50.1465 1.36719L10.8887 1.36719C10.2051 1.36719 9.76562 1.75781 9.76562 2.34375C9.76562 2.92969 10.2051 3.36914 10.8887 3.36914Z"/>
  </g>
 </g>
</svg>
