<?xml version="1.0" encoding="UTF-8"?>
<!--Generator: Apple Native CoreSVG 149-->
<!DOCTYPE svg
PUBLIC "-//W3C//DTD SVG 1.1//EN"
       "http://www.w3.org/Graphics/SVG/1.1/DTD/svg11.dtd">
<svg version="1.1" xmlns="http://www.w3.org/2000/svg" xmlns:xlink="http://www.w3.org/1999/xlink" width="3300" height="2200">
 <!--glyph: "uni10074A.medium", point size: 100.000000, font version: "Version 16.0d12e3", template writer version: "8"-->
 <g id="Notes">
  <rect height="2200" id="artboard" style="fill:white;opacity:1" width="3300" x="0" y="0"/>
  <line id="" style="fill:none;stroke:black;opacity:1;stroke-width:0.5;" x1="263" x2="3036" y1="292" y2="292"/>
  <text style="stroke:none;fill:black;font-family:-apple-system,&quot;SF Pro Display&quot;,&quot;SF Pro Text&quot;,Helvetica,sans-serif;font-weight:bold;" transform="matrix(1 0 0 1 263 322)">Weight/Scale Variations</text>
  <text style="stroke:none;fill:black;font-family:-apple-system,&quot;SF Pro Display&quot;,&quot;SF Pro Text&quot;,Helvetica,sans-serif;text-anchor:middle;" transform="matrix(1 0 0 1 559.711 322)">Ultralight</text>
  <text style="stroke:none;fill:black;font-family:-apple-system,&quot;SF Pro Display&quot;,&quot;SF Pro Text&quot;,Helvetica,sans-serif;text-anchor:middle;" transform="matrix(1 0 0 1 856.422 322)">Thin</text>
  <text style="stroke:none;fill:black;font-family:-apple-system,&quot;SF Pro Display&quot;,&quot;SF Pro Text&quot;,Helvetica,sans-serif;text-anchor:middle;" transform="matrix(1 0 0 1 1153.13 322)">Light</text>
  <text style="stroke:none;fill:black;font-family:-apple-system,&quot;SF Pro Display&quot;,&quot;SF Pro Text&quot;,Helvetica,sans-serif;text-anchor:middle;" transform="matrix(1 0 0 1 1449.84 322)">Regular</text>
  <text style="stroke:none;fill:black;font-family:-apple-system,&quot;SF Pro Display&quot;,&quot;SF Pro Text&quot;,Helvetica,sans-serif;text-anchor:middle;" transform="matrix(1 0 0 1 1746.56 322)">Medium</text>
  <text style="stroke:none;fill:black;font-family:-apple-system,&quot;SF Pro Display&quot;,&quot;SF Pro Text&quot;,Helvetica,sans-serif;text-anchor:middle;" transform="matrix(1 0 0 1 2043.27 322)">Semibold</text>
  <text style="stroke:none;fill:black;font-family:-apple-system,&quot;SF Pro Display&quot;,&quot;SF Pro Text&quot;,Helvetica,sans-serif;text-anchor:middle;" transform="matrix(1 0 0 1 2339.98 322)">Bold</text>
  <text style="stroke:none;fill:black;font-family:-apple-system,&quot;SF Pro Display&quot;,&quot;SF Pro Text&quot;,Helvetica,sans-serif;text-anchor:middle;" transform="matrix(1 0 0 1 2636.69 322)">Heavy</text>
  <text style="stroke:none;fill:black;font-family:-apple-system,&quot;SF Pro Display&quot;,&quot;SF Pro Text&quot;,Helvetica,sans-serif;text-anchor:middle;" transform="matrix(1 0 0 1 2933.4 322)">Black</text>
  <line id="" style="fill:none;stroke:black;opacity:1;stroke-width:0.5;" x1="263" x2="3036" y1="1903" y2="1903"/>
  <g id="" transform="matrix(1 0 0 1 263 1933)">
   <path d="M9.24805 0.830078C13.5547 0.830078 17.1387-2.74414 17.1387-7.05078C17.1387-11.3574 13.5449-14.9316 9.23828-14.9316C4.94141-14.9316 1.36719-11.3574 1.36719-7.05078C1.36719-2.74414 4.95117 0.830078 9.24805 0.830078ZM9.24805-0.654297C5.70312-0.654297 2.87109-3.49609 2.87109-7.05078C2.87109-10.6055 5.69336-13.4473 9.23828-13.4473C12.793-13.4473 15.6348-10.6055 15.6445-7.05078C15.6543-3.49609 12.8027-0.654297 9.24805-0.654297ZM9.22852-3.62305C9.69727-3.62305 9.9707-3.93555 9.9707-4.45312L9.9707-6.31836L12.002-6.31836C12.5-6.31836 12.832-6.57227 12.832-7.04102C12.832-7.51953 12.5195-7.7832 12.002-7.7832L9.9707-7.7832L9.9707-9.81445C9.9707-10.332 9.69727-10.6543 9.22852-10.6543C8.75977-10.6543 8.50586-10.3125 8.50586-9.81445L8.50586-7.7832L6.49414-7.7832C5.97656-7.7832 5.64453-7.51953 5.64453-7.04102C5.64453-6.57227 5.99609-6.31836 6.49414-6.31836L8.50586-6.31836L8.50586-4.45312C8.50586-3.95508 8.75977-3.62305 9.22852-3.62305Z"/>
  </g>
  <g id="" transform="matrix(1 0 0 1 281.506 1933)">
   <path d="M11.709 2.91016C17.1582 2.91016 21.6699-1.61133 21.6699-7.05078C21.6699-12.5 17.1484-17.0117 11.6992-17.0117C6.25977-17.0117 1.74805-12.5 1.74805-7.05078C1.74805-1.61133 6.26953 2.91016 11.709 2.91016ZM11.709 1.25C7.09961 1.25 3.41797-2.44141 3.41797-7.05078C3.41797-11.6602 7.08984-15.3516 11.6992-15.3516C16.3086-15.3516 20-11.6602 20.0098-7.05078C20.0195-2.44141 16.3184 1.25 11.709 1.25ZM11.6797-2.66602C12.207-2.66602 12.5098-3.01758 12.5098-3.59375L12.5098-6.23047L15.3223-6.23047C15.8691-6.23047 16.25-6.51367 16.25-7.03125C16.25-7.55859 15.8887-7.86133 15.3223-7.86133L12.5098-7.86133L12.5098-10.6836C12.5098-11.25 12.207-11.6113 11.6797-11.6113C11.1621-11.6113 10.8789-11.2305 10.8789-10.6836L10.8789-7.86133L8.07617-7.86133C7.50977-7.86133 7.13867-7.55859 7.13867-7.03125C7.13867-6.51367 7.5293-6.23047 8.07617-6.23047L10.8789-6.23047L10.8789-3.59375C10.8789-3.03711 11.1621-2.66602 11.6797-2.66602Z"/>
  </g>
  <g id="" transform="matrix(1 0 0 1 304.924 1933)">
   <path d="M14.9707 5.66406C21.9336 5.66406 27.6953-0.0976562 27.6953-7.05078C27.6953-14.0137 21.9238-19.7754 14.9609-19.7754C8.00781-19.7754 2.25586-14.0137 2.25586-7.05078C2.25586-0.0976562 8.01758 5.66406 14.9707 5.66406ZM14.9707 3.84766C8.93555 3.84766 4.08203-1.01562 4.08203-7.05078C4.08203-13.0957 8.92578-17.9492 14.9609-17.9492C21.0059-17.9492 25.8594-13.0957 25.8691-7.05078C25.8789-1.01562 21.0156 3.84766 14.9707 3.84766ZM14.9414-1.38672C15.5176-1.38672 15.8594-1.77734 15.8594-2.38281L15.8594-6.13281L19.7754-6.13281C20.3711-6.13281 20.7812-6.46484 20.7812-7.02148C20.7812-7.59766 20.3906-7.93945 19.7754-7.93945L15.8594-7.93945L15.8594-11.8652C15.8594-12.4805 15.5176-12.8711 14.9414-12.8711C14.375-12.8711 14.0527-12.4609 14.0527-11.8652L14.0527-7.93945L10.1465-7.93945C9.53125-7.93945 9.13086-7.59766 9.13086-7.02148C9.13086-6.46484 9.55078-6.13281 10.1465-6.13281L14.0527-6.13281L14.0527-2.38281C14.0527-1.79688 14.375-1.38672 14.9414-1.38672Z"/>
  </g>
  <text style="stroke:none;fill:black;font-family:-apple-system,&quot;SF Pro Display&quot;,&quot;SF Pro Text&quot;,Helvetica,sans-serif;font-weight:bold;" transform="matrix(1 0 0 1 263 1953)">Design Variations</text>
  <text style="stroke:none;fill:black;font-family:-apple-system,&quot;SF Pro Display&quot;,&quot;SF Pro Text&quot;,Helvetica,sans-serif;" transform="matrix(1 0 0 1 263 1971)">Symbols are supported in up to nine weights and three scales.</text>
  <text style="stroke:none;fill:black;font-family:-apple-system,&quot;SF Pro Display&quot;,&quot;SF Pro Text&quot;,Helvetica,sans-serif;" transform="matrix(1 0 0 1 263 1989)">For optimal layout with text and other symbols, vertically align</text>
  <text style="stroke:none;fill:black;font-family:-apple-system,&quot;SF Pro Display&quot;,&quot;SF Pro Text&quot;,Helvetica,sans-serif;" transform="matrix(1 0 0 1 263 2007)">symbols with the adjacent text.</text>
  <line id="" style="fill:none;stroke:#00AEEF;stroke-width:0.5;opacity:1.0;" x1="776" x2="776" y1="1919" y2="1933"/>
  <g id="" transform="matrix(1 0 0 1 776 1933)">
   <path d="M3.31055 0.126953C3.82812 0.126953 4.08203-0.0683594 4.26758-0.605469L5.52734-4.0625L11.2891-4.0625L12.5488-0.605469C12.7344-0.0683594 12.9883 0.126953 13.4961 0.126953C14.0137 0.126953 14.3457-0.185547 14.3457-0.673828C14.3457-0.839844 14.3164-0.986328 14.2383-1.20117L9.6582-13.3887C9.43359-13.9941 9.0332-14.2871 8.4082-14.2871C7.80273-14.2871 7.39258-13.9941 7.17773-13.3984L2.59766-1.19141C2.51953-0.976562 2.49023-0.830078 2.49023-0.664062C2.49023-0.175781 2.80273 0.126953 3.31055 0.126953ZM6.00586-5.53711L8.37891-12.1094L8.42773-12.1094L10.8008-5.53711Z"/>
  </g>
  <line id="" style="fill:none;stroke:#00AEEF;stroke-width:0.5;opacity:1.0;" x1="792.836" x2="792.836" y1="1919" y2="1933"/>
  <text style="stroke:none;fill:black;font-family:-apple-system,&quot;SF Pro Display&quot;,&quot;SF Pro Text&quot;,Helvetica,sans-serif;font-weight:bold;" transform="matrix(1 0 0 1 776 1953)">Margins</text>
  <text style="stroke:none;fill:black;font-family:-apple-system,&quot;SF Pro Display&quot;,&quot;SF Pro Text&quot;,Helvetica,sans-serif;" transform="matrix(1 0 0 1 776 1971)">Leading and trailing margins on the left and right side of each symbol</text>
  <text style="stroke:none;fill:black;font-family:-apple-system,&quot;SF Pro Display&quot;,&quot;SF Pro Text&quot;,Helvetica,sans-serif;" transform="matrix(1 0 0 1 776 1989)">can be adjusted by modifying the x-location of the margin guidelines.</text>
  <text style="stroke:none;fill:black;font-family:-apple-system,&quot;SF Pro Display&quot;,&quot;SF Pro Text&quot;,Helvetica,sans-serif;" transform="matrix(1 0 0 1 776 2007)">Modifications are automatically applied proportionally to all</text>
  <text style="stroke:none;fill:black;font-family:-apple-system,&quot;SF Pro Display&quot;,&quot;SF Pro Text&quot;,Helvetica,sans-serif;" transform="matrix(1 0 0 1 776 2025)">scales and weights.</text>
  <g id="" transform="matrix(1 0 0 1 1289 1933)">
   <path d="M2.8418 1.86523L4.54102 3.57422C5.40039 4.44336 6.38672 4.38477 7.31445 3.35938L17.4902-7.85156C17.7539-7.76367 18.0273-7.7832 18.3398-7.8418L19.4043-8.03711L20.0684-7.36328L20.0293-6.80664C19.9902-6.30859 20.1172-5.92773 20.6055-5.44922L21.3672-4.70703C21.8457-4.22852 22.4609-4.19922 22.9297-4.66797L25.8398-7.58789C26.3086-8.05664 26.2891-8.65234 25.8105-9.13086L25.0391-9.89258C24.5605-10.3711 24.1895-10.5273 23.7109-10.4883L23.1348-10.4395L22.4902-11.0742L22.7344-12.1973C22.8613-12.7637 22.7051-13.2031 22.1191-13.7891L19.9219-15.9766C16.582-19.2969 12.1484-19.2188 9.25781-16.3281C8.83789-15.918 8.80859-15.3418 9.04297-14.9512C9.27734-14.5898 9.73633-14.3555 10.3809-14.5215C11.8457-14.8633 13.3691-14.9219 14.7949-13.9844L14.209-12.5293C14.0137-12.0508 13.9844-11.6504 14.1113-11.2891L3.04688-0.898438C2.06055 0.0195312 1.98242 0.996094 2.8418 1.86523ZM10.752-15.957C13.1836-17.7344 16.4746-17.4316 18.7012-15.2051L21.1328-12.793C21.3672-12.5586 21.4062-12.373 21.3379-12.0312L21.0156-10.5469L22.5195-9.0625L23.5059-9.12109C23.7598-9.13086 23.8379-9.11133 24.0332-8.91602L24.6094-8.33984L22.168-5.89844L21.5918-6.47461C21.3965-6.66992 21.3672-6.74805 21.377-7.01172L21.4453-7.98828L19.9512-9.47266L18.4277-9.21875C18.1055-9.15039 17.959-9.17969 17.7148-9.41406L15.7129-11.416C15.459-11.6504 15.4297-11.8164 15.5859-12.1875L16.4648-14.2773C14.9023-15.7324 12.8711-16.3574 10.8398-15.7617C10.6836-15.7227 10.625-15.8496 10.752-15.957ZM5.27344 2.30469L4.10156 1.14258C3.63281 0.683594 3.74023 0.341797 4.14062-0.0195312L14.9512-10.1953L16.416-8.71094L6.42578 2.27539C6.07422 2.67578 5.74219 2.77344 5.27344 2.30469Z"/>
  </g>
  <text style="stroke:none;fill:black;font-family:-apple-system,&quot;SF Pro Display&quot;,&quot;SF Pro Text&quot;,Helvetica,sans-serif;font-weight:bold;" transform="matrix(1 0 0 1 1289 1953)">Exporting</text>
  <text style="stroke:none;fill:black;font-family:-apple-system,&quot;SF Pro Display&quot;,&quot;SF Pro Text&quot;,Helvetica,sans-serif;" transform="matrix(1 0 0 1 1289 1971)">Symbols should be outlined when exporting to ensure the</text>
  <text style="stroke:none;fill:black;font-family:-apple-system,&quot;SF Pro Display&quot;,&quot;SF Pro Text&quot;,Helvetica,sans-serif;" transform="matrix(1 0 0 1 1289 1989)">design is preserved when submitting to Xcode.</text>
  <text id="template-version" style="stroke:none;fill:black;font-family:-apple-system,&quot;SF Pro Display&quot;,&quot;SF Pro Text&quot;,Helvetica,sans-serif;text-anchor:end;" transform="matrix(1 0 0 1 3036 1933)">Template v.2.0</text>
  <text style="stroke:none;fill:black;font-family:-apple-system,&quot;SF Pro Display&quot;,&quot;SF Pro Text&quot;,Helvetica,sans-serif;text-anchor:end;" transform="matrix(1 0 0 1 3036 1951)">Requires Xcode 12 or greater</text>
  <text style="stroke:none;fill:black;font-family:-apple-system,&quot;SF Pro Display&quot;,&quot;SF Pro Text&quot;,Helvetica,sans-serif;text-anchor:end;" transform="matrix(1 0 0 1 3036 1969)">Generated from person.3</text>
  <text style="stroke:none;fill:black;font-family:-apple-system,&quot;SF Pro Display&quot;,&quot;SF Pro Text&quot;,Helvetica,sans-serif;text-anchor:end;" transform="matrix(1 0 0 1 3036 1987)">Typeset at 100 points</text>
  <text style="stroke:none;fill:black;font-family:-apple-system,&quot;SF Pro Display&quot;,&quot;SF Pro Text&quot;,Helvetica,sans-serif;" transform="matrix(1 0 0 1 263 726)">Small</text>
  <text style="stroke:none;fill:black;font-family:-apple-system,&quot;SF Pro Display&quot;,&quot;SF Pro Text&quot;,Helvetica,sans-serif;" transform="matrix(1 0 0 1 263 1156)">Medium</text>
  <text style="stroke:none;fill:black;font-family:-apple-system,&quot;SF Pro Display&quot;,&quot;SF Pro Text&quot;,Helvetica,sans-serif;" transform="matrix(1 0 0 1 263 1586)">Large</text>
 </g>
 <g id="Guides">
  <g id="H-reference" style="fill:#27AAE1;stroke:none;" transform="matrix(1 0 0 1 339 696)">
   <path d="M0.976562 0L3.66211 0L12.9883-24.4629L45.752-24.4629L55.127 0L57.7637 0L30.6152-70.459L28.125-70.459ZM29.3457-67.1387L29.4434-67.1387L44.873-26.709L13.8672-26.709Z"/>
  </g>
  <line id="Baseline-S" style="fill:none;stroke:#27AAE1;opacity:1;stroke-width:0.5;" x1="263" x2="3036" y1="696" y2="696"/>
  <line id="Capline-S" style="fill:none;stroke:#27AAE1;opacity:1;stroke-width:0.5;" x1="263" x2="3036" y1="625.541" y2="625.541"/>
  <g id="H-reference" style="fill:#27AAE1;stroke:none;" transform="matrix(1 0 0 1 339 1126)">
   <path d="M0.976562 0L3.66211 0L12.9883-24.4629L45.752-24.4629L55.127 0L57.7637 0L30.6152-70.459L28.125-70.459ZM29.3457-67.1387L29.4434-67.1387L44.873-26.709L13.8672-26.709Z"/>
  </g>
  <line id="Baseline-M" style="fill:none;stroke:#27AAE1;opacity:1;stroke-width:0.5;" x1="263" x2="3036" y1="1126" y2="1126"/>
  <line id="Capline-M" style="fill:none;stroke:#27AAE1;opacity:1;stroke-width:0.5;" x1="263" x2="3036" y1="1055.54" y2="1055.54"/>
  <g id="H-reference" style="fill:#27AAE1;stroke:none;" transform="matrix(1 0 0 1 339 1556)">
   <path d="M0.976562 0L3.66211 0L12.9883-24.4629L45.752-24.4629L55.127 0L57.7637 0L30.6152-70.459L28.125-70.459ZM29.3457-67.1387L29.4434-67.1387L44.873-26.709L13.8672-26.709Z"/>
  </g>
  <line id="Baseline-L" style="fill:none;stroke:#27AAE1;opacity:1;stroke-width:0.5;" x1="263" x2="3036" y1="1556" y2="1556"/>
  <line id="Capline-L" style="fill:none;stroke:#27AAE1;opacity:1;stroke-width:0.5;" x1="263" x2="3036" y1="1485.54" y2="1485.54"/>
  <line id="left-margin" style="fill:none;stroke:#00AEEF;stroke-width:0.5;opacity:1.0;" x1="1344.03" x2="1344.03" y1="1030.79" y2="1150.12"/>
  <line id="right-margin" style="fill:none;stroke:#00AEEF;stroke-width:0.5;opacity:1.0;" x1="1555.66" x2="1555.66" y1="1030.79" y2="1150.12"/>
 </g>
 <g id="Symbols">
  <g id="Black-L" transform="matrix(1 0 0 1 2793.31 1556)">
   <path d="M140.088-33.3984C156.152-33.3984 168.945-47.2656 168.945-64.5508C168.945-81.3477 156.006-95.1172 140.088-95.1172C124.219-95.1172 111.133-81.2988 111.182-64.502C111.279-47.2168 124.023-33.3984 140.088-33.3984ZM65.625-32.0312C79.6875-32.0312 90.9668-44.2383 90.9668-59.4727C90.9668-74.2188 79.541-86.4258 65.625-86.4258C51.7578-86.4258 40.2344-74.1211 40.2832-59.4238C40.332-44.1406 51.5625-32.0312 65.625-32.0312ZM214.551-32.0312C228.564-32.0312 239.844-44.1406 239.893-59.4238C239.941-74.1211 228.418-86.4258 214.551-86.4258C200.635-86.4258 189.209-74.2188 189.209-59.4727C189.209-44.2383 200.488-32.0312 214.551-32.0312ZM140.088-49.3652C133.154-49.3652 127.344-55.8105 127.344-64.5508C127.295-72.7051 133.301-79.1992 140.088-79.1992C146.973-79.1992 152.783-72.7539 152.783-64.5508C152.783-55.9082 147.07-49.3652 140.088-49.3652ZM65.625-47.6562C60.4004-47.6562 55.9082-52.7344 55.9082-59.4238C55.8594-65.6738 60.498-70.752 65.625-70.752C70.8008-70.752 75.3418-65.6738 75.3418-59.4727C75.3418-52.7344 70.9473-47.6562 65.625-47.6562ZM214.551-47.6562C209.229-47.6562 204.834-52.7344 204.834-59.4727C204.834-65.6738 209.375-70.752 214.551-70.752C219.678-70.752 224.316-65.6738 224.219-59.4238C224.219-52.7344 219.775-47.6562 214.551-47.6562ZM102.002 26.5137L178.174 26.5137C190.576 26.5137 196.777 22.1191 196.777 13.0371C196.777-6.64062 172.754-27.4414 140.088-27.4414C107.422-27.4414 83.3984-6.64062 83.3984 13.0371C83.3984 22.1191 89.5996 26.5137 102.002 26.5137ZM32.2754 26.5625L79.1016 26.5625C74.2188 23.4863 71.8262 16.3574 72.4609 10.8887L34.4727 10.8887C33.7402 10.8887 33.5449 10.4004 33.5449 9.96094C33.5449-0.585938 47.7051-11.8164 65.625-11.8164C69.7266-11.8164 76.3672-10.6445 79.7363-9.42383C82.2266-14.2578 85.9375-18.3105 91.4551-21.582C83.9844-25.0977 73.4863-27.3926 65.625-27.3926C38.3789-27.3926 16.0645-8.78906 16.0645 12.3047C16.0645 21.4355 21.4355 26.5625 32.2754 26.5625ZM247.9 26.5625C258.74 26.5625 264.111 21.4355 264.111 12.3047C264.111-8.78906 241.797-27.3926 214.551-27.3926C206.641-27.3926 196.143-25.0977 188.721-21.582C194.189-18.3105 197.949-14.2578 200.439-9.42383C203.809-10.6445 210.449-11.8164 214.551-11.8164C232.471-11.8164 246.631-0.585938 246.631 9.96094C246.631 10.4004 246.436 10.8887 245.703 10.8887L207.715 10.8887C208.35 16.3574 205.908 23.4863 201.025 26.5625ZM102.832 10.5469C102.1 10.5469 101.855 10.1074 101.855 9.52148C101.855 2.49023 115.967-11.5234 140.088-11.5234C164.16-11.5234 178.271 2.49023 178.271 9.52148C178.271 10.1074 178.076 10.5469 177.295 10.5469Z"/>
  </g>
  <g id="Heavy-L" transform="matrix(1 0 0 1 2497.53 1556)">
   <path d="M139.16-33.7891C154.932-33.7891 167.529-47.4609 167.529-64.4531C167.529-81.0547 154.834-94.5312 139.16-94.5312C123.535-94.5312 110.693-80.957 110.791-64.4043C110.84-47.4121 123.389-33.7891 139.16-33.7891ZM65.1367-32.373C78.9062-32.373 89.9902-44.4336 89.9902-59.4238C89.9902-73.9258 78.8086-85.8887 65.1367-85.8887C51.5137-85.8887 40.2344-73.7793 40.2832-59.375C40.332-44.3359 51.3672-32.373 65.1367-32.373ZM213.184-32.373C226.904-32.373 237.939-44.3359 238.037-59.375C238.086-73.7793 226.807-85.8887 213.184-85.8887C199.512-85.8887 188.33-73.9258 188.33-59.4238C188.33-44.4336 199.365-32.373 213.184-32.373ZM139.16-47.9004C131.543-47.9004 125.146-54.9805 125.146-64.4531C125.098-73.3887 131.592-80.4688 139.16-80.4688C146.729-80.4688 153.125-73.4375 153.125-64.4531C153.125-55.0781 146.826-47.9004 139.16-47.9004ZM65.1367-46.2402C59.1797-46.2402 54.1504-51.9531 54.1504-59.375C54.1016-66.3086 59.2285-72.0215 65.1367-72.0215C71.0449-72.0215 76.1719-66.3574 76.1719-59.4238C76.1719-51.9531 71.1426-46.2402 65.1367-46.2402ZM213.184-46.2402C207.129-46.2402 202.148-51.9531 202.148-59.4238C202.148-66.3574 207.227-72.0215 213.184-72.0215C219.092-72.0215 224.219-66.3086 224.17-59.375C224.17-51.9531 219.141-46.2402 213.184-46.2402ZM31.25 25.8789L79.1016 25.8789C74.7559 23.1934 72.4121 16.9922 72.9492 12.0117L32.666 12.0117C31.6406 12.0117 31.2988 11.4746 31.2988 10.6934C31.2988-1.2207 46.4355-13.3301 65.1367-13.3301C70.3125-13.3301 77.2461-11.8652 81.3477-9.96094C83.6426-14.1602 86.9629-17.6758 91.748-20.6055C84.082-24.6582 73.6816-27.0996 65.1367-27.0996C37.9883-27.0996 16.0645-8.25195 16.0645 12.5977C16.0645 21.1914 21.0938 25.8789 31.25 25.8789ZM247.07 25.8789C257.227 25.8789 262.256 21.1914 262.256 12.5977C262.256-8.25195 240.332-27.0996 213.184-27.0996C204.59-27.0996 194.189-24.6582 186.572-20.6055C191.309-17.6758 194.629-14.1602 196.973-9.96094C201.074-11.8652 208.008-13.3301 213.184-13.3301C231.885-13.3301 247.021-1.2207 247.021 10.6934C247.021 11.4746 246.68 12.0117 245.654 12.0117L205.371 12.0117C205.859 16.9922 203.564 23.1934 199.219 25.8789ZM100.537 25.8301L177.734 25.8301C189.502 25.8301 195.312 21.7773 195.312 13.2812C195.312-5.66406 172.07-27.0996 139.111-27.0996C106.201-27.0996 82.959-5.66406 82.959 13.2812C82.959 21.7773 88.7695 25.8301 100.537 25.8301ZM100.635 11.7188C99.4629 11.7188 99.1211 11.2305 99.1211 10.4004C99.1211 2.34375 113.77-12.9883 139.111-12.9883C164.502-12.9883 179.15 2.34375 179.15 10.4004C179.15 11.2305 178.809 11.7188 177.637 11.7188Z"/>
  </g>
  <g id="Bold-L" transform="matrix(1 0 0 1 2201.87 1556)">
   <path d="M138.086-34.1797C153.564-34.1797 165.918-47.6562 165.918-64.3555C165.918-80.7129 153.467-93.8965 138.086-93.8965C122.803-93.8965 110.254-80.5664 110.303-64.3066C110.352-47.6074 122.656-34.1797 138.086-34.1797ZM64.5996-32.8125C78.0762-32.8125 88.916-44.5801 88.916-59.3262C88.916-73.584 77.9785-85.2539 64.5996-85.2539C51.2695-85.2539 40.2344-73.4375 40.2832-59.2773C40.3809-44.5312 51.1719-32.8125 64.5996-32.8125ZM211.621-32.8125C225.098-32.8125 235.889-44.5312 235.938-59.2773C235.986-73.4375 224.951-85.2539 211.621-85.2539C198.242-85.2539 187.354-73.584 187.354-59.3262C187.354-44.5801 198.145-32.8125 211.621-32.8125ZM138.086-46.2402C129.736-46.2402 122.705-54.0527 122.705-64.3066C122.656-74.1211 129.736-81.8359 138.086-81.8359C146.533-81.8359 153.516-74.2188 153.516-64.3555C153.516-54.1504 146.582-46.2402 138.086-46.2402ZM64.5996-44.6289C57.8125-44.6289 52.1484-51.0254 52.1484-59.2773C52.1484-67.041 57.8613-73.4375 64.5996-73.4375C71.3867-73.4375 77.0996-67.1387 77.0996-59.3262C77.0996-51.0254 71.4355-44.6289 64.5996-44.6289ZM211.621-44.6289C204.785-44.6289 199.17-51.0254 199.17-59.3262C199.17-67.1387 204.834-73.4375 211.621-73.4375C218.359-73.4375 224.121-67.041 224.072-59.2773C224.072-51.0254 218.408-44.6289 211.621-44.6289ZM30.127 25.0977L79.1016 25.0977C75.3418 22.8516 73.0957 17.6758 73.4863 13.2812L30.6152 13.2812C29.3457 13.2812 28.8086 12.6953 28.8086 11.5723C28.8086-1.9043 44.9707-14.9902 64.5508-14.9902C70.9473-14.9902 78.2227-13.2324 83.1543-10.498C85.2539-14.0137 88.1348-16.9434 92.041-19.4336C84.2285-24.1211 73.9258-26.7578 64.5508-26.7578C37.5488-26.7578 16.0645-7.71484 16.0645 12.9883C16.0645 20.8984 20.752 25.0977 30.127 25.0977ZM246.094 25.0977C255.469 25.0977 260.156 20.8984 260.156 12.9883C260.156-7.71484 238.721-26.7578 211.67-26.7578C202.295-26.7578 192.041-24.1211 184.18-19.4336C188.086-16.9434 190.967-14.0137 193.066-10.498C197.998-13.2324 205.273-14.9902 211.67-14.9902C231.25-14.9902 247.412-1.9043 247.412 11.5723C247.412 12.6953 246.924 13.2812 245.605 13.2812L202.734 13.2812C203.125 17.6758 200.879 22.8516 197.168 25.0977ZM98.877 25.0977L177.246 25.0977C188.281 25.0977 193.701 21.3867 193.701 13.5742C193.701-4.49219 171.338-26.709 138.086-26.709C104.834-26.709 82.4219-4.49219 82.4219 13.5742C82.4219 21.3867 87.8418 25.0977 98.877 25.0977ZM98.1445 13.0371C96.582 13.0371 95.9961 12.5 95.9961 11.3281C95.9961 2.14844 111.328-14.6484 138.086-14.6484C164.795-14.6484 180.127 2.14844 180.127 11.3281C180.127 12.5 179.59 13.0371 178.027 13.0371Z"/>
  </g>
  <g id="Semibold-L" transform="matrix(1 0 0 1 1905.86 1556)">
   <path d="M137.402-34.4727C152.588-34.4727 164.795-47.8027 164.795-64.3066C164.795-80.4688 152.588-93.457 137.402-93.457C122.314-93.457 109.912-80.3223 109.961-64.209C110.01-47.7539 122.168-34.4727 137.402-34.4727ZM64.209-33.0566C77.4902-33.0566 88.1348-44.7266 88.1348-59.2773C88.1348-73.3887 77.3926-84.8633 64.209-84.8633C51.123-84.8633 40.2344-73.1934 40.332-59.1797C40.3809-44.6777 50.9766-33.0566 64.209-33.0566ZM210.596-33.0566C223.779-33.0566 234.424-44.6777 234.473-59.1797C234.521-73.1934 223.682-84.8633 210.596-84.8633C197.363-84.8633 186.67-73.3887 186.67-59.2773C186.67-44.7266 197.314-33.0566 210.596-33.0566ZM137.402-45.1172C128.467-45.1172 120.996-53.418 120.996-64.2578C120.947-74.6094 128.467-82.8125 137.402-82.8125C146.387-82.8125 153.76-74.7559 153.76-64.3066C153.76-53.5156 146.387-45.1172 137.402-45.1172ZM64.209-43.5547C56.8848-43.5547 50.7812-50.4395 50.7812-59.1797C50.7812-67.5293 56.8848-74.3652 64.209-74.3652C71.6309-74.3652 77.6855-67.6758 77.6855-59.2773C77.6855-50.4395 71.582-43.5547 64.209-43.5547ZM210.596-43.5547C203.174-43.5547 197.07-50.4395 197.07-59.2773C197.07-67.6758 203.174-74.3652 210.596-74.3652C217.871-74.3652 224.023-67.5293 224.023-59.1797C224.023-50.4395 217.92-43.5547 210.596-43.5547ZM29.3457 24.5605L79.0527 24.5605C75.7324 22.6074 73.5352 18.1641 73.877 14.1602L29.248 14.1602C27.7344 14.1602 27.0996 13.5254 27.0996 12.1582C27.0996-2.39258 43.9941-16.1133 64.1602-16.1133C71.4355-16.1133 78.9062-14.209 84.375-10.9375C86.377-13.916 88.916-16.4551 92.2852-18.6523C84.2773-23.7305 74.0723-26.5137 64.1602-26.5137C37.207-26.5137 16.0645-7.32422 16.0645 13.2324C16.0645 20.7031 20.5078 24.5605 29.3457 24.5605ZM245.41 24.5605C254.297 24.5605 258.74 20.7031 258.74 13.2324C258.74-7.32422 237.598-26.5137 210.645-26.5137C200.732-26.5137 190.527-23.7305 182.52-18.6523C185.889-16.4551 188.428-13.916 190.43-10.9375C195.898-14.209 203.369-16.1133 210.645-16.1133C230.762-16.1133 247.705-2.39258 247.705 12.1582C247.705 13.5254 247.07 14.1602 245.557 14.1602L200.928 14.1602C201.221 18.1641 199.072 22.6074 195.752 24.5605ZM97.7539 24.5605L176.904 24.5605C187.451 24.5605 192.578 21.1426 192.578 13.7695C192.578-3.71094 170.801-26.416 137.354-26.416C103.906-26.416 82.0801-3.71094 82.0801 13.7695C82.0801 21.1426 87.207 24.5605 97.7539 24.5605ZM96.4355 13.916C94.5312 13.916 93.8965 13.3789 93.8965 12.0117C93.8965 2.00195 109.668-15.8203 137.354-15.8203C165.039-15.8203 180.811 2.00195 180.811 12.0117C180.811 13.3789 180.127 13.916 178.271 13.916Z"/>
  </g>
  <g id="Medium-L" transform="matrix(1 0 0 1 1609.69 1556)">
   <path d="M136.865-34.7168C151.855-34.7168 163.965-47.9004 163.965-64.2578C163.965-80.2734 151.855-93.0664 136.865-93.0664C121.924-93.0664 109.668-80.127 109.717-64.1602C109.766-47.8516 121.826-34.7168 136.865-34.7168ZM63.916-33.3008C77.002-33.3008 87.5488-44.8242 87.5488-59.2285C87.5488-73.1934 77.002-84.5215 63.916-84.5215C50.9766-84.5215 40.2832-72.998 40.332-59.1309C40.3809-44.7754 50.8789-33.3008 63.916-33.3008ZM209.766-33.3008C222.852-33.3008 233.35-44.7754 233.398-59.1309C233.447-72.998 222.754-84.5215 209.766-84.5215C196.729-84.5215 186.133-73.1934 186.133-59.2285C186.133-44.8242 196.68-33.3008 209.766-33.3008ZM136.865-44.2383C127.49-44.2383 119.727-52.9297 119.727-64.1602C119.678-75 127.49-83.5449 136.865-83.5449C146.24-83.5449 153.955-75.1465 153.955-64.2578C153.955-53.0762 146.24-44.2383 136.865-44.2383ZM63.916-42.7246C56.1523-42.7246 49.7559-49.9512 49.7559-59.1309C49.7559-67.9199 56.2012-75.0977 63.916-75.0977C71.7773-75.0977 78.1738-68.0664 78.1738-59.2285C78.1738-49.9512 71.7285-42.7246 63.916-42.7246ZM209.766-42.7246C201.953-42.7246 195.508-49.9512 195.508-59.2285C195.508-68.0664 201.953-75.0977 209.766-75.0977C217.529-75.0977 223.975-67.9199 223.975-59.1309C223.975-49.9512 217.529-42.7246 209.766-42.7246ZM28.8086 24.1699L79.0527 24.1699C76.0254 22.4121 73.877 18.5059 74.1211 14.7949L28.1738 14.7949C26.5137 14.7949 25.8301 14.1602 25.8301 12.5977C25.8301-2.73438 43.2617-16.9922 63.8672-16.9922C71.7773-16.9922 79.4434-14.9414 85.3516-11.2305C87.207-13.8184 89.502-16.1133 92.4316-18.0664C84.3262-23.4863 74.1699-26.3672 63.8672-26.3672C36.9629-26.3672 16.0645-7.03125 16.0645 13.3789C16.0645 20.5566 20.3125 24.1699 28.8086 24.1699ZM244.922 24.1699C253.418 24.1699 257.666 20.5566 257.666 13.3789C257.666-7.03125 236.719-26.3672 209.814-26.3672C199.512-26.3672 189.355-23.4863 181.25-18.0664C184.18-16.1133 186.523-13.8184 188.379-11.2305C194.287-14.9414 201.953-16.9922 209.814-16.9922C230.42-16.9922 247.9-2.73438 247.9 12.5977C247.9 14.1602 247.217 14.7949 245.508 14.7949L199.561 14.7949C199.805 18.5059 197.656 22.4121 194.678 24.1699ZM96.9238 24.1699L176.66 24.1699C186.865 24.1699 191.748 20.8984 191.748 13.916C191.748-3.125 170.41-26.2207 136.816-26.2207C103.174-26.2207 81.8359-3.125 81.8359 13.916C81.8359 20.8984 86.7188 24.1699 96.9238 24.1699ZM95.1172 14.5996C93.0176 14.5996 92.2852 14.0137 92.2852 12.5C92.2852 1.9043 108.398-16.6992 136.816-16.6992C165.186-16.6992 181.299 1.9043 181.299 12.5C181.299 14.0137 180.566 14.5996 178.467 14.5996Z"/>
  </g>
  <g id="Regular-L" transform="matrix(1 0 0 1 1313.69 1556)">
   <path d="M136.133-34.9609C150.928-34.9609 162.891-48.0469 162.891-64.209C162.891-80.0293 150.977-92.627 136.133-92.627C121.436-92.627 109.326-79.8828 109.375-64.1113C109.473-47.998 121.338-34.9609 136.133-34.9609ZM136.133-43.1641C126.27-43.1641 118.066-52.3438 118.066-64.1113C117.969-75.5371 126.172-84.4727 136.133-84.4727C146.094-84.4727 154.199-75.6348 154.199-64.209C154.199-52.4414 146.045-43.1641 136.133-43.1641ZM63.5742-33.5449C76.416-33.5449 86.8164-44.9707 86.8164-59.1797C86.8164-72.9492 76.416-84.1309 63.5742-84.1309C50.7812-84.1309 40.2832-72.8027 40.332-59.082C40.3809-44.9219 50.7324-33.5449 63.5742-33.5449ZM208.74-33.5449C221.582-33.5449 231.885-44.9219 231.982-59.082C232.031-72.8027 221.484-84.1309 208.74-84.1309C195.85-84.1309 185.498-72.9492 185.498-59.1797C185.498-44.9707 195.85-33.5449 208.74-33.5449ZM63.5742-41.6504C55.2246-41.6504 48.3887-49.3652 48.3887-59.082C48.3887-68.457 55.2246-76.0742 63.5742-76.0742C71.9727-76.0742 78.8086-68.5547 78.8086-59.1797C78.8086-49.3652 71.9238-41.6504 63.5742-41.6504ZM208.74-41.6504C200.391-41.6504 193.506-49.3652 193.506-59.1797C193.506-68.5547 200.293-76.0742 208.74-76.0742C217.041-76.0742 223.926-68.457 223.926-59.082C223.926-49.3652 217.041-41.6504 208.74-41.6504ZM28.0273 23.6328L79.0527 23.6328C76.416 22.2168 74.3652 18.9941 74.5117 15.6738L26.8066 15.6738C24.9023 15.6738 24.1211 14.9902 24.1211 13.1836C24.1211-3.22266 42.2852-18.1152 63.4766-18.1152C72.2168-18.1152 80.0781-15.8691 86.5723-11.6211C88.2812-13.7207 90.2832-15.5762 92.6758-17.334C84.4238-23.0957 74.3164-26.123 63.4766-26.123C36.6699-26.123 16.0645-6.68945 16.0645 13.623C16.0645 20.3613 20.0684 23.6328 28.0273 23.6328ZM244.287 23.6328C252.246 23.6328 256.25 20.3613 256.25 13.623C256.25-6.68945 235.645-26.123 208.789-26.123C197.949-26.123 187.891-23.0957 179.639-17.334C181.982-15.5762 183.984-13.7207 185.742-11.6211C192.188-15.8691 200.049-18.1152 208.789-18.1152C229.98-18.1152 248.193-3.22266 248.193 13.1836C248.193 14.9902 247.363 15.6738 245.459 15.6738L197.754 15.6738C197.949 18.9941 195.85 22.2168 193.262 23.6328ZM95.8008 23.6328L176.318 23.6328C186.035 23.6328 190.625 20.6543 190.625 14.0625C190.625-2.34375 169.873-25.9766 136.084-25.9766C102.246-25.9766 81.4941-2.34375 81.4941 14.0625C81.4941 20.6543 86.084 23.6328 95.8008 23.6328ZM93.457 15.4785C91.0156 15.4785 90.1367 14.8926 90.1367 13.1348C90.1367 1.75781 106.689-17.8223 136.084-17.8223C165.43-17.8223 181.982 1.75781 181.982 13.1348C181.982 14.8926 181.104 15.4785 178.711 15.4785Z"/>
  </g>
  <g id="Light-L" transform="matrix(1 0 0 1 1017.51 1556)">
   <path d="M135.596-34.9121C150.195-34.9121 161.719-47.6074 161.719-63.623C161.719-79.1016 150.049-91.6016 135.596-91.6016C121.24-91.6016 109.424-78.9551 109.521-63.5254C109.619-47.5586 121.045-34.9121 135.596-34.9121ZM135.596-41.2109C124.805-41.2109 116.162-50.9277 116.162-63.5254C116.064-75.5859 124.902-85.3027 135.596-85.3027C146.338-85.3027 155.078-75.7324 155.078-63.623C155.078-50.9766 146.436-41.2109 135.596-41.2109ZM63.0371-33.4961C75.7324-33.4961 85.791-44.5312 85.791-58.6426C85.791-72.1191 75.5859-83.1543 63.0371-83.1543C50.5859-83.1543 40.2832-71.9727 40.3809-58.5938C40.4785-44.5312 50.3906-33.4961 63.0371-33.4961ZM208.203-33.4961C220.85-33.4961 230.811-44.5312 230.908-58.5938C231.006-71.9727 220.703-83.1543 208.203-83.1543C195.654-83.1543 185.449-72.1191 185.449-58.6426C185.449-44.5312 195.508-33.4961 208.203-33.4961ZM63.0371-39.7461C53.9062-39.7461 46.6309-47.9492 46.6309-58.5938C46.6309-68.6035 54.0039-76.9043 63.0371-76.9043C72.168-76.9043 79.5898-68.7012 79.5898-58.6426C79.5898-47.9492 72.2168-39.7461 63.0371-39.7461ZM208.203-39.7461C199.023-39.7461 191.699-47.9492 191.699-58.6426C191.699-68.7012 199.121-76.9043 208.203-76.9043C217.236-76.9043 224.658-68.6035 224.658-58.5938C224.658-47.9492 217.334-39.7461 208.203-39.7461ZM26.8555 22.9492L79.9805 22.9492C77.9297 21.875 76.1719 19.4336 75.9766 16.7969L26.123 16.7969C23.3887 16.7969 22.3145 15.8203 22.3145 13.3301C22.3145-4.15039 40.9668-19.5312 62.9395-19.5312C72.8027-19.5312 81.6895-16.7969 88.6719-11.5723C90.0391-13.1348 91.6016-14.5508 93.3594-15.918C84.9121-22.3145 74.4141-25.6836 62.9395-25.6836C35.5957-25.6836 16.0645-5.85938 16.0645 13.623C16.0645 19.9219 19.6289 22.9492 26.8555 22.9492ZM244.385 22.9492C251.611 22.9492 255.176 19.9219 255.176 13.623C255.176-5.85938 235.693-25.6836 208.301-25.6836C196.875-25.6836 186.328-22.3145 177.881-15.918C179.688-14.5508 181.201-13.1348 182.617-11.5723C189.6-16.7969 198.438-19.5312 208.301-19.5312C230.273-19.5312 248.926-4.15039 248.926 13.3301C248.926 15.8203 247.9 16.7969 245.117 16.7969L195.264 16.7969C195.117 19.4336 193.311 21.875 191.26 22.9492ZM94.2871 22.9492L176.709 22.9492C185.352 22.9492 189.453 20.166 189.453 14.0625C189.453-2.29492 168.848-25.4883 135.498-25.4883C102.197-25.4883 81.5918-2.29492 81.5918 14.0625C81.5918 20.166 85.6934 22.9492 94.2871 22.9492ZM92.8223 16.6504C89.3555 16.6504 88.2324 15.8203 88.2324 13.4766C88.2324 0.732422 105.518-19.1895 135.498-19.1895C165.527-19.1895 182.812 0.732422 182.812 13.4766C182.812 15.8203 181.689 16.6504 178.223 16.6504Z"/>
  </g>
  <g id="Thin-L" transform="matrix(1 0 0 1 721.486 1556)">
   <path d="M134.912-34.8145C149.17-34.8145 160.156-47.0215 160.156-62.8418C160.156-77.8809 148.828-90.2344 134.912-90.2344C120.996-90.2344 109.521-77.7832 109.717-62.793C109.863-47.0215 120.703-34.8145 134.912-34.8145ZM134.912-38.6719C122.949-38.6719 113.623-49.1211 113.623-62.793C113.477-75.6836 123.145-86.377 134.912-86.377C146.631-86.377 156.25-75.7812 156.25-62.8418C156.25-49.1211 146.924-38.6719 134.912-38.6719ZM62.4023-33.4473C74.8535-33.4473 84.4727-43.9941 84.4727-57.9102C84.4727-71.0449 74.5117-81.8359 62.4023-81.8359C50.2441-81.8359 40.2832-70.9473 40.4297-57.9102C40.5762-43.9941 49.9512-33.4473 62.4023-33.4473ZM207.471-33.4473C219.922-33.4473 229.346-43.9941 229.492-57.9102C229.639-70.9473 219.629-81.8359 207.471-81.8359C195.41-81.8359 185.449-71.0449 185.449-57.9102C185.449-43.9941 195.02-33.4473 207.471-33.4473ZM62.4023-37.3047C52.1484-37.3047 44.2871-46.1426 44.2871-57.9102C44.2871-68.8477 52.3438-78.0273 62.4023-78.0273C72.3633-78.0273 80.6152-68.8965 80.6152-57.9102C80.6152-46.1426 72.6562-37.3047 62.4023-37.3047ZM207.471-37.3047C197.217-37.3047 189.258-46.1426 189.258-57.9102C189.258-68.8965 197.51-78.0273 207.471-78.0273C217.529-78.0273 225.635-68.8477 225.635-57.9102C225.635-46.1426 217.725-37.3047 207.471-37.3047ZM25.3418 22.0703L81.25 22.0703C79.9316 21.3867 78.5645 19.9707 77.9297 18.3105L25.2441 18.3105C21.3379 18.3105 19.9219 16.9434 19.9219 13.4766C19.9219-5.37109 39.209-21.3379 62.2559-21.3379C73.584-21.3379 83.7891-17.9688 91.4062-11.4746C92.334-12.4023 93.3105-13.1836 94.2871-14.0625C85.5957-21.2891 74.5117-25.1465 62.2559-25.1465C34.1309-25.1465 16.0645-4.83398 16.0645 13.5742C16.0645 19.3359 19.0918 22.0703 25.3418 22.0703ZM244.58 22.0703C250.781 22.0703 253.809 19.3359 253.809 13.5742C253.809-4.83398 235.742-25.1465 207.617-25.1465C195.41-25.1465 184.277-21.2891 175.586-14.0625C176.611-13.1836 177.539-12.4023 178.467-11.4746C186.084-17.9688 196.289-21.3379 207.617-21.3379C230.664-21.3379 249.951-5.37109 249.951 13.4766C249.951 16.9434 248.535 18.3105 244.678 18.3105L191.943 18.3105C191.309 19.9707 189.941 21.3867 188.623 22.0703ZM92.334 22.0703L177.246 22.0703C184.424 22.0703 187.842 19.5801 187.842 14.0137C187.842-2.24609 167.432-24.9023 134.766-24.9023C102.1-24.9023 81.7383-2.24609 81.7383 14.0137C81.7383 19.5801 85.1074 22.0703 92.334 22.0703ZM92.041 18.2129C87.1582 18.2129 85.6445 17.0898 85.6445 13.916C85.6445-0.634766 103.955-21.0449 134.766-21.0449C165.625-21.0449 183.936-0.634766 183.936 13.916C183.936 17.0898 182.422 18.2129 177.539 18.2129Z"/>
  </g>
  <g id="Ultralight-L" transform="matrix(1 0 0 1 425.116 1556)">
   <path d="M134.57-34.7656C148.633-34.7656 159.375-46.7285 159.375-62.4023C159.375-77.2461 148.193-89.5508 134.57-89.5508C120.85-89.5508 109.619-77.1973 109.766-62.4512C109.961-46.7285 120.508-34.7656 134.57-34.7656ZM134.57-37.3535C121.973-37.3535 112.354-48.1445 112.354-62.4512C112.158-75.7324 122.266-86.9141 134.57-86.9141C146.826-86.9141 156.836-75.8301 156.836-62.4023C156.836-48.1445 147.168-37.3535 134.57-37.3535ZM62.0605-33.3984C74.3652-33.3984 83.7891-43.75 83.7891-57.5195C83.7891-70.459 73.9258-81.2012 62.0605-81.2012C50.0977-81.2012 40.2832-70.4102 40.4297-57.5195C40.625-43.75 49.7559-33.3984 62.0605-33.3984ZM207.129-33.3984C219.482-33.3984 228.564-43.75 228.76-57.5195C228.906-70.4102 219.092-81.2012 207.129-81.2012C195.264-81.2012 185.4-70.459 185.4-57.5195C185.4-43.75 194.824-33.3984 207.129-33.3984ZM62.0605-36.0352C51.2695-36.0352 43.0664-45.2148 43.0664-57.5195C43.0664-68.9453 51.5137-78.5645 62.0605-78.5645C72.5098-78.5645 81.1523-68.9941 81.1523-57.5195C81.1523-45.2148 72.8516-36.0352 62.0605-36.0352ZM207.129-36.0352C196.338-36.0352 188.037-45.2148 188.037-57.5195C188.037-68.9941 196.68-78.5645 207.129-78.5645C217.676-78.5645 226.123-68.9453 226.123-57.5195C226.123-45.2148 217.92-36.0352 207.129-36.0352ZM24.5117 21.582L81.9336 21.582C80.957 21.1426 79.7852 20.2637 78.9551 19.043L24.7559 19.043C20.3125 19.043 18.7012 17.5293 18.7012 13.5742C18.7012-5.95703 38.3301-22.3145 61.8652-22.3145C74.0234-22.3145 84.8633-18.6035 92.8223-11.4258C93.5059-12.0117 94.1895-12.5 94.7754-13.0859C85.9375-20.8008 74.5605-24.8535 61.8652-24.8535C33.3984-24.8535 16.0645-4.29688 16.0645 13.5254C16.0645 19.043 18.8477 21.582 24.5117 21.582ZM244.678 21.582C250.342 21.582 253.125 19.043 253.125 13.5254C253.125-4.29688 235.791-24.8535 207.324-24.8535C194.629-24.8535 183.252-20.8008 174.414-13.0859C175-12.5 175.684-12.0117 176.367-11.4258C184.326-18.6035 195.215-22.3145 207.324-22.3145C230.859-22.3145 250.488-5.95703 250.488 13.5742C250.488 17.5293 248.877 19.043 244.434 19.043L190.234 19.043C189.404 20.2637 188.232 21.1426 187.256 21.582ZM91.3086 21.582L177.49 21.582C183.984 21.582 187.012 19.2871 187.012 14.0137C187.012-2.19727 166.748-24.5605 134.424-24.5605C102.1-24.5605 81.7871-2.19727 81.7871 14.0137C81.7871 19.2871 84.8145 21.582 91.3086 21.582ZM91.6016 18.9941C86.0352 18.9941 84.3262 17.7246 84.3262 14.1602C84.3262-1.36719 103.174-21.9727 134.424-21.9727C165.674-21.9727 184.473-1.36719 184.473 14.1602C184.473 17.7246 182.764 18.9941 177.197 18.9941Z"/>
  </g>
  <g id="Black-M" transform="matrix(1 0 0 1 2823.83 1126)">
   <path d="M109.57-33.3008C122.314-33.3008 132.275-44.0918 132.275-57.7637C132.275-70.8984 122.07-81.8848 109.57-81.8848C97.1191-81.8848 86.8164-70.8984 86.8652-57.7637C86.9141-44.0918 96.8262-33.3008 109.57-33.3008ZM51.2695-32.2266C62.4512-32.2266 71.2891-41.748 71.2891-53.8086C71.2891-65.4297 62.1582-75.0977 51.2695-75.0977C40.2832-75.0977 31.1523-65.3809 31.2012-53.8086C31.2988-41.6992 40.0879-32.2266 51.2695-32.2266ZM167.871-32.2266C179.053-32.2266 187.842-41.6992 187.939-53.8086C187.988-65.3809 178.857-75.0977 167.871-75.0977C156.982-75.0977 147.852-65.4297 147.852-53.8086C147.852-41.748 156.689-32.2266 167.871-32.2266ZM109.57-47.1191C104.688-47.1191 100.684-51.5625 100.684-57.8125C100.635-63.4277 104.883-68.0664 109.57-68.0664C114.307-68.0664 118.457-63.4277 118.457-57.7637C118.457-51.6113 114.502-47.1191 109.57-47.1191ZM51.2695-45.8008C47.7539-45.8008 44.7754-49.1211 44.7754-53.8086C44.7266-58.0078 47.8516-61.5234 51.2695-61.5234C54.541-61.5234 57.7148-58.0078 57.7148-53.8086C57.7148-49.1211 54.834-45.8008 51.2695-45.8008ZM167.871-45.8008C164.307-45.8008 161.426-49.1211 161.426-53.8086C161.426-58.0078 164.6-61.5234 167.871-61.5234C171.24-61.5234 174.414-58.0078 174.365-53.8086C174.365-49.1211 171.387-45.8008 167.871-45.8008ZM80.2246 13.1348L138.916 13.1348C148.779 13.1348 153.857 9.42383 153.857 1.85547C153.857-14.4531 134.277-29.4434 109.57-29.4434C84.8633-29.4434 65.2832-14.4531 65.2832 1.85547C65.2832 9.42383 70.3613 13.1348 80.2246 13.1348ZM25.7324 13.2324L61.8652 13.2324C57.666 10.498 55.8594 4.15039 56.2988-0.439453L28.7598-0.439453C28.125-0.439453 28.0273-0.878906 28.0273-1.17188C28.0273-8.05664 37.9395-15.8203 51.2695-15.8203C53.5645-15.8203 58.8379-14.9902 60.7422-14.502C62.7441-18.8477 65.918-22.4609 70.8496-25.293C65.2344-27.6367 56.7383-29.3457 51.2695-29.3457C29.7363-29.3457 12.4512-14.9414 12.4512 1.17188C12.4512 8.78906 16.8457 13.2324 25.7324 13.2324ZM193.408 13.2324C202.295 13.2324 206.689 8.78906 206.689 1.17188C206.689-14.9414 189.404-29.3457 167.871-29.3457C162.402-29.3457 153.906-27.6367 148.291-25.293C153.223-22.4609 156.396-18.8477 158.398-14.502C160.303-14.9902 165.576-15.8203 167.871-15.8203C181.152-15.8203 191.113-8.05664 191.113-1.17188C191.113-0.878906 191.016-0.439453 190.381-0.439453L162.842-0.439453C163.281 4.15039 161.475 10.498 157.275 13.2324ZM82.4219-0.683594C81.7871-0.683594 81.6895-1.12305 81.6895-1.51367C81.6895-6.29883 92.2363-15.5762 109.57-15.5762C126.904-15.5762 137.5-6.29883 137.5-1.51367C137.5-1.12305 137.354-0.683594 136.719-0.683594Z"/>
  </g>
  <g id="Heavy-M" transform="matrix(1 0 0 1 2528 1126)">
   <path d="M108.691-33.6914C121.143-33.6914 131.006-44.3848 131.006-57.8125C131.006-70.8008 120.996-81.543 108.691-81.543C96.4355-81.543 86.3281-70.752 86.377-57.7637C86.4258-44.3848 96.2402-33.6914 108.691-33.6914ZM50.8301-32.6172C61.7676-32.6172 70.459-42.041 70.459-53.9062C70.459-65.332 61.5723-74.7559 50.8301-74.7559C40.0879-74.7559 31.1523-65.2344 31.2012-53.8574C31.25-41.9922 39.9414-32.6172 50.8301-32.6172ZM166.504-32.6172C177.441-32.6172 186.084-41.9922 186.133-53.8574C186.182-65.2344 177.295-74.7559 166.504-74.7559C155.762-74.7559 146.875-65.332 146.875-53.9062C146.875-42.041 155.615-32.6172 166.504-32.6172ZM108.691-45.9961C103.271-45.9961 98.7793-51.0254 98.7793-57.8125C98.7305-64.1113 103.418-69.2383 108.691-69.2383C114.062-69.2383 118.604-64.1602 118.604-57.8125C118.604-51.0742 114.16-45.9961 108.691-45.9961ZM50.8301-44.7266C46.7773-44.7266 43.3105-48.6328 43.3105-53.8574C43.2617-58.6914 46.8262-62.6953 50.8301-62.6953C54.834-62.6953 58.3984-58.6914 58.3984-53.9062C58.3984-48.6328 54.9805-44.7266 50.8301-44.7266ZM166.504-44.7266C162.354-44.7266 158.984-48.6328 158.984-53.9062C158.984-58.6914 162.549-62.6953 166.504-62.6953C170.508-62.6953 174.121-58.6914 174.072-53.8574C174.072-48.6328 170.605-44.7266 166.504-44.7266ZM79.0527 12.5977L138.33 12.5977C147.803 12.5977 152.588 9.17969 152.588 2.14844C152.588-13.3301 133.789-29.1504 108.691-29.1504C83.5938-29.1504 64.7949-13.3301 64.7949 2.14844C64.7949 9.17969 69.5801 12.5977 79.0527 12.5977ZM24.9512 12.6465L61.5723 12.6465C57.8125 10.2539 56.0059 4.6875 56.4453 0.537109L26.9531 0.537109C26.2695 0.537109 26.0742 0.0976562 26.0742-0.390625C26.0742-8.49609 36.9141-17.0898 50.8301-17.0898C54.0527-17.0898 59.4238-16.1133 61.9629-15.0879C63.8184-18.8477 66.6992-22.0215 70.9961-24.5605C65.2344-27.2949 56.9336-29.1504 50.8301-29.1504C29.541-29.1504 12.4512-14.6484 12.4512 1.51367C12.4512 8.64258 16.6016 12.6465 24.9512 12.6465ZM192.432 12.6465C200.781 12.6465 204.932 8.64258 204.932 1.51367C204.932-14.6484 187.793-29.1504 166.504-29.1504C160.4-29.1504 152.148-27.2949 146.387-24.5605C150.635-22.0215 153.516-18.8477 155.42-15.0879C157.959-16.1133 163.33-17.0898 166.504-17.0898C180.42-17.0898 191.309-8.49609 191.309-0.390625C191.309 0.0976562 191.113 0.537109 190.381 0.537109L160.938 0.537109C161.328 4.6875 159.521 10.2539 155.762 12.6465ZM80.127 0.292969C79.3945 0.292969 79.1504-0.146484 79.1504-0.634766C79.1504-6.25 90.1367-16.8457 108.691-16.8457C127.246-16.8457 138.232-6.25 138.232-0.634766C138.232-0.146484 137.988 0.292969 137.207 0.292969Z"/>
  </g>
  <g id="Bold-M" transform="matrix(1 0 0 1 2232.29 1126)">
   <path d="M107.715-34.1797C119.873-34.1797 129.59-44.7266 129.59-57.8613C129.59-70.7031 119.824-81.1035 107.715-81.1035C95.6543-81.1035 85.7422-70.6055 85.791-57.8125C85.8398-44.7266 95.5566-34.1797 107.715-34.1797ZM50.3906-33.1055C61.0352-33.1055 69.5801-42.3828 69.5801-53.9551C69.5801-65.1855 60.9375-74.4141 50.3906-74.4141C39.8926-74.4141 31.2012-65.0879 31.2012-53.9062C31.25-42.334 39.7949-33.1055 50.3906-33.1055ZM164.99-33.1055C175.586-33.1055 184.082-42.334 184.131-53.9062C184.18-65.0879 175.488-74.4141 164.99-74.4141C154.443-74.4141 145.801-65.1855 145.801-53.9551C145.801-42.3828 154.346-33.1055 164.99-33.1055ZM107.715-44.7754C101.709-44.7754 96.6309-50.3906 96.6309-57.8613C96.582-64.9414 101.758-70.5078 107.715-70.5078C113.721-70.5078 118.75-64.9902 118.75-57.8613C118.75-50.4883 113.77-44.7754 107.715-44.7754ZM50.3906-43.5059C45.6543-43.5059 41.6504-48.0469 41.6504-53.9062C41.6016-59.4238 45.7031-63.9648 50.3906-63.9648C55.127-63.9648 59.1797-59.4727 59.1797-53.9551C59.1797-48.0469 55.1758-43.5059 50.3906-43.5059ZM164.99-43.5059C160.205-43.5059 156.201-48.0469 156.201-53.9551C156.201-59.4727 160.254-63.9648 164.99-63.9648C169.678-63.9648 173.73-59.4238 173.73-53.9062C173.73-48.0469 169.727-43.5059 164.99-43.5059ZM24.0723 12.0117L61.2793 12.0117C58.0078 10.0098 56.2012 5.37109 56.5918 1.5625L24.9512 1.5625C24.1699 1.5625 23.877 1.17188 23.877 0.537109C23.877-8.98438 35.7422-18.5059 50.3906-18.5059C54.5898-18.5059 60.0098-17.334 63.3301-15.7227C65.0879-18.8965 67.5781-21.5332 71.1426-23.7305C65.1855-26.9531 57.1777-28.8574 50.3906-28.8574C29.3945-28.8574 12.4512-14.2578 12.4512 1.9043C12.4512 8.44727 16.3086 12.0117 24.0723 12.0117ZM191.309 12.0117C199.072 12.0117 202.93 8.44727 202.93 1.9043C202.93-14.2578 185.986-28.8574 164.99-28.8574C158.203-28.8574 150.195-26.9531 144.238-23.7305C147.803-21.5332 150.293-18.8965 152.051-15.7227C155.371-17.334 160.791-18.5059 164.99-18.5059C179.639-18.5059 191.504-8.98438 191.504 0.537109C191.504 1.17188 191.211 1.5625 190.43 1.5625L158.789 1.5625C159.18 5.37109 157.373 10.0098 154.102 12.0117ZM77.6855 11.9629L137.695 11.9629C146.68 11.9629 151.172 8.88672 151.172 2.44141C151.172-12.1094 133.301-28.8574 107.715-28.8574C82.0801-28.8574 64.209-12.1094 64.209 2.44141C64.209 8.88672 68.7012 11.9629 77.6855 11.9629ZM77.5879 1.36719C76.6602 1.36719 76.3672 0.976562 76.3672 0.292969C76.3672-6.15234 87.8418-18.2617 107.715-18.2617C127.539-18.2617 139.062-6.15234 139.062 0.292969C139.062 0.976562 138.721 1.36719 137.793 1.36719Z"/>
  </g>
  <g id="Semibold-M" transform="matrix(1 0 0 1 1936.26 1126)">
   <path d="M107.031-34.5215C118.994-34.5215 128.613-44.9707 128.613-57.9102C128.613-70.6055 118.994-80.8105 107.031-80.8105C95.166-80.8105 85.4004-70.5078 85.4004-57.8613C85.4492-44.9707 95.0684-34.5215 107.031-34.5215ZM50.0977-33.3984C60.498-33.3984 68.9453-42.627 68.9453-54.0039C68.9453-65.0879 60.498-74.1211 50.0977-74.1211C39.7461-74.1211 31.2012-64.9902 31.25-53.9551C31.25-42.5781 39.6973-33.3984 50.0977-33.3984ZM163.916-33.3984C174.316-33.3984 182.715-42.5781 182.764-53.9551C182.812-64.9902 174.268-74.1211 163.916-74.1211C153.516-74.1211 145.068-65.0879 145.068-54.0039C145.068-42.627 153.467-33.3984 163.916-33.3984ZM107.031-43.9453C100.586-43.9453 95.166-50 95.166-57.8613C95.1172-65.4785 100.586-71.3867 107.031-71.3867C113.525-71.3867 118.896-65.5273 118.896-57.9102C118.896-50.0977 113.525-43.9453 107.031-43.9453ZM50.0977-42.6758C44.9219-42.6758 40.5273-47.6562 40.5273-53.9551C40.4785-59.9609 44.9219-64.8438 50.0977-64.8438C55.3223-64.8438 59.7168-60.0586 59.7168-54.0039C59.7168-47.6562 55.3223-42.6758 50.0977-42.6758ZM163.916-42.6758C158.691-42.6758 154.297-47.6562 154.297-54.0039C154.297-60.0586 158.691-64.8438 163.916-64.8438C169.092-64.8438 173.535-59.9609 173.486-53.9551C173.486-47.6562 169.092-42.6758 163.916-42.6758ZM23.4375 11.5723L61.084 11.5723C58.1543 9.81445 56.3477 5.81055 56.6895 2.29492L23.584 2.29492C22.7051 2.29492 22.3633 1.9043 22.3633 1.12305C22.3633-9.32617 34.9609-19.4824 50.0488-19.4824C54.9805-19.4824 60.4492-18.2129 64.2578-16.1621C65.9668-18.8965 68.1641-21.1914 71.2402-23.1445C65.1855-26.709 57.3242-28.7109 50.0488-28.7109C29.248-28.7109 12.4512-14.0137 12.4512 2.19727C12.4512 8.34961 16.1133 11.5723 23.4375 11.5723ZM190.576 11.5723C197.9 11.5723 201.562 8.34961 201.562 2.19727C201.562-14.0137 184.766-28.7109 163.916-28.7109C156.689-28.7109 148.828-26.709 142.773-23.1445C145.801-21.1914 148.047-18.8965 149.756-16.1621C153.564-18.2129 159.033-19.4824 163.916-19.4824C179.053-19.4824 191.65-9.32617 191.65 1.12305C191.65 1.9043 191.309 2.29492 190.43 2.29492L157.275 2.29492C157.666 5.81055 155.859 9.81445 152.93 11.5723ZM76.7578 11.5234L137.256 11.5234C145.947 11.5234 150.195 8.69141 150.195 2.63672C150.195-11.2793 132.91-28.6621 106.982-28.6621C81.1035-28.6621 63.8184-11.2793 63.8184 2.63672C63.8184 8.69141 68.0664 11.5234 76.7578 11.5234ZM75.8789 2.09961C74.8047 2.09961 74.4141 1.75781 74.4141 0.927734C74.4141-6.10352 86.2305-19.2383 106.982-19.2383C127.783-19.2383 139.6-6.10352 139.6 0.927734C139.6 1.75781 139.209 2.09961 138.135 2.09961Z"/>
  </g>
  <g id="Medium-M" transform="matrix(1 0 0 1 1640.06 1126)">
   <path d="M106.494-34.7656C118.311-34.7656 127.881-45.166 127.881-57.959C127.881-70.5566 118.359-80.6152 106.494-80.6152C94.7754-80.6152 85.1074-70.4102 85.1074-57.8613C85.1562-45.1172 94.6777-34.7656 106.494-34.7656ZM49.8535-33.6426C60.1562-33.6426 68.457-42.7734 68.457-54.0527C68.457-65.0391 60.1562-73.9258 49.8535-73.9258C39.6484-73.9258 31.2012-64.8926 31.25-54.0039C31.25-42.7246 39.5996-33.6426 49.8535-33.6426ZM163.135-33.6426C173.34-33.6426 181.689-42.7246 181.738-54.0039C181.787-64.8926 173.34-73.9258 163.135-73.9258C152.832-73.9258 144.482-65.0391 144.482-54.0527C144.482-42.7734 152.832-33.6426 163.135-33.6426ZM106.494-43.3105C99.7559-43.3105 94.043-49.6582 94.043-57.9102C94.043-65.8691 99.707-72.0703 106.494-72.0703C113.33-72.0703 118.945-65.9668 118.945-57.959C118.945-49.7559 113.281-43.3105 106.494-43.3105ZM49.8535-42.0898C44.3359-42.0898 39.6484-47.3633 39.6484-54.0039C39.6484-60.3516 44.2871-65.5273 49.8535-65.5273C55.5176-65.5273 60.1074-60.4492 60.1074-54.0527C60.1074-47.3633 55.4199-42.0898 49.8535-42.0898ZM163.135-42.0898C157.52-42.0898 152.881-47.3633 152.881-54.0527C152.881-60.4492 157.471-65.5273 163.135-65.5273C168.652-65.5273 173.34-60.3516 173.34-54.0039C173.34-47.3633 168.652-42.0898 163.135-42.0898ZM22.998 11.2305L60.9375 11.2305C58.252 9.66797 56.4453 6.10352 56.7871 2.88086L22.5586 2.88086C21.6309 2.88086 21.2402 2.44141 21.2402 1.61133C21.2402-9.57031 34.3262-20.2148 49.8047-20.2148C55.2734-20.2148 60.7422-18.8477 64.9414-16.5039C66.6016-18.8965 68.6523-20.9473 71.3379-22.7051C65.1367-26.5137 57.4219-28.5645 49.8047-28.5645C29.1504-28.5645 12.4512-13.8184 12.4512 2.39258C12.4512 8.25195 15.9668 11.2305 22.998 11.2305ZM189.99 11.2305C197.021 11.2305 200.537 8.25195 200.537 2.39258C200.537-13.8184 183.789-28.5645 163.135-28.5645C155.566-28.5645 147.803-26.5137 141.65-22.7051C144.336-20.9473 146.387-18.8965 147.998-16.5039C152.197-18.8477 157.715-20.2148 163.135-20.2148C178.613-20.2148 191.748-9.57031 191.748 1.61133C191.748 2.44141 191.357 2.88086 190.43 2.88086L156.152 2.88086C156.494 6.10352 154.736 9.66797 152.051 11.2305ZM76.0742 11.2305L136.914 11.2305C145.361 11.2305 149.414 8.54492 149.414 2.7832C149.414-10.6445 132.666-28.5156 106.494-28.5156C80.3223-28.5156 63.5254-10.6445 63.5254 2.7832C63.5254 8.54492 67.627 11.2305 76.0742 11.2305ZM74.5117 2.68555C73.3887 2.68555 72.9492 2.29492 72.9492 1.41602C72.9492-6.05469 85.0098-19.9707 106.494-19.9707C127.979-19.9707 140.039-6.05469 140.039 1.41602C140.039 2.29492 139.6 2.68555 138.428 2.68555Z"/>
  </g>
  <g id="Regular-M" transform="matrix(1 0 0 1 1344.03 1126)">
   <path d="M105.811-35.0586C117.432-35.0586 126.904-45.4102 126.904-58.0078C126.904-70.459 117.578-80.3223 105.811-80.3223C94.2383-80.3223 84.7168-70.3125 84.7656-57.9102C84.7656-45.3613 94.2383-35.0586 105.811-35.0586ZM49.5605-33.9844C59.6191-33.9844 67.8711-43.0176 67.8711-54.1016C67.8711-64.9414 59.7168-73.6816 49.5605-73.6816C39.502-73.6816 31.2012-64.7949 31.25-54.0039C31.25-42.9688 39.502-33.9844 49.5605-33.9844ZM162.061-33.9844C172.119-33.9844 180.371-42.9688 180.371-54.0039C180.42-64.7949 172.119-73.6816 162.061-73.6816C151.904-73.6816 143.75-64.9414 143.75-54.1016C143.75-43.0176 152.002-33.9844 162.061-33.9844ZM105.811-42.4316C98.6816-42.4316 92.627-49.2676 92.627-57.9102C92.5781-66.4062 98.584-72.9492 105.811-72.9492C113.135-72.9492 119.043-66.5039 119.043-58.0078C119.043-49.3652 113.037-42.4316 105.811-42.4316ZM49.5605-41.2598C43.5547-41.2598 38.5254-46.9727 38.5254-54.0039C38.5254-60.8887 43.5059-66.4062 49.5605-66.4062C55.7129-66.4062 60.6445-60.9863 60.6445-54.1016C60.6445-46.9727 55.5664-41.2598 49.5605-41.2598ZM162.061-41.2598C156.055-41.2598 150.977-46.9727 150.977-54.1016C150.977-60.9863 155.908-66.4062 162.061-66.4062C168.115-66.4062 173.096-60.8887 173.096-54.0039C173.096-46.9727 168.018-41.2598 162.061-41.2598ZM22.3633 10.791L60.6934 10.791C58.3496 9.47266 56.5918 6.54297 56.9336 3.56445L21.1914 3.56445C20.166 3.56445 19.7266 3.17383 19.7266 2.24609C19.7266-9.86328 33.5449-21.1914 49.5117-21.1914C55.6152-21.1914 61.1816-19.7266 65.918-16.9434C67.4316-18.8965 69.2383-20.6055 71.4355-22.1191C65.1367-26.2695 57.5684-28.418 49.5117-28.418C29.0527-28.418 12.4512-13.5742 12.4512 2.68555C12.4512 8.10547 15.7715 10.791 22.3633 10.791ZM189.258 10.791C195.85 10.791 199.17 8.10547 199.17 2.68555C199.17-13.5742 182.568-28.418 162.109-28.418C154.053-28.418 146.484-26.2695 140.186-22.1191C142.383-20.6055 144.189-18.8965 145.703-16.9434C150.439-19.7266 155.957-21.1914 162.109-21.1914C178.076-21.1914 191.895-9.86328 191.895 2.24609C191.895 3.17383 191.455 3.56445 190.43 3.56445L154.688 3.56445C155.029 6.54297 153.223 9.47266 150.928 10.791ZM75.1465 10.791L136.475 10.791C144.58 10.791 148.486 8.34961 148.486 2.97852C148.486-9.81445 132.324-28.3203 105.811-28.3203C79.2969-28.3203 63.1348-9.81445 63.1348 2.97852C63.1348 8.34961 66.9922 10.791 75.1465 10.791ZM72.8027 3.41797C71.5332 3.41797 70.9961 3.07617 70.9961 2.05078C70.9961-5.95703 83.3984-20.9473 105.811-20.9473C128.223-20.9473 140.625-5.95703 140.625 2.05078C140.625 3.07617 140.088 3.41797 138.818 3.41797Z"/>
  </g>
  <g id="Light-M" transform="matrix(1 0 0 1 1047.79 1126)">
   <path d="M105.371-35.0098C116.748-35.0098 125.879-45.0195 125.879-57.4707C125.879-69.6777 116.699-79.3945 105.371-79.3945C94.043-79.3945 84.7656-69.5312 84.8633-57.4219C84.9121-44.9707 93.9453-35.0098 105.371-35.0098ZM105.371-40.7227C97.4121-40.7227 90.8691-48.0469 90.8691-57.4219C90.8203-66.5039 97.4121-73.6816 105.371-73.6816C113.33-73.6816 119.824-66.5527 119.824-57.4707C119.824-48.0957 113.33-40.7227 105.371-40.7227ZM49.0723-33.9355C59.0332-33.9355 66.9434-42.627 66.9434-53.6133C66.9434-64.209 58.9844-72.8027 49.0723-72.8027C39.3066-72.8027 31.2012-64.0625 31.25-53.5645C31.3477-42.627 39.209-33.9355 49.0723-33.9355ZM161.572-33.9355C171.484-33.9355 179.346-42.627 179.395-53.5645C179.492-64.0625 171.387-72.8027 161.572-72.8027C151.709-72.8027 143.75-64.209 143.75-53.6133C143.75-42.627 151.66-33.9355 161.572-33.9355ZM49.0723-39.5996C42.3828-39.5996 36.9141-45.7031 36.9141-53.5645C36.9141-61.0352 42.3828-67.1387 49.0723-67.1387C55.8594-67.1387 61.3281-61.1328 61.3281-53.6133C61.3281-45.7031 55.8594-39.5996 49.0723-39.5996ZM161.572-39.5996C154.834-39.5996 149.365-45.7031 149.365-53.6133C149.365-61.1328 154.834-67.1387 161.572-67.1387C168.262-67.1387 173.779-61.0352 173.779-53.5645C173.779-45.7031 168.311-39.5996 161.572-39.5996ZM21.3379 10.2051L61.5723 10.2051C59.7168 9.17969 58.2031 6.93359 58.252 4.58984L20.5566 4.58984C18.7988 4.58984 18.1152 3.95508 18.1152 2.34375C18.1152-10.6934 32.3242-22.4121 49.0234-22.4121C56.1523-22.4121 62.5977-20.5078 67.7734-16.8945C68.9941-18.3594 70.4102-19.6777 72.0703-20.8984C65.5762-25.5859 57.6172-28.0273 49.0234-28.0273C28.0762-28.0273 12.4512-12.8418 12.4512 2.63672C12.4512 7.71484 15.3809 10.2051 21.3379 10.2051ZM189.355 10.2051C195.264 10.2051 198.242 7.71484 198.242 2.63672C198.242-12.8418 182.617-28.0273 161.67-28.0273C153.076-28.0273 145.117-25.5859 138.623-20.8984C140.283-19.6777 141.699-18.3594 142.92-16.8945C148.096-20.5078 154.541-22.4121 161.67-22.4121C178.32-22.4121 192.578-10.6934 192.578 2.34375C192.578 3.95508 191.895 4.58984 190.137 4.58984L152.441 4.58984C152.49 6.93359 150.977 9.17969 149.121 10.2051ZM73.7793 10.2051L136.816 10.2051C143.994 10.2051 147.363 7.91016 147.363 2.97852C147.363-9.76562 131.348-27.8809 105.273-27.8809C79.248-27.8809 63.2324-9.76562 63.2324 2.97852C63.2324 7.91016 66.6016 10.2051 73.7793 10.2051ZM72.2168 4.44336C70.0195 4.44336 69.2383 3.90625 69.2383 2.34375C69.2383-6.88477 82.3242-22.168 105.273-22.168C128.271-22.168 141.357-6.88477 141.357 2.34375C141.357 3.90625 140.576 4.44336 138.379 4.44336Z"/>
  </g>
  <g id="Thin-M" transform="matrix(1 0 0 1 751.686 1126)">
   <path d="M104.736-34.9121C115.82-34.9121 124.463-44.4824 124.463-56.7871C124.463-68.5547 115.625-78.1738 104.736-78.1738C93.7988-78.1738 84.8633-68.457 84.9609-56.7383C85.1074-44.4824 93.6035-34.9121 104.736-34.9121ZM104.736-38.4766C95.7031-38.4766 88.623-46.3867 88.623-56.7383C88.5254-66.5527 95.8008-74.6094 104.736-74.6094C113.574-74.6094 120.85-66.6504 120.85-56.7871C120.85-46.3867 113.77-38.4766 104.736-38.4766ZM48.4863-33.8379C58.2031-33.8379 65.7227-42.1387 65.7227-52.9785C65.7227-63.2324 57.959-71.6309 48.4863-71.6309C39.0137-71.6309 31.2012-63.1348 31.2988-52.9297C31.3965-42.1387 38.8184-33.8379 48.4863-33.8379ZM160.938-33.8379C170.654-33.8379 178.027-42.1387 178.125-52.9297C178.271-63.1348 170.459-71.6309 160.938-71.6309C151.465-71.6309 143.701-63.2324 143.701-52.9785C143.701-42.1387 151.27-33.8379 160.938-33.8379ZM48.4863-37.3535C40.8203-37.3535 34.8145-44.0918 34.8145-52.9297C34.8145-61.2305 40.918-68.1641 48.4863-68.1641C56.0547-68.1641 62.2559-61.2793 62.2559-52.9785C62.2559-44.0918 56.2012-37.3535 48.4863-37.3535ZM160.938-37.3535C153.223-37.3535 147.217-44.0918 147.217-52.9785C147.217-61.2793 153.418-68.1641 160.938-68.1641C168.506-68.1641 174.658-61.2305 174.658-52.9297C174.658-44.0918 168.652-37.3535 160.938-37.3535ZM19.9707 9.375L62.6953 9.375C61.5234 8.74023 60.3516 7.42188 60.0098 5.9082L19.7266 5.9082C16.9922 5.9082 15.9668 4.98047 15.9668 2.49023C15.9668-11.8164 30.7617-24.0723 48.3887-24.0723C56.8848-24.0723 64.502-21.582 70.2637-16.8457C71.0449-17.6758 71.9238-18.457 72.9004-19.2383C66.2109-24.6582 57.7148-27.5391 48.3887-27.5391C26.7578-27.5391 12.4512-11.9141 12.4512 2.58789C12.4512 7.17773 14.9414 9.375 19.9707 9.375ZM189.502 9.375C194.531 9.375 197.021 7.17773 197.021 2.58789C197.021-11.9141 182.666-27.5391 161.084-27.5391C151.758-27.5391 143.262-24.6582 136.572-19.2383C137.549-18.457 138.379-17.6758 139.209-16.8457C144.971-21.582 152.588-24.0723 161.084-24.0723C178.711-24.0723 193.506-11.8164 193.506 2.49023C193.506 4.98047 192.48 5.9082 189.697 5.9082L149.463 5.9082C149.072 7.42188 147.949 8.74023 146.729 9.375ZM71.9727 9.375L137.256 9.375C143.164 9.375 145.947 7.37305 145.947 2.97852C145.947-9.66797 130.078-27.3438 104.639-27.3438C79.1504-27.3438 63.3301-9.66797 63.3301 2.97852C63.3301 7.37305 66.1133 9.375 71.9727 9.375ZM71.4844 5.85938C68.0176 5.85938 66.9434 5.0293 66.9434 2.73438C66.9434-8.1543 80.9082-23.8281 104.639-23.8281C128.32-23.8281 142.285-8.1543 142.285 2.73438C142.285 5.0293 141.211 5.85938 137.744 5.85938Z"/>
  </g>
  <g id="Ultralight-M" transform="matrix(1 0 0 1 455.292 1126)">
   <path d="M104.395-34.8633C115.381-34.8633 123.73-44.1895 123.73-56.4453C123.73-68.0176 115.039-77.5391 104.395-77.5391C93.7012-77.5391 84.9121-67.9199 85.0586-56.4453C85.1562-44.2383 93.457-34.8633 104.395-34.8633ZM104.395-37.3047C94.8242-37.3047 87.4512-45.5566 87.4512-56.4453C87.3047-66.6016 95.0195-75.1465 104.395-75.1465C113.721-75.1465 121.338-66.6504 121.338-56.4453C121.338-45.5566 113.965-37.3047 104.395-37.3047ZM48.1934-33.8379C57.8125-33.8379 65.1367-41.8945 65.1367-52.6367C65.1367-62.6953 57.4707-71.0449 48.1934-71.0449C38.8672-71.0449 31.2012-62.6465 31.3477-52.6367C31.4453-41.8945 38.623-33.8379 48.1934-33.8379ZM160.645-33.8379C170.215-33.8379 177.393-41.8945 177.49-52.6367C177.637-62.6465 169.971-71.0449 160.645-71.0449C151.367-71.0449 143.701-62.6953 143.701-52.6367C143.701-41.8945 151.025-33.8379 160.645-33.8379ZM48.1934-36.2305C39.9902-36.2305 33.7402-43.2129 33.7402-52.6367C33.7402-61.3281 40.1855-68.6523 48.1934-68.6523C56.1523-68.6523 62.7441-61.377 62.7441-52.6367C62.7441-43.2129 56.3965-36.2305 48.1934-36.2305ZM160.645-36.2305C152.441-36.2305 146.094-43.2129 146.094-52.6367C146.094-61.377 152.686-68.6523 160.645-68.6523C168.652-68.6523 175.098-61.3281 175.098-52.6367C175.098-43.2129 168.848-36.2305 160.645-36.2305ZM19.2383 8.93555L63.2812 8.93555C62.4512 8.54492 61.4746 7.71484 60.8887 6.5918L19.3359 6.5918C16.0645 6.5918 14.8438 5.46875 14.8438 2.58789C14.8438-12.3535 29.9805-24.9023 48.0957-24.9023C57.2266-24.9023 65.4297-22.168 71.5332-16.7969C72.1191-17.334 72.7051-17.8223 73.291-18.3594C66.5039-24.1699 57.7637-27.2461 48.0957-27.2461C26.123-27.2461 12.4512-11.4258 12.4512 2.58789C12.4512 6.93359 14.6973 8.93555 19.2383 8.93555ZM189.6 8.93555C194.141 8.93555 196.387 6.93359 196.387 2.58789C196.387-11.4258 182.715-27.2461 160.742-27.2461C151.074-27.2461 142.334-24.1699 135.498-18.3594C136.133-17.8223 136.719-17.334 137.305-16.7969C143.408-22.168 151.611-24.9023 160.742-24.9023C178.857-24.9023 193.994-12.3535 193.994 2.58789C193.994 5.46875 192.773 6.5918 189.502 6.5918L147.949 6.5918C147.363 7.71484 146.387 8.54492 145.557 8.93555ZM71.0938 8.93555L137.5 8.93555C142.725 8.93555 145.166 7.08008 145.166 2.92969C145.166-9.61914 129.443-27.0508 104.297-27.0508C79.1016-27.0508 63.3789-9.61914 63.3789 2.92969C63.3789 7.08008 65.8203 8.93555 71.0938 8.93555ZM71.0938 6.54297C66.9922 6.54297 65.7715 5.61523 65.7715 2.97852C65.7715-8.74023 80.1758-24.6582 104.297-24.6582C128.369-24.6582 142.773-8.74023 142.773 2.97852C142.773 5.61523 141.553 6.54297 137.451 6.54297Z"/>
  </g>
  <g id="Black-S" transform="matrix(1 0 0 1 2847.63 696)">
   <path d="M85.791-33.7402C95.752-33.7402 103.564-42.1875 103.564-52.8809C103.564-63.1836 95.5566-71.7773 85.791-71.7773C76.0254-71.7773 67.9688-63.1836 68.0176-52.8809C68.0664-42.1875 75.8301-33.7402 85.791-33.7402ZM40.1367-32.9102C48.877-32.9102 55.8105-40.3809 55.8105-49.8047C55.8105-58.8867 48.6816-66.4551 40.1367-66.4551C31.543-66.4551 24.4141-58.8379 24.4629-49.8047C24.5117-40.332 31.3965-32.9102 40.1367-32.9102ZM131.396-32.9102C140.137-32.9102 147.021-40.332 147.07-49.8047C147.119-58.8379 139.99-66.4551 131.396-66.4551C122.852-66.4551 115.723-58.8867 115.723-49.8047C115.723-40.3809 122.656-32.9102 131.396-32.9102ZM85.791-44.4824C81.9336-44.4824 78.7598-47.998 78.7598-52.9297C78.7109-57.373 82.0801-61.0352 85.791-61.0352C89.5508-61.0352 92.8223-57.373 92.8223-52.8809C92.8223-48.0469 89.6973-44.4824 85.791-44.4824ZM40.1367-43.457C37.3535-43.457 35.0098-46.0938 35.0098-49.8047C34.9609-53.125 37.4512-55.9082 40.1367-55.9082C42.7734-55.9082 45.2637-53.125 45.2637-49.8047C45.2637-46.0938 42.9688-43.457 40.1367-43.457ZM131.396-43.457C128.564-43.457 126.27-46.0938 126.27-49.8047C126.27-53.125 128.76-55.9082 131.396-55.9082C134.082-55.9082 136.572-53.125 136.523-49.8047C136.523-46.0938 134.18-43.457 131.396-43.457ZM62.793 2.63672L108.789 2.63672C116.504 2.63672 120.459-0.244141 120.459-6.15234C120.459-18.8477 105.176-30.6641 85.791-30.6641C66.4062-30.6641 51.123-18.8477 51.123-6.15234C51.123-0.244141 55.0781 2.63672 62.793 2.63672ZM20.1172 2.68555L48.4375 2.68555C45.166 0.585938 43.75-4.3457 44.0918-7.91016L22.4121-7.91016C21.9238-7.91016 21.8262-8.25195 21.8262-8.49609C21.8262-13.9648 29.6875-20.1172 40.1367-20.1172C41.9922-20.1172 46.1426-19.4336 47.6562-19.043C49.2188-22.4121 51.709-25.1953 55.5176-27.3926C51.123-29.248 44.4824-30.6152 40.1367-30.6152C23.291-30.6152 9.76562-19.3359 9.76562-6.68945C9.76562-0.732422 13.1836 2.68555 20.1172 2.68555ZM151.416 2.68555C158.35 2.68555 161.768-0.732422 161.768-6.68945C161.768-19.3359 148.242-30.6152 131.396-30.6152C127.051-30.6152 120.41-29.248 116.016-27.3926C119.824-25.1953 122.314-22.4121 123.877-19.043C125.391-19.4336 129.541-20.1172 131.396-20.1172C141.846-20.1172 149.707-13.9648 149.707-8.49609C149.707-8.25195 149.609-7.91016 149.121-7.91016L127.441-7.91016C127.783-4.3457 126.367 0.585938 123.096 2.68555ZM64.4043-8.10547C63.916-8.10547 63.8184-8.44727 63.8184-8.74023C63.8184-12.5488 72.1191-19.9219 85.791-19.9219C99.4629-19.9219 107.764-12.5488 107.764-8.74023C107.764-8.44727 107.666-8.10547 107.178-8.10547Z"/>
  </g>
  <g id="Heavy-S" transform="matrix(1 0 0 1 2551.53 696)">
   <path d="M85.1562-34.082C94.9219-34.082 102.686-42.4805 102.686-52.9785C102.686-63.1836 94.8242-71.582 85.1562-71.582C75.5371-71.582 67.5781-63.1836 67.627-52.9785C67.6758-42.4805 75.3906-34.082 85.1562-34.082ZM39.8926-33.252C48.4375-33.252 55.2734-40.625 55.2734-49.9023C55.2734-58.8867 48.3398-66.3086 39.8926-66.3086C31.4453-66.3086 24.4141-58.7891 24.4629-49.9023C24.5117-40.5762 31.3477-33.252 39.8926-33.252ZM130.42-33.252C138.965-33.252 145.801-40.5762 145.801-49.9023C145.85-58.7891 138.867-66.3086 130.42-66.3086C121.973-66.3086 114.99-58.8867 114.99-49.9023C114.99-40.625 121.826-33.252 130.42-33.252ZM85.1562-43.8477C81.0059-43.8477 77.4902-47.7051 77.4902-53.0273C77.4414-57.9102 81.0547-61.8164 85.1562-61.8164C89.3066-61.8164 92.8223-57.9102 92.8223-52.9785C92.8223-47.8027 89.4043-43.8477 85.1562-43.8477ZM39.8926-42.8223C36.7188-42.8223 34.0332-45.8496 34.0332-49.9023C34.0332-53.6133 36.7676-56.6895 39.8926-56.6895C42.9688-56.6895 45.7031-53.6621 45.7031-49.9023C45.7031-45.8496 43.0664-42.8223 39.8926-42.8223ZM130.42-42.8223C127.197-42.8223 124.561-45.8496 124.561-49.9023C124.561-53.6621 127.344-56.6895 130.42-56.6895C133.496-56.6895 136.279-53.6133 136.23-49.9023C136.23-45.8496 133.545-42.8223 130.42-42.8223ZM62.0117 2.29492L108.301 2.29492C115.82 2.29492 119.58-0.390625 119.58-5.95703C119.58-18.0176 104.932-30.5176 85.1562-30.5176C65.3809-30.5176 50.7324-18.0176 50.7324-5.95703C50.7324-0.390625 54.4922 2.29492 62.0117 2.29492ZM19.6289 2.29492L48.1445 2.29492C45.166 0.439453 43.7012-3.95508 44.043-7.27539L21.0938-7.27539C20.6543-7.27539 20.5078-7.61719 20.5078-7.91016C20.5078-14.209 29.0039-20.9473 39.8926-20.9473C42.334-20.9473 46.3867-20.2148 48.3887-19.4824C49.9023-22.4609 52.1973-24.9512 55.5664-26.9531C51.0254-29.1016 44.6289-30.4688 39.8926-30.4688C23.291-30.4688 9.76562-19.1406 9.76562-6.39648C9.76562-0.830078 13.0371 2.29492 19.6289 2.29492ZM150.684 2.29492C157.275 2.29492 160.547-0.830078 160.547-6.39648C160.547-19.1406 147.021-30.4688 130.42-30.4688C125.684-30.4688 119.238-29.1016 114.746-26.9531C118.115-24.9512 120.41-22.4609 121.924-19.4824C123.877-20.2148 127.979-20.9473 130.42-20.9473C141.26-20.9473 149.756-14.209 149.756-7.91016C149.756-7.61719 149.658-7.27539 149.17-7.27539L126.221-7.27539C126.562-3.95508 125.146 0.439453 122.168 2.29492ZM62.7441-7.4707C62.207-7.4707 62.0605-7.76367 62.0605-8.1543C62.0605-12.4023 70.6543-20.752 85.1562-20.752C99.6582-20.752 108.252-12.4023 108.252-8.1543C108.252-7.76367 108.105-7.4707 107.617-7.4707Z"/>
  </g>
  <g id="Bold-S" transform="matrix(1 0 0 1 2255.53 696)">
   <path d="M84.4727-34.4238C94.043-34.4238 101.758-42.7734 101.758-53.125C101.758-63.2324 94.043-71.3867 84.4727-71.3867C74.9512-71.3867 67.1387-63.1348 67.1875-53.0762C67.1875-42.7734 74.8535-34.4238 84.4727-34.4238ZM39.5996-33.5938C47.9492-33.5938 54.7363-40.918 54.7363-50.0488C54.7363-58.8867 47.9004-66.1133 39.5996-66.1133C31.2988-66.1133 24.4629-58.7891 24.4629-50C24.5117-40.8691 31.25-33.5938 39.5996-33.5938ZM129.297-33.5938C137.646-33.5938 144.385-40.8691 144.434-50C144.482-58.7891 137.598-66.1133 129.297-66.1133C120.996-66.1133 114.16-58.8867 114.16-50.0488C114.16-40.918 120.947-33.5938 129.297-33.5938ZM84.4727-43.1152C79.9316-43.1152 76.0742-47.4121 76.0742-53.0762C76.0254-58.4961 79.9316-62.7441 84.4727-62.7441C89.0137-62.7441 92.8711-58.5449 92.8711-53.125C92.8711-47.4609 89.0137-43.1152 84.4727-43.1152ZM39.5996-42.0898C36.0352-42.0898 32.959-45.5566 32.959-50C32.959-54.1992 36.0352-57.6172 39.5996-57.6172C43.1641-57.6172 46.2402-54.248 46.2402-50.0488C46.2402-45.5566 43.1641-42.0898 39.5996-42.0898ZM129.297-42.0898C125.732-42.0898 122.656-45.5566 122.656-50.0488C122.656-54.248 125.732-57.6172 129.297-57.6172C132.861-57.6172 135.938-54.1992 135.938-50C135.938-45.5566 132.861-42.0898 129.297-42.0898ZM19.0918 1.9043L47.8027 1.9043C45.1172 0.244141 43.6523-3.51562 44.043-6.5918L19.6777-6.5918C19.1895-6.5918 19.043-6.88477 19.043-7.22656C19.043-14.4531 28.2715-21.875 39.5996-21.875C42.6758-21.875 46.6797-21.0449 49.1699-19.9707C50.6348-22.5586 52.6855-24.707 55.6152-26.5137C50.9766-28.9062 44.7754-30.3223 39.5996-30.3223C23.2422-30.3223 9.76562-18.9453 9.76562-6.10352C9.76562-0.927734 12.8418 1.9043 19.0918 1.9043ZM149.805 1.9043C156.055 1.9043 159.131-0.927734 159.131-6.10352C159.131-18.9453 145.654-30.3223 129.297-30.3223C124.121-30.3223 117.92-28.9062 113.33-26.5137C116.211-24.707 118.262-22.5586 119.727-19.9707C122.217-21.0449 126.221-21.875 129.297-21.875C140.625-21.875 149.854-14.4531 149.854-7.22656C149.854-6.88477 149.707-6.5918 149.268-6.5918L124.854-6.5918C125.244-3.51562 123.779 0.244141 121.094 1.9043ZM61.1328 1.9043L107.764 1.9043C115.039 1.9043 118.652-0.585938 118.652-5.71289C118.652-17.0898 104.639-30.3223 84.4727-30.3223C64.2578-30.3223 50.293-17.0898 50.293-5.71289C50.293-0.585938 53.8574 1.9043 61.1328 1.9043ZM60.8398-6.78711C60.3516-6.78711 60.1562-7.03125 60.1562-7.4707C60.1562-12.207 68.9941-21.6797 84.4727-21.6797C99.9023-21.6797 108.789-12.207 108.789-7.4707C108.789-7.03125 108.594-6.78711 108.057-6.78711Z"/>
  </g>
  <g id="Semibold-S" transform="matrix(1 0 0 1 1959.31 696)">
   <path d="M83.9844-34.7168C93.4082-34.7168 101.074-43.0176 101.074-53.1738C101.074-63.2324 93.457-71.2402 83.9844-71.2402C74.5605-71.2402 66.8457-63.1348 66.8457-53.125C66.8945-42.9688 74.5117-34.7168 83.9844-34.7168ZM39.4043-33.8379C47.6074-33.8379 54.2969-41.1621 54.2969-50.0977C54.2969-58.8867 47.6562-66.0156 39.4043-66.0156C31.2012-66.0156 24.4629-58.7402 24.4629-50.0488C24.4629-41.1133 31.2012-33.8379 39.4043-33.8379ZM128.564-33.8379C136.719-33.8379 143.457-41.1133 143.457-50.0488C143.506-58.7402 136.719-66.0156 128.564-66.0156C120.312-66.0156 113.623-58.8867 113.623-50.0977C113.623-41.1621 120.312-33.8379 128.564-33.8379ZM83.9844-42.5781C79.1992-42.5781 75.0977-47.2168 75.0977-53.125C75.0488-58.9355 79.1504-63.3301 83.9844-63.3301C88.8184-63.3301 92.8711-58.9844 92.8711-53.1738C92.8711-47.2656 88.7695-42.5781 83.9844-42.5781ZM39.4043-41.6016C35.5469-41.6016 32.2266-45.3613 32.2266-50.0488C32.2266-54.5898 35.5469-58.2031 39.4043-58.2031C43.3105-58.2031 46.582-54.6387 46.582-50.0977C46.582-45.3613 43.2617-41.6016 39.4043-41.6016ZM128.564-41.6016C124.658-41.6016 121.387-45.3613 121.387-50.0977C121.387-54.6387 124.609-58.2031 128.564-58.2031C132.422-58.2031 135.693-54.5898 135.693-50.0488C135.693-45.3613 132.373-41.6016 128.564-41.6016ZM18.7012 1.61133L47.5586 1.61133C45.1172 0.146484 43.6035-3.22266 43.9941-6.15234L18.6523-6.15234C18.2129-6.15234 18.0176-6.39648 18.0176-6.73828C18.0176-14.6484 27.7832-22.5098 39.4043-22.5098C42.9199-22.5098 46.875-21.6309 49.7559-20.3125C51.1719-22.6074 53.0762-24.5117 55.6152-26.1719C50.9277-28.7598 44.873-30.2246 39.4043-30.2246C23.2422-30.2246 9.76562-18.8477 9.76562-5.9082C9.76562-0.976562 12.7441 1.61133 18.7012 1.61133ZM149.219 1.61133C155.176 1.61133 158.154-0.976562 158.154-5.9082C158.154-18.8477 144.678-30.2246 128.564-30.2246C123.047-30.2246 117.041-28.7598 112.305-26.1719C114.893-24.5117 116.748-22.6074 118.164-20.3125C121.045-21.6309 125-22.5098 128.564-22.5098C140.186-22.5098 149.902-14.6484 149.902-6.73828C149.902-6.39648 149.707-6.15234 149.268-6.15234L123.926-6.15234C124.316-3.22266 122.852 0.146484 120.361 1.61133ZM60.5469 1.61133L107.373 1.61133C114.502 1.61133 117.969-0.683594 117.969-5.56641C117.969-16.4551 104.443-30.2246 83.9844-30.2246C63.4766-30.2246 49.9512-16.4551 49.9512-5.56641C49.9512-0.683594 53.418 1.61133 60.5469 1.61133ZM59.5215-6.29883C59.0332-6.29883 58.7891-6.54297 58.7891-6.98242C58.7891-12.0605 67.8223-22.3145 83.9844-22.3145C100.098-22.3145 109.131-12.0605 109.131-6.98242C109.131-6.54297 108.887-6.29883 108.398-6.29883Z"/>
  </g>
  <g id="Medium-S" transform="matrix(1 0 0 1 1662.96 696)">
   <path d="M83.5938-34.9121C92.9199-34.9121 100.586-43.1641 100.586-53.2715C100.586-63.2324 93.0176-71.1426 83.5938-71.1426C74.2676-71.1426 66.6016-63.1348 66.6016-53.1738C66.6504-43.1641 74.2676-34.9121 83.5938-34.9121ZM39.2578-34.0332C47.3633-34.0332 54.0039-41.3086 54.0039-50.1953C54.0039-58.8867 47.4121-65.918 39.2578-65.918C31.1523-65.918 24.4629-58.7402 24.4629-50.0977C24.4629-41.2598 31.1523-34.0332 39.2578-34.0332ZM127.979-34.0332C136.035-34.0332 142.725-41.2598 142.725-50.0977C142.773-58.7402 136.035-65.918 127.979-65.918C119.775-65.918 113.184-58.8867 113.184-50.1953C113.184-41.3086 119.873-34.0332 127.979-34.0332ZM83.5938-42.2363C78.6621-42.2363 74.3164-47.0215 74.3164-53.1738C74.3164-59.2285 78.5645-63.8184 83.5938-63.8184C88.6719-63.8184 92.8711-59.2773 92.8711-53.2715C92.8711-47.1191 88.623-42.2363 83.5938-42.2363ZM39.2578-41.2598C35.2051-41.2598 31.6895-45.2148 31.6895-50.0977C31.6895-54.8828 35.1562-58.6914 39.2578-58.6914C43.457-58.6914 46.8262-54.9316 46.8262-50.1953C46.8262-45.2148 43.3105-41.2598 39.2578-41.2598ZM127.979-41.2598C123.877-41.2598 120.361-45.2148 120.361-50.1953C120.361-54.9316 123.779-58.6914 127.979-58.6914C132.08-58.6914 135.547-54.8828 135.547-50.0977C135.547-45.2148 132.031-41.2598 127.979-41.2598ZM18.4082 1.41602L47.3633 1.41602C45.1172 0.0488281 43.6035-2.97852 43.9941-5.76172L17.8711-5.76172C17.4805-5.76172 17.2363-6.00586 17.2363-6.39648C17.2363-14.7949 27.3926-22.998 39.2578-22.998C43.1152-22.998 47.0215-22.1191 50.1953-20.6055C51.5625-22.6074 53.3203-24.4141 55.6152-25.9277C50.8789-28.6621 44.9707-30.1758 39.2578-30.1758C23.2422-30.1758 9.76562-18.7012 9.76562-5.71289C9.76562-1.02539 12.6465 1.41602 18.4082 1.41602ZM148.779 1.41602C154.541 1.41602 157.422-1.02539 157.422-5.71289C157.422-18.7012 143.945-30.1758 127.979-30.1758C122.217-30.1758 116.357-28.6621 111.572-25.9277C113.867-24.4141 115.625-22.6074 117.041-20.6055C120.166-22.1191 124.121-22.998 127.979-22.998C139.844-22.998 149.951-14.7949 149.951-6.39648C149.951-6.00586 149.756-5.76172 149.316-5.76172L123.242-5.76172C123.633-2.97852 122.119 0.0488281 119.824 1.41602ZM60.1074 1.41602L107.08 1.41602C114.111 1.41602 117.48-0.78125 117.48-5.41992C117.48-15.9668 104.297-30.127 83.5938-30.127C62.8906-30.127 49.707-15.9668 49.707-5.41992C49.707-0.78125 53.0762 1.41602 60.1074 1.41602ZM58.5449-5.9082C58.0078-5.9082 57.7637-6.15234 57.7637-6.64062C57.7637-11.9629 66.9922-22.8027 83.5938-22.8027C100.244-22.8027 109.424-11.9629 109.424-6.64062C109.424-6.15234 109.18-5.9082 108.643-5.9082Z"/>
  </g>
  <g id="Regular-S" transform="matrix(1 0 0 1 1366.71 696)">
   <path d="M83.1055-35.1562C92.334-35.1562 99.9023-43.4082 99.9023-53.3203C99.9023-63.2324 92.4805-70.9961 83.1055-70.9961C73.877-70.9961 66.3086-63.0859 66.3086-53.2227C66.3086-43.3594 73.9258-35.1562 83.1055-35.1562ZM39.0625-34.2773C47.0215-34.2773 53.6133-41.5039 53.6133-50.2441C53.6133-58.8867 47.168-65.7715 39.0625-65.7715C31.0547-65.7715 24.4629-58.7402 24.4629-50.1953C24.4629-41.4551 31.1035-34.2773 39.0625-34.2773ZM127.197-34.2773C135.156-34.2773 141.797-41.4551 141.797-50.1953C141.797-58.7402 135.205-65.7715 127.197-65.7715C119.092-65.7715 112.646-58.8867 112.646-50.2441C112.646-41.5039 119.238-34.2773 127.197-34.2773ZM83.1055-41.748C77.9297-41.748 73.3398-46.8262 73.3398-53.2227C73.3398-59.6191 77.7832-64.4043 83.1055-64.4043C88.4766-64.4043 92.8711-59.7168 92.8711-53.3203C92.8711-46.9238 88.3789-41.748 83.1055-41.748ZM39.0625-40.7715C34.7168-40.7715 30.957-45.0195 30.957-50.1953C30.957-55.2246 34.6191-59.2773 39.0625-59.2773C43.5547-59.2773 47.168-55.3223 47.168-50.2441C47.168-45.0195 43.4082-40.7715 39.0625-40.7715ZM127.197-40.7715C122.852-40.7715 119.092-45.0195 119.092-50.2441C119.092-55.3223 122.705-59.2773 127.197-59.2773C131.641-59.2773 135.303-55.2246 135.303-50.1953C135.303-45.0195 131.543-40.7715 127.197-40.7715ZM18.0664 1.12305L47.168 1.12305C45.0684-0.0488281 43.5547-2.68555 43.9453-5.32227L16.8945-5.32227C16.5039-5.32227 16.2598-5.51758 16.2598-5.95703C16.2598-14.9902 26.8555-23.6328 39.0137-23.6328C43.3594-23.6328 47.2656-22.7051 50.7324-20.9473C52.0996-22.6562 53.7109-24.2188 55.6641-25.5859C50.7812-28.5645 45.0684-30.0781 39.0137-30.0781C23.2422-30.0781 9.76562-18.6035 9.76562-5.51758C9.76562-1.07422 12.5488 1.12305 18.0664 1.12305ZM148.193 1.12305C153.711 1.12305 156.494-1.07422 156.494-5.51758C156.494-18.6035 143.018-30.0781 127.246-30.0781C121.191-30.0781 115.479-28.5645 110.596-25.5859C112.549-24.2188 114.16-22.6562 115.527-20.9473C119.043-22.7051 122.9-23.6328 127.246-23.6328C139.404-23.6328 150-14.9902 150-5.95703C150-5.51758 149.756-5.32227 149.365-5.32227L122.314-5.32227C122.705-2.68555 121.191-0.0488281 119.092 1.12305ZM59.4727 1.12305L106.738 1.12305C113.574 1.12305 116.797-0.878906 116.797-5.27344C116.797-15.332 104.102-30.0293 83.1055-30.0293C62.1582-30.0293 49.4141-15.332 49.4141-5.27344C49.4141-0.878906 52.6855 1.12305 59.4727 1.12305ZM57.2754-5.46875C56.7383-5.46875 56.4453-5.61523 56.4453-6.15234C56.4453-11.8652 65.8203-23.4375 83.1055-23.4375C100.391-23.4375 109.766-11.8652 109.766-6.15234C109.766-5.61523 109.473-5.46875 108.936-5.46875Z"/>
  </g>
  <g id="Light-S" transform="matrix(1 0 0 1 1070.42 696)">
   <path d="M82.7148-35.1074C91.6992-35.1074 99.0234-43.0664 99.0234-52.8809C99.0234-62.5 91.748-70.166 82.7148-70.166C73.7305-70.166 66.4062-62.4023 66.4062-52.7832C66.4551-43.0176 73.7305-35.1074 82.7148-35.1074ZM82.7148-40.1855C76.8066-40.1855 71.8262-45.752 71.8262-52.7832C71.8262-59.668 76.7578-65.0879 82.7148-65.0879C88.6719-65.0879 93.5547-59.7656 93.5547-52.8809C93.5547-45.8008 88.6719-40.1855 82.7148-40.1855ZM38.623-34.2285C46.4844-34.2285 52.832-41.1621 52.832-49.8047C52.832-58.2031 46.4844-64.9902 38.623-64.9902C30.8594-64.9902 24.4629-58.1055 24.5117-49.7559C24.5117-41.1621 30.8594-34.2285 38.623-34.2285ZM126.807-34.2285C134.619-34.2285 140.918-41.1621 140.967-49.7559C140.967-58.1055 134.57-64.9902 126.807-64.9902C118.945-64.9902 112.646-58.2031 112.646-49.8047C112.646-41.1621 118.945-34.2285 126.807-34.2285ZM38.623-39.2578C33.6914-39.2578 29.541-43.9453 29.541-49.7559C29.541-55.3711 33.6426-59.9609 38.623-59.9609C43.7012-59.9609 47.8027-55.4688 47.8027-49.8047C47.8027-43.9453 43.6523-39.2578 38.623-39.2578ZM126.807-39.2578C121.777-39.2578 117.627-43.9453 117.627-49.8047C117.627-55.4688 121.729-59.9609 126.807-59.9609C131.787-59.9609 135.889-55.3711 135.889-49.7559C135.889-43.9453 131.787-39.2578 126.807-39.2578ZM17.1387 0.585938L47.9004 0.585938C46.2891-0.341797 45.0195-2.34375 45.1172-4.39453L16.3574-4.39453C15.2832-4.39453 14.7949-4.83398 14.7949-5.85938C14.7949-15.7227 25.8301-24.707 38.623-24.707C43.7988-24.707 48.4863-23.3887 52.3926-20.8984C53.4668-22.2168 54.7363-23.3887 56.2012-24.4629C51.2207-27.9297 45.1172-29.7363 38.623-29.7363C22.3633-29.7363 9.76562-17.9688 9.76562-5.56641C9.76562-1.41602 12.207 0.585938 17.1387 0.585938ZM148.291 0.585938C153.223 0.585938 155.664-1.41602 155.664-5.56641C155.664-17.9688 143.066-29.7363 126.807-29.7363C120.312-29.7363 114.209-27.9297 109.229-24.4629C110.742-23.3887 111.963-22.2168 113.037-20.8984C116.943-23.3887 121.631-24.707 126.807-24.707C139.648-24.707 150.635-15.7227 150.635-5.85938C150.635-4.83398 150.195-4.39453 149.072-4.39453L120.312-4.39453C120.459-2.34375 119.141-0.341797 117.529 0.585938ZM58.3008 0.585938L107.031 0.585938C113.037 0.585938 115.869-1.26953 115.869-5.27344C115.869-15.2832 103.271-29.6387 82.666-29.6387C62.1094-29.6387 49.5117-15.2832 49.5117-5.27344C49.5117-1.26953 52.3438 0.585938 58.3008 0.585938ZM56.7871-4.54102C55.4199-4.54102 54.9316-4.88281 54.9316-5.9082C54.9316-12.6953 64.8926-24.5117 82.666-24.5117C100.439-24.5117 110.449-12.6953 110.449-5.9082C110.449-4.88281 109.912-4.54102 108.545-4.54102Z"/>
  </g>
  <g id="Thin-S" transform="matrix(1 0 0 1 774.244 696)">
   <path d="M82.1777-35.0098C90.918-35.0098 97.8027-42.5781 97.8027-52.2461C97.8027-61.5723 90.7715-69.0918 82.1777-69.0918C73.5352-69.0918 66.5039-61.4746 66.5527-52.2461C66.6504-42.5781 73.4375-35.0098 82.1777-35.0098ZM82.1777-38.1836C75.293-38.1836 69.873-44.2871 69.873-52.2461C69.7754-59.7656 75.3906-65.918 82.1777-65.918C88.9648-65.918 94.4824-59.8145 94.4824-52.2461C94.4824-44.2871 89.0625-38.1836 82.1777-38.1836ZM38.1348-34.1797C45.752-34.1797 51.7578-40.7715 51.7578-49.2676C51.7578-57.3242 45.6055-63.9648 38.1348-63.9648C30.6152-63.9648 24.4629-57.2754 24.5117-49.2188C24.6094-40.7227 30.5176-34.1797 38.1348-34.1797ZM126.221-34.1797C133.887-34.1797 139.746-40.7227 139.844-49.2188C139.893-57.2754 133.74-63.9648 126.221-63.9648C118.75-63.9648 112.598-57.3242 112.598-49.2676C112.598-40.7715 118.604-34.1797 126.221-34.1797ZM38.1348-37.3047C32.2754-37.3047 27.6855-42.4805 27.6855-49.2188C27.6855-55.5664 32.373-60.8398 38.1348-60.8398C43.8965-60.8398 48.584-55.6152 48.584-49.2676C48.584-42.4805 43.9941-37.3047 38.1348-37.3047ZM126.221-37.3047C120.361-37.3047 115.771-42.4805 115.771-49.2676C115.771-55.6152 120.459-60.8398 126.221-60.8398C131.982-60.8398 136.67-55.5664 136.67-49.2188C136.67-42.4805 132.08-37.3047 126.221-37.3047ZM15.918-0.146484L48.9258-0.146484C47.8516-0.683594 46.875-1.9043 46.6797-3.22266L15.625-3.22266C13.6719-3.22266 12.9395-3.95508 12.9395-5.71289C12.9395-16.6504 24.4141-26.1719 38.0371-26.1719C44.4336-26.1719 50.1465-24.3652 54.5898-20.8496C55.2734-21.6309 56.0547-22.3145 56.9336-22.998C51.7578-27.1484 45.2148-29.2969 38.0371-29.2969C21.2402-29.2969 9.76562-17.1387 9.76562-5.56641C9.76562-1.9043 11.8164-0.146484 15.918-0.146484ZM148.438-0.146484C152.588-0.146484 154.59-1.9043 154.59-5.56641C154.59-17.1387 143.115-29.2969 126.318-29.2969C119.141-29.2969 112.598-27.1484 107.422-22.998C108.301-22.3145 109.082-21.6309 109.766-20.8496C114.209-24.3652 119.922-26.1719 126.318-26.1719C139.941-26.1719 151.416-16.6504 151.416-5.71289C151.416-3.95508 150.684-3.22266 148.73-3.22266L117.676-3.22266C117.48-1.9043 116.504-0.683594 115.43-0.146484ZM56.7383-0.146484L107.471-0.146484C112.305-0.146484 114.6-1.75781 114.6-5.32227C114.6-15.2344 102.148-29.1504 82.0801-29.1504C62.0605-29.1504 49.6094-15.2344 49.6094-5.32227C49.6094-1.75781 51.9043-0.146484 56.7383-0.146484ZM56.1523-3.32031C53.6621-3.32031 52.8809-3.90625 52.8809-5.56641C52.8809-13.7695 63.6719-25.9766 82.0801-25.9766C100.537-25.9766 111.328-13.7695 111.328-5.56641C111.328-3.90625 110.498-3.32031 108.057-3.32031Z"/>
  </g>
  <g id="Ultralight-S" transform="matrix(1 0 0 1 477.802 696)">
   <path d="M81.8848-34.9609C90.5273-34.9609 97.168-42.334 97.168-51.9043C97.168-61.0352 90.2832-68.5547 81.8848-68.5547C73.4375-68.5547 66.5527-60.9863 66.6504-51.9043C66.748-42.334 73.291-34.9609 81.8848-34.9609ZM81.8848-37.1582C74.5605-37.1582 68.8477-43.5547 68.8477-51.9043C68.75-59.8145 74.6582-66.3574 81.8848-66.3574C89.0625-66.3574 94.9707-59.8633 94.9707-51.9043C94.9707-43.5547 89.2578-37.1582 81.8848-37.1582ZM37.8418-34.1309C45.4102-34.1309 51.2207-40.5273 51.2207-48.9258C51.2207-56.8848 45.166-63.4277 37.8418-63.4277C30.5176-63.4277 24.4629-56.8359 24.5605-48.9258C24.6582-40.5273 30.3223-34.1309 37.8418-34.1309ZM125.928-34.1309C133.496-34.1309 139.16-40.5273 139.258-48.9258C139.355-56.8359 133.301-63.4277 125.928-63.4277C118.652-63.4277 112.598-56.8848 112.598-48.9258C112.598-40.5273 118.408-34.1309 125.928-34.1309ZM37.8418-36.3281C31.543-36.3281 26.709-41.748 26.709-48.9258C26.709-55.6641 31.6895-61.2793 37.8418-61.2793C43.9941-61.2793 49.0234-55.7129 49.0234-48.9258C49.0234-41.748 44.1406-36.3281 37.8418-36.3281ZM125.928-36.3281C119.629-36.3281 114.795-41.748 114.795-48.9258C114.795-55.7129 119.824-61.2793 125.928-61.2793C132.08-61.2793 137.061-55.6641 137.061-48.9258C137.061-41.748 132.227-36.3281 125.928-36.3281ZM15.2832-0.488281L49.4629-0.488281C48.6816-0.878906 47.8516-1.66016 47.4609-2.63672L15.2832-2.63672C12.8418-2.63672 11.9629-3.4668 11.9629-5.61523C11.9629-17.1875 23.6816-26.9043 37.7441-26.9043C44.7754-26.9043 51.0254-24.8535 55.7129-20.8008C56.25-21.2891 56.7871-21.7773 57.3242-22.2656C52.0508-26.709 45.2637-29.0527 37.7441-29.0527C20.6543-29.0527 9.76562-16.6992 9.76562-5.61523C9.76562-2.14844 11.5723-0.488281 15.2832-0.488281ZM148.535-0.488281C152.246-0.488281 154.053-2.14844 154.053-5.61523C154.053-16.6992 143.164-29.0527 126.025-29.0527C118.555-29.0527 111.768-26.709 106.445-22.2656C107.031-21.7773 107.568-21.2891 108.105-20.8008C112.793-24.8535 119.043-26.9043 126.025-26.9043C140.088-26.9043 151.855-17.1875 151.855-5.61523C151.855-3.4668 150.977-2.63672 148.535-2.63672L116.309-2.63672C115.918-1.66016 115.088-0.878906 114.355-0.488281ZM55.957-0.488281L107.666-0.488281C111.963-0.488281 113.965-2.00195 113.965-5.32227C113.965-15.1855 101.611-28.9062 81.7871-28.9062C62.0117-28.9062 49.6582-15.1855 49.6582-5.32227C49.6582-2.00195 51.6602-0.488281 55.957-0.488281ZM55.8594-2.68555C52.7832-2.68555 51.8555-3.36914 51.8555-5.37109C51.8555-14.3066 63.0371-26.709 81.7871-26.709C100.586-26.709 111.768-14.3066 111.768-5.37109C111.768-3.36914 110.84-2.68555 107.764-2.68555Z"/>
  </g>
 </g>
</svg>
