<?xml version="1.0" encoding="UTF-8"?>
<!--Generator: Apple Native CoreSVG 149-->
<!DOCTYPE svg
PUBLIC "-//W3C//DTD SVG 1.1//EN"
       "http://www.w3.org/Graphics/SVG/1.1/DTD/svg11.dtd">
<svg version="1.1" xmlns="http://www.w3.org/2000/svg" xmlns:xlink="http://www.w3.org/1999/xlink" width="3300" height="2200">
 <!--glyph: "uni100C64.medium", point size: 100.000000, font version: "Version 16.0d12e3", template writer version: "8"-->
 <g id="Notes">
  <rect height="2200" id="artboard" style="fill:white;opacity:1" width="3300" x="0" y="0"/>
  <line id="" style="fill:none;stroke:black;opacity:1;stroke-width:0.5;" x1="263" x2="3036" y1="292" y2="292"/>
  <text style="stroke:none;fill:black;font-family:-apple-system,&quot;SF Pro Display&quot;,&quot;SF Pro Text&quot;,Helvetica,sans-serif;font-weight:bold;" transform="matrix(1 0 0 1 263 322)">Weight/Scale Variations</text>
  <text style="stroke:none;fill:black;font-family:-apple-system,&quot;SF Pro Display&quot;,&quot;SF Pro Text&quot;,Helvetica,sans-serif;text-anchor:middle;" transform="matrix(1 0 0 1 559.711 322)">Ultralight</text>
  <text style="stroke:none;fill:black;font-family:-apple-system,&quot;SF Pro Display&quot;,&quot;SF Pro Text&quot;,Helvetica,sans-serif;text-anchor:middle;" transform="matrix(1 0 0 1 856.422 322)">Thin</text>
  <text style="stroke:none;fill:black;font-family:-apple-system,&quot;SF Pro Display&quot;,&quot;SF Pro Text&quot;,Helvetica,sans-serif;text-anchor:middle;" transform="matrix(1 0 0 1 1153.13 322)">Light</text>
  <text style="stroke:none;fill:black;font-family:-apple-system,&quot;SF Pro Display&quot;,&quot;SF Pro Text&quot;,Helvetica,sans-serif;text-anchor:middle;" transform="matrix(1 0 0 1 1449.84 322)">Regular</text>
  <text style="stroke:none;fill:black;font-family:-apple-system,&quot;SF Pro Display&quot;,&quot;SF Pro Text&quot;,Helvetica,sans-serif;text-anchor:middle;" transform="matrix(1 0 0 1 1746.56 322)">Medium</text>
  <text style="stroke:none;fill:black;font-family:-apple-system,&quot;SF Pro Display&quot;,&quot;SF Pro Text&quot;,Helvetica,sans-serif;text-anchor:middle;" transform="matrix(1 0 0 1 2043.27 322)">Semibold</text>
  <text style="stroke:none;fill:black;font-family:-apple-system,&quot;SF Pro Display&quot;,&quot;SF Pro Text&quot;,Helvetica,sans-serif;text-anchor:middle;" transform="matrix(1 0 0 1 2339.98 322)">Bold</text>
  <text style="stroke:none;fill:black;font-family:-apple-system,&quot;SF Pro Display&quot;,&quot;SF Pro Text&quot;,Helvetica,sans-serif;text-anchor:middle;" transform="matrix(1 0 0 1 2636.69 322)">Heavy</text>
  <text style="stroke:none;fill:black;font-family:-apple-system,&quot;SF Pro Display&quot;,&quot;SF Pro Text&quot;,Helvetica,sans-serif;text-anchor:middle;" transform="matrix(1 0 0 1 2933.4 322)">Black</text>
  <line id="" style="fill:none;stroke:black;opacity:1;stroke-width:0.5;" x1="263" x2="3036" y1="1903" y2="1903"/>
  <g id="" transform="matrix(1 0 0 1 263 1933)">
   <path d="M9.24805 0.830078C13.5547 0.830078 17.1387-2.74414 17.1387-7.05078C17.1387-11.3574 13.5449-14.9316 9.23828-14.9316C4.94141-14.9316 1.36719-11.3574 1.36719-7.05078C1.36719-2.74414 4.95117 0.830078 9.24805 0.830078ZM9.24805-0.654297C5.70312-0.654297 2.87109-3.49609 2.87109-7.05078C2.87109-10.6055 5.69336-13.4473 9.23828-13.4473C12.793-13.4473 15.6348-10.6055 15.6445-7.05078C15.6543-3.49609 12.8027-0.654297 9.24805-0.654297ZM9.22852-3.62305C9.69727-3.62305 9.9707-3.93555 9.9707-4.45312L9.9707-6.31836L12.002-6.31836C12.5-6.31836 12.832-6.57227 12.832-7.04102C12.832-7.51953 12.5195-7.7832 12.002-7.7832L9.9707-7.7832L9.9707-9.81445C9.9707-10.332 9.69727-10.6543 9.22852-10.6543C8.75977-10.6543 8.50586-10.3125 8.50586-9.81445L8.50586-7.7832L6.49414-7.7832C5.97656-7.7832 5.64453-7.51953 5.64453-7.04102C5.64453-6.57227 5.99609-6.31836 6.49414-6.31836L8.50586-6.31836L8.50586-4.45312C8.50586-3.95508 8.75977-3.62305 9.22852-3.62305Z"/>
  </g>
  <g id="" transform="matrix(1 0 0 1 281.506 1933)">
   <path d="M11.709 2.91016C17.1582 2.91016 21.6699-1.61133 21.6699-7.05078C21.6699-12.5 17.1484-17.0117 11.6992-17.0117C6.25977-17.0117 1.74805-12.5 1.74805-7.05078C1.74805-1.61133 6.26953 2.91016 11.709 2.91016ZM11.709 1.25C7.09961 1.25 3.41797-2.44141 3.41797-7.05078C3.41797-11.6602 7.08984-15.3516 11.6992-15.3516C16.3086-15.3516 20-11.6602 20.0098-7.05078C20.0195-2.44141 16.3184 1.25 11.709 1.25ZM11.6797-2.66602C12.207-2.66602 12.5098-3.01758 12.5098-3.59375L12.5098-6.23047L15.3223-6.23047C15.8691-6.23047 16.25-6.51367 16.25-7.03125C16.25-7.55859 15.8887-7.86133 15.3223-7.86133L12.5098-7.86133L12.5098-10.6836C12.5098-11.25 12.207-11.6113 11.6797-11.6113C11.1621-11.6113 10.8789-11.2305 10.8789-10.6836L10.8789-7.86133L8.07617-7.86133C7.50977-7.86133 7.13867-7.55859 7.13867-7.03125C7.13867-6.51367 7.5293-6.23047 8.07617-6.23047L10.8789-6.23047L10.8789-3.59375C10.8789-3.03711 11.1621-2.66602 11.6797-2.66602Z"/>
  </g>
  <g id="" transform="matrix(1 0 0 1 304.924 1933)">
   <path d="M14.9707 5.66406C21.9336 5.66406 27.6953-0.0976562 27.6953-7.05078C27.6953-14.0137 21.9238-19.7754 14.9609-19.7754C8.00781-19.7754 2.25586-14.0137 2.25586-7.05078C2.25586-0.0976562 8.01758 5.66406 14.9707 5.66406ZM14.9707 3.84766C8.93555 3.84766 4.08203-1.01562 4.08203-7.05078C4.08203-13.0957 8.92578-17.9492 14.9609-17.9492C21.0059-17.9492 25.8594-13.0957 25.8691-7.05078C25.8789-1.01562 21.0156 3.84766 14.9707 3.84766ZM14.9414-1.38672C15.5176-1.38672 15.8594-1.77734 15.8594-2.38281L15.8594-6.13281L19.7754-6.13281C20.3711-6.13281 20.7812-6.46484 20.7812-7.02148C20.7812-7.59766 20.3906-7.93945 19.7754-7.93945L15.8594-7.93945L15.8594-11.8652C15.8594-12.4805 15.5176-12.8711 14.9414-12.8711C14.375-12.8711 14.0527-12.4609 14.0527-11.8652L14.0527-7.93945L10.1465-7.93945C9.53125-7.93945 9.13086-7.59766 9.13086-7.02148C9.13086-6.46484 9.55078-6.13281 10.1465-6.13281L14.0527-6.13281L14.0527-2.38281C14.0527-1.79688 14.375-1.38672 14.9414-1.38672Z"/>
  </g>
  <text style="stroke:none;fill:black;font-family:-apple-system,&quot;SF Pro Display&quot;,&quot;SF Pro Text&quot;,Helvetica,sans-serif;font-weight:bold;" transform="matrix(1 0 0 1 263 1953)">Design Variations</text>
  <text style="stroke:none;fill:black;font-family:-apple-system,&quot;SF Pro Display&quot;,&quot;SF Pro Text&quot;,Helvetica,sans-serif;" transform="matrix(1 0 0 1 263 1971)">Symbols are supported in up to nine weights and three scales.</text>
  <text style="stroke:none;fill:black;font-family:-apple-system,&quot;SF Pro Display&quot;,&quot;SF Pro Text&quot;,Helvetica,sans-serif;" transform="matrix(1 0 0 1 263 1989)">For optimal layout with text and other symbols, vertically align</text>
  <text style="stroke:none;fill:black;font-family:-apple-system,&quot;SF Pro Display&quot;,&quot;SF Pro Text&quot;,Helvetica,sans-serif;" transform="matrix(1 0 0 1 263 2007)">symbols with the adjacent text.</text>
  <line id="" style="fill:none;stroke:#00AEEF;stroke-width:0.5;opacity:1.0;" x1="776" x2="776" y1="1919" y2="1933"/>
  <g id="" transform="matrix(1 0 0 1 776 1933)">
   <path d="M3.31055 0.126953C3.82812 0.126953 4.08203-0.0683594 4.26758-0.605469L5.52734-4.0625L11.2891-4.0625L12.5488-0.605469C12.7344-0.0683594 12.9883 0.126953 13.4961 0.126953C14.0137 0.126953 14.3457-0.185547 14.3457-0.673828C14.3457-0.839844 14.3164-0.986328 14.2383-1.20117L9.6582-13.3887C9.43359-13.9941 9.0332-14.2871 8.4082-14.2871C7.80273-14.2871 7.39258-13.9941 7.17773-13.3984L2.59766-1.19141C2.51953-0.976562 2.49023-0.830078 2.49023-0.664062C2.49023-0.175781 2.80273 0.126953 3.31055 0.126953ZM6.00586-5.53711L8.37891-12.1094L8.42773-12.1094L10.8008-5.53711Z"/>
  </g>
  <line id="" style="fill:none;stroke:#00AEEF;stroke-width:0.5;opacity:1.0;" x1="792.836" x2="792.836" y1="1919" y2="1933"/>
  <text style="stroke:none;fill:black;font-family:-apple-system,&quot;SF Pro Display&quot;,&quot;SF Pro Text&quot;,Helvetica,sans-serif;font-weight:bold;" transform="matrix(1 0 0 1 776 1953)">Margins</text>
  <text style="stroke:none;fill:black;font-family:-apple-system,&quot;SF Pro Display&quot;,&quot;SF Pro Text&quot;,Helvetica,sans-serif;" transform="matrix(1 0 0 1 776 1971)">Leading and trailing margins on the left and right side of each symbol</text>
  <text style="stroke:none;fill:black;font-family:-apple-system,&quot;SF Pro Display&quot;,&quot;SF Pro Text&quot;,Helvetica,sans-serif;" transform="matrix(1 0 0 1 776 1989)">can be adjusted by modifying the x-location of the margin guidelines.</text>
  <text style="stroke:none;fill:black;font-family:-apple-system,&quot;SF Pro Display&quot;,&quot;SF Pro Text&quot;,Helvetica,sans-serif;" transform="matrix(1 0 0 1 776 2007)">Modifications are automatically applied proportionally to all</text>
  <text style="stroke:none;fill:black;font-family:-apple-system,&quot;SF Pro Display&quot;,&quot;SF Pro Text&quot;,Helvetica,sans-serif;" transform="matrix(1 0 0 1 776 2025)">scales and weights.</text>
  <g id="" transform="matrix(1 0 0 1 1289 1933)">
   <path d="M2.8418 1.86523L4.54102 3.57422C5.40039 4.44336 6.38672 4.38477 7.31445 3.35938L17.4902-7.85156C17.7539-7.76367 18.0273-7.7832 18.3398-7.8418L19.4043-8.03711L20.0684-7.36328L20.0293-6.80664C19.9902-6.30859 20.1172-5.92773 20.6055-5.44922L21.3672-4.70703C21.8457-4.22852 22.4609-4.19922 22.9297-4.66797L25.8398-7.58789C26.3086-8.05664 26.2891-8.65234 25.8105-9.13086L25.0391-9.89258C24.5605-10.3711 24.1895-10.5273 23.7109-10.4883L23.1348-10.4395L22.4902-11.0742L22.7344-12.1973C22.8613-12.7637 22.7051-13.2031 22.1191-13.7891L19.9219-15.9766C16.582-19.2969 12.1484-19.2188 9.25781-16.3281C8.83789-15.918 8.80859-15.3418 9.04297-14.9512C9.27734-14.5898 9.73633-14.3555 10.3809-14.5215C11.8457-14.8633 13.3691-14.9219 14.7949-13.9844L14.209-12.5293C14.0137-12.0508 13.9844-11.6504 14.1113-11.2891L3.04688-0.898438C2.06055 0.0195312 1.98242 0.996094 2.8418 1.86523ZM10.752-15.957C13.1836-17.7344 16.4746-17.4316 18.7012-15.2051L21.1328-12.793C21.3672-12.5586 21.4062-12.373 21.3379-12.0312L21.0156-10.5469L22.5195-9.0625L23.5059-9.12109C23.7598-9.13086 23.8379-9.11133 24.0332-8.91602L24.6094-8.33984L22.168-5.89844L21.5918-6.47461C21.3965-6.66992 21.3672-6.74805 21.377-7.01172L21.4453-7.98828L19.9512-9.47266L18.4277-9.21875C18.1055-9.15039 17.959-9.17969 17.7148-9.41406L15.7129-11.416C15.459-11.6504 15.4297-11.8164 15.5859-12.1875L16.4648-14.2773C14.9023-15.7324 12.8711-16.3574 10.8398-15.7617C10.6836-15.7227 10.625-15.8496 10.752-15.957ZM5.27344 2.30469L4.10156 1.14258C3.63281 0.683594 3.74023 0.341797 4.14062-0.0195312L14.9512-10.1953L16.416-8.71094L6.42578 2.27539C6.07422 2.67578 5.74219 2.77344 5.27344 2.30469Z"/>
  </g>
  <text style="stroke:none;fill:black;font-family:-apple-system,&quot;SF Pro Display&quot;,&quot;SF Pro Text&quot;,Helvetica,sans-serif;font-weight:bold;" transform="matrix(1 0 0 1 1289 1953)">Exporting</text>
  <text style="stroke:none;fill:black;font-family:-apple-system,&quot;SF Pro Display&quot;,&quot;SF Pro Text&quot;,Helvetica,sans-serif;" transform="matrix(1 0 0 1 1289 1971)">Symbols should be outlined when exporting to ensure the</text>
  <text style="stroke:none;fill:black;font-family:-apple-system,&quot;SF Pro Display&quot;,&quot;SF Pro Text&quot;,Helvetica,sans-serif;" transform="matrix(1 0 0 1 1289 1989)">design is preserved when submitting to Xcode.</text>
  <text id="template-version" style="stroke:none;fill:black;font-family:-apple-system,&quot;SF Pro Display&quot;,&quot;SF Pro Text&quot;,Helvetica,sans-serif;text-anchor:end;" transform="matrix(1 0 0 1 3036 1933)">Template v.2.0</text>
  <text style="stroke:none;fill:black;font-family:-apple-system,&quot;SF Pro Display&quot;,&quot;SF Pro Text&quot;,Helvetica,sans-serif;text-anchor:end;" transform="matrix(1 0 0 1 3036 1951)">Requires Xcode 12 or greater</text>
  <text style="stroke:none;fill:black;font-family:-apple-system,&quot;SF Pro Display&quot;,&quot;SF Pro Text&quot;,Helvetica,sans-serif;text-anchor:end;" transform="matrix(1 0 0 1 3036 1969)">Generated from sidebar.squares.left</text>
  <text style="stroke:none;fill:black;font-family:-apple-system,&quot;SF Pro Display&quot;,&quot;SF Pro Text&quot;,Helvetica,sans-serif;text-anchor:end;" transform="matrix(1 0 0 1 3036 1987)">Typeset at 100 points</text>
  <text style="stroke:none;fill:black;font-family:-apple-system,&quot;SF Pro Display&quot;,&quot;SF Pro Text&quot;,Helvetica,sans-serif;" transform="matrix(1 0 0 1 263 726)">Small</text>
  <text style="stroke:none;fill:black;font-family:-apple-system,&quot;SF Pro Display&quot;,&quot;SF Pro Text&quot;,Helvetica,sans-serif;" transform="matrix(1 0 0 1 263 1156)">Medium</text>
  <text style="stroke:none;fill:black;font-family:-apple-system,&quot;SF Pro Display&quot;,&quot;SF Pro Text&quot;,Helvetica,sans-serif;" transform="matrix(1 0 0 1 263 1586)">Large</text>
 </g>
 <g id="Guides">
  <g id="H-reference" style="fill:#27AAE1;stroke:none;" transform="matrix(1 0 0 1 339 696)">
   <path d="M0.976562 0L3.66211 0L12.9883-24.4629L45.752-24.4629L55.127 0L57.7637 0L30.6152-70.459L28.125-70.459ZM29.3457-67.1387L29.4434-67.1387L44.873-26.709L13.8672-26.709Z"/>
  </g>
  <line id="Baseline-S" style="fill:none;stroke:#27AAE1;opacity:1;stroke-width:0.5;" x1="263" x2="3036" y1="696" y2="696"/>
  <line id="Capline-S" style="fill:none;stroke:#27AAE1;opacity:1;stroke-width:0.5;" x1="263" x2="3036" y1="625.541" y2="625.541"/>
  <g id="H-reference" style="fill:#27AAE1;stroke:none;" transform="matrix(1 0 0 1 339 1126)">
   <path d="M0.976562 0L3.66211 0L12.9883-24.4629L45.752-24.4629L55.127 0L57.7637 0L30.6152-70.459L28.125-70.459ZM29.3457-67.1387L29.4434-67.1387L44.873-26.709L13.8672-26.709Z"/>
  </g>
  <line id="Baseline-M" style="fill:none;stroke:#27AAE1;opacity:1;stroke-width:0.5;" x1="263" x2="3036" y1="1126" y2="1126"/>
  <line id="Capline-M" style="fill:none;stroke:#27AAE1;opacity:1;stroke-width:0.5;" x1="263" x2="3036" y1="1055.54" y2="1055.54"/>
  <g id="H-reference" style="fill:#27AAE1;stroke:none;" transform="matrix(1 0 0 1 339 1556)">
   <path d="M0.976562 0L3.66211 0L12.9883-24.4629L45.752-24.4629L55.127 0L57.7637 0L30.6152-70.459L28.125-70.459ZM29.3457-67.1387L29.4434-67.1387L44.873-26.709L13.8672-26.709Z"/>
  </g>
  <line id="Baseline-L" style="fill:none;stroke:#27AAE1;opacity:1;stroke-width:0.5;" x1="263" x2="3036" y1="1556" y2="1556"/>
  <line id="Capline-L" style="fill:none;stroke:#27AAE1;opacity:1;stroke-width:0.5;" x1="263" x2="3036" y1="1485.54" y2="1485.54"/>
  <line id="left-margin" style="fill:none;stroke:#00AEEF;stroke-width:0.5;opacity:1.0;" x1="1379.82" x2="1379.82" y1="1030.79" y2="1150.12"/>
  <line id="right-margin" style="fill:none;stroke:#00AEEF;stroke-width:0.5;opacity:1.0;" x1="1519.86" x2="1519.86" y1="1030.79" y2="1150.12"/>
 </g>
 <g id="Symbols">
  <g id="Black-L" transform="matrix(1 0 0 1 2841.51 1556)">
   <path d="M39.9902 26.5137L143.799 26.5137C159.082 26.5137 167.725 17.8711 167.725 2.68555L167.725-73.0957C167.725-88.2812 159.082-96.875 143.799-96.875L39.9902-96.875C24.7559-96.875 16.0645-88.2812 16.0645-73.0957L16.0645 2.68555C16.0645 17.8711 24.7559 26.5137 39.9902 26.5137ZM42.6758 6.29883C38.4766 6.29883 36.3281 4.39453 36.3281-0.146484L36.3281-70.2148C36.3281-74.7559 38.4766-76.6602 42.6758-76.6602L73.3887-76.6602L73.3887 6.29883ZM141.064-76.6602C145.312-76.6602 147.461-74.7559 147.461-70.2148L147.461-0.146484C147.461 4.39453 145.312 6.29883 141.064 6.29883L91.748 6.29883L91.748-76.6602ZM50.3418-49.9023L59.4238-49.9023C62.1582-49.9023 63.623-51.2695 63.623-53.9551L63.623-62.7441C63.623-65.5273 62.1582-66.8945 59.4238-66.8945L50.3418-66.8945C47.5098-66.8945 46.0449-65.5273 46.0449-62.7441L46.0449-53.9551C46.0449-51.2695 47.5098-49.9023 50.3418-49.9023ZM50.3418-26.709L59.4238-26.709C62.1582-26.709 63.623-28.0762 63.623-30.8105L63.623-39.5996C63.623-42.334 62.1582-43.7012 59.4238-43.7012L50.3418-43.7012C47.5098-43.7012 46.0449-42.334 46.0449-39.5996L46.0449-30.8105C46.0449-28.0762 47.5098-26.709 50.3418-26.709ZM50.3418-3.51562L59.4238-3.51562C62.1582-3.51562 63.623-4.93164 63.623-7.66602L63.623-16.4551C63.623-19.1406 62.1582-20.5566 59.4238-20.5566L50.3418-20.5566C47.5098-20.5566 46.0449-19.1406 46.0449-16.4551L46.0449-7.66602C46.0449-4.93164 47.5098-3.51562 50.3418-3.51562Z"/>
  </g>
  <g id="Heavy-L" transform="matrix(1 0 0 1 2545.23 1556)">
   <path d="M38.8184 25.4883L144.092 25.4883C158.74 25.4883 166.846 17.4316 166.846 2.88086L166.846-73.2422C166.846-87.793 158.74-95.8496 144.092-95.8496L38.8184-95.8496C24.2188-95.8496 16.0645-87.793 16.0645-73.2422L16.0645 2.88086C16.0645 17.4316 24.2188 25.4883 38.8184 25.4883ZM40.918 8.00781C36.084 8.00781 33.5938 5.71289 33.5938 0.585938L33.5938-70.9473C33.5938-76.0742 36.084-78.3691 40.918-78.3691L70.9961-78.3691L70.9961 8.00781ZM141.943-78.3691C146.777-78.3691 149.316-76.0742 149.316-70.9473L149.316 0.585938C149.316 5.71289 146.777 8.00781 141.943 8.00781L87.0605 8.00781L87.0605-78.3691ZM47.4121-50.7324L57.2754-50.7324C59.668-50.7324 61.084-52.0508 61.084-54.4434L61.084-64.0625C61.084-66.5527 59.7168-67.8711 57.2754-67.8711L47.4121-67.8711C44.873-67.8711 43.5059-66.5527 43.5059-64.0625L43.5059-54.4434C43.5059-52.0508 44.873-50.7324 47.4121-50.7324ZM47.4121-26.6602L57.2754-26.6602C59.668-26.6602 61.084-27.9785 61.084-30.3711L61.084-40.0391C61.084-42.4316 59.7168-43.7988 57.2754-43.7988L47.4121-43.7988C44.873-43.7988 43.5059-42.4316 43.5059-40.0391L43.5059-30.3711C43.5059-27.9785 44.873-26.6602 47.4121-26.6602ZM47.4121-2.58789L57.2754-2.58789C59.668-2.58789 61.084-3.90625 61.084-6.34766L61.084-15.9668C61.084-18.3594 59.7168-19.7266 57.2754-19.7266L47.4121-19.7266C44.873-19.7266 43.5059-18.3594 43.5059-15.9668L43.5059-6.34766C43.5059-3.90625 44.873-2.58789 47.4121-2.58789Z"/>
  </g>
  <g id="Bold-L" transform="matrix(1 0 0 1 2249.01 1556)">
   <path d="M37.5 24.3652L144.385 24.3652C158.35 24.3652 165.869 16.8945 165.869 3.07617L165.869-73.3887C165.869-87.207 158.35-94.7266 144.385-94.7266L37.5-94.7266C23.6328-94.7266 16.0645-87.2559 16.0645-73.3887L16.0645 3.07617C16.0645 16.8945 23.6328 24.3652 37.5 24.3652ZM38.9648 9.91211C33.4473 9.91211 30.5176 7.17773 30.5176 1.41602L30.5176-71.7285C30.5176-77.5391 33.4473-80.2734 38.9648-80.2734L68.3594-80.2734L68.3594 9.91211ZM142.969-80.2734C148.389-80.2734 151.416-77.5391 151.416-71.7285L151.416 1.41602C151.416 7.17773 148.389 9.91211 142.969 9.91211L81.7871 9.91211L81.7871-80.2734ZM44.0918-51.6602L54.834-51.6602C56.9336-51.6602 58.252-52.9297 58.252-54.9805L58.252-65.5273C58.252-67.7246 56.9824-68.9453 54.834-68.9453L44.0918-68.9453C41.8945-68.9453 40.625-67.7246 40.625-65.5273L40.625-54.9805C40.625-52.9297 41.9434-51.6602 44.0918-51.6602ZM44.0918-26.6113L54.834-26.6113C56.9336-26.6113 58.252-27.832 58.252-29.9316L58.252-40.4785C58.252-42.5781 56.9824-43.8477 54.834-43.8477L44.0918-43.8477C41.8945-43.8477 40.625-42.5781 40.625-40.4785L40.625-29.9316C40.625-27.832 41.9434-26.6113 44.0918-26.6113ZM44.0918-1.51367L54.834-1.51367C56.9336-1.51367 58.252-2.7832 58.252-4.88281L58.252-15.4297C58.252-17.5293 56.9824-18.7988 54.834-18.7988L44.0918-18.7988C41.8945-18.7988 40.625-17.5293 40.625-15.4297L40.625-4.88281C40.625-2.7832 41.9434-1.51367 44.0918-1.51367Z"/>
  </g>
  <g id="Semibold-L" transform="matrix(1 0 0 1 1952.64 1556)">
   <path d="M36.6211 23.584L144.629 23.584C158.057 23.584 165.186 16.5039 165.186 3.17383L165.186-73.5352C165.186-86.8164 158.057-93.9453 144.629-93.9453L36.6211-93.9453C23.1934-93.9453 16.0645-86.8652 16.0645-73.5352L16.0645 3.17383C16.0645 16.5527 23.1934 23.584 36.6211 23.584ZM37.5977 11.2793C31.6406 11.2793 28.418 8.20312 28.418 1.95312L28.418-72.3145C28.418-78.5156 31.6406-81.5918 37.5977-81.5918L66.5527-81.5918L66.5527 11.2793ZM143.652-81.5918C149.512-81.5918 152.832-78.5156 152.832-72.3145L152.832 1.95312C152.832 8.20312 149.512 11.2793 143.652 11.2793L78.1738 11.2793L78.1738-81.5918ZM41.8457-52.3438L53.1738-52.3438C55.0293-52.3438 56.25-53.5156 56.25-55.3711L56.25-66.5527C56.25-68.5059 55.0781-69.6777 53.1738-69.6777L41.8457-69.6777C39.8438-69.6777 38.6719-68.5059 38.6719-66.5527L38.6719-55.3711C38.6719-53.5156 39.8926-52.3438 41.8457-52.3438ZM41.8457-26.5625L53.1738-26.5625C55.0293-26.5625 56.25-27.7344 56.25-29.5898L56.25-40.8203C56.25-42.7246 55.0781-43.9453 53.1738-43.9453L41.8457-43.9453C39.8438-43.9453 38.6719-42.7246 38.6719-40.8203L38.6719-29.5898C38.6719-27.7344 39.8926-26.5625 41.8457-26.5625ZM41.8457-0.830078L53.1738-0.830078C55.0293-0.830078 56.25-2.00195 56.25-3.90625L56.25-15.0391C56.25-16.9434 55.0781-18.1641 53.1738-18.1641L41.8457-18.1641C39.8438-18.1641 38.6719-16.9434 38.6719-15.0391L38.6719-3.90625C38.6719-2.00195 39.8926-0.830078 41.8457-0.830078Z"/>
  </g>
  <g id="Medium-L" transform="matrix(1 0 0 1 1656.2 1556)">
   <path d="M35.9375 22.998L144.775 22.998C157.861 22.998 164.648 16.2109 164.648 3.27148L164.648-73.6328C164.648-86.5234 157.861-93.3105 144.775-93.3105L35.9375-93.3105C22.9004-93.3105 16.0645-86.5723 16.0645-73.6328L16.0645 3.27148C16.0645 16.2598 22.9004 22.998 35.9375 22.998ZM36.5723 12.2559C30.2246 12.2559 26.8066 8.98438 26.8066 2.39258L26.8066-72.7051C26.8066-79.2969 30.2246-82.6172 36.5723-82.6172L65.1367-82.6172L65.1367 12.2559ZM144.141-82.6172C150.391-82.6172 153.906-79.2969 153.906-72.7051L153.906 2.39258C153.906 8.98438 150.391 12.2559 144.141 12.2559L75.3906 12.2559L75.3906-82.6172ZM40.1367-52.832L51.9043-52.832C53.6133-52.832 54.7852-53.9551 54.7852-55.6641L54.7852-67.2852C54.7852-69.1406 53.6621-70.2148 51.9043-70.2148L40.1367-70.2148C38.3301-70.2148 37.1582-69.1406 37.1582-67.2852L37.1582-55.6641C37.1582-53.9551 38.3301-52.832 40.1367-52.832ZM40.1367-26.5137L51.9043-26.5137C53.6133-26.5137 54.7852-27.6855 54.7852-29.3945L54.7852-41.0645C54.7852-42.7734 53.6621-43.9453 51.9043-43.9453L40.1367-43.9453C38.3301-43.9453 37.1582-42.7734 37.1582-41.0645L37.1582-29.3945C37.1582-27.6855 38.3301-26.5137 40.1367-26.5137ZM40.1367-0.292969L51.9043-0.292969C53.6133-0.292969 54.7852-1.41602 54.7852-3.125L54.7852-14.7461C54.7852-16.5039 53.6621-17.6758 51.9043-17.6758L40.1367-17.6758C38.3301-17.6758 37.1582-16.5039 37.1582-14.7461L37.1582-3.125C37.1582-1.41602 38.3301-0.292969 40.1367-0.292969Z"/>
  </g>
  <g id="Regular-L" transform="matrix(1 0 0 1 1359.81 1556)">
   <path d="M35.0586 22.2168L144.971 22.2168C157.617 22.2168 164.014 15.8691 164.014 3.41797L164.014-73.7305C164.014-86.1816 157.617-92.5293 144.971-92.5293L35.0586-92.5293C22.4609-92.5293 16.0645-86.2305 16.0645-73.7305L16.0645 3.41797C16.0645 15.918 22.4609 22.2168 35.0586 22.2168ZM35.2539 13.5742C28.418 13.5742 24.707 9.96094 24.707 2.97852L24.707-73.291C24.707-80.2734 28.418-83.8867 35.2539-83.8867L63.3301-83.8867L63.3301 13.5742ZM144.824-83.8867C151.514-83.8867 155.322-80.2734 155.322-73.291L155.322 2.97852C155.322 9.96094 151.514 13.5742 144.824 13.5742L71.7773 13.5742L71.7773-83.8867ZM37.8906-53.4668L50.2441-53.4668C51.709-53.4668 52.832-54.541 52.832-56.0547L52.832-68.3105C52.832-69.9219 51.7578-70.9473 50.2441-70.9473L37.8906-70.9473C36.2793-70.9473 35.2051-69.9219 35.2051-68.3105L35.2051-56.0547C35.2051-54.541 36.3281-53.4668 37.8906-53.4668ZM37.8906-26.4648L50.2441-26.4648C51.709-26.4648 52.832-27.5879 52.832-29.0527L52.832-41.3574C52.832-42.8711 51.7578-44.043 50.2441-44.043L37.8906-44.043C36.2793-44.043 35.2051-42.8711 35.2051-41.3574L35.2051-29.0527C35.2051-27.5879 36.3281-26.4648 37.8906-26.4648ZM37.8906 0.439453L50.2441 0.439453C51.709 0.439453 52.832-0.634766 52.832-2.14844L52.832-14.4043C52.832-15.9668 51.7578-17.041 50.2441-17.041L37.8906-17.041C36.2793-17.041 35.2051-15.9668 35.2051-14.4043L35.2051-2.14844C35.2051-0.634766 36.3281 0.439453 37.8906 0.439453Z"/>
  </g>
  <g id="Light-L" transform="matrix(1 0 0 1 1063.56 1556)">
   <path d="M34.0332 21.4355L145.117 21.4355C157.031 21.4355 163.086 15.2344 163.086 3.56445L163.086-73.8281C163.086-85.5469 157.031-91.6992 145.117-91.6992L34.0332-91.6992C22.168-91.6992 16.0645-85.6445 16.0645-73.8281L16.0645 3.56445C16.0645 15.3809 22.168 21.4355 34.0332 21.4355ZM34.1797 14.7949C26.709 14.7949 22.7051 10.8398 22.7051 3.22266L22.7051-73.4863C22.7051-81.1523 26.709-85.0586 34.1797-85.0586L62.4023-85.0586L62.4023 14.7949ZM144.971-85.0586C152.295-85.0586 156.494-81.1523 156.494-73.4863L156.494 3.22266C156.494 10.8398 152.295 14.7949 144.971 14.7949L68.8965 14.7949L68.8965-85.0586ZM36.1328-54.248L49.0234-54.248C50.3418-54.248 51.3184-55.1758 51.3184-56.4941L51.3184-69.3359C51.3184-70.752 50.3906-71.6309 49.0234-71.6309L36.1328-71.6309C34.668-71.6309 33.7402-70.752 33.7402-69.3359L33.7402-56.4941C33.7402-55.1758 34.7168-54.248 36.1328-54.248ZM36.1328-26.5137L49.0234-26.5137C50.3418-26.5137 51.3184-27.4902 51.3184-28.7598L51.3184-41.6504C51.3184-43.0176 50.3906-43.9453 49.0234-43.9453L36.1328-43.9453C34.668-43.9453 33.7402-43.0176 33.7402-41.6504L33.7402-28.7598C33.7402-27.4902 34.7168-26.5137 36.1328-26.5137ZM36.1328 1.17188L49.0234 1.17188C50.3418 1.17188 51.3184 0.244141 51.3184-1.07422L51.3184-13.916C51.3184-15.332 50.3906-16.2598 49.0234-16.2598L36.1328-16.2598C34.668-16.2598 33.7402-15.332 33.7402-13.916L33.7402-1.07422C33.7402 0.244141 34.7168 1.17188 36.1328 1.17188Z"/>
  </g>
  <g id="Thin-L" transform="matrix(1 0 0 1 767.433 1556)">
   <path d="M32.666 20.3613L145.312 20.3613C156.201 20.3613 161.914 14.4531 161.914 3.75977L161.914-73.9746C161.914-84.7168 156.201-90.5762 145.312-90.5762L32.666-90.5762C21.7773-90.5762 16.0645-84.8633 16.0645-73.9746L16.0645 3.75977C16.0645 14.6484 21.7773 20.3613 32.666 20.3613ZM32.8125 16.4062C24.4141 16.4062 19.9707 12.0117 19.9707 3.56445L19.9707-73.7793C19.9707-82.2754 24.4141-86.6699 32.8125-86.6699L61.1328-86.6699L61.1328 16.4062ZM145.166-86.6699C153.32-86.6699 158.008-82.2754 158.008-73.7793L158.008 3.56445C158.008 12.0117 153.32 16.4062 145.166 16.4062L65.0391 16.4062L65.0391-86.6699ZM33.7402-55.2734L47.4609-55.2734C48.5352-55.2734 49.3164-56.0547 49.3164-57.0801L49.3164-70.7031C49.3164-71.875 48.5352-72.5586 47.4609-72.5586L33.7402-72.5586C32.5684-72.5586 31.7871-71.875 31.7871-70.7031L31.7871-57.0801C31.7871-56.0547 32.5684-55.2734 33.7402-55.2734ZM33.7402-26.5625L47.4609-26.5625C48.5352-26.5625 49.3164-27.3438 49.3164-28.3691L49.3164-41.9922C49.3164-43.1641 48.5352-43.8965 47.4609-43.8965L33.7402-43.8965C32.5684-43.8965 31.7871-43.1641 31.7871-41.9922L31.7871-28.3691C31.7871-27.3438 32.5684-26.5625 33.7402-26.5625ZM33.7402 2.09961L47.4609 2.09961C48.5352 2.09961 49.3164 1.36719 49.3164 0.292969L49.3164-13.3301C49.3164-14.502 48.5352-15.1855 47.4609-15.1855L33.7402-15.1855C32.5684-15.1855 31.7871-14.502 31.7871-13.3301L31.7871 0.292969C31.7871 1.36719 32.5684 2.09961 33.7402 2.09961Z"/>
  </g>
  <g id="Ultralight-L" transform="matrix(1 0 0 1 471.015 1556)">
   <path d="M31.9824 19.7754L145.41 19.7754C155.811 19.7754 161.328 14.0625 161.328 3.85742L161.328-74.0723C161.328-84.2773 155.811-89.9902 145.41-89.9902L31.9824-89.9902C21.582-89.9902 16.0645-84.4727 16.0645-74.0723L16.0645 3.85742C16.0645 14.2578 21.582 19.7754 31.9824 19.7754ZM32.1289 17.2363C23.1934 17.2363 18.6035 12.6465 18.6035 3.75977L18.6035-73.9258C18.6035-82.8125 23.1934-87.4512 32.1289-87.4512L60.4492-87.4512L60.4492 17.2363ZM145.264-87.4512C153.857-87.4512 158.789-82.8125 158.789-73.9258L158.789 3.75977C158.789 12.6465 153.857 17.2363 145.264 17.2363L63.0371 17.2363L63.0371-87.4512ZM32.5195-55.8105L46.6309-55.8105C47.6074-55.8105 48.291-56.4941 48.291-57.373L48.291-71.3867C48.291-72.4609 47.6074-73.0469 46.6309-73.0469L32.5195-73.0469C31.4453-73.0469 30.7617-72.4609 30.7617-71.3867L30.7617-57.373C30.7617-56.4941 31.4453-55.8105 32.5195-55.8105ZM32.5195-26.6113L46.6309-26.6113C47.6074-26.6113 48.291-27.2949 48.291-28.1738L48.291-42.1875C48.291-43.2617 47.6074-43.8477 46.6309-43.8477L32.5195-43.8477C31.4453-43.8477 30.7617-43.2617 30.7617-42.1875L30.7617-28.1738C30.7617-27.2949 31.4453-26.6113 32.5195-26.6113ZM32.5195 2.58789L46.6309 2.58789C47.6074 2.58789 48.291 1.9043 48.291 1.02539L48.291-12.9883C48.291-14.0625 47.6074-14.6484 46.6309-14.6484L32.5195-14.6484C31.4453-14.6484 30.7617-14.0625 30.7617-12.9883L30.7617 1.02539C30.7617 1.9043 31.4453 2.58789 32.5195 2.58789Z"/>
  </g>
  <g id="Black-M" transform="matrix(1 0 0 1 2861.84 1126)">
   <path d="M31.9824 13.5742L111.133 13.5742C123.389 13.5742 130.664 6.29883 130.664-5.95703L130.664-64.4043C130.664-76.6602 123.389-83.9355 111.133-83.9355L31.9824-83.9355C19.7266-83.9355 12.4512-76.6602 12.4512-64.4043L12.4512-5.95703C12.4512 6.29883 19.7266 13.5742 31.9824 13.5742ZM34.9121-4.73633C32.0801-4.73633 30.7617-5.81055 30.7617-8.88672L30.7617-61.4746C30.7617-64.5508 32.0801-65.6738 34.9121-65.6738L59.5215-65.6738L59.5215-4.73633ZM108.203-65.6738C111.035-65.6738 112.402-64.5508 112.402-61.4746L112.402-8.88672C112.402-5.81055 111.035-4.73633 108.203-4.73633L75.9277-4.73633L75.9277-65.6738ZM41.9922-45.8496L48.3398-45.8496C50.7324-45.8496 51.9531-46.9727 51.9531-49.3164L51.9531-55.3711C51.9531-57.7637 50.7324-58.8867 48.3398-58.8867L41.9922-58.8867C39.5508-58.8867 38.3301-57.7637 38.3301-55.3711L38.3301-49.3164C38.3301-46.9727 39.5508-45.8496 41.9922-45.8496ZM41.9922-28.7109L48.3398-28.7109C50.7324-28.7109 51.9531-29.7852 51.9531-32.1777L51.9531-38.2324C51.9531-40.625 50.7324-41.6504 48.3398-41.6504L41.9922-41.6504C39.5508-41.6504 38.3301-40.625 38.3301-38.2324L38.3301-32.1777C38.3301-29.7852 39.5508-28.7109 41.9922-28.7109ZM41.9922-11.5234L48.3398-11.5234C50.7324-11.5234 51.9531-12.6465 51.9531-15.0391L51.9531-21.0938C51.9531-23.3887 50.7324-24.5117 48.3398-24.5117L41.9922-24.5117C39.5508-24.5117 38.3301-23.3887 38.3301-21.0938L38.3301-15.0391C38.3301-12.6465 39.5508-11.5234 41.9922-11.5234Z"/>
  </g>
  <g id="Heavy-M" transform="matrix(1 0 0 1 2565.5 1126)">
   <path d="M31.0059 12.6465L111.426 12.6465C123.193 12.6465 129.932 5.9082 129.932-5.81055L129.932-64.5508C129.932-76.2695 123.193-83.0566 111.426-83.0566L31.0059-83.0566C19.2383-83.0566 12.4512-76.3184 12.4512-64.5508L12.4512-5.81055C12.4512 5.9082 19.2383 12.6465 31.0059 12.6465ZM33.252-3.17383C29.9316-3.17383 28.2715-4.63867 28.2715-8.1543L28.2715-62.207C28.2715-65.7715 29.9316-67.2363 33.252-67.2363L57.2266-67.2363L57.2266-3.17383ZM109.131-67.2363C112.451-67.2363 114.111-65.7715 114.111-62.207L114.111-8.1543C114.111-4.63867 112.451-3.17383 109.131-3.17383L71.5332-3.17383L71.5332-67.2363ZM39.2578-46.582L46.2891-46.582C48.3887-46.582 49.5605-47.6562 49.5605-49.7559L49.5605-56.4941C49.5605-58.6426 48.4375-59.7168 46.2891-59.7168L39.2578-59.7168C37.0605-59.7168 35.9375-58.6426 35.9375-56.4941L35.9375-49.7559C35.9375-47.6562 37.0605-46.582 39.2578-46.582ZM39.2578-28.6621L46.2891-28.6621C48.3887-28.6621 49.5605-29.6875 49.5605-31.7871L49.5605-38.5742C49.5605-40.7227 48.4375-41.748 46.2891-41.748L39.2578-41.748C37.0605-41.748 35.9375-40.7227 35.9375-38.5742L35.9375-31.7871C35.9375-29.6875 37.0605-28.6621 39.2578-28.6621ZM39.2578-10.6934L46.2891-10.6934C48.3887-10.6934 49.5605-11.7676 49.5605-13.916L49.5605-20.6543C49.5605-22.7539 48.4375-23.8281 46.2891-23.8281L39.2578-23.8281C37.0605-23.8281 35.9375-22.7539 35.9375-20.6543L35.9375-13.916C35.9375-11.7676 37.0605-10.6934 39.2578-10.6934Z"/>
  </g>
  <g id="Bold-M" transform="matrix(1 0 0 1 2269.18 1126)">
   <path d="M29.8828 11.6699L111.719 11.6699C122.949 11.6699 129.15 5.46875 129.15-5.66406L129.15-64.6973C129.15-75.8789 122.949-82.0312 111.719-82.0312L29.8828-82.0312C18.6523-82.0312 12.4512-75.8789 12.4512-64.6973L12.4512-5.66406C12.4512 5.51758 18.6523 11.6699 29.8828 11.6699ZM31.3965-1.41602C27.5391-1.41602 25.5371-3.27148 25.5371-7.32422L25.5371-63.0371C25.5371-67.1387 27.5391-68.9453 31.3965-68.9453L54.5898-68.9453L54.5898-1.41602ZM110.205-68.9453C114.014-68.9453 116.064-67.1387 116.064-63.0371L116.064-7.32422C116.064-3.27148 114.014-1.41602 110.205-1.41602L66.6016-1.41602L66.6016-68.9453ZM36.1816-47.4121L43.9941-47.4121C45.8008-47.4121 46.875-48.3887 46.875-50.1953L46.875-57.8125C46.875-59.668 45.8496-60.6934 43.9941-60.6934L36.1816-60.6934C34.2773-60.6934 33.252-59.668 33.252-57.8125L33.252-50.1953C33.252-48.3887 34.3262-47.4121 36.1816-47.4121ZM36.1816-28.5645L43.9941-28.5645C45.8008-28.5645 46.875-29.5898 46.875-31.3965L46.875-39.0137C46.875-40.8691 45.8496-41.8945 43.9941-41.8945L36.1816-41.8945C34.2773-41.8945 33.252-40.8691 33.252-39.0137L33.252-31.3965C33.252-29.5898 34.3262-28.5645 36.1816-28.5645ZM36.1816-9.76562L43.9941-9.76562C45.8008-9.76562 46.875-10.791 46.875-12.5977L46.875-20.2148C46.875-22.0215 45.8496-23.0469 43.9941-23.0469L36.1816-23.0469C34.2773-23.0469 33.252-22.0215 33.252-20.2148L33.252-12.5977C33.252-10.791 34.3262-9.76562 36.1816-9.76562Z"/>
  </g>
  <g id="Semibold-M" transform="matrix(1 0 0 1 1972.76 1126)">
   <path d="M29.1016 10.9863L111.914 10.9863C122.803 10.9863 128.564 5.17578 128.564-5.56641L128.564-64.8438C128.564-75.5859 122.803-81.3477 111.914-81.3477L29.1016-81.3477C18.2617-81.3477 12.4512-75.5859 12.4512-64.8438L12.4512-5.56641C12.4512 5.22461 18.2617 10.9863 29.1016 10.9863ZM30.127-0.195312C25.8789-0.195312 23.6328-2.34375 23.6328-6.78711L23.6328-63.623C23.6328-68.0664 25.8789-70.166 30.127-70.166L52.7832-70.166L52.7832-0.195312ZM110.889-70.166C115.088-70.166 117.383-68.0664 117.383-63.623L117.383-6.78711C117.383-2.34375 115.088-0.195312 110.889-0.195312L63.2324-0.195312L63.2324-70.166ZM34.082-47.9492L42.3828-47.9492C43.9941-47.9492 45.0195-48.9258 45.0195-50.5371L45.0195-58.6914C45.0195-60.4004 44.043-61.377 42.3828-61.377L34.082-61.377C32.373-61.377 31.3965-60.4004 31.3965-58.6914L31.3965-50.5371C31.3965-48.9258 32.4219-47.9492 34.082-47.9492ZM34.082-28.5156L42.3828-28.5156C43.9941-28.5156 45.0195-29.4922 45.0195-31.1035L45.0195-39.3066C45.0195-40.918 44.043-41.9434 42.3828-41.9434L34.082-41.9434C32.373-41.9434 31.3965-40.918 31.3965-39.3066L31.3965-31.1035C31.3965-29.4922 32.4219-28.5156 34.082-28.5156ZM34.082-9.13086L42.3828-9.13086C43.9941-9.13086 45.0195-10.1074 45.0195-11.7188L45.0195-19.873C45.0195-21.5332 44.043-22.5098 42.3828-22.5098L34.082-22.5098C32.373-22.5098 31.3965-21.5332 31.3965-19.873L31.3965-11.7188C31.3965-10.1074 32.4219-9.13086 34.082-9.13086Z"/>
  </g>
  <g id="Medium-M" transform="matrix(1 0 0 1 1676.24 1126)">
   <path d="M28.5156 10.4492L112.061 10.4492C122.656 10.4492 128.174 4.98047 128.174-5.46875L128.174-64.8926C128.174-75.3418 122.656-80.8105 112.061-80.8105L28.5156-80.8105C17.9688-80.8105 12.4512-75.3906 12.4512-64.8926L12.4512-5.46875C12.4512 4.98047 17.9688 10.4492 28.5156 10.4492ZM29.1504 0.732422C24.6582 0.732422 22.168-1.61133 22.168-6.34766L22.168-64.0137C22.168-68.75 24.6582-71.0938 29.1504-71.0938L51.416-71.0938L51.416 0.732422ZM111.426-71.0938C115.918-71.0938 118.408-68.75 118.408-64.0137L118.408-6.34766C118.408-1.61133 115.918 0.732422 111.426 0.732422L60.6445 0.732422L60.6445-71.0938ZM32.4707-48.3887L41.2109-48.3887C42.627-48.3887 43.6523-49.3164 43.6523-50.7812L43.6523-59.375C43.6523-60.9375 42.6758-61.8652 41.2109-61.8652L32.4707-61.8652C30.9082-61.8652 29.9805-60.9375 29.9805-59.375L29.9805-50.7812C29.9805-49.3164 30.957-48.3887 32.4707-48.3887ZM32.4707-28.4668L41.2109-28.4668C42.627-28.4668 43.6523-29.4434 43.6523-30.9082L43.6523-39.5508C43.6523-41.0156 42.6758-41.9922 41.2109-41.9922L32.4707-41.9922C30.9082-41.9922 29.9805-41.0156 29.9805-39.5508L29.9805-30.9082C29.9805-29.4434 30.957-28.4668 32.4707-28.4668ZM32.4707-8.64258L41.2109-8.64258C42.627-8.64258 43.6523-9.57031 43.6523-11.0352L43.6523-19.6777C43.6523-21.1426 42.6758-22.1191 41.2109-22.1191L32.4707-22.1191C30.9082-22.1191 29.9805-21.1426 29.9805-19.6777L29.9805-11.0352C29.9805-9.57031 30.957-8.64258 32.4707-8.64258Z"/>
  </g>
  <g id="Regular-M" transform="matrix(1 0 0 1 1379.82 1126)">
   <path d="M27.7832 9.76562L112.256 9.76562C122.51 9.76562 127.588 4.6875 127.588-5.37109L127.588-64.9902C127.588-75.0488 122.51-80.127 112.256-80.127L27.7832-80.127C17.5781-80.127 12.4512-75.0977 12.4512-64.9902L12.4512-5.37109C12.4512 4.73633 17.5781 9.76562 27.7832 9.76562ZM27.8809 1.9043C22.998 1.9043 20.3125-0.683594 20.3125-5.76172L20.3125-64.5996C20.3125-69.6777 22.998-72.2656 27.8809-72.2656L49.6582-72.2656L49.6582 1.9043ZM112.158-72.2656C116.992-72.2656 119.727-69.6777 119.727-64.5996L119.727-5.76172C119.727-0.683594 116.992 1.9043 112.158 1.9043L57.3242 1.9043L57.3242-72.2656ZM30.4199-48.9258L39.5996-48.9258C40.8691-48.9258 41.7969-49.8047 41.7969-51.123L41.7969-60.2539C41.7969-61.6211 40.918-62.5 39.5996-62.5L30.4199-62.5C29.0527-62.5 28.125-61.6211 28.125-60.2539L28.125-51.123C28.125-49.8047 29.1016-48.9258 30.4199-48.9258ZM30.4199-28.418L39.5996-28.418C40.8691-28.418 41.7969-29.3945 41.7969-30.6152L41.7969-39.8438C41.7969-41.1133 40.918-42.0898 39.5996-42.0898L30.4199-42.0898C29.0527-42.0898 28.125-41.1133 28.125-39.8438L28.125-30.6152C28.125-29.3945 29.1016-28.418 30.4199-28.418ZM30.4199-8.00781L39.5996-8.00781C40.8691-8.00781 41.7969-8.88672 41.7969-10.2051L41.7969-19.3359C41.7969-20.6543 40.918-21.582 39.5996-21.582L30.4199-21.582C29.0527-21.582 28.125-20.6543 28.125-19.3359L28.125-10.2051C28.125-8.88672 29.1016-8.00781 30.4199-8.00781Z"/>
  </g>
  <g id="Light-M" transform="matrix(1 0 0 1 1083.5 1126)">
   <path d="M26.8555 9.0332L112.402 9.0332C121.973 9.0332 126.807 4.15039 126.807-5.22461L126.807-65.0879C126.807-74.5117 121.973-79.3945 112.402-79.3945L26.8555-79.3945C17.334-79.3945 12.4512-74.5605 12.4512-65.0879L12.4512-5.22461C12.4512 4.19922 17.334 9.0332 26.8555 9.0332ZM26.9531 2.97852C21.4844 2.97852 18.5059 0.0976562 18.5059-5.56641L18.5059-64.7949C18.5059-70.4102 21.4844-73.3398 26.9531-73.3398L48.7793-73.3398L48.7793 2.97852ZM112.305-73.3398C117.676-73.3398 120.752-70.4102 120.752-64.7949L120.752-5.56641C120.752 0.0976562 117.676 2.97852 112.305 2.97852L54.6875 2.97852L54.6875-73.3398ZM28.8086-49.6094L38.5254-49.6094C39.6484-49.6094 40.4785-50.3906 40.4785-51.5137L40.4785-61.1816C40.4785-62.4023 39.6973-63.1348 38.5254-63.1348L28.8086-63.1348C27.5879-63.1348 26.8066-62.4023 26.8066-61.1816L26.8066-51.5137C26.8066-50.3906 27.6367-49.6094 28.8086-49.6094ZM28.8086-28.4668L38.5254-28.4668C39.6484-28.4668 40.4785-29.2969 40.4785-30.3711L40.4785-40.0879C40.4785-41.2109 39.6973-42.041 38.5254-42.041L28.8086-42.041C27.5879-42.041 26.8066-41.2109 26.8066-40.0879L26.8066-30.3711C26.8066-29.2969 27.6367-28.4668 28.8086-28.4668ZM28.8086-7.37305L38.5254-7.37305C39.6484-7.37305 40.4785-8.1543 40.4785-9.22852L40.4785-18.9453C40.4785-20.0684 39.6973-20.8984 38.5254-20.8984L28.8086-20.8984C27.5879-20.8984 26.8066-20.0684 26.8066-18.9453L26.8066-9.22852C26.8066-8.1543 27.6367-7.37305 28.8086-7.37305Z"/>
  </g>
  <g id="Thin-M" transform="matrix(1 0 0 1 787.33 1126)">
   <path d="M25.6348 8.05664L112.598 8.05664C121.24 8.05664 125.732 3.4668 125.732-5.0293L125.732-65.2344C125.732-73.7305 121.24-78.3691 112.598-78.3691L25.6348-78.3691C16.9922-78.3691 12.4512-73.877 12.4512-65.2344L12.4512-5.0293C12.4512 3.56445 16.9922 8.05664 25.6348 8.05664ZM25.7324 4.44336C19.3848 4.44336 16.0645 1.12305 16.0645-5.22461L16.0645-65.0391C16.0645-71.4355 19.3848-74.7559 25.7324-74.7559L47.6562-74.7559L47.6562 4.44336ZM112.451-74.7559C118.604-74.7559 122.119-71.4355 122.119-65.0391L122.119-5.22461C122.119 1.12305 118.604 4.44336 112.451 4.44336L51.2207 4.44336L51.2207-74.7559ZM26.6602-50.5371L37.1094-50.5371C38.0371-50.5371 38.6719-51.1719 38.6719-52.0508L38.6719-62.4023C38.6719-63.3789 38.0371-63.9648 37.1094-63.9648L26.6602-63.9648C25.6836-63.9648 25.0488-63.3789 25.0488-62.4023L25.0488-52.0508C25.0488-51.1719 25.6836-50.5371 26.6602-50.5371ZM26.6602-28.5156L37.1094-28.5156C38.0371-28.5156 38.6719-29.1504 38.6719-29.9805L38.6719-40.3809C38.6719-41.3574 38.0371-41.9434 37.1094-41.9434L26.6602-41.9434C25.6836-41.9434 25.0488-41.3574 25.0488-40.3809L25.0488-29.9805C25.0488-29.1504 25.6836-28.5156 26.6602-28.5156ZM26.6602-6.49414L37.1094-6.49414C38.0371-6.49414 38.6719-7.12891 38.6719-8.00781L38.6719-18.3594C38.6719-19.3359 38.0371-19.9219 37.1094-19.9219L26.6602-19.9219C25.6836-19.9219 25.0488-19.3359 25.0488-18.3594L25.0488-8.00781C25.0488-7.12891 25.6836-6.49414 26.6602-6.49414Z"/>
  </g>
  <g id="Ultralight-M" transform="matrix(1 0 0 1 490.888 1126)">
   <path d="M25 7.56836L112.695 7.56836C120.85 7.56836 125.195 3.125 125.195-4.98047L125.195-65.2832C125.195-73.3887 120.85-77.832 112.695-77.832L25-77.832C16.7969-77.832 12.4512-73.4863 12.4512-65.2832L12.4512-4.98047C12.4512 3.22266 16.7969 7.56836 25 7.56836ZM25.0977 5.17578C18.3594 5.17578 14.8438 1.66016 14.8438-5.07812L14.8438-65.1855C14.8438-71.9727 18.3594-75.4395 25.0977-75.4395L47.0703-75.4395L47.0703 5.17578ZM112.549-75.4395C119.043-75.4395 122.803-71.9727 122.803-65.1855L122.803-5.07812C122.803 1.66016 119.043 5.17578 112.549 5.17578L49.4629 5.17578L49.4629-75.4395ZM25.5859-51.0254L36.377-51.0254C37.207-51.0254 37.7441-51.5625 37.7441-52.2949L37.7441-63.0371C37.7441-63.916 37.207-64.4043 36.377-64.4043L25.5859-64.4043C24.707-64.4043 24.1699-63.916 24.1699-63.0371L24.1699-52.2949C24.1699-51.5625 24.707-51.0254 25.5859-51.0254ZM25.5859-28.5156L36.377-28.5156C37.207-28.5156 37.7441-29.1016 37.7441-29.834L37.7441-40.5762C37.7441-41.4551 37.207-41.9434 36.377-41.9434L25.5859-41.9434C24.707-41.9434 24.1699-41.4551 24.1699-40.5762L24.1699-29.834C24.1699-29.1016 24.707-28.5156 25.5859-28.5156ZM25.5859-6.05469L36.377-6.05469C37.207-6.05469 37.7441-6.5918 37.7441-7.37305L37.7441-18.1152C37.7441-18.9453 37.207-19.4336 36.377-19.4336L25.5859-19.4336C24.707-19.4336 24.1699-18.9453 24.1699-18.1152L24.1699-7.37305C24.1699-6.5918 24.707-6.05469 25.5859-6.05469Z"/>
  </g>
  <g id="Black-S" transform="matrix(1 0 0 1 2877.35 696)">
   <path d="M25 2.92969L87.1094 2.92969C96.6797 2.92969 102.344-2.73438 102.344-12.3047L102.344-58.1055C102.344-67.6758 96.6797-73.3398 87.1094-73.3398L25-73.3398C15.4297-73.3398 9.76562-67.6758 9.76562-58.1055L9.76562-12.3047C9.76562-2.73438 15.4297 2.92969 25 2.92969ZM27.2461-11.2305C25-11.2305 23.9258-12.1094 23.9258-14.5508L23.9258-55.8594C23.9258-58.3008 25-59.1797 27.2461-59.1797L46.4844-59.1797L46.4844-11.2305ZM84.8633-59.1797C87.1094-59.1797 88.1836-58.3008 88.1836-55.8594L88.1836-14.5508C88.1836-12.1094 87.1094-11.2305 84.8633-11.2305L59.1797-11.2305L59.1797-59.1797ZM32.7148-43.6035L37.7441-43.6035C39.5996-43.6035 40.5273-44.4824 40.5273-46.2891L40.5273-51.0742C40.5273-52.9297 39.5996-53.8086 37.7441-53.8086L32.7148-53.8086C30.8105-53.8086 29.8828-52.9297 29.8828-51.0742L29.8828-46.2891C29.8828-44.4824 30.8105-43.6035 32.7148-43.6035ZM32.7148-30.127L37.7441-30.127C39.5996-30.127 40.5273-30.957 40.5273-32.8125L40.5273-37.5977C40.5273-39.4531 39.5996-40.2832 37.7441-40.2832L32.7148-40.2832C30.8105-40.2832 29.8828-39.4531 29.8828-37.5977L29.8828-32.8125C29.8828-30.957 30.8105-30.127 32.7148-30.127ZM32.7148-16.6016L37.7441-16.6016C39.5996-16.6016 40.5273-17.4805 40.5273-19.3359L40.5273-24.1211C40.5273-25.9277 39.5996-26.8066 37.7441-26.8066L32.7148-26.8066C30.8105-26.8066 29.8828-25.9277 29.8828-24.1211L29.8828-19.3359C29.8828-17.4805 30.8105-16.6016 32.7148-16.6016Z"/>
  </g>
  <g id="Heavy-S" transform="matrix(1 0 0 1 2580.88 696)">
   <path d="M24.3652 2.34375L87.3047 2.34375C96.582 2.34375 101.855-2.97852 101.855-12.207L101.855-58.2031C101.855-67.4316 96.582-72.7539 87.3047-72.7539L24.3652-72.7539C15.0879-72.7539 9.76562-67.4316 9.76562-58.2031L9.76562-12.207C9.76562-2.97852 15.0879 2.34375 24.3652 2.34375ZM26.0742-10.1562C23.5352-10.1562 22.2656-11.2793 22.2656-14.0137L22.2656-56.3965C22.2656-59.1309 23.5352-60.2539 26.0742-60.2539L44.7754-60.2539L44.7754-10.1562ZM85.5469-60.2539C88.0859-60.2539 89.4043-59.1309 89.4043-56.3965L89.4043-14.0137C89.4043-11.2793 88.0859-10.1562 85.5469-10.1562L56.1035-10.1562L56.1035-60.2539ZM30.8105-44.0918L36.2793-44.0918C37.9395-44.0918 38.8672-44.9219 38.8672-46.582L38.8672-51.8555C38.8672-53.5645 37.9883-54.3945 36.2793-54.3945L30.8105-54.3945C29.0527-54.3945 28.1738-53.5645 28.1738-51.8555L28.1738-46.582C28.1738-44.9219 29.1016-44.0918 30.8105-44.0918ZM30.8105-30.0781L36.2793-30.0781C37.9395-30.0781 38.8672-30.9082 38.8672-32.5684L38.8672-37.8418C38.8672-39.5508 37.9883-40.3809 36.2793-40.3809L30.8105-40.3809C29.0527-40.3809 28.1738-39.5508 28.1738-37.8418L28.1738-32.5684C28.1738-30.9082 29.1016-30.0781 30.8105-30.0781ZM30.8105-16.0156L36.2793-16.0156C37.9395-16.0156 38.8672-16.8945 38.8672-18.5547L38.8672-23.8281C38.8672-25.4883 37.9883-26.3672 36.2793-26.3672L30.8105-26.3672C29.0527-26.3672 28.1738-25.4883 28.1738-23.8281L28.1738-18.5547C28.1738-16.8945 29.1016-16.0156 30.8105-16.0156Z"/>
  </g>
  <g id="Bold-S" transform="matrix(1 0 0 1 2284.41 696)">
   <path d="M23.6328 1.66016L87.5 1.66016C96.4844 1.66016 101.367-3.22266 101.367-12.1094L101.367-58.3008C101.367-67.1875 96.4844-72.0703 87.5-72.0703L23.6328-72.0703C14.6973-72.0703 9.76562-67.1875 9.76562-58.3008L9.76562-12.1094C9.76562-3.22266 14.6973 1.66016 23.6328 1.66016ZM24.8047-8.93555C21.9238-8.93555 20.3613-10.3516 20.3613-13.4277L20.3613-56.9824C20.3613-60.0586 21.9238-61.4746 24.8047-61.4746L42.9199-61.4746L42.9199-8.93555ZM86.3281-61.4746C89.209-61.4746 90.7715-60.0586 90.7715-56.9824L90.7715-13.4277C90.7715-10.3516 89.209-8.93555 86.3281-8.93555L52.6855-8.93555L52.6855-61.4746ZM28.6621-44.6289L34.668-44.6289C36.1328-44.6289 36.9629-45.4102 36.9629-46.875L36.9629-52.7344C36.9629-54.248 36.1328-55.0781 34.668-55.0781L28.6621-55.0781C27.1484-55.0781 26.2695-54.248 26.2695-52.7344L26.2695-46.875C26.2695-45.4102 27.1484-44.6289 28.6621-44.6289ZM28.6621-30.0293L34.668-30.0293C36.1328-30.0293 36.9629-30.8105 36.9629-32.2754L36.9629-38.1348C36.9629-39.5996 36.1328-40.4297 34.668-40.4297L28.6621-40.4297C27.1484-40.4297 26.2695-39.5996 26.2695-38.1348L26.2695-32.2754C26.2695-30.8105 27.1484-30.0293 28.6621-30.0293ZM28.6621-15.3809L34.668-15.3809C36.1328-15.3809 36.9629-16.2109 36.9629-17.7246L36.9629-23.5352C36.9629-25 36.1328-25.8301 34.668-25.8301L28.6621-25.8301C27.1484-25.8301 26.2695-25 26.2695-23.5352L26.2695-17.7246C26.2695-16.2109 27.1484-15.3809 28.6621-15.3809Z"/>
  </g>
  <g id="Semibold-S" transform="matrix(1 0 0 1 1987.9 696)">
   <path d="M23.0957 1.17188L87.6465 1.17188C96.3867 1.17188 100.977-3.36914 100.977-12.0117L100.977-58.3984C100.977-67.041 96.3867-71.582 87.6465-71.582L23.0957-71.582C14.4043-71.582 9.76562-67.041 9.76562-58.3984L9.76562-12.0117C9.76562-3.36914 14.4043 1.17188 23.0957 1.17188ZM23.877-8.10547C20.752-8.10547 19.0918-9.7168 19.0918-12.9883L19.0918-57.4219C19.0918-60.6934 20.752-62.3047 23.877-62.3047L41.6016-62.3047L41.6016-8.10547ZM86.8652-62.3047C89.9902-62.3047 91.6992-60.6934 91.6992-57.4219L91.6992-12.9883C91.6992-9.7168 89.9902-8.10547 86.8652-8.10547L50.293-8.10547L50.293-62.3047ZM27.1973-44.9707L33.5449-44.9707C34.8633-44.9707 35.6934-45.752 35.6934-47.1191L35.6934-53.3203C35.6934-54.6875 34.8633-55.5176 33.5449-55.5176L27.1973-55.5176C25.7812-55.5176 25-54.6875 25-53.3203L25-47.1191C25-45.752 25.8301-44.9707 27.1973-44.9707ZM27.1973-29.9805L33.5449-29.9805C34.8633-29.9805 35.6934-30.7617 35.6934-32.0801L35.6934-38.3789C35.6934-39.6484 34.8633-40.5273 33.5449-40.5273L27.1973-40.5273C25.7812-40.5273 25-39.6484 25-38.3789L25-32.0801C25-30.7617 25.8301-29.9805 27.1973-29.9805ZM27.1973-14.9902L33.5449-14.9902C34.8633-14.9902 35.6934-15.7715 35.6934-17.0898L35.6934-23.3398C35.6934-24.6582 34.8633-25.4883 33.5449-25.4883L27.1973-25.4883C25.7812-25.4883 25-24.6582 25-23.3398L25-17.0898C25-15.7715 25.8301-14.9902 27.1973-14.9902Z"/>
  </g>
  <g id="Medium-S" transform="matrix(1 0 0 1 1691.31 696)">
   <path d="M22.7051 0.830078L87.7441 0.830078C96.3379 0.830078 100.732-3.51562 100.732-11.9629L100.732-58.4473C100.732-66.8945 96.3379-71.2402 87.7441-71.2402L22.7051-71.2402C14.209-71.2402 9.76562-66.8945 9.76562-58.4473L9.76562-11.9629C9.76562-3.51562 14.209 0.830078 22.7051 0.830078ZM23.1934-7.4707C19.9219-7.4707 18.0664-9.22852 18.0664-12.6953L18.0664-57.7148C18.0664-61.1816 19.9219-62.9395 23.1934-62.9395L40.625-62.9395L40.625-7.4707ZM87.3047-62.9395C90.5762-62.9395 92.3828-61.1816 92.3828-57.7148L92.3828-12.6953C92.3828-9.22852 90.5762-7.4707 87.3047-7.4707L48.5352-7.4707L48.5352-62.9395ZM26.0742-45.2637L32.666-45.2637C33.8867-45.2637 34.7168-46.0449 34.7168-47.2656L34.7168-53.8086C34.7168-55.0781 33.9355-55.8594 32.666-55.8594L26.0742-55.8594C24.8047-55.8594 23.9746-55.0781 23.9746-53.8086L23.9746-47.2656C23.9746-46.0449 24.8047-45.2637 26.0742-45.2637ZM26.0742-29.9316L32.666-29.9316C33.8867-29.9316 34.7168-30.7617 34.7168-31.9336L34.7168-38.5254C34.7168-39.6973 33.9355-40.5762 32.666-40.5762L26.0742-40.5762C24.8047-40.5762 23.9746-39.6973 23.9746-38.5254L23.9746-31.9336C23.9746-30.7617 24.8047-29.9316 26.0742-29.9316ZM26.0742-14.6484L32.666-14.6484C33.8867-14.6484 34.7168-15.4297 34.7168-16.6504L34.7168-23.1934C34.7168-24.4141 33.9355-25.2441 32.666-25.2441L26.0742-25.2441C24.8047-25.2441 23.9746-24.4141 23.9746-23.1934L23.9746-16.6504C23.9746-15.4297 24.8047-14.6484 26.0742-14.6484Z"/>
  </g>
  <g id="Regular-S" transform="matrix(1 0 0 1 1394.79 696)">
   <path d="M22.2168 0.390625L87.8906 0.390625C96.2402 0.390625 100.342-3.71094 100.342-11.9141L100.342-58.4961C100.342-66.6992 96.2402-70.8008 87.8906-70.8008L22.2168-70.8008C13.916-70.8008 9.76562-66.6992 9.76562-58.4961L9.76562-11.9141C9.76562-3.71094 13.916 0.390625 22.2168 0.390625ZM22.3145-6.68945C18.7988-6.68945 16.7969-8.54492 16.7969-12.2559L16.7969-58.1543C16.7969-61.8164 18.7988-63.7207 22.3145-63.7207L39.3066-63.7207L39.3066-6.68945ZM87.793-63.7207C91.3086-63.7207 93.3105-61.8164 93.3105-58.1543L93.3105-12.2559C93.3105-8.54492 91.3086-6.68945 87.793-6.68945L46.1914-6.68945L46.1914-63.7207ZM24.6094-45.6055L31.5918-45.6055C32.6172-45.6055 33.4473-46.3867 33.4473-47.4609L33.4473-54.3945C33.4473-55.5176 32.666-56.2988 31.5918-56.2988L24.6094-56.2988C23.4375-56.2988 22.7051-55.5176 22.7051-54.3945L22.7051-47.4609C22.7051-46.3867 23.4863-45.6055 24.6094-45.6055ZM24.6094-29.8828L31.5918-29.8828C32.6172-29.8828 33.4473-30.7129 33.4473-31.7383L33.4473-38.7207C33.4473-39.7461 32.666-40.625 31.5918-40.625L24.6094-40.625C23.4375-40.625 22.7051-39.7461 22.7051-38.7207L22.7051-31.7383C22.7051-30.7129 23.4863-29.8828 24.6094-29.8828ZM24.6094-14.209L31.5918-14.209C32.6172-14.209 33.4473-14.9902 33.4473-16.0645L33.4473-22.998C33.4473-24.0723 32.666-24.9023 31.5918-24.9023L24.6094-24.9023C23.4375-24.9023 22.7051-24.0723 22.7051-22.998L22.7051-16.0645C22.7051-14.9902 23.4863-14.209 24.6094-14.209Z"/>
  </g>
  <g id="Light-S" transform="matrix(1 0 0 1 1098.42 696)">
   <path d="M21.3867-0.292969L88.0371-0.292969C95.752-0.292969 99.6582-4.15039 99.6582-11.7676L99.6582-58.5938C99.6582-66.2109 95.752-70.1172 88.0371-70.1172L21.3867-70.1172C13.6719-70.1172 9.76562-66.2598 9.76562-58.5938L9.76562-11.7676C9.76562-4.15039 13.6719-0.292969 21.3867-0.292969ZM21.4844-5.71289C17.4316-5.71289 15.1855-7.86133 15.1855-12.0605L15.1855-58.3008C15.1855-62.5 17.4316-64.6973 21.4844-64.6973L38.5742-64.6973L38.5742-5.71289ZM87.9395-64.6973C91.9434-64.6973 94.2383-62.5 94.2383-58.3008L94.2383-12.0605C94.2383-7.86133 91.9434-5.71289 87.9395-5.71289L43.8477-5.71289L43.8477-64.6973ZM23.1934-46.2402L30.6152-46.2402C31.543-46.2402 32.2266-46.875 32.2266-47.8027L32.2266-55.2246C32.2266-56.2012 31.5918-56.8359 30.6152-56.8359L23.1934-56.8359C22.168-56.8359 21.5332-56.2012 21.5332-55.2246L21.5332-47.8027C21.5332-46.875 22.2168-46.2402 23.1934-46.2402ZM23.1934-29.9316L30.6152-29.9316C31.543-29.9316 32.2266-30.6152 32.2266-31.4941L32.2266-38.916C32.2266-39.8438 31.5918-40.5762 30.6152-40.5762L23.1934-40.5762C22.168-40.5762 21.5332-39.8438 21.5332-38.916L21.5332-31.4941C21.5332-30.6152 22.2168-29.9316 23.1934-29.9316ZM23.1934-13.623L30.6152-13.623C31.543-13.623 32.2266-14.3066 32.2266-15.2344L32.2266-22.6074C32.2266-23.584 31.5918-24.2676 30.6152-24.2676L23.1934-24.2676C22.168-24.2676 21.5332-23.584 21.5332-22.6074L21.5332-15.2344C21.5332-14.3066 22.2168-13.623 23.1934-13.623Z"/>
  </g>
  <g id="Thin-S" transform="matrix(1 0 0 1 802.174 696)">
   <path d="M20.3125-1.12305L88.1836-1.12305C95.1172-1.12305 98.7305-4.78516 98.7305-11.6211L98.7305-58.6914C98.7305-65.5762 95.1172-69.2383 88.1836-69.2383L20.3125-69.2383C13.3789-69.2383 9.76562-65.625 9.76562-58.6914L9.76562-11.6211C9.76562-4.6875 13.3789-1.12305 20.3125-1.12305ZM20.4102-4.44336C15.625-4.44336 13.0859-6.93359 13.0859-11.8164L13.0859-58.5449C13.0859-63.3789 15.625-65.918 20.4102-65.918L37.5488-65.918L37.5488-4.44336ZM88.0859-65.918C92.7246-65.918 95.4102-63.3789 95.4102-58.5449L95.4102-11.8164C95.4102-6.93359 92.7246-4.44336 88.0859-4.44336L40.8203-4.44336L40.8203-65.918ZM21.2891-47.0215L29.3457-47.0215C30.127-47.0215 30.6641-47.5586 30.6641-48.291L30.6641-56.2988C30.6641-57.0801 30.127-57.5684 29.3457-57.5684L21.2891-57.5684C20.5078-57.5684 19.9707-57.0801 19.9707-56.2988L19.9707-48.291C19.9707-47.5586 20.5078-47.0215 21.2891-47.0215ZM21.2891-29.9316L29.3457-29.9316C30.127-29.9316 30.6641-30.5176 30.6641-31.2012L30.6641-39.209C30.6641-39.9902 30.127-40.5273 29.3457-40.5273L21.2891-40.5273C20.5078-40.5273 19.9707-39.9902 19.9707-39.209L19.9707-31.2012C19.9707-30.5176 20.5078-29.9316 21.2891-29.9316ZM21.2891-12.8906L29.3457-12.8906C30.127-12.8906 30.6641-13.4277 30.6641-14.1113L30.6641-22.1191C30.6641-22.9492 30.127-23.4375 29.3457-23.4375L21.2891-23.4375C20.5078-23.4375 19.9707-22.9492 19.9707-22.1191L19.9707-14.1113C19.9707-13.4277 20.5078-12.8906 21.2891-12.8906Z"/>
  </g>
  <g id="Ultralight-S" transform="matrix(1 0 0 1 505.707 696)">
   <path d="M19.7754-1.5625L88.2812-1.5625C94.8242-1.5625 98.2422-5.12695 98.2422-11.5234L98.2422-58.7891C98.2422-65.2344 94.8242-68.75 88.2812-68.75L19.7754-68.75C13.2324-68.75 9.76562-65.2832 9.76562-58.7891L9.76562-11.5234C9.76562-5.0293 13.2324-1.5625 19.7754-1.5625ZM19.873-3.75977C14.6484-3.75977 11.9629-6.44531 11.9629-11.6699L11.9629-58.6426C11.9629-63.8672 14.6484-66.5527 19.873-66.5527L37.0117-66.5527L37.0117-3.75977ZM88.1836-66.5527C93.1641-66.5527 96.0449-63.8672 96.0449-58.6426L96.0449-11.6699C96.0449-6.44531 93.1641-3.75977 88.1836-3.75977L39.209-3.75977L39.209-66.5527ZM20.3613-47.4609L28.7109-47.4609C29.3457-47.4609 29.834-47.9004 29.834-48.5352L29.834-56.8359C29.834-57.5684 29.3945-57.959 28.7109-57.959L20.3613-57.959C19.6289-57.959 19.1895-57.5684 19.1895-56.8359L19.1895-48.5352C19.1895-47.9004 19.6289-47.4609 20.3613-47.4609ZM20.3613-29.9805L28.7109-29.9805C29.3457-29.9805 29.834-30.4199 29.834-31.0547L29.834-39.3555C29.834-40.0879 29.3945-40.4785 28.7109-40.4785L20.3613-40.4785C19.6289-40.4785 19.1895-40.0879 19.1895-39.3555L19.1895-31.0547C19.1895-30.4199 19.6289-29.9805 20.3613-29.9805ZM20.3613-12.5L28.7109-12.5C29.3457-12.5 29.834-12.9395 29.834-13.5742L29.834-21.875C29.834-22.6074 29.3945-22.998 28.7109-22.998L20.3613-22.998C19.6289-22.998 19.1895-22.6074 19.1895-21.875L19.1895-13.5742C19.1895-12.9395 19.6289-12.5 20.3613-12.5Z"/>
  </g>
 </g>
</svg>
