<?xml version="1.0" encoding="UTF-8"?>
<!--Generator: Apple Native CoreSVG 149-->
<!DOCTYPE svg
PUBLIC "-//W3C//DTD SVG 1.1//EN"
       "http://www.w3.org/Graphics/SVG/1.1/DTD/svg11.dtd">
<svg version="1.1" xmlns="http://www.w3.org/2000/svg" xmlns:xlink="http://www.w3.org/1999/xlink" width="3300" height="2200">
 <!--glyph: "uni100241.medium", point size: 100.000000, font version: "Version 16.0d12e3", template writer version: "8"-->
 <g id="Notes">
  <rect height="2200" id="artboard" style="fill:white;opacity:1" width="3300" x="0" y="0"/>
  <line id="" style="fill:none;stroke:black;opacity:1;stroke-width:0.5;" x1="263" x2="3036" y1="292" y2="292"/>
  <text style="stroke:none;fill:black;font-family:-apple-system,&quot;SF Pro Display&quot;,&quot;SF Pro Text&quot;,Helvetica,sans-serif;font-weight:bold;" transform="matrix(1 0 0 1 263 322)">Weight/Scale Variations</text>
  <text style="stroke:none;fill:black;font-family:-apple-system,&quot;SF Pro Display&quot;,&quot;SF Pro Text&quot;,Helvetica,sans-serif;text-anchor:middle;" transform="matrix(1 0 0 1 559.711 322)">Ultralight</text>
  <text style="stroke:none;fill:black;font-family:-apple-system,&quot;SF Pro Display&quot;,&quot;SF Pro Text&quot;,Helvetica,sans-serif;text-anchor:middle;" transform="matrix(1 0 0 1 856.422 322)">Thin</text>
  <text style="stroke:none;fill:black;font-family:-apple-system,&quot;SF Pro Display&quot;,&quot;SF Pro Text&quot;,Helvetica,sans-serif;text-anchor:middle;" transform="matrix(1 0 0 1 1153.13 322)">Light</text>
  <text style="stroke:none;fill:black;font-family:-apple-system,&quot;SF Pro Display&quot;,&quot;SF Pro Text&quot;,Helvetica,sans-serif;text-anchor:middle;" transform="matrix(1 0 0 1 1449.84 322)">Regular</text>
  <text style="stroke:none;fill:black;font-family:-apple-system,&quot;SF Pro Display&quot;,&quot;SF Pro Text&quot;,Helvetica,sans-serif;text-anchor:middle;" transform="matrix(1 0 0 1 1746.56 322)">Medium</text>
  <text style="stroke:none;fill:black;font-family:-apple-system,&quot;SF Pro Display&quot;,&quot;SF Pro Text&quot;,Helvetica,sans-serif;text-anchor:middle;" transform="matrix(1 0 0 1 2043.27 322)">Semibold</text>
  <text style="stroke:none;fill:black;font-family:-apple-system,&quot;SF Pro Display&quot;,&quot;SF Pro Text&quot;,Helvetica,sans-serif;text-anchor:middle;" transform="matrix(1 0 0 1 2339.98 322)">Bold</text>
  <text style="stroke:none;fill:black;font-family:-apple-system,&quot;SF Pro Display&quot;,&quot;SF Pro Text&quot;,Helvetica,sans-serif;text-anchor:middle;" transform="matrix(1 0 0 1 2636.69 322)">Heavy</text>
  <text style="stroke:none;fill:black;font-family:-apple-system,&quot;SF Pro Display&quot;,&quot;SF Pro Text&quot;,Helvetica,sans-serif;text-anchor:middle;" transform="matrix(1 0 0 1 2933.4 322)">Black</text>
  <line id="" style="fill:none;stroke:black;opacity:1;stroke-width:0.5;" x1="263" x2="3036" y1="1903" y2="1903"/>
  <g id="" transform="matrix(1 0 0 1 263 1933)">
   <path d="M9.24805 0.830078C13.5547 0.830078 17.1387-2.74414 17.1387-7.05078C17.1387-11.3574 13.5449-14.9316 9.23828-14.9316C4.94141-14.9316 1.36719-11.3574 1.36719-7.05078C1.36719-2.74414 4.95117 0.830078 9.24805 0.830078ZM9.24805-0.654297C5.70312-0.654297 2.87109-3.49609 2.87109-7.05078C2.87109-10.6055 5.69336-13.4473 9.23828-13.4473C12.793-13.4473 15.6348-10.6055 15.6445-7.05078C15.6543-3.49609 12.8027-0.654297 9.24805-0.654297ZM9.22852-3.62305C9.69727-3.62305 9.9707-3.93555 9.9707-4.45312L9.9707-6.31836L12.002-6.31836C12.5-6.31836 12.832-6.57227 12.832-7.04102C12.832-7.51953 12.5195-7.7832 12.002-7.7832L9.9707-7.7832L9.9707-9.81445C9.9707-10.332 9.69727-10.6543 9.22852-10.6543C8.75977-10.6543 8.50586-10.3125 8.50586-9.81445L8.50586-7.7832L6.49414-7.7832C5.97656-7.7832 5.64453-7.51953 5.64453-7.04102C5.64453-6.57227 5.99609-6.31836 6.49414-6.31836L8.50586-6.31836L8.50586-4.45312C8.50586-3.95508 8.75977-3.62305 9.22852-3.62305Z"/>
  </g>
  <g id="" transform="matrix(1 0 0 1 281.506 1933)">
   <path d="M11.709 2.91016C17.1582 2.91016 21.6699-1.61133 21.6699-7.05078C21.6699-12.5 17.1484-17.0117 11.6992-17.0117C6.25977-17.0117 1.74805-12.5 1.74805-7.05078C1.74805-1.61133 6.26953 2.91016 11.709 2.91016ZM11.709 1.25C7.09961 1.25 3.41797-2.44141 3.41797-7.05078C3.41797-11.6602 7.08984-15.3516 11.6992-15.3516C16.3086-15.3516 20-11.6602 20.0098-7.05078C20.0195-2.44141 16.3184 1.25 11.709 1.25ZM11.6797-2.66602C12.207-2.66602 12.5098-3.01758 12.5098-3.59375L12.5098-6.23047L15.3223-6.23047C15.8691-6.23047 16.25-6.51367 16.25-7.03125C16.25-7.55859 15.8887-7.86133 15.3223-7.86133L12.5098-7.86133L12.5098-10.6836C12.5098-11.25 12.207-11.6113 11.6797-11.6113C11.1621-11.6113 10.8789-11.2305 10.8789-10.6836L10.8789-7.86133L8.07617-7.86133C7.50977-7.86133 7.13867-7.55859 7.13867-7.03125C7.13867-6.51367 7.5293-6.23047 8.07617-6.23047L10.8789-6.23047L10.8789-3.59375C10.8789-3.03711 11.1621-2.66602 11.6797-2.66602Z"/>
  </g>
  <g id="" transform="matrix(1 0 0 1 304.924 1933)">
   <path d="M14.9707 5.66406C21.9336 5.66406 27.6953-0.0976562 27.6953-7.05078C27.6953-14.0137 21.9238-19.7754 14.9609-19.7754C8.00781-19.7754 2.25586-14.0137 2.25586-7.05078C2.25586-0.0976562 8.01758 5.66406 14.9707 5.66406ZM14.9707 3.84766C8.93555 3.84766 4.08203-1.01562 4.08203-7.05078C4.08203-13.0957 8.92578-17.9492 14.9609-17.9492C21.0059-17.9492 25.8594-13.0957 25.8691-7.05078C25.8789-1.01562 21.0156 3.84766 14.9707 3.84766ZM14.9414-1.38672C15.5176-1.38672 15.8594-1.77734 15.8594-2.38281L15.8594-6.13281L19.7754-6.13281C20.3711-6.13281 20.7812-6.46484 20.7812-7.02148C20.7812-7.59766 20.3906-7.93945 19.7754-7.93945L15.8594-7.93945L15.8594-11.8652C15.8594-12.4805 15.5176-12.8711 14.9414-12.8711C14.375-12.8711 14.0527-12.4609 14.0527-11.8652L14.0527-7.93945L10.1465-7.93945C9.53125-7.93945 9.13086-7.59766 9.13086-7.02148C9.13086-6.46484 9.55078-6.13281 10.1465-6.13281L14.0527-6.13281L14.0527-2.38281C14.0527-1.79688 14.375-1.38672 14.9414-1.38672Z"/>
  </g>
  <text style="stroke:none;fill:black;font-family:-apple-system,&quot;SF Pro Display&quot;,&quot;SF Pro Text&quot;,Helvetica,sans-serif;font-weight:bold;" transform="matrix(1 0 0 1 263 1953)">Design Variations</text>
  <text style="stroke:none;fill:black;font-family:-apple-system,&quot;SF Pro Display&quot;,&quot;SF Pro Text&quot;,Helvetica,sans-serif;" transform="matrix(1 0 0 1 263 1971)">Symbols are supported in up to nine weights and three scales.</text>
  <text style="stroke:none;fill:black;font-family:-apple-system,&quot;SF Pro Display&quot;,&quot;SF Pro Text&quot;,Helvetica,sans-serif;" transform="matrix(1 0 0 1 263 1989)">For optimal layout with text and other symbols, vertically align</text>
  <text style="stroke:none;fill:black;font-family:-apple-system,&quot;SF Pro Display&quot;,&quot;SF Pro Text&quot;,Helvetica,sans-serif;" transform="matrix(1 0 0 1 263 2007)">symbols with the adjacent text.</text>
  <line id="" style="fill:none;stroke:#00AEEF;stroke-width:0.5;opacity:1.0;" x1="776" x2="776" y1="1919" y2="1933"/>
  <g id="" transform="matrix(1 0 0 1 776 1933)">
   <path d="M3.31055 0.126953C3.82812 0.126953 4.08203-0.0683594 4.26758-0.605469L5.52734-4.0625L11.2891-4.0625L12.5488-0.605469C12.7344-0.0683594 12.9883 0.126953 13.4961 0.126953C14.0137 0.126953 14.3457-0.185547 14.3457-0.673828C14.3457-0.839844 14.3164-0.986328 14.2383-1.20117L9.6582-13.3887C9.43359-13.9941 9.0332-14.2871 8.4082-14.2871C7.80273-14.2871 7.39258-13.9941 7.17773-13.3984L2.59766-1.19141C2.51953-0.976562 2.49023-0.830078 2.49023-0.664062C2.49023-0.175781 2.80273 0.126953 3.31055 0.126953ZM6.00586-5.53711L8.37891-12.1094L8.42773-12.1094L10.8008-5.53711Z"/>
  </g>
  <line id="" style="fill:none;stroke:#00AEEF;stroke-width:0.5;opacity:1.0;" x1="792.836" x2="792.836" y1="1919" y2="1933"/>
  <text style="stroke:none;fill:black;font-family:-apple-system,&quot;SF Pro Display&quot;,&quot;SF Pro Text&quot;,Helvetica,sans-serif;font-weight:bold;" transform="matrix(1 0 0 1 776 1953)">Margins</text>
  <text style="stroke:none;fill:black;font-family:-apple-system,&quot;SF Pro Display&quot;,&quot;SF Pro Text&quot;,Helvetica,sans-serif;" transform="matrix(1 0 0 1 776 1971)">Leading and trailing margins on the left and right side of each symbol</text>
  <text style="stroke:none;fill:black;font-family:-apple-system,&quot;SF Pro Display&quot;,&quot;SF Pro Text&quot;,Helvetica,sans-serif;" transform="matrix(1 0 0 1 776 1989)">can be adjusted by modifying the x-location of the margin guidelines.</text>
  <text style="stroke:none;fill:black;font-family:-apple-system,&quot;SF Pro Display&quot;,&quot;SF Pro Text&quot;,Helvetica,sans-serif;" transform="matrix(1 0 0 1 776 2007)">Modifications are automatically applied proportionally to all</text>
  <text style="stroke:none;fill:black;font-family:-apple-system,&quot;SF Pro Display&quot;,&quot;SF Pro Text&quot;,Helvetica,sans-serif;" transform="matrix(1 0 0 1 776 2025)">scales and weights.</text>
  <g id="" transform="matrix(1 0 0 1 1289 1933)">
   <path d="M2.8418 1.86523L4.54102 3.57422C5.40039 4.44336 6.38672 4.38477 7.31445 3.35938L17.4902-7.85156C17.7539-7.76367 18.0273-7.7832 18.3398-7.8418L19.4043-8.03711L20.0684-7.36328L20.0293-6.80664C19.9902-6.30859 20.1172-5.92773 20.6055-5.44922L21.3672-4.70703C21.8457-4.22852 22.4609-4.19922 22.9297-4.66797L25.8398-7.58789C26.3086-8.05664 26.2891-8.65234 25.8105-9.13086L25.0391-9.89258C24.5605-10.3711 24.1895-10.5273 23.7109-10.4883L23.1348-10.4395L22.4902-11.0742L22.7344-12.1973C22.8613-12.7637 22.7051-13.2031 22.1191-13.7891L19.9219-15.9766C16.582-19.2969 12.1484-19.2188 9.25781-16.3281C8.83789-15.918 8.80859-15.3418 9.04297-14.9512C9.27734-14.5898 9.73633-14.3555 10.3809-14.5215C11.8457-14.8633 13.3691-14.9219 14.7949-13.9844L14.209-12.5293C14.0137-12.0508 13.9844-11.6504 14.1113-11.2891L3.04688-0.898438C2.06055 0.0195312 1.98242 0.996094 2.8418 1.86523ZM10.752-15.957C13.1836-17.7344 16.4746-17.4316 18.7012-15.2051L21.1328-12.793C21.3672-12.5586 21.4062-12.373 21.3379-12.0312L21.0156-10.5469L22.5195-9.0625L23.5059-9.12109C23.7598-9.13086 23.8379-9.11133 24.0332-8.91602L24.6094-8.33984L22.168-5.89844L21.5918-6.47461C21.3965-6.66992 21.3672-6.74805 21.377-7.01172L21.4453-7.98828L19.9512-9.47266L18.4277-9.21875C18.1055-9.15039 17.959-9.17969 17.7148-9.41406L15.7129-11.416C15.459-11.6504 15.4297-11.8164 15.5859-12.1875L16.4648-14.2773C14.9023-15.7324 12.8711-16.3574 10.8398-15.7617C10.6836-15.7227 10.625-15.8496 10.752-15.957ZM5.27344 2.30469L4.10156 1.14258C3.63281 0.683594 3.74023 0.341797 4.14062-0.0195312L14.9512-10.1953L16.416-8.71094L6.42578 2.27539C6.07422 2.67578 5.74219 2.77344 5.27344 2.30469Z"/>
  </g>
  <text style="stroke:none;fill:black;font-family:-apple-system,&quot;SF Pro Display&quot;,&quot;SF Pro Text&quot;,Helvetica,sans-serif;font-weight:bold;" transform="matrix(1 0 0 1 1289 1953)">Exporting</text>
  <text style="stroke:none;fill:black;font-family:-apple-system,&quot;SF Pro Display&quot;,&quot;SF Pro Text&quot;,Helvetica,sans-serif;" transform="matrix(1 0 0 1 1289 1971)">Symbols should be outlined when exporting to ensure the</text>
  <text style="stroke:none;fill:black;font-family:-apple-system,&quot;SF Pro Display&quot;,&quot;SF Pro Text&quot;,Helvetica,sans-serif;" transform="matrix(1 0 0 1 1289 1989)">design is preserved when submitting to Xcode.</text>
  <text id="template-version" style="stroke:none;fill:black;font-family:-apple-system,&quot;SF Pro Display&quot;,&quot;SF Pro Text&quot;,Helvetica,sans-serif;text-anchor:end;" transform="matrix(1 0 0 1 3036 1933)">Template v.2.0</text>
  <text style="stroke:none;fill:black;font-family:-apple-system,&quot;SF Pro Display&quot;,&quot;SF Pro Text&quot;,Helvetica,sans-serif;text-anchor:end;" transform="matrix(1 0 0 1 3036 1951)">Requires Xcode 12 or greater</text>
  <text style="stroke:none;fill:black;font-family:-apple-system,&quot;SF Pro Display&quot;,&quot;SF Pro Text&quot;,Helvetica,sans-serif;text-anchor:end;" transform="matrix(1 0 0 1 3036 1969)">Generated from doc.on.doc</text>
  <text style="stroke:none;fill:black;font-family:-apple-system,&quot;SF Pro Display&quot;,&quot;SF Pro Text&quot;,Helvetica,sans-serif;text-anchor:end;" transform="matrix(1 0 0 1 3036 1987)">Typeset at 100 points</text>
  <text style="stroke:none;fill:black;font-family:-apple-system,&quot;SF Pro Display&quot;,&quot;SF Pro Text&quot;,Helvetica,sans-serif;" transform="matrix(1 0 0 1 263 726)">Small</text>
  <text style="stroke:none;fill:black;font-family:-apple-system,&quot;SF Pro Display&quot;,&quot;SF Pro Text&quot;,Helvetica,sans-serif;" transform="matrix(1 0 0 1 263 1156)">Medium</text>
  <text style="stroke:none;fill:black;font-family:-apple-system,&quot;SF Pro Display&quot;,&quot;SF Pro Text&quot;,Helvetica,sans-serif;" transform="matrix(1 0 0 1 263 1586)">Large</text>
 </g>
 <g id="Guides">
  <g id="H-reference" style="fill:#27AAE1;stroke:none;" transform="matrix(1 0 0 1 339 696)">
   <path d="M0.976562 0L3.66211 0L12.9883-24.4629L45.752-24.4629L55.127 0L57.7637 0L30.6152-70.459L28.125-70.459ZM29.3457-67.1387L29.4434-67.1387L44.873-26.709L13.8672-26.709Z"/>
  </g>
  <line id="Baseline-S" style="fill:none;stroke:#27AAE1;opacity:1;stroke-width:0.5;" x1="263" x2="3036" y1="696" y2="696"/>
  <line id="Capline-S" style="fill:none;stroke:#27AAE1;opacity:1;stroke-width:0.5;" x1="263" x2="3036" y1="625.541" y2="625.541"/>
  <g id="H-reference" style="fill:#27AAE1;stroke:none;" transform="matrix(1 0 0 1 339 1126)">
   <path d="M0.976562 0L3.66211 0L12.9883-24.4629L45.752-24.4629L55.127 0L57.7637 0L30.6152-70.459L28.125-70.459ZM29.3457-67.1387L29.4434-67.1387L44.873-26.709L13.8672-26.709Z"/>
  </g>
  <line id="Baseline-M" style="fill:none;stroke:#27AAE1;opacity:1;stroke-width:0.5;" x1="263" x2="3036" y1="1126" y2="1126"/>
  <line id="Capline-M" style="fill:none;stroke:#27AAE1;opacity:1;stroke-width:0.5;" x1="263" x2="3036" y1="1055.54" y2="1055.54"/>
  <g id="H-reference" style="fill:#27AAE1;stroke:none;" transform="matrix(1 0 0 1 339 1556)">
   <path d="M0.976562 0L3.66211 0L12.9883-24.4629L45.752-24.4629L55.127 0L57.7637 0L30.6152-70.459L28.125-70.459ZM29.3457-67.1387L29.4434-67.1387L44.873-26.709L13.8672-26.709Z"/>
  </g>
  <line id="Baseline-L" style="fill:none;stroke:#27AAE1;opacity:1;stroke-width:0.5;" x1="263" x2="3036" y1="1556" y2="1556"/>
  <line id="Capline-L" style="fill:none;stroke:#27AAE1;opacity:1;stroke-width:0.5;" x1="263" x2="3036" y1="1485.54" y2="1485.54"/>
  <line id="left-margin" style="fill:none;stroke:#00AEEF;stroke-width:0.5;opacity:1.0;" x1="1387.47" x2="1387.47" y1="1030.79" y2="1150.12"/>
  <line id="right-margin" style="fill:none;stroke:#00AEEF;stroke-width:0.5;opacity:1.0;" x1="1512.22" x2="1512.22" y1="1030.79" y2="1150.12"/>
 </g>
 <g id="Symbols">
  <g id="Black-L" transform="matrix(1 0 0 1 2847.93 1556)">
   <path d="M16.0645 24.1211C16.0645 39.4043 24.707 48.0469 39.8926 48.0469L97.8516 48.0469C113.037 48.0469 121.631 39.3555 121.631 24.1211L121.631 12.5977L131.104 12.5977C146.289 12.5977 154.883 3.90625 154.883-11.3281L154.883-56.6895C154.883-67.041 152.588-73.7793 146.68-79.8828L117.041-110.205C111.426-115.918 104.297-118.506 95.0684-118.506L73.1445-118.506C57.959-118.506 49.3164-109.814 49.3164-94.5801L49.3164-83.0566L39.8926-83.0566C24.707-83.0566 16.0645-74.4141 16.0645-59.1797ZM113.916-43.2617L82.0801-75.3418C78.0762-79.3457 74.3164-81.3965 69.5312-82.373L69.5312-91.8457C69.5312-96.0938 71.4355-98.2422 75.9766-98.2422L97.3145-98.2422L97.3145-75.7812C97.3145-66.2598 103.467-60.1074 112.988-60.1074L134.668-60.1074L134.668-14.0625C134.668-9.81445 132.764-7.66602 128.223-7.66602L121.631-7.66602L121.631-21.6309C121.631-31.543 120.166-37.0117 113.916-43.2617ZM111.963-77.5879L111.963-92.3828L129.443-74.7559L114.795-74.7559C112.891-74.7559 111.963-75.6836 111.963-77.5879ZM36.3281 21.3867L36.3281-56.4453C36.3281-60.6445 38.1836-62.8418 42.7246-62.8418L57.2754-62.8418L57.2754-35.5469C57.2754-22.7051 63.2324-16.6992 76.123-16.6992L101.416-16.6992L101.416 21.3867C101.416 25.6348 99.5117 27.7832 94.9707 27.7832L42.7246 27.7832C38.1836 27.7832 36.3281 25.6348 36.3281 21.3867ZM77.4414-32.6172C74.6094-32.6172 73.1934-34.0332 73.1934-36.8652L73.1934-60.1074L100.439-32.6172Z"/>
  </g>
  <g id="Heavy-L" transform="matrix(1 0 0 1 2552.48 1556)">
   <path d="M16.0645 24.1699C16.0645 38.8184 24.1211 46.9238 38.7207 46.9238L97.0703 46.9238C111.621 46.9238 119.727 38.8184 119.727 24.1699L119.727 12.5977L129.688 12.5977C144.238 12.5977 152.344 4.44336 152.344-10.1562L152.344-57.2266C152.344-66.748 150.244-72.9004 144.727-78.6133L114.16-109.766C108.887-115.137 102.393-117.432 93.9453-117.432L71.2891-117.432C56.7871-117.432 48.6816-109.326 48.6816-94.6777L48.6816-83.1055L38.7207-83.1055C24.1699-83.1055 16.0645-74.9512 16.0645-60.3516ZM112.549-42.7734L79.6875-75.9277C75.4395-80.1758 71.5332-82.0801 66.1621-82.7637L66.1621-92.5781C66.1621-97.3633 68.457-99.9512 73.584-99.9512L96.582-99.9512L96.582-74.8535C96.582-65.918 102.051-60.498 110.938-60.498L134.814-60.498L134.814-12.3047C134.814-7.4707 132.52-4.93164 127.393-4.93164L119.727-4.93164L119.727-22.6562C119.727-31.9336 118.359-36.8652 112.549-42.7734ZM109.619-76.5137L109.619-94.3848L130.273-73.5352L112.598-73.5352C110.547-73.5352 109.619-74.4629 109.619-76.5137ZM33.5938 22.0703L33.5938-58.2031C33.5938-63.0371 35.8887-65.5762 41.0156-65.5762L57.3242-65.5762L57.3242-35.8887C57.3242-24.3164 62.793-18.8965 74.3164-18.8965L102.197-18.8965L102.197 22.0703C102.197 26.9043 99.9023 29.4434 94.7754 29.4434L40.9668 29.4434C35.8887 29.4434 33.5938 26.9043 33.5938 22.0703ZM75.5371-33.0078C72.7539-33.0078 71.4355-34.3262 71.4355-37.1582L71.4355-62.9395L101.074-33.0078Z"/>
  </g>
  <g id="Bold-L" transform="matrix(1 0 0 1 2257.21 1556)">
   <path d="M16.0645 24.2676C16.0645 38.1836 23.5352 45.7031 37.4023 45.7031L96.2402 45.7031C110.107 45.7031 117.578 38.1836 117.578 24.2676L117.578 12.5488L128.125 12.5488C141.992 12.5488 149.463 5.0293 149.463-8.88672L149.463-57.8613C149.463-66.4062 147.607-71.9238 142.529-77.1484L110.938-109.277C106.104-114.258 100.244-116.26 92.7246-116.26L69.2871-116.26C55.4688-116.26 47.9492-108.691 47.9492-94.8242L47.9492-83.1055L37.4023-83.1055C23.584-83.1055 16.0645-75.5859 16.0645-61.6699ZM110.986-42.1875L77.002-76.5625C72.5098-81.1035 68.5059-82.666 62.4023-83.0078L62.4023-93.3594C62.4023-98.8281 65.1367-101.807 70.9473-101.807L95.752-101.807L95.752-73.7793C95.752-65.5273 100.488-60.8887 108.643-60.8887L135.01-60.8887L135.01-10.3516C135.01-4.83398 132.275-1.9043 126.465-1.9043L117.578-1.9043L117.578-23.8281C117.578-32.4219 116.357-36.7188 110.986-42.1875ZM106.982-75.293L106.982-96.582L131.201-72.1191L110.156-72.1191C107.959-72.1191 106.982-73.0957 106.982-75.293ZM30.5176 22.8027L30.5176-60.2051C30.5176-65.6738 33.252-68.6523 39.0625-68.6523L57.373-68.6523L57.373-36.3281C57.373-26.1719 62.2559-21.3379 72.3145-21.3379L103.125-21.3379L103.125 22.8027C103.125 28.3203 100.391 31.25 94.5801 31.25L39.0137 31.25C33.252 31.25 30.5176 28.3203 30.5176 22.8027ZM73.4375-33.3984C70.6543-33.3984 69.3848-34.668 69.3848-37.4512L69.3848-66.1133L101.758-33.3984Z"/>
  </g>
  <g id="Semibold-L" transform="matrix(1 0 0 1 1961.5 1556)">
   <path d="M16.0645 24.2676C16.0645 37.7441 23.0957 44.873 36.4746 44.873L95.6543 44.873C109.033 44.873 116.064 37.7441 116.064 24.2676L116.064 12.5488L127.051 12.5488C140.43 12.5488 147.461 5.41992 147.461-8.00781L147.461-58.3008C147.461-66.1621 145.801-71.2402 141.016-76.1719L108.74-108.984C104.15-113.623 98.7793-115.43 91.8457-115.43L67.8711-115.43C54.541-115.43 47.4609-108.301 47.4609-94.873L47.4609-83.1055L36.4746-83.1055C23.1445-83.1055 16.0645-75.9766 16.0645-62.5488ZM109.961-41.7969L75.1465-77.002C70.5078-81.6895 66.5039-82.959 59.8145-83.1055L59.8145-93.8965C59.8145-99.8047 62.8418-103.125 69.0918-103.125L95.166-103.125L95.166-73.0469C95.166-65.2832 99.4141-61.1328 107.08-61.1328L135.156-61.1328L135.156-8.98438C135.156-3.02734 132.08 0.195312 125.83 0.195312L116.064 0.195312L116.064-24.6094C116.064-32.7148 114.99-36.6211 109.961-41.7969ZM105.176-74.4141L105.176-98.0957L131.836-71.1426L108.447-71.1426C106.152-71.1426 105.176-72.1191 105.176-74.4141ZM28.418 23.291L28.418-61.5723C28.418-67.4805 31.4453-70.8008 37.6953-70.8008L57.373-70.8008L57.373-36.5723C57.373-27.3926 61.8652-23.0469 70.9473-23.0469L103.76-23.0469L103.76 23.291C103.76 29.2969 100.684 32.5195 94.4336 32.5195L37.6465 32.5195C31.4453 32.5195 28.418 29.2969 28.418 23.291ZM72.0215-33.6914C69.2383-33.6914 68.0176-34.8633 68.0176-37.6465L68.0176-68.3105L102.246-33.6914Z"/>
  </g>
  <g id="Medium-L" transform="matrix(1 0 0 1 1665.55 1556)">
   <path d="M16.0645 24.3164C16.0645 37.4512 22.8027 44.2383 35.791 44.2383L95.2148 44.2383C108.203 44.2383 114.941 37.4023 114.941 24.3164L114.941 12.5488L126.27 12.5488C139.209 12.5488 145.947 5.71289 145.947-7.37305L145.947-58.6426C145.947-65.9668 144.434-70.752 139.893-75.3906L107.031-108.74C102.686-113.135 97.6562-114.844 91.1621-114.844L66.7969-114.844C53.8574-114.844 47.0703-108.008 47.0703-94.9219L47.0703-83.1543L35.791-83.1543C22.8516-83.1543 16.0645-76.3184 16.0645-63.2324ZM109.131-41.4551L73.7305-77.2949C69.0918-82.0312 65.1855-83.1543 58.1543-83.1543L57.8125-83.1543L57.8125-94.2871C57.8125-100.537 61.1328-104.102 67.6758-104.102L94.7266-104.102L94.7266-72.5098C94.7266-65.0879 98.584-61.377 105.859-61.377L135.254-61.377L135.254-8.00781C135.254-1.66016 131.934 1.80664 125.342 1.80664L114.941 1.80664L114.941-25.1953C114.941-32.959 113.965-36.5723 109.131-41.4551ZM103.809-73.7793L103.809-99.2676L132.275-70.4102L107.129-70.4102C104.785-70.4102 103.809-71.4355 103.809-73.7793ZM26.8066 23.6816L26.8066-62.5977C26.8066-68.8477 30.127-72.4121 36.6699-72.4121L57.4219-72.4121L57.4219-36.8164C57.4219-28.3691 61.6211-24.3164 69.873-24.3164L104.199-24.3164L104.199 23.6816C104.199 30.0293 100.928 33.4961 94.3359 33.4961L36.6211 33.4961C30.127 33.4961 26.8066 30.0293 26.8066 23.6816ZM70.8984-33.8867C68.1152-33.8867 66.9922-35.0586 66.9922-37.8418L66.9922-69.9707L102.637-33.8867Z"/>
  </g>
  <g id="Regular-L" transform="matrix(1 0 0 1 1369.82 1556)">
   <path d="M16.0645 24.3652C16.0645 37.0117 22.3633 43.3594 34.8633 43.3594L94.6777 43.3594C107.178 43.3594 113.477 36.9629 113.477 24.3652L113.477 12.5L125.195 12.5C137.695 12.5 143.994 6.10352 143.994-6.49414L143.994-59.082C143.994-65.7715 142.627-70.0684 138.379-74.4141L104.834-108.398C100.732-112.549 96.1914-114.014 90.332-114.014L65.4297-114.014C52.9785-114.014 46.582-107.617 46.582-95.0195L46.582-83.1543L34.8633-83.1543C22.4609-83.1543 16.0645-76.709 16.0645-64.1602ZM108.057-41.0645L71.875-77.7344C67.5781-82.1289 64.0625-83.1543 57.5684-83.1543L55.2246-83.1543L55.2246-94.8242C55.2246-101.514 58.8379-105.371 65.8691-105.371L94.1406-105.371L94.1406-71.7773C94.1406-64.7949 97.5098-61.6211 104.297-61.6211L135.352-61.6211L135.352-6.64062C135.352 0.146484 131.738 3.85742 124.756 3.85742L113.477 3.85742L113.477-26.0254C113.477-33.3008 112.598-36.4746 108.057-41.0645ZM102.002-72.9492L102.002-100.781L132.91-69.4824L105.469-69.4824C103.027-69.4824 102.002-70.459 102.002-72.9492ZM24.707 24.2188L24.707-63.9648C24.707-70.6543 28.3203-74.5117 35.3516-74.5117L57.4707-74.5117L57.4707-37.0605C57.4707-29.5898 61.2305-26.0254 68.5059-26.0254L104.834-26.0254L104.834 24.2188C104.834 31.0059 101.221 34.7168 94.1895 34.7168L35.3027 34.7168C28.3203 34.7168 24.707 31.0059 24.707 24.2188ZM69.4824-34.1797C66.6992-34.1797 65.625-35.2539 65.625-38.0371L65.625-72.168L103.125-34.1797Z"/>
  </g>
  <g id="Light-L" transform="matrix(1 0 0 1 1073.69 1556)">
   <path d="M16.0645 24.6582C16.0645 36.5723 22.1191 42.6758 33.9355 42.6758L94.4336 42.6758C106.25 42.6758 112.305 36.5234 112.305 24.6582L112.305 12.5488L124.951 12.5488C136.768 12.5488 142.822 6.44531 142.822-5.41992L142.822-60.0098C142.822-65.1855 141.699-68.6523 138.037-72.3633L102.197-108.496C98.6328-112.061 95.0195-113.281 90.332-113.281L64.4043-113.281C52.7344-113.281 46.582-107.129 46.582-95.2637L46.582-83.1543L33.9355-83.1543C22.2168-83.1543 16.0645-77.0508 16.0645-65.1855ZM107.666-40.0879L69.5312-78.5156C65.8691-82.2266 62.8906-83.1543 57.2266-83.1543L53.1738-83.1543L53.1738-95.1172C53.1738-102.441 57.1289-106.641 64.7949-106.641L93.75-106.641L93.75-71.2891C93.75-64.7461 96.8262-62.0117 103.027-62.0117L136.182-62.0117L136.182-5.56641C136.182 1.95312 132.227 5.95703 124.609 5.95703L112.305 5.95703L112.305-27.3438C112.305-33.4961 111.426-36.2305 107.666-40.0879ZM99.8535-71.9727L99.8535-102.539L134.033-68.1152L103.711-68.1152C100.977-68.1152 99.8535-69.2383 99.8535-71.9727ZM22.7051 24.5117L22.7051-65.0391C22.7051-72.3633 26.6113-76.5625 34.2773-76.5625L58.3984-76.5625L58.3984-37.9883C58.3984-31.1035 61.8652-27.9785 68.4082-27.9785L105.664-27.9785L105.664 24.5117C105.664 32.0312 101.709 36.0352 94.0918 36.0352L34.2285 36.0352C26.6113 36.0352 22.7051 32.0312 22.7051 24.5117ZM69.043-34.2773C65.918-34.2773 64.6973-35.498 64.6973-38.623L64.6973-74.1699L104.248-34.2773Z"/>
  </g>
  <g id="Thin-L" transform="matrix(1 0 0 1 777.785 1556)">
   <path d="M16.0645 25.0977C16.0645 35.9863 21.7773 41.6992 32.666 41.6992L94.1406 41.6992C105.029 41.6992 110.742 35.9863 110.742 25.0977L110.742 12.6465L124.658 12.6465C135.498 12.6465 141.211 6.88477 141.211-3.95508L141.211-61.2305C141.211-64.4043 140.43-66.7969 137.598-69.6289L98.6328-108.643C95.8496-111.426 93.457-112.256 90.3809-112.256L63.1348-112.256C52.4414-112.256 46.5332-106.543 46.5332-95.6543L46.5332-83.2031L32.666-83.2031C21.9238-83.2031 16.0645-77.4414 16.0645-66.6016ZM107.08-38.7695L66.3574-79.541C63.5742-82.373 61.3281-83.2031 56.7871-83.2031L50.4883-83.2031L50.4883-95.5078C50.4883-103.613 54.8828-108.35 63.3301-108.35L93.1641-108.35L93.1641-70.6543C93.1641-64.6973 95.8496-62.5 101.367-62.5L137.305-62.5L137.305-4.15039C137.305 4.29688 132.91 8.69141 124.414 8.69141L110.742 8.69141L110.742-29.1016C110.742-33.7402 109.912-35.9375 107.08-38.7695ZM97.0215-70.752L97.0215-104.883L135.498-66.3086L101.416-66.3086C98.2422-66.3086 97.0215-67.5781 97.0215-70.752ZM19.9707 24.9512L19.9707-66.4062C19.9707-74.5605 24.3652-79.248 32.8613-79.248L59.6191-79.248L59.6191-39.1602C59.6191-33.1543 62.6465-30.5664 68.2129-30.5664L106.787-30.5664L106.787 24.9512C106.787 33.3984 102.393 37.793 93.9453 37.793L32.8613 37.793C24.3652 37.793 19.9707 33.3984 19.9707 24.9512ZM68.5059-34.4238C64.8926-34.4238 63.5254-35.8398 63.5254-39.4043L63.5254-76.8066L105.811-34.4238Z"/>
  </g>
  <g id="Ultralight-L" transform="matrix(1 0 0 1 481.488 1556)">
   <path d="M16.0645 25.293C16.0645 35.6934 21.6309 41.2109 31.9824 41.2109L93.9941 41.2109C104.395 41.2109 109.912 35.6934 109.912 25.293L109.912 12.6953L124.463 12.6953C134.863 12.6953 140.381 7.12891 140.381-3.22266L140.381-61.8652C140.381-64.0137 139.746-65.8691 137.402-68.2129L96.8262-108.74C94.4336-111.133 92.627-111.719 90.3809-111.719L62.4512-111.719C52.2461-111.719 46.5332-106.201 46.5332-95.8496L46.5332-83.2031L31.9824-83.2031C21.7773-83.2031 16.0645-77.6855 16.0645-67.2852ZM106.787-38.0859L64.7461-80.0781C62.4023-82.4219 60.5469-83.2031 56.5918-83.2031L49.0723-83.2031L49.0723-95.6543C49.0723-104.248 53.7109-109.18 62.5977-109.18L92.8711-109.18L92.8711-70.3125C92.8711-64.6973 95.3613-62.7441 100.488-62.7441L137.842-62.7441L137.842-3.36914C137.842 5.51758 133.252 10.1074 124.365 10.1074L109.912 10.1074L109.912-29.9805C109.912-33.8867 109.131-35.7422 106.787-38.0859ZM95.5566-70.1172L95.5566-106.055L136.23-65.3809L100.244-65.3809C96.875-65.3809 95.5566-66.6992 95.5566-70.1172ZM18.6035 25.1465L18.6035-67.1387C18.6035-75.7324 23.2422-80.6641 32.1289-80.6641L60.3027-80.6641L60.3027-39.7461C60.3027-34.1797 63.0859-31.8848 68.1152-31.8848L107.373-31.8848L107.373 25.1465C107.373 34.082 102.783 38.6719 93.8965 38.6719L32.1289 38.6719C23.2422 38.6719 18.6035 34.082 18.6035 25.1465ZM68.2129-34.5215C64.4043-34.5215 62.8906-35.9863 62.8906-39.7949L62.8906-78.125L106.592-34.5215Z"/>
  </g>
  <g id="Black-M" transform="matrix(1 0 0 1 2865.75 1126)">
   <path d="M12.4512 10.8887C12.4512 23.0957 19.7266 30.3711 31.9824 30.3711L76.709 30.3711C88.9648 30.3711 96.2402 23.0957 96.2402 10.8887L96.2402 1.9043L103.32 1.9043C115.576 1.9043 122.852-5.37109 122.852-17.627L122.852-51.5625C122.852-60.0098 120.947-65.5273 116.113-70.459L93.1641-93.9453C88.623-98.584 82.8125-100.781 75.1953-100.781L58.5938-100.781C46.3379-100.781 39.0625-93.5059 39.0625-81.25L39.0625-72.2656L31.9824-72.2656C19.7266-72.2656 12.4512-64.9902 12.4512-52.7344ZM89.9414-41.6504L65.5762-65.9668C62.9395-68.6035 60.3516-70.2148 57.373-71.1426L57.373-78.3203C57.373-81.1523 58.4473-82.5195 61.5234-82.5195L76.2207-82.5195L76.2207-67.6758C76.2207-59.7168 81.6895-54.248 89.6484-54.248L104.59-54.248L104.59-20.5566C104.59-17.7246 103.516-16.4062 100.391-16.4062L96.2402-16.4062L96.2402-23.9746C96.2402-31.9336 94.9219-36.6211 89.9414-41.6504ZM88.7695-69.043L88.7695-77.832L99.8047-66.7969L91.0156-66.7969C89.5508-66.7969 88.7695-67.5781 88.7695-69.043ZM30.7617 7.91016L30.7617-49.8047C30.7617-52.6367 31.8359-54.0039 34.9121-54.0039L44.8242-54.0039L44.8242-35.4492C44.8242-24.1211 50-18.9453 61.3281-18.9453L77.9785-18.9453L77.9785 7.91016C77.9785 10.7422 76.8555 12.1094 73.7793 12.1094L34.9121 12.1094C31.8359 12.1094 30.7617 10.7422 30.7617 7.91016ZM62.3047-32.8125C59.9121-32.8125 58.6914-34.0332 58.6914-36.4258L58.6914-51.7578L77.6367-32.8125Z"/>
  </g>
  <g id="Heavy-M" transform="matrix(1 0 0 1 2570.28 1126)">
   <path d="M12.4512 10.8398C12.4512 22.6074 19.1895 29.3945 30.957 29.3945L75.9766 29.3945C87.6953 29.3945 94.4336 22.6074 94.4336 10.8398L94.4336 1.85547L101.904 1.85547C113.623 1.85547 120.361-4.93164 120.361-16.6992L120.361-51.9531C120.361-59.8145 118.604-64.9414 114.062-69.5801L90.7227-93.457C86.4258-97.8516 81.0059-99.8047 73.9746-99.8047L56.8848-99.8047C45.1172-99.8047 38.3789-93.0664 38.3789-81.2988L38.3789-72.3145L30.957-72.3145C19.1895-72.3145 12.4512-65.5273 12.4512-53.7598ZM88.5254-41.3086L63.5742-66.3574C60.5957-69.3848 57.7637-70.9473 54.1992-71.7285L54.1992-79.0039C54.1992-82.3242 55.6641-83.9844 59.1797-83.9844L75.4883-83.9844L75.4883-66.7969C75.4883-59.375 80.3711-54.541 87.7441-54.541L104.541-54.541L104.541-18.9453C104.541-15.625 103.076-13.9648 99.5605-13.9648L94.4336-13.9648L94.4336-24.7559C94.4336-32.3242 93.2617-36.5723 88.5254-41.3086ZM86.7676-68.1152L86.7676-79.4922L100.391-65.8203L89.0625-65.8203C87.5-65.8203 86.7676-66.5527 86.7676-68.1152ZM28.2715 8.59375L28.2715-51.5137C28.2715-54.7852 29.7363-56.4941 33.3008-56.4941L44.6289-56.4941L44.6289-35.5957C44.6289-25.4883 49.3164-20.8496 59.375-20.8496L78.6133-20.8496L78.6133 8.59375C78.6133 11.8652 77.1973 13.5742 73.6328 13.5742L33.252 13.5742C29.7363 13.5742 28.2715 11.8652 28.2715 8.59375ZM60.3516-33.1543C58.1055-33.1543 56.9336-34.3262 56.9336-36.5723L56.9336-54.3457L78.0273-33.1543Z"/>
  </g>
  <g id="Bold-M" transform="matrix(1 0 0 1 2274.96 1126)">
   <path d="M12.4512 10.8398C12.4512 22.0703 18.6035 28.2715 29.7852 28.2715L75.0977 28.2715C86.2793 28.2715 92.4316 22.0215 92.4316 10.8398L92.4316 1.80664L100.244 1.80664C111.426 1.80664 117.578-4.39453 117.578-15.625L117.578-52.3926C117.578-59.6191 116.016-64.2578 111.768-68.6035L87.9883-92.9199C83.9355-97.0215 79.0039-98.7305 72.6074-98.7305L54.9316-98.7305C43.75-98.7305 37.5977-92.5293 37.5977-81.3477L37.5977-72.3145L29.7852-72.3145C18.6035-72.3145 12.4512-66.1133 12.4512-54.8828ZM86.9629-40.9668L61.3281-66.8457C58.0078-70.2148 54.9316-71.6309 50.6836-72.1191L50.6836-79.7852C50.6836-83.6426 52.5391-85.6934 56.5918-85.6934L74.707-85.6934L74.707-65.7715C74.707-58.9355 78.8574-54.8828 85.5957-54.8828L104.492-54.8828L104.492-17.1387C104.492-13.2812 102.637-11.2793 98.584-11.2793L92.4316-11.2793L92.4316-25.6348C92.4316-32.7637 91.4062-36.4746 86.9629-40.9668ZM84.5215-67.041L84.5215-81.4453L101.074-64.6973L86.8652-64.6973C85.2539-64.6973 84.5215-65.4297 84.5215-67.041ZM25.5371 9.27734L25.5371-53.3691C25.5371-57.1777 27.3926-59.2285 31.4453-59.2285L44.4336-59.2285L44.4336-35.791C44.4336-27.0508 48.5352-22.9492 57.2266-22.9492L79.3457-22.9492L79.3457 9.27734C79.3457 13.1348 77.4902 15.1855 73.4375 15.1855L31.4453 15.1855C27.3926 15.1855 25.5371 13.1348 25.5371 9.27734ZM58.2031-33.5938C56.0547-33.5938 55.0293-34.5703 55.0293-36.7676L55.0293-57.2266L78.418-33.5938Z"/>
  </g>
  <g id="Semibold-M" transform="matrix(1 0 0 1 1979.2 1126)">
   <path d="M12.4512 10.791C12.4512 21.6797 18.2129 27.4414 29.0039 27.4414L74.5117 27.4414C85.3027 27.4414 91.0645 21.6309 91.0645 10.791L91.0645 1.80664L99.1211 1.80664C109.912 1.80664 115.674-4.05273 115.674-14.8926L115.674-52.6855C115.674-59.4727 114.209-63.8184 110.205-67.9688L86.084-92.5293C82.2266-96.4355 77.6367-97.998 71.6309-97.998L53.5645-97.998C42.8223-97.998 37.0605-92.1875 37.0605-81.3477L37.0605-72.3145L29.0039-72.3145C18.2129-72.3145 12.4512-66.5039 12.4512-55.6641ZM85.8887-40.7227L59.7656-67.1875C56.25-70.8008 53.0762-72.0215 48.2422-72.2656L48.2422-80.3223C48.2422-84.5215 50.3418-86.8164 54.7852-86.8164L74.1699-86.8164L74.1699-65.0391C74.1699-58.6426 77.7832-55.0781 84.1309-55.0781L104.492-55.0781L104.492-15.8691C104.492-11.6699 102.344-9.375 97.9004-9.375L91.0645-9.375L91.0645-26.2695C91.0645-33.0566 90.1367-36.4258 85.8887-40.7227ZM83.0078-66.2598L83.0078-82.7148L101.562-63.916L85.3516-63.916C83.6914-63.916 83.0078-64.6484 83.0078-66.2598ZM23.6328 9.76562L23.6328-54.6387C23.6328-58.8379 25.7324-61.1328 30.1758-61.1328L44.2383-61.1328L44.2383-35.9375C44.2383-28.125 48.0469-24.4141 55.7617-24.4141L79.8828-24.4141L79.8828 9.76562C79.8828 14.0137 77.7344 16.3086 73.291 16.3086L30.1758 16.3086C25.7324 16.3086 23.6328 14.0137 23.6328 9.76562ZM56.6895-33.8379C54.6387-33.8379 53.7109-34.7656 53.7109-36.8652L53.7109-59.2285L78.7109-33.8379Z"/>
  </g>
  <g id="Medium-M" transform="matrix(1 0 0 1 1683.23 1126)">
   <path d="M12.4512 10.791C12.4512 21.3867 17.9199 26.8555 28.3691 26.8555L74.0723 26.8555C84.5215 26.8555 89.9902 21.3379 89.9902 10.791L89.9902 1.75781L98.291 1.75781C108.74 1.75781 114.209-3.75977 114.209-14.3066L114.209-52.9297C114.209-59.375 112.842-63.4766 108.984-67.4316L84.668-92.2363C80.957-95.9961 76.5625-97.4609 70.9473-97.4609L52.5879-97.4609C42.1387-97.4609 36.6699-91.9434 36.6699-81.3477L36.6699-72.3633L28.3691-72.3633C17.9199-72.3633 12.4512-66.7969 12.4512-56.25ZM85.0586-40.5762L58.5938-67.4316C54.8828-71.1914 51.709-72.2168 46.3867-72.3145L46.3867-80.7617C46.3867-85.2051 48.7305-87.6953 53.418-87.6953L73.7793-87.6953L73.7793-64.502C73.7793-58.4473 77.002-55.2734 83.0078-55.2734L104.443-55.2734L104.443-14.9414C104.443-10.4492 102.1-7.95898 97.4121-7.95898L89.9902-7.95898L89.9902-26.709C89.9902-33.3008 89.1602-36.377 85.0586-40.5762ZM81.8359-65.7227L81.8359-83.7402L101.904-63.3301L84.2285-63.3301C82.5195-63.3301 81.8359-64.0137 81.8359-65.7227ZM22.168 10.1562L22.168-55.6152C22.168-60.1074 24.5117-62.5977 29.248-62.5977L44.1406-62.5977L44.1406-36.0352C44.1406-28.9551 47.6074-25.5371 54.6387-25.5371L80.2734-25.5371L80.2734 10.1562C80.2734 14.6484 77.9297 17.1387 73.1934 17.1387L29.1992 17.1387C24.5117 17.1387 22.168 14.6484 22.168 10.1562ZM55.5664-34.082C53.5645-34.082 52.6855-34.9121 52.6855-36.9629L52.6855-60.7422L78.9551-34.082Z"/>
  </g>
  <g id="Regular-M" transform="matrix(1 0 0 1 1387.47 1126)">
   <path d="M12.4512 10.791C12.4512 20.9961 17.4805 26.123 27.5879 26.123L73.4863 26.123C83.5938 26.123 88.623 20.9473 88.623 10.791L88.623 1.75781L97.168 1.75781C107.227 1.75781 112.305-3.41797 112.305-13.5742L112.305-53.2227C112.305-59.2285 111.084-63.0371 107.422-66.7969L82.7637-91.8457C79.2969-95.4102 75.1953-96.7285 69.9707-96.7285L51.2695-96.7285C41.2109-96.7285 36.1328-91.5527 36.1328-81.3965L36.1328-72.3633L27.5879-72.3633C17.5293-72.3633 12.4512-67.2363 12.4512-57.0312ZM83.9844-40.332L57.0801-67.7246C53.3691-71.5332 50.293-72.3633 44.8242-72.3633L43.9941-72.3633L43.9941-81.25C43.9941-86.084 46.582-88.8672 51.6602-88.8672L73.2422-88.8672L73.2422-63.8184C73.2422-58.1543 75.9766-55.4688 81.5918-55.4688L104.443-55.4688L104.443-13.7207C104.443-8.83789 101.807-6.10352 96.7285-6.10352L88.623-6.10352L88.623-27.3438C88.623-33.5938 87.8906-36.3281 83.9844-40.332ZM80.3223-64.9902L80.3223-85.0098L102.393-62.5488L82.7148-62.5488C81.0059-62.5488 80.3223-63.2812 80.3223-64.9902ZM20.3125 10.6445L20.3125-56.9336C20.3125-61.7188 22.9004-64.502 27.9785-64.502L43.9941-64.502L43.9941-36.1816C43.9941-30.0293 47.1191-26.9531 53.1738-26.9531L80.7617-26.9531L80.7617 10.6445C80.7617 15.5273 78.125 18.2617 73.0957 18.2617L27.9297 18.2617C22.9004 18.2617 20.3125 15.5273 20.3125 10.6445ZM54.1016-34.3262C52.1484-34.3262 51.3672-35.1074 51.3672-37.0605L51.3672-62.6953L79.248-34.3262Z"/>
  </g>
  <g id="Light-M" transform="matrix(1 0 0 1 1091.29 1126)">
   <path d="M12.4512 11.0352C12.4512 20.6055 17.2852 25.4395 26.709 25.4395L73.291 25.4395C82.7637 25.4395 87.5488 20.5566 87.5488 11.0352L87.5488 1.80664L96.9238 1.80664C106.396 1.80664 111.23-3.07617 111.23-12.5977L111.23-54.0527C111.23-58.6914 110.254-61.7676 107.129-64.9414L80.3711-91.9922C77.3926-94.9707 74.1699-96.0449 70.0195-96.0449L50.3906-96.0449C40.9668-96.0449 36.084-91.1621 36.084-81.6406L36.084-72.3633L26.709-72.3633C17.334-72.3633 12.4512-67.4805 12.4512-57.959ZM83.6426-39.4531L54.9316-68.457C51.8066-71.6309 49.2676-72.3633 44.4824-72.3633L42.1387-72.3633L42.1387-81.543C42.1387-86.9141 45.0684-89.9902 50.6836-89.9902L72.8516-89.9902L72.8516-63.3789C72.8516-58.1543 75.3418-55.8105 80.4199-55.8105L105.176-55.8105L105.176-12.7441C105.176-7.22656 102.246-4.24805 96.6309-4.24805L87.5488-4.24805L87.5488-28.5156C87.5488-33.7891 86.8652-36.1328 83.6426-39.4531ZM78.3691-64.1602L78.3691-86.6211L103.369-61.3281L81.1523-61.3281C79.1504-61.3281 78.3691-62.1094 78.3691-64.1602ZM18.5059 10.9375L18.5059-57.8613C18.5059-63.2324 21.3867-66.3574 27.0508-66.3574L44.8242-66.3574L44.8242-36.9629C44.8242-31.3477 47.6562-28.7109 53.0762-28.7109L81.543-28.7109L81.543 10.9375C81.543 16.4551 78.6133 19.4336 72.998 19.4336L27.002 19.4336C21.3867 19.4336 18.5059 16.4551 18.5059 10.9375ZM53.7109-34.4238C51.4648-34.4238 50.5371-35.3516 50.5371-37.5977L50.5371-64.502L80.2734-34.4238Z"/>
  </g>
  <g id="Thin-M" transform="matrix(1 0 0 1 795.314 1126)">
   <path d="M12.4512 11.4258C12.4512 20.0684 16.9434 24.6094 25.5859 24.6094L73.0469 24.6094C81.6406 24.6094 86.1328 20.0684 86.1328 11.4258L86.1328 1.85547L96.6797 1.85547C105.273 1.85547 109.766-2.68555 109.766-11.3281L109.766-55.127C109.766-58.0078 109.082-60.1074 106.738-62.4512L77.1973-92.0898C74.9023-94.4336 72.7539-95.1172 70.0195-95.1172L49.2188-95.1172C40.6738-95.1172 36.084-90.625 36.084-81.9824L36.084-72.4121L25.5859-72.4121C17.041-72.4121 12.4512-67.8711 12.4512-59.2285ZM83.1055-38.2324L52.0996-69.3359C49.7559-71.7285 47.9004-72.4121 44.0918-72.4121L39.6973-72.4121L39.6973-81.8359C39.6973-87.9883 43.0176-91.5039 49.4141-91.5039L72.3145-91.5039L72.3145-62.8418C72.3145-58.1055 74.5117-56.25 78.9062-56.25L106.152-56.25L106.152-11.4258C106.152-5.07812 102.832-1.75781 96.4844-1.75781L86.1328-1.75781L86.1328-30.0781C86.1328-34.0332 85.498-35.8398 83.1055-38.2324ZM75.7812-63.0371L75.7812-88.6719L104.688-59.7168L79.1016-59.7168C76.709-59.7168 75.7812-60.6445 75.7812-63.0371ZM16.0645 11.3281L16.0645-59.082C16.0645-65.2344 19.3848-68.75 25.7812-68.75L45.9473-68.75L45.9473-37.9883C45.9473-33.1543 48.3887-31.0547 52.9297-31.0547L82.5195-31.0547L82.5195 11.3281C82.5195 17.627 79.1992 20.9473 72.8516 20.9473L25.7324 20.9473C19.3848 20.9473 16.0645 17.627 16.0645 11.3281ZM53.2227-34.5703C50.5371-34.5703 49.4629-35.6445 49.4629-38.2812L49.4629-66.8457L81.6895-34.5703Z"/>
  </g>
  <g id="Ultralight-M" transform="matrix(1 0 0 1 498.969 1126)">
   <path d="M12.4512 11.6211C12.4512 19.8242 16.7969 24.1699 25 24.1699L72.9004 24.1699C81.1035 24.1699 85.4492 19.8242 85.4492 11.6211L85.4492 1.9043L96.5332 1.9043C104.688 1.9043 109.033-2.44141 109.033-10.6445L109.033-55.6641C109.033-57.666 108.496-59.2285 106.543-61.2305L75.5859-92.1875C73.6328-94.1406 72.0215-94.6777 70.0195-94.6777L48.6328-94.6777C40.5273-94.6777 36.084-90.332 36.084-82.1289L36.084-72.4121L25-72.4121C16.9434-72.4121 12.4512-68.0664 12.4512-59.8633ZM82.8613-37.6465L50.6836-69.8242C48.6816-71.7773 47.168-72.4121 43.8965-72.4121L38.4766-72.4121L38.4766-82.0312C38.4766-88.5254 41.9922-92.2852 48.7305-92.2852L72.0703-92.2852L72.0703-62.5488C72.0703-58.0566 74.0723-56.4453 78.125-56.4453L106.641-56.4453L106.641-10.791C106.641-4.00391 103.174-0.488281 96.3867-0.488281L85.4492-0.488281L85.4492-30.9082C85.4492-34.1309 84.8145-35.6934 82.8613-37.6465ZM74.4629-62.4512L74.4629-89.7461L105.371-58.8867L78.0762-58.8867C75.4883-58.8867 74.4629-59.8633 74.4629-62.4512ZM14.8438 11.4746L14.8438-59.7656C14.8438-66.2598 18.3594-70.0195 25.0977-70.0195L46.5332-70.0195L46.5332-38.5254C46.5332-34.082 48.7305-32.2266 52.832-32.2266L83.0566-32.2266L83.0566 11.4746C83.0566 18.2617 79.541 21.7773 72.7539 21.7773L25.0977 21.7773C18.3594 21.7773 14.8438 18.2617 14.8438 11.4746ZM52.9297-34.6191C50.0488-34.6191 48.9258-35.791 48.9258-38.6719L48.9258-68.0664L82.373-34.6191Z"/>
  </g>
  <g id="Black-S" transform="matrix(1 0 0 1 2880.47 696)">
   <path d="M9.76562 0.878906C9.76562 10.4492 15.4297 16.1133 25 16.1133L60.0586 16.1133C69.6289 16.1133 75.293 10.4492 75.293 0.878906L75.293-6.15234L80.8594-6.15234C90.4297-6.15234 96.0938-11.8164 96.0938-21.3867L96.0938-48.0469C96.0938-54.6387 94.5801-58.9355 90.8203-62.793L72.8516-81.2012C69.2871-84.8145 64.7461-86.5234 58.8379-86.5234L45.8008-86.5234C36.2305-86.5234 30.5664-80.8594 30.5664-71.2891L30.5664-64.2578L25-64.2578C15.4297-64.2578 9.76562-58.5938 9.76562-49.0234ZM70.3613-40.2344L51.2695-59.3262C49.1699-61.4258 47.1191-62.6953 44.7266-63.4277L44.7266-69.043C44.7266-71.2891 45.6055-72.3633 48.0469-72.3633L59.668-72.3633L59.668-60.5957C59.668-54.3945 63.916-50.1465 70.1172-50.1465L81.9336-50.1465L81.9336-23.6328C81.9336-21.3867 81.0547-20.3125 78.6133-20.3125L75.293-20.3125L75.293-26.4648C75.293-32.666 74.2676-36.3281 70.3613-40.2344ZM69.4336-61.6699L69.4336-68.7012L78.2227-59.9121L71.1914-59.9121C70.0195-59.9121 69.4336-60.498 69.4336-61.6699ZM23.9258-1.36719L23.9258-46.7773C23.9258-49.0234 24.8047-50.0977 27.2461-50.0977L35.1074-50.0977L35.1074-35.4004C35.1074-26.6113 39.1113-22.6074 47.9004-22.6074L61.1328-22.6074L61.1328-1.36719C61.1328 0.878906 60.2539 1.95312 57.8125 1.95312L27.2461 1.95312C24.8047 1.95312 23.9258 0.878906 23.9258-1.36719ZM48.6816-33.3496C46.8262-33.3496 45.8496-34.3262 45.8496-36.1816L45.8496-48.3398L60.8398-33.3496Z"/>
  </g>
  <g id="Heavy-S" transform="matrix(1 0 0 1 2584.66 696)">
   <path d="M9.76562 0.830078C9.76562 10.1074 15.0391 15.4297 24.3164 15.4297L59.5215 15.4297C68.75 15.4297 74.0234 10.1074 74.0234 0.830078L74.0234-6.20117L79.7852-6.20117C89.0137-6.20117 94.2871-11.4746 94.2871-20.752L94.2871-48.2422C94.2871-54.541 92.9199-58.6426 89.3066-62.3535L71.2402-80.8105C67.8223-84.2773 63.4766-85.8887 57.9102-85.8887L44.5801-85.8887C35.3027-85.8887 30.0293-80.5664 30.0293-71.2891L30.0293-64.2578L24.3164-64.2578C15.0391-64.2578 9.76562-58.9844 9.76562-49.707ZM69.3359-40.0879L49.9512-59.5703C47.6074-61.9629 45.3613-63.2324 42.5293-63.8184L42.5293-69.5312C42.5293-72.0703 43.6523-73.3887 46.3867-73.3887L59.1797-73.3887L59.1797-59.9609C59.1797-54.1016 62.9395-50.3418 68.7988-50.3418L81.8359-50.3418L81.8359-22.5098C81.8359-19.9707 80.7129-18.6523 77.9785-18.6523L74.0234-18.6523L74.0234-26.9531C74.0234-32.959 73.0957-36.2793 69.3359-40.0879ZM68.1152-61.0352L68.1152-69.8242L78.5645-59.2773L69.873-59.2773C68.7012-59.2773 68.1152-59.8633 68.1152-61.0352ZM22.2656-0.927734L22.2656-47.9492C22.2656-50.4883 23.3887-51.8066 26.123-51.8066L34.8633-51.8066L34.8633-35.4492C34.8633-27.5391 38.5254-23.877 46.4355-23.877L61.5723-23.877L61.5723-0.927734C61.5723 1.66016 60.4492 2.92969 57.7148 2.92969L26.0742 2.92969C23.3887 2.92969 22.2656 1.66016 22.2656-0.927734ZM47.2168-33.6426C45.5078-33.6426 44.6289-34.4727 44.6289-36.2305L44.6289-50.1465L61.0352-33.6426Z"/>
  </g>
  <g id="Bold-S" transform="matrix(1 0 0 1 2288.95 696)">
   <path d="M9.76562 0.78125C9.76562 9.7168 14.6484 14.5996 23.5352 14.5996L58.8867 14.5996C67.7734 14.5996 72.6074 9.7168 72.6074 0.78125L72.6074-6.20117L78.5645-6.20117C87.4512-6.20117 92.2852-11.1328 92.2852-20.0684L92.2852-48.4863C92.2852-54.4434 91.0156-58.3008 87.5977-61.8164L69.4336-80.3711C66.1621-83.6914 62.1094-85.1074 56.8359-85.1074L43.2129-85.1074C34.3262-85.1074 29.4434-80.2246 29.4434-71.2891L29.4434-64.3066L23.5352-64.3066C14.6484-64.3066 9.76562-59.375 9.76562-50.4395ZM68.1641-39.9414L48.5352-59.8633C45.8496-62.5488 43.4082-63.6719 40.0391-64.1113L40.0391-70.1172C40.0391-72.998 41.4551-74.5117 44.4824-74.5117L58.5938-74.5117L58.5938-59.2285C58.5938-53.8086 61.8652-50.5371 67.2852-50.5371L81.6895-50.5371L81.6895-21.2402C81.6895-18.3594 80.3223-16.8457 77.2461-16.8457L72.6074-16.8457L72.6074-27.4414C72.6074-33.252 71.8262-36.2793 68.1641-39.9414ZM66.6504-60.3027L66.6504-71.0938L79.0039-58.5938L68.4082-58.5938C67.1875-58.5938 66.6504-59.1309 66.6504-60.3027ZM20.3613-0.390625L20.3613-49.2676C20.3613-52.1484 21.7773-53.6621 24.8047-53.6621L34.5703-53.6621L34.5703-35.498C34.5703-28.5645 37.8906-25.2441 44.8242-25.2441L62.0117-25.2441L62.0117-0.390625C62.0117 2.49023 60.6445 4.00391 57.5684 4.00391L24.8047 4.00391C21.7773 4.00391 20.3613 2.49023 20.3613-0.390625ZM45.6055-33.9355C43.9941-33.9355 43.2617-34.668 43.2617-36.2793L43.2617-52.0996L61.2305-33.9355Z"/>
  </g>
  <g id="Semibold-S" transform="matrix(1 0 0 1 1992.92 696)">
   <path d="M9.76562 0.732422C9.76562 9.47266 14.3555 14.0625 22.998 14.0625L58.4473 14.0625C67.0898 14.0625 71.6309 9.42383 71.6309 0.732422L71.6309-6.25L77.6855-6.25C86.3281-6.25 90.918-10.8887 90.918-19.5801L90.918-48.6328C90.918-54.3945 89.7461-58.0566 86.377-61.4746L68.2129-80.0781C65.0391-83.3008 61.1328-84.6191 56.1035-84.6191L42.2363-84.6191C33.5938-84.6191 29.0527-79.9805 29.0527-71.2891L29.0527-64.3066L22.998-64.3066C14.3555-64.3066 9.76562-59.668 9.76562-50.9766ZM67.3828-39.8438L47.5098-60.0098C44.6777-62.9395 42.0898-63.9648 38.3301-64.209L38.3301-70.5078C38.3301-73.584 39.8926-75.293 43.2129-75.293L58.252-75.293L58.252-58.7402C58.252-53.6133 61.1328-50.6836 66.2598-50.6836L81.5918-50.6836L81.5918-20.3613C81.5918-17.2363 80.0293-15.5762 76.7578-15.5762L71.6309-15.5762L71.6309-27.832C71.6309-33.4961 70.9473-36.2305 67.3828-39.8438ZM65.625-59.8145L65.625-71.9727L79.248-58.1055L67.3828-58.1055C66.1621-58.1055 65.625-58.5938 65.625-59.8145ZM19.0918-0.0488281L19.0918-50.1953C19.0918-53.2715 20.6543-54.9805 23.9258-54.9805L34.375-54.9805L34.375-35.498C34.375-29.248 37.4512-26.2207 43.7012-26.2207L62.3535-26.2207L62.3535-0.0488281C62.3535 3.07617 60.791 4.78516 57.4707 4.78516L23.9258 4.78516C20.6543 4.78516 19.0918 3.07617 19.0918-0.0488281ZM44.5312-34.1309C42.9688-34.1309 42.2852-34.8145 42.2852-36.3281L42.2852-53.4668L61.3281-34.1309Z"/>
  </g>
  <g id="Medium-S" transform="matrix(1 0 0 1 1696.73 696)">
   <path d="M9.76562 0.732422C9.76562 9.27734 14.1113 13.6719 22.5586 13.6719L58.1055 13.6719C66.5527 13.6719 70.8984 9.22852 70.8984 0.732422L70.8984-6.25L77.0508-6.25C85.498-6.25 89.8926-10.6934 89.8926-19.2383L89.8926-48.7305C89.8926-54.3457 88.7207-57.8613 85.498-61.1816L67.2852-79.834C64.1602-83.0078 60.4004-84.2285 55.5664-84.2285L41.5039-84.2285C33.0566-84.2285 28.7109-79.7852 28.7109-71.2891L28.7109-64.3066L22.5586-64.3066C14.1113-64.3066 9.76562-59.8633 9.76562-51.3672ZM66.7969-39.7461L46.7773-60.1562C43.75-63.2324 41.1621-64.1113 37.0605-64.2578L37.0605-70.8008C37.0605-74.0723 38.7695-75.9277 42.2363-75.9277L57.959-75.9277L57.959-58.3496C57.959-53.418 60.5957-50.7812 65.4785-50.7812L81.543-50.7812L81.543-19.7266C81.543-16.4062 79.834-14.5996 76.3672-14.5996L70.8984-14.5996L70.8984-28.0762C70.8984-33.6426 70.2637-36.2305 66.7969-39.7461ZM64.8438-59.4238L64.8438-72.6074L79.4922-57.7148L66.6016-57.7148C65.3809-57.7148 64.8438-58.252 64.8438-59.4238ZM18.0664 0.244141L18.0664-50.8789C18.0664-54.1504 19.8242-55.957 23.291-55.957L34.2773-55.957L34.2773-35.5469C34.2773-29.7852 37.1094-26.9531 42.8223-26.9531L62.5977-26.9531L62.5977 0.244141C62.5977 3.51562 60.8887 5.32227 57.4219 5.32227L23.2422 5.32227C19.8242 5.32227 18.0664 3.51562 18.0664 0.244141ZM43.6523-34.2773C42.2363-34.2773 41.6016-34.9121 41.6016-36.377L41.6016-54.541L61.4746-34.2773Z"/>
  </g>
  <g id="Regular-S" transform="matrix(1 0 0 1 1400.7 696)">
   <path d="M9.76562 0.683594C9.76562 9.0332 13.8184 13.1348 22.0215 13.1348L57.666 13.1348C65.8691 13.1348 69.9707 8.98438 69.9707 0.683594L69.9707-6.29883L76.2207-6.29883C84.4238-6.29883 88.5254-10.4492 88.5254-18.75L88.5254-48.9258C88.5254-54.248 87.4512-57.6172 84.3262-60.8398L66.0156-79.541C63.0371-82.6172 59.4727-83.7402 54.834-83.7402L40.5762-83.7402C32.373-83.7402 28.3203-79.5898 28.3203-71.2891L28.3203-64.3066L22.0215-64.3066C13.8184-64.3066 9.76562-60.1562 9.76562-51.8555ZM66.0156-39.6484L45.752-60.3516C42.627-63.623 39.9414-64.3066 35.3516-64.3066L35.3516-71.1914C35.3516-74.707 37.2559-76.709 40.9668-76.709L57.5684-76.709L57.5684-57.8613C57.5684-53.2227 59.8633-50.9277 64.4531-50.9277L81.4453-50.9277L81.4453-18.8477C81.4453-15.332 79.541-13.3301 75.8789-13.3301L69.9707-13.3301L69.9707-28.4668C69.9707-33.8867 69.3848-36.1816 66.0156-39.6484ZM63.8672-58.9355L63.8672-73.4863L79.7363-57.2266L65.5762-57.2266C64.3555-57.2266 63.8672-57.7148 63.8672-58.9355ZM16.7969 0.585938L16.7969-51.7578C16.7969-55.2734 18.7012-57.2754 22.4121-57.2754L34.082-57.2754L34.082-35.5957C34.082-30.4688 36.6699-27.9297 41.748-27.9297L62.8906-27.9297L62.8906 0.585938C62.8906 4.10156 60.9863 6.10352 57.3242 6.10352L22.3633 6.10352C18.7012 6.10352 16.7969 4.10156 16.7969 0.585938ZM42.5781-34.4727C41.2109-34.4727 40.625-35.0586 40.625-36.4258L40.625-55.9082L61.5723-34.4727Z"/>
  </g>
  <g id="Light-S" transform="matrix(1 0 0 1 1104.48 696)">
   <path d="M9.76562 0.927734C9.76562 8.69141 13.623 12.5488 21.2891 12.5488L57.5195 12.5488C65.1367 12.5488 68.9941 8.64258 68.9941 0.927734L68.9941-6.25L76.0254-6.25C83.6914-6.25 87.5488-10.1562 87.5488-17.8711L87.5488-49.6582C87.5488-53.8086 86.7188-56.4941 84.082-59.1797L63.916-79.6387C61.377-82.2266 58.4961-83.1543 54.834-83.1543L39.7949-83.1543C32.1777-83.1543 28.3203-79.1992 28.3203-71.4844L28.3203-64.3066L21.2891-64.3066C13.6719-64.3066 9.76562-60.4004 9.76562-52.6855ZM65.6738-38.8672L43.8477-60.9863C41.2109-63.7207 39.0137-64.3066 35.0098-64.3066L33.7402-64.3066L33.7402-71.3867C33.7402-75.3906 35.8887-77.6855 40.0879-77.6855L57.2266-77.6855L57.2266-57.4707C57.2266-53.1738 59.2773-51.2207 63.4766-51.2207L82.1289-51.2207L82.1289-17.9688C82.1289-13.916 79.9805-11.6699 75.7812-11.6699L68.9941-11.6699L68.9941-29.4922C68.9941-34.0332 68.457-35.9863 65.6738-38.8672ZM62.1582-58.2031L62.1582-74.9023L80.6152-56.1523L64.209-56.1523C62.7441-56.1523 62.1582-56.7383 62.1582-58.2031ZM15.1855 0.830078L15.1855-52.5879C15.1855-56.5918 17.3828-58.8867 21.582-58.8867L34.8145-58.8867L34.8145-36.2793C34.8145-31.6895 37.1582-29.4434 41.6504-29.4434L63.5742-29.4434L63.5742 0.830078C63.5742 4.88281 61.4258 7.12891 57.2266 7.12891L21.5332 7.12891C17.3828 7.12891 15.1855 4.88281 15.1855 0.830078ZM42.2363-34.5703C40.5762-34.5703 39.9414-35.2539 39.9414-36.8652L39.9414-57.4707L62.5-34.5703Z"/>
  </g>
  <g id="Thin-S" transform="matrix(1 0 0 1 808.4 696)">
   <path d="M9.76562 1.26953C9.76562 8.20312 13.3789 11.8164 20.2637 11.8164L57.2754 11.8164C64.209 11.8164 67.7734 8.20312 67.7734 1.26953L67.7734-6.20117L75.7812-6.20117C82.7148-6.20117 86.2793-9.81445 86.2793-16.748L86.2793-50.5859C86.2793-53.2227 85.6934-55.0293 83.7402-57.0312L61.084-79.7363C59.1797-81.7383 57.2754-82.3242 54.8828-82.3242L38.7695-82.3242C31.9336-82.3242 28.2715-78.7109 28.2715-71.7773L28.2715-64.3555L20.2637-64.3555C13.4277-64.3555 9.76562-60.7422 9.76562-53.8086ZM65.2344-37.8418L41.3574-61.7676C39.4043-63.8184 37.793-64.3555 34.668-64.3555L31.5918-64.3555L31.5918-71.6797C31.5918-76.3672 34.082-79.0527 38.9648-79.0527L56.7871-79.0527L56.7871-56.9824C56.7871-53.1738 58.5449-51.6113 62.1094-51.6113L83.0078-51.6113L83.0078-16.8457C83.0078-12.0117 80.4688-9.47266 75.6348-9.47266L67.7734-9.47266L67.7734-30.9082C67.7734-34.2285 67.2852-35.7422 65.2344-37.8418ZM59.8633-57.2266L59.8633-76.709L81.7871-54.7363L62.4023-54.7363C60.5957-54.7363 59.8633-55.4199 59.8633-57.2266ZM13.0859 1.17188L13.0859-53.7109C13.0859-58.3496 15.5762-61.0352 20.459-61.0352L35.791-61.0352L35.791-37.207C35.791-33.252 37.793-31.4941 41.5039-31.4941L64.4531-31.4941L64.4531 1.17188C64.4531 5.95703 61.9629 8.49609 57.1289 8.49609L20.4102 8.49609C15.5762 8.49609 13.0859 5.95703 13.0859 1.17188ZM41.7969-34.668C39.7949-34.668 38.9648-35.498 38.9648-37.5L38.9648-59.5703L63.7207-34.668Z"/>
  </g>
  <g id="Ultralight-S" transform="matrix(1 0 0 1 512.006 696)">
   <path d="M9.76562 1.41602C9.76562 7.95898 13.2324 11.4258 19.7266 11.4258L57.1777 11.4258C63.6719 11.4258 67.1387 7.95898 67.1387 1.41602L67.1387-6.15234L75.6836-6.15234C82.1777-6.15234 85.6445-9.61914 85.6445-16.1621L85.6445-51.123C85.6445-52.8809 85.1562-54.2969 83.5449-55.9082L59.668-79.834C58.0078-81.4453 56.6406-81.9336 54.8828-81.9336L38.2324-81.9336C31.8359-81.9336 28.2715-78.4668 28.2715-71.9238L28.2715-64.3555L19.7266-64.3555C13.3301-64.3555 9.76562-60.8887 9.76562-54.3457ZM64.9902-37.3047L40.0879-62.207C38.4277-63.8672 37.1582-64.3555 34.4727-64.3555L30.4688-64.3555L30.4688-71.8262C30.4688-76.8555 33.1543-79.7363 38.3789-79.7363L56.543-79.7363L56.543-56.6895C56.543-53.125 58.1543-51.8066 61.4258-51.8066L83.4473-51.8066L83.4473-16.2598C83.4473-11.084 80.7617-8.34961 75.5371-8.34961L67.1387-8.34961L67.1387-31.6406C67.1387-34.3262 66.6504-35.6445 64.9902-37.3047ZM58.6914-56.6895L58.6914-77.6855L82.373-53.9551L61.4258-53.9551C59.4727-53.9551 58.6914-54.7363 58.6914-56.6895ZM11.9629 1.31836L11.9629-54.248C11.9629-59.2773 14.6484-62.1582 19.873-62.1582L36.3281-62.1582L36.3281-37.6953C36.3281-34.082 38.0859-32.5684 41.4062-32.5684L64.9414-32.5684L64.9414 1.31836C64.9414 6.49414 62.2559 9.22852 57.0312 9.22852L19.873 9.22852C14.6484 9.22852 11.9629 6.49414 11.9629 1.31836ZM41.5527-34.7656C39.3555-34.7656 38.4766-35.5957 38.4766-37.8418L38.4766-60.6445L64.3555-34.7656Z"/>
  </g>
 </g>
</svg>
