<?xml version="1.0" encoding="UTF-8"?>
<!--Generator: Apple Native CoreSVG 149-->
<!DOCTYPE svg
PUBLIC "-//W3C//DTD SVG 1.1//EN"
       "http://www.w3.org/Graphics/SVG/1.1/DTD/svg11.dtd">
<svg version="1.1" xmlns="http://www.w3.org/2000/svg" xmlns:xlink="http://www.w3.org/1999/xlink" width="3300" height="2200">
 <!--glyph: "uni100156.medium", point size: 100.000000, font version: "Version 16.0d12e3", template writer version: "8"-->
 <g id="Notes">
  <rect height="2200" id="artboard" style="fill:white;opacity:1" width="3300" x="0" y="0"/>
  <line id="" style="fill:none;stroke:black;opacity:1;stroke-width:0.5;" x1="263" x2="3036" y1="292" y2="292"/>
  <text style="stroke:none;fill:black;font-family:-apple-system,&quot;SF Pro Display&quot;,&quot;SF Pro Text&quot;,Helvetica,sans-serif;font-weight:bold;" transform="matrix(1 0 0 1 263 322)">Weight/Scale Variations</text>
  <text style="stroke:none;fill:black;font-family:-apple-system,&quot;SF Pro Display&quot;,&quot;SF Pro Text&quot;,Helvetica,sans-serif;text-anchor:middle;" transform="matrix(1 0 0 1 559.711 322)">Ultralight</text>
  <text style="stroke:none;fill:black;font-family:-apple-system,&quot;SF Pro Display&quot;,&quot;SF Pro Text&quot;,Helvetica,sans-serif;text-anchor:middle;" transform="matrix(1 0 0 1 856.422 322)">Thin</text>
  <text style="stroke:none;fill:black;font-family:-apple-system,&quot;SF Pro Display&quot;,&quot;SF Pro Text&quot;,Helvetica,sans-serif;text-anchor:middle;" transform="matrix(1 0 0 1 1153.13 322)">Light</text>
  <text style="stroke:none;fill:black;font-family:-apple-system,&quot;SF Pro Display&quot;,&quot;SF Pro Text&quot;,Helvetica,sans-serif;text-anchor:middle;" transform="matrix(1 0 0 1 1449.84 322)">Regular</text>
  <text style="stroke:none;fill:black;font-family:-apple-system,&quot;SF Pro Display&quot;,&quot;SF Pro Text&quot;,Helvetica,sans-serif;text-anchor:middle;" transform="matrix(1 0 0 1 1746.56 322)">Medium</text>
  <text style="stroke:none;fill:black;font-family:-apple-system,&quot;SF Pro Display&quot;,&quot;SF Pro Text&quot;,Helvetica,sans-serif;text-anchor:middle;" transform="matrix(1 0 0 1 2043.27 322)">Semibold</text>
  <text style="stroke:none;fill:black;font-family:-apple-system,&quot;SF Pro Display&quot;,&quot;SF Pro Text&quot;,Helvetica,sans-serif;text-anchor:middle;" transform="matrix(1 0 0 1 2339.98 322)">Bold</text>
  <text style="stroke:none;fill:black;font-family:-apple-system,&quot;SF Pro Display&quot;,&quot;SF Pro Text&quot;,Helvetica,sans-serif;text-anchor:middle;" transform="matrix(1 0 0 1 2636.69 322)">Heavy</text>
  <text style="stroke:none;fill:black;font-family:-apple-system,&quot;SF Pro Display&quot;,&quot;SF Pro Text&quot;,Helvetica,sans-serif;text-anchor:middle;" transform="matrix(1 0 0 1 2933.4 322)">Black</text>
  <line id="" style="fill:none;stroke:black;opacity:1;stroke-width:0.5;" x1="263" x2="3036" y1="1903" y2="1903"/>
  <g id="" transform="matrix(1 0 0 1 263 1933)">
   <path d="M9.24805 0.830078C13.5547 0.830078 17.1387-2.74414 17.1387-7.05078C17.1387-11.3574 13.5449-14.9316 9.23828-14.9316C4.94141-14.9316 1.36719-11.3574 1.36719-7.05078C1.36719-2.74414 4.95117 0.830078 9.24805 0.830078ZM9.24805-0.654297C5.70312-0.654297 2.87109-3.49609 2.87109-7.05078C2.87109-10.6055 5.69336-13.4473 9.23828-13.4473C12.793-13.4473 15.6348-10.6055 15.6445-7.05078C15.6543-3.49609 12.8027-0.654297 9.24805-0.654297ZM9.22852-3.62305C9.69727-3.62305 9.9707-3.93555 9.9707-4.45312L9.9707-6.31836L12.002-6.31836C12.5-6.31836 12.832-6.57227 12.832-7.04102C12.832-7.51953 12.5195-7.7832 12.002-7.7832L9.9707-7.7832L9.9707-9.81445C9.9707-10.332 9.69727-10.6543 9.22852-10.6543C8.75977-10.6543 8.50586-10.3125 8.50586-9.81445L8.50586-7.7832L6.49414-7.7832C5.97656-7.7832 5.64453-7.51953 5.64453-7.04102C5.64453-6.57227 5.99609-6.31836 6.49414-6.31836L8.50586-6.31836L8.50586-4.45312C8.50586-3.95508 8.75977-3.62305 9.22852-3.62305Z"/>
  </g>
  <g id="" transform="matrix(1 0 0 1 281.506 1933)">
   <path d="M11.709 2.91016C17.1582 2.91016 21.6699-1.61133 21.6699-7.05078C21.6699-12.5 17.1484-17.0117 11.6992-17.0117C6.25977-17.0117 1.74805-12.5 1.74805-7.05078C1.74805-1.61133 6.26953 2.91016 11.709 2.91016ZM11.709 1.25C7.09961 1.25 3.41797-2.44141 3.41797-7.05078C3.41797-11.6602 7.08984-15.3516 11.6992-15.3516C16.3086-15.3516 20-11.6602 20.0098-7.05078C20.0195-2.44141 16.3184 1.25 11.709 1.25ZM11.6797-2.66602C12.207-2.66602 12.5098-3.01758 12.5098-3.59375L12.5098-6.23047L15.3223-6.23047C15.8691-6.23047 16.25-6.51367 16.25-7.03125C16.25-7.55859 15.8887-7.86133 15.3223-7.86133L12.5098-7.86133L12.5098-10.6836C12.5098-11.25 12.207-11.6113 11.6797-11.6113C11.1621-11.6113 10.8789-11.2305 10.8789-10.6836L10.8789-7.86133L8.07617-7.86133C7.50977-7.86133 7.13867-7.55859 7.13867-7.03125C7.13867-6.51367 7.5293-6.23047 8.07617-6.23047L10.8789-6.23047L10.8789-3.59375C10.8789-3.03711 11.1621-2.66602 11.6797-2.66602Z"/>
  </g>
  <g id="" transform="matrix(1 0 0 1 304.924 1933)">
   <path d="M14.9707 5.66406C21.9336 5.66406 27.6953-0.0976562 27.6953-7.05078C27.6953-14.0137 21.9238-19.7754 14.9609-19.7754C8.00781-19.7754 2.25586-14.0137 2.25586-7.05078C2.25586-0.0976562 8.01758 5.66406 14.9707 5.66406ZM14.9707 3.84766C8.93555 3.84766 4.08203-1.01562 4.08203-7.05078C4.08203-13.0957 8.92578-17.9492 14.9609-17.9492C21.0059-17.9492 25.8594-13.0957 25.8691-7.05078C25.8789-1.01562 21.0156 3.84766 14.9707 3.84766ZM14.9414-1.38672C15.5176-1.38672 15.8594-1.77734 15.8594-2.38281L15.8594-6.13281L19.7754-6.13281C20.3711-6.13281 20.7812-6.46484 20.7812-7.02148C20.7812-7.59766 20.3906-7.93945 19.7754-7.93945L15.8594-7.93945L15.8594-11.8652C15.8594-12.4805 15.5176-12.8711 14.9414-12.8711C14.375-12.8711 14.0527-12.4609 14.0527-11.8652L14.0527-7.93945L10.1465-7.93945C9.53125-7.93945 9.13086-7.59766 9.13086-7.02148C9.13086-6.46484 9.55078-6.13281 10.1465-6.13281L14.0527-6.13281L14.0527-2.38281C14.0527-1.79688 14.375-1.38672 14.9414-1.38672Z"/>
  </g>
  <text style="stroke:none;fill:black;font-family:-apple-system,&quot;SF Pro Display&quot;,&quot;SF Pro Text&quot;,Helvetica,sans-serif;font-weight:bold;" transform="matrix(1 0 0 1 263 1953)">Design Variations</text>
  <text style="stroke:none;fill:black;font-family:-apple-system,&quot;SF Pro Display&quot;,&quot;SF Pro Text&quot;,Helvetica,sans-serif;" transform="matrix(1 0 0 1 263 1971)">Symbols are supported in up to nine weights and three scales.</text>
  <text style="stroke:none;fill:black;font-family:-apple-system,&quot;SF Pro Display&quot;,&quot;SF Pro Text&quot;,Helvetica,sans-serif;" transform="matrix(1 0 0 1 263 1989)">For optimal layout with text and other symbols, vertically align</text>
  <text style="stroke:none;fill:black;font-family:-apple-system,&quot;SF Pro Display&quot;,&quot;SF Pro Text&quot;,Helvetica,sans-serif;" transform="matrix(1 0 0 1 263 2007)">symbols with the adjacent text.</text>
  <line id="" style="fill:none;stroke:#00AEEF;stroke-width:0.5;opacity:1.0;" x1="776" x2="776" y1="1919" y2="1933"/>
  <g id="" transform="matrix(1 0 0 1 776 1933)">
   <path d="M3.31055 0.126953C3.82812 0.126953 4.08203-0.0683594 4.26758-0.605469L5.52734-4.0625L11.2891-4.0625L12.5488-0.605469C12.7344-0.0683594 12.9883 0.126953 13.4961 0.126953C14.0137 0.126953 14.3457-0.185547 14.3457-0.673828C14.3457-0.839844 14.3164-0.986328 14.2383-1.20117L9.6582-13.3887C9.43359-13.9941 9.0332-14.2871 8.4082-14.2871C7.80273-14.2871 7.39258-13.9941 7.17773-13.3984L2.59766-1.19141C2.51953-0.976562 2.49023-0.830078 2.49023-0.664062C2.49023-0.175781 2.80273 0.126953 3.31055 0.126953ZM6.00586-5.53711L8.37891-12.1094L8.42773-12.1094L10.8008-5.53711Z"/>
  </g>
  <line id="" style="fill:none;stroke:#00AEEF;stroke-width:0.5;opacity:1.0;" x1="792.836" x2="792.836" y1="1919" y2="1933"/>
  <text style="stroke:none;fill:black;font-family:-apple-system,&quot;SF Pro Display&quot;,&quot;SF Pro Text&quot;,Helvetica,sans-serif;font-weight:bold;" transform="matrix(1 0 0 1 776 1953)">Margins</text>
  <text style="stroke:none;fill:black;font-family:-apple-system,&quot;SF Pro Display&quot;,&quot;SF Pro Text&quot;,Helvetica,sans-serif;" transform="matrix(1 0 0 1 776 1971)">Leading and trailing margins on the left and right side of each symbol</text>
  <text style="stroke:none;fill:black;font-family:-apple-system,&quot;SF Pro Display&quot;,&quot;SF Pro Text&quot;,Helvetica,sans-serif;" transform="matrix(1 0 0 1 776 1989)">can be adjusted by modifying the x-location of the margin guidelines.</text>
  <text style="stroke:none;fill:black;font-family:-apple-system,&quot;SF Pro Display&quot;,&quot;SF Pro Text&quot;,Helvetica,sans-serif;" transform="matrix(1 0 0 1 776 2007)">Modifications are automatically applied proportionally to all</text>
  <text style="stroke:none;fill:black;font-family:-apple-system,&quot;SF Pro Display&quot;,&quot;SF Pro Text&quot;,Helvetica,sans-serif;" transform="matrix(1 0 0 1 776 2025)">scales and weights.</text>
  <g id="" transform="matrix(1 0 0 1 1289 1933)">
   <path d="M2.8418 1.86523L4.54102 3.57422C5.40039 4.44336 6.38672 4.38477 7.31445 3.35938L17.4902-7.85156C17.7539-7.76367 18.0273-7.7832 18.3398-7.8418L19.4043-8.03711L20.0684-7.36328L20.0293-6.80664C19.9902-6.30859 20.1172-5.92773 20.6055-5.44922L21.3672-4.70703C21.8457-4.22852 22.4609-4.19922 22.9297-4.66797L25.8398-7.58789C26.3086-8.05664 26.2891-8.65234 25.8105-9.13086L25.0391-9.89258C24.5605-10.3711 24.1895-10.5273 23.7109-10.4883L23.1348-10.4395L22.4902-11.0742L22.7344-12.1973C22.8613-12.7637 22.7051-13.2031 22.1191-13.7891L19.9219-15.9766C16.582-19.2969 12.1484-19.2188 9.25781-16.3281C8.83789-15.918 8.80859-15.3418 9.04297-14.9512C9.27734-14.5898 9.73633-14.3555 10.3809-14.5215C11.8457-14.8633 13.3691-14.9219 14.7949-13.9844L14.209-12.5293C14.0137-12.0508 13.9844-11.6504 14.1113-11.2891L3.04688-0.898438C2.06055 0.0195312 1.98242 0.996094 2.8418 1.86523ZM10.752-15.957C13.1836-17.7344 16.4746-17.4316 18.7012-15.2051L21.1328-12.793C21.3672-12.5586 21.4062-12.373 21.3379-12.0312L21.0156-10.5469L22.5195-9.0625L23.5059-9.12109C23.7598-9.13086 23.8379-9.11133 24.0332-8.91602L24.6094-8.33984L22.168-5.89844L21.5918-6.47461C21.3965-6.66992 21.3672-6.74805 21.377-7.01172L21.4453-7.98828L19.9512-9.47266L18.4277-9.21875C18.1055-9.15039 17.959-9.17969 17.7148-9.41406L15.7129-11.416C15.459-11.6504 15.4297-11.8164 15.5859-12.1875L16.4648-14.2773C14.9023-15.7324 12.8711-16.3574 10.8398-15.7617C10.6836-15.7227 10.625-15.8496 10.752-15.957ZM5.27344 2.30469L4.10156 1.14258C3.63281 0.683594 3.74023 0.341797 4.14062-0.0195312L14.9512-10.1953L16.416-8.71094L6.42578 2.27539C6.07422 2.67578 5.74219 2.77344 5.27344 2.30469Z"/>
  </g>
  <text style="stroke:none;fill:black;font-family:-apple-system,&quot;SF Pro Display&quot;,&quot;SF Pro Text&quot;,Helvetica,sans-serif;font-weight:bold;" transform="matrix(1 0 0 1 1289 1953)">Exporting</text>
  <text style="stroke:none;fill:black;font-family:-apple-system,&quot;SF Pro Display&quot;,&quot;SF Pro Text&quot;,Helvetica,sans-serif;" transform="matrix(1 0 0 1 1289 1971)">Symbols should be outlined when exporting to ensure the</text>
  <text style="stroke:none;fill:black;font-family:-apple-system,&quot;SF Pro Display&quot;,&quot;SF Pro Text&quot;,Helvetica,sans-serif;" transform="matrix(1 0 0 1 1289 1989)">design is preserved when submitting to Xcode.</text>
  <text id="template-version" style="stroke:none;fill:black;font-family:-apple-system,&quot;SF Pro Display&quot;,&quot;SF Pro Text&quot;,Helvetica,sans-serif;text-anchor:end;" transform="matrix(1 0 0 1 3036 1933)">Template v.2.0</text>
  <text style="stroke:none;fill:black;font-family:-apple-system,&quot;SF Pro Display&quot;,&quot;SF Pro Text&quot;,Helvetica,sans-serif;text-anchor:end;" transform="matrix(1 0 0 1 3036 1951)">Requires Xcode 12 or greater</text>
  <text style="stroke:none;fill:black;font-family:-apple-system,&quot;SF Pro Display&quot;,&quot;SF Pro Text&quot;,Helvetica,sans-serif;text-anchor:end;" transform="matrix(1 0 0 1 3036 1969)">Generated from strikethrough</text>
  <text style="stroke:none;fill:black;font-family:-apple-system,&quot;SF Pro Display&quot;,&quot;SF Pro Text&quot;,Helvetica,sans-serif;text-anchor:end;" transform="matrix(1 0 0 1 3036 1987)">Typeset at 100 points</text>
  <text style="stroke:none;fill:black;font-family:-apple-system,&quot;SF Pro Display&quot;,&quot;SF Pro Text&quot;,Helvetica,sans-serif;" transform="matrix(1 0 0 1 263 726)">Small</text>
  <text style="stroke:none;fill:black;font-family:-apple-system,&quot;SF Pro Display&quot;,&quot;SF Pro Text&quot;,Helvetica,sans-serif;" transform="matrix(1 0 0 1 263 1156)">Medium</text>
  <text style="stroke:none;fill:black;font-family:-apple-system,&quot;SF Pro Display&quot;,&quot;SF Pro Text&quot;,Helvetica,sans-serif;" transform="matrix(1 0 0 1 263 1586)">Large</text>
 </g>
 <g id="Guides">
  <g id="H-reference" style="fill:#27AAE1;stroke:none;" transform="matrix(1 0 0 1 339 696)">
   <path d="M0.976562 0L3.66211 0L12.9883-24.4629L45.752-24.4629L55.127 0L57.7637 0L30.6152-70.459L28.125-70.459ZM29.3457-67.1387L29.4434-67.1387L44.873-26.709L13.8672-26.709Z"/>
  </g>
  <line id="Baseline-S" style="fill:none;stroke:#27AAE1;opacity:1;stroke-width:0.5;" x1="263" x2="3036" y1="696" y2="696"/>
  <line id="Capline-S" style="fill:none;stroke:#27AAE1;opacity:1;stroke-width:0.5;" x1="263" x2="3036" y1="625.541" y2="625.541"/>
  <g id="H-reference" style="fill:#27AAE1;stroke:none;" transform="matrix(1 0 0 1 339 1126)">
   <path d="M0.976562 0L3.66211 0L12.9883-24.4629L45.752-24.4629L55.127 0L57.7637 0L30.6152-70.459L28.125-70.459ZM29.3457-67.1387L29.4434-67.1387L44.873-26.709L13.8672-26.709Z"/>
  </g>
  <line id="Baseline-M" style="fill:none;stroke:#27AAE1;opacity:1;stroke-width:0.5;" x1="263" x2="3036" y1="1126" y2="1126"/>
  <line id="Capline-M" style="fill:none;stroke:#27AAE1;opacity:1;stroke-width:0.5;" x1="263" x2="3036" y1="1055.54" y2="1055.54"/>
  <g id="H-reference" style="fill:#27AAE1;stroke:none;" transform="matrix(1 0 0 1 339 1556)">
   <path d="M0.976562 0L3.66211 0L12.9883-24.4629L45.752-24.4629L55.127 0L57.7637 0L30.6152-70.459L28.125-70.459ZM29.3457-67.1387L29.4434-67.1387L44.873-26.709L13.8672-26.709Z"/>
  </g>
  <line id="Baseline-L" style="fill:none;stroke:#27AAE1;opacity:1;stroke-width:0.5;" x1="263" x2="3036" y1="1556" y2="1556"/>
  <line id="Capline-L" style="fill:none;stroke:#27AAE1;opacity:1;stroke-width:0.5;" x1="263" x2="3036" y1="1485.54" y2="1485.54"/>
  <line id="left-margin" style="fill:none;stroke:#00AEEF;stroke-width:0.5;opacity:1.0;" x1="1397.09" x2="1397.09" y1="1030.79" y2="1150.12"/>
  <line id="right-margin" style="fill:none;stroke:#00AEEF;stroke-width:0.5;opacity:1.0;" x1="1502.6" x2="1502.6" y1="1030.79" y2="1150.12"/>
 </g>
 <g id="Symbols">
  <g id="Black-L" transform="matrix(1 0 0 1 2857.89 1556)">
   <path d="M22.5098-28.125L57.0312-28.125C58.9355-27.5391 60.9863-27.0508 63.1348-26.6602L75.8301-24.1699C87.0117-21.9727 91.0645-19.5312 91.0645-14.3066C91.0645-8.59375 84.668-4.58984 74.707-4.58984C66.0156-4.58984 59.2773-8.1543 54.4922-13.916C51.8066-16.8945 49.4141-18.2617 45.752-18.2617C39.7461-18.2617 35.8398-14.502 35.8398-8.78906C35.8398-7.12891 36.1816-5.41992 36.7676-3.66211C40.7715 7.17773 55.2246 13.8672 74.5117 13.8672C99.5605 13.8672 115.479 1.75781 115.479-17.0898C115.479-21.2891 114.795-24.9512 113.428-28.125L128.564-28.125C132.129-28.125 134.961-31.1523 134.961-34.5215C134.961-37.8906 132.129-40.918 128.564-40.918L98.877-40.918C95.6055-42.2363 91.8457-43.2617 87.5488-44.0918L75-46.3867C64.8438-48.4375 60.4492-51.123 60.4492-56.2012C60.4492-61.9629 66.2109-65.7227 74.707-65.7227C82.0312-65.7227 86.6211-62.9883 91.6504-57.0801C94.4824-53.9551 97.1191-52.7344 101.172-52.7344C107.08-52.7344 111.133-56.4941 111.133-62.0117C111.133-63.623 110.889-64.8926 110.449-66.1621C106.787-77.1484 92.9199-84.2285 74.5117-84.2285C52.0508-84.2285 35.9375-72.1191 35.9375-53.7598C35.9375-48.877 36.9629-44.5801 39.0625-40.918L22.5098-40.918C18.9453-40.918 16.0645-37.8906 16.0645-34.5215C16.0645-31.1523 18.9453-28.125 22.5098-28.125Z"/>
  </g>
  <g id="Heavy-L" transform="matrix(1 0 0 1 2563.2 1556)">
   <path d="M21.5332-29.3945L57.0801-29.3945C58.7402-28.9551 60.498-28.5156 62.3047-28.125L74.707-25.6348C86.5234-23.1445 90.9668-20.2148 90.9668-14.3066C90.9668-7.61719 83.7891-2.83203 72.9004-2.83203C63.2812-2.83203 55.9082-6.98242 51.5625-13.6719C49.2676-16.5039 47.168-17.8223 43.8477-17.8223C38.5742-17.8223 35.2051-14.5508 35.2051-9.47266C35.2051-8.00781 35.4492-6.44531 35.9863-4.83398C39.7949 6.34766 53.9551 13.3301 72.7051 13.3301C96.6797 13.3301 112.012 1.51367 112.012-16.6504C112.012-21.6309 110.986-25.8789 108.887-29.3945L125.439-29.3945C128.467-29.3945 130.908-31.9824 130.908-34.8633C130.908-37.7441 128.467-40.2832 125.439-40.2832L94.2871-40.2832C91.3574-41.3574 88.0859-42.2363 84.4238-43.0176L72.4121-45.3125C61.4746-47.6562 56.7383-50.7324 56.7383-56.3965C56.7383-63.0371 63.3789-67.5293 72.8027-67.5293C81.1523-67.5293 86.6699-64.1113 91.1621-57.4219C93.5547-54.541 95.8984-53.3691 99.4629-53.3691C104.639-53.3691 108.154-56.5918 108.154-61.4746C108.154-62.8906 107.91-64.1113 107.52-65.2832C104.053-76.3672 90.5762-83.6914 72.6562-83.6914C51.1719-83.6914 35.6445-71.9238 35.6445-54.3945C35.6445-48.877 37.0117-44.1895 39.7949-40.2832L21.5332-40.2832C18.5059-40.2832 16.0645-37.7441 16.0645-34.8633C16.0645-31.9824 18.5059-29.3945 21.5332-29.3945Z"/>
  </g>
  <g id="Bold-L" transform="matrix(1 0 0 1 2268.79 1556)">
   <path d="M20.5078-30.8594L57.1777-30.8594C58.5449-30.4688 59.9609-30.127 61.4258-29.834L73.4863-27.1973C85.9375-24.4629 90.8691-20.9473 90.8691-14.2578C90.8691-6.49414 82.8125-0.830078 70.8008-0.830078C60.3027-0.830078 52.1484-5.66406 48.291-13.3301C46.4355-16.1133 44.6777-17.334 41.6992-17.334C37.2559-17.334 34.4238-14.5508 34.4238-10.3027C34.4238-8.93555 34.668-7.56836 35.1074-6.10352C38.7207 5.41992 52.4902 12.6953 70.7031 12.6953C93.5059 12.6953 108.105 1.2207 108.105-16.2109C108.105-22.168 106.592-27.002 103.32-30.8594L121.924-30.8594C124.365-30.8594 126.318-32.8613 126.318-35.2051C126.318-37.5977 124.365-39.5996 121.924-39.5996L88.9648-39.5996C86.5234-40.4297 83.8379-41.1133 80.9082-41.748L69.5312-44.1406C57.7148-46.7773 52.6367-50.2441 52.6367-56.5918C52.6367-64.2578 60.1562-69.5312 70.7031-69.5312C80.2246-69.5312 86.7676-65.3809 90.6738-57.7637C92.4805-55.1758 94.4824-54.0527 97.5586-54.0527C101.904-54.0527 104.785-56.7383 104.785-60.8887C104.785-62.0605 104.59-63.2324 104.248-64.3555C101.025-75.5371 87.9395-83.1055 70.6055-83.1055C50.2441-83.1055 35.3027-71.6797 35.3027-55.0293C35.3027-48.7793 37.207-43.7012 41.0156-39.5996L20.5078-39.5996C18.0176-39.5996 16.0645-37.5977 16.0645-35.2051C16.0645-32.8613 18.0176-30.8594 20.5078-30.8594Z"/>
  </g>
  <g id="Semibold-L" transform="matrix(1 0 0 1 1973.64 1556)">
   <path d="M19.7754-31.8359L57.2754-31.8359C58.3984-31.543 59.5703-31.25 60.791-30.957L72.6074-28.3203C85.5957-25.3418 90.8203-21.4355 90.8203-14.2578C90.8203-5.71289 82.1289 0.537109 69.3848 0.537109C58.2031 0.537109 49.5605-4.78516 45.9961-13.1348C44.4824-15.8203 42.9688-16.9922 40.2344-16.9922C36.3281-16.9922 33.8867-14.5996 33.8867-10.8398C33.8867-9.61914 34.082-8.34961 34.5215-7.03125C37.9395 4.78516 51.4648 12.2559 69.3359 12.2559C91.3086 12.2559 105.42 1.02539 105.42-15.918C105.42-22.6074 103.369-27.7832 99.0723-31.8359L119.482-31.8359C121.582-31.8359 123.193-33.4961 123.193-35.498C123.193-37.4512 121.582-39.1113 119.482-39.1113L85.2539-39.1113C83.1543-39.7949 80.9082-40.3809 78.5156-40.918L67.4805-43.3105C55.0781-46.1914 49.7559-49.9512 49.7559-56.7383C49.7559-65.0879 57.959-70.9473 69.2383-70.9473C79.5898-70.9473 86.8164-66.2598 90.2832-58.0078C91.748-55.6152 93.5059-54.4922 96.2402-54.4922C100.049-54.4922 102.49-56.8359 102.49-60.4492C102.49-61.4746 102.344-62.6465 102.002-63.6719C98.9746-74.9512 86.084-82.7148 69.1895-82.7148C49.5605-82.7148 35.1074-71.5332 35.1074-55.5176C35.1074-48.6816 37.4512-43.2617 42.2363-39.1113L19.7754-39.1113C17.6758-39.1113 16.0645-37.4512 16.0645-35.498C16.0645-33.4961 17.6758-31.8359 19.7754-31.8359Z"/>
  </g>
  <g id="Medium-L" transform="matrix(1 0 0 1 1678.12 1556)">
   <path d="M19.1895-32.5684L57.3242-32.5684C58.3008-32.3242 59.2773-32.0801 60.3027-31.8359L71.9727-29.1504C85.3027-26.0254 90.7715-21.8262 90.7715-14.2578C90.7715-5.12695 81.6406 1.5625 68.3105 1.5625C56.5918 1.5625 47.6074-4.05273 44.2871-12.9883C43.0176-15.5762 41.6504-16.748 39.1113-16.748C35.6445-16.748 33.4961-14.5996 33.4961-11.2793C33.4961-10.1074 33.6914-8.93555 34.0332-7.71484C37.4023 4.29688 50.6836 11.9141 68.2617 11.9141C89.5996 11.9141 103.369 0.878906 103.369-15.6738C103.369-22.998 100.879-28.4668 95.5078-32.5684L117.676-32.5684C119.434-32.5684 120.801-33.9844 120.801-35.6934C120.801-37.3535 119.434-38.7695 117.676-38.7695L82.373-38.7695C80.6152-39.3066 78.7109-39.7949 76.709-40.2344L65.9668-42.6758C53.125-45.7031 47.6074-49.707 47.6074-56.8359C47.6074-65.7227 56.2988-72.0215 68.1641-72.0215C79.1016-72.0215 86.8652-66.8945 90.0391-58.2031C91.2109-55.957 92.7246-54.8828 95.2637-54.8828C98.584-54.8828 100.732-56.8848 100.732-60.1074C100.732-61.0352 100.586-62.1582 100.293-63.1836C97.3633-74.5117 84.7168-82.373 68.1152-82.373C49.0234-82.373 34.9609-71.4355 34.9609-55.8594C34.9609-48.5352 37.6953-42.9688 43.4082-38.7695L19.1895-38.7695C17.4316-38.7695 16.0645-37.3535 16.0645-35.6934C16.0645-33.9844 17.4316-32.5684 19.1895-32.5684Z"/>
  </g>
  <g id="Regular-L" transform="matrix(1 0 0 1 1382.97 1556)">
   <path d="M18.457-33.5449L57.373-33.5449C58.1543-33.3496 58.8867-33.1543 59.668-32.959L71.1426-30.2246C84.9121-26.9043 90.6738-22.3633 90.6738-14.209C90.6738-4.39453 80.957 2.88086 66.9434 2.88086C54.541 2.88086 45.0195-3.17383 42.041-12.793C41.1133-15.2832 39.9902-16.4062 37.6465-16.4062C34.7656-16.4062 33.0078-14.5996 33.0078-11.8164C33.0078-10.791 33.1543-9.7168 33.4473-8.59375C36.6699 3.66211 49.707 11.5234 66.8945 11.5234C87.4512 11.5234 100.732 0.683594 100.732-15.332C100.732-23.5352 97.4609-29.3457 90.2344-33.5449L115.283-33.5449C116.65-33.5449 117.676-34.6191 117.676-35.9375C117.676-37.2559 116.65-38.2812 115.283-38.2812L78.5645-38.2812C77.2461-38.6719 75.7812-39.0625 74.3164-39.4043L64.0137-41.8945C50.5859-45.1172 44.7754-49.3652 44.7754-56.9824C44.7754-66.5527 54.1504-73.3887 66.6992-73.3887C78.418-73.3887 86.9141-67.7734 89.6973-58.4961C90.4785-56.3965 91.7969-55.3223 93.9453-55.3223C96.7285-55.3223 98.4375-56.9824 98.4375-59.7168C98.4375-60.498 98.3398-61.5723 98.0957-62.5488C95.3125-73.9258 82.959-81.9824 66.6992-81.9824C48.3887-81.9824 34.7168-71.2891 34.7168-56.2988C34.7168-48.3398 38.1348-42.4805 45.3613-38.2812L18.457-38.2812C17.0898-38.2812 16.0645-37.2559 16.0645-35.9375C16.0645-34.6191 17.0898-33.5449 18.457-33.5449Z"/>
  </g>
  <g id="Light-L" transform="matrix(1 0 0 1 1087.92 1556)">
   <path d="M18.2129-33.5938L60.9863-33.5938L70.0684-31.3965C84.8145-27.7832 91.0156-22.8516 91.0156-14.0137C91.0156-3.07617 80.6152 5.12695 65.3809 5.12695C52.0508 5.12695 41.4551-1.95312 38.8672-12.4023C38.1348-14.6484 37.3535-15.6738 35.4492-15.6738C33.252-15.6738 31.9336-14.3555 31.9336-12.1582C31.9336-11.2793 32.0312-10.3516 32.2754-9.375C35.3516 3.41797 48.291 11.6211 65.332 11.6211C85.4004 11.6211 98.4863 0.732422 98.4863-14.7461C98.4863-23.4375 94.6289-29.3457 86.084-33.5938L112.256-33.5938C113.525-33.5938 114.355-34.4727 114.355-35.6445C114.355-36.8164 113.525-37.6953 112.256-37.6953L74.707-37.6953C73.9746-37.8906 73.1934-38.0859 72.4121-38.2812L61.9629-40.7715C47.7539-44.2383 41.4551-48.9746 41.4551-57.3242C41.4551-67.9199 51.709-75.5859 65.0391-75.5859C77.9297-75.5859 87.4512-69.043 89.6973-58.9355C90.2344-57.2754 91.2109-56.3965 92.9688-56.3965C95.0684-56.3965 96.3379-57.6172 96.3379-59.7168C96.3379-60.4004 96.2402-61.5723 95.9961-62.5488C93.3105-73.877 81.25-82.0801 65.0391-82.0801C47.5098-82.0801 33.8867-71.4844 33.8867-56.9336C33.8867-48.0957 38.3301-41.9434 47.8516-37.6953L18.2129-37.6953C16.9434-37.6953 16.0645-36.8164 16.0645-35.6445C16.0645-34.4727 16.9434-33.5938 18.2129-33.5938Z"/>
  </g>
  <g id="Thin-L" transform="matrix(1 0 0 1 793.385 1556)">
   <path d="M17.9199-33.6426L65.7227-33.6426L68.6523-32.9102C84.7168-29.0039 91.4551-23.5352 91.4551-13.7207C91.4551-1.36719 80.1758 8.10547 63.3789 8.10547C48.7305 8.10547 36.7188-0.390625 34.6191-11.9141C34.2285-13.7695 33.8867-14.7461 32.5195-14.7461C31.25-14.7461 30.5176-13.9648 30.5176-12.6465C30.5176-11.9141 30.6152-11.1816 30.7617-10.4004C33.6426 3.02734 46.3867 11.8164 63.2812 11.8164C82.7148 11.8164 95.5566 0.830078 95.5566-13.916C95.5566-23.291 90.625-29.3945 80.0293-33.6426L108.252-33.6426C109.424-33.6426 110.01-34.3262 110.01-35.3027C110.01-36.2305 109.424-36.9141 108.252-36.9141L69.3359-36.9141L59.3262-39.3555C43.9941-43.0664 37.0117-48.4375 37.0117-57.8125C37.0117-69.7754 48.5352-78.4668 62.793-78.4668C77.2949-78.4668 88.1836-70.7031 89.7461-59.5703C89.8926-58.4473 90.4785-57.7637 91.6992-57.7637C92.8711-57.7637 93.6035-58.4961 93.6035-59.7656C93.6035-60.2539 93.5059-61.5723 93.2617-62.5488C90.6738-73.8281 79.0039-82.2266 62.793-82.2266C46.3867-82.2266 32.8125-71.7773 32.8125-57.7148C32.8125-47.6074 39.1602-41.1621 52.9785-36.9141L17.9199-36.9141C16.748-36.9141 16.0645-36.2305 16.0645-35.3027C16.0645-34.3262 16.748-33.6426 17.9199-33.6426Z"/>
  </g>
  <g id="Ultralight-L" transform="matrix(1 0 0 1 497.773 1556)">
   <path d="M17.7734-33.6914L68.1152-33.6914C84.6191-29.6387 91.6992-23.8281 91.6992-13.5742C91.6992-0.488281 79.9805 9.61914 62.3535 9.61914C47.0215 9.61914 34.2773 0.439453 32.4707-11.6699C32.2266-13.3301 32.0801-14.3066 31.0059-14.3066C30.2246-14.3066 29.7852-13.7695 29.7852-12.8906C29.7852-12.2559 29.8828-11.5723 29.9805-10.9375C32.7637 2.83203 45.459 11.9141 62.207 11.9141C81.3477 11.9141 94.0918 0.878906 94.0918-13.5254C94.0918-23.2422 88.5254-29.4434 76.6113-33.6914L106.201-33.6914C107.275-33.6914 107.812-34.2773 107.812-35.1074C107.812-35.9375 107.275-36.5234 106.201-36.5234L66.5527-36.5234L57.959-38.623C42.0898-42.4805 34.7656-48.1445 34.7656-58.0566C34.7656-70.7031 46.875-79.9805 61.6699-79.9805C76.9531-79.9805 88.5254-71.5332 89.7461-59.8633C89.7461-59.0332 90.0879-58.4473 91.0156-58.4473C91.748-58.4473 92.1875-58.9844 92.1875-59.8145C92.1875-60.1562 92.0898-61.5723 91.8457-62.5488C89.3066-73.7793 77.832-82.2754 61.6699-82.2754C45.8008-82.2754 32.2754-71.9238 32.2754-58.1543C32.2754-47.3145 39.8926-40.7227 56.6406-36.5234L17.7734-36.5234C16.6504-36.5234 16.0645-35.9375 16.0645-35.1074C16.0645-34.2773 16.6504-33.6914 17.7734-33.6914Z"/>
  </g>
  <g id="Black-M" transform="matrix(1 0 0 1 2873 1126)">
   <path d="M18.6035-28.0273L45.6543-28.0273C46.9238-27.6855 48.2422-27.3926 49.6094-27.1484L59.7168-25.3906C68.0176-23.877 70.8496-22.4121 70.8496-18.9453C70.8496-15.2344 66.6504-12.6953 59.5703-12.6953C53.4668-12.6953 48.584-15.1855 44.4824-18.8965C41.9434-21.1914 39.8926-22.3145 36.8652-22.3145C31.5918-22.3145 28.125-18.9941 28.125-13.9648C28.125-12.5488 28.418-11.1328 28.9551-9.61914C32.1777-1.41602 43.7988 3.61328 59.3262 3.61328C79.9316 3.61328 93.0176-6.20117 93.0176-21.3867C93.0176-23.7793 92.7246-26.0254 92.1875-28.0273L102.246-28.0273C105.664-28.0273 108.35-30.9082 108.35-34.082C108.35-37.2559 105.664-40.1855 102.246-40.1855L80.957-40.1855C78.1738-41.4062 74.8535-42.334 71.0449-43.0176L60.5957-44.7266C53.2715-46.0449 50.0488-47.9004 50.0488-51.4648C50.0488-55.2246 53.8574-57.6172 59.5215-57.6172C64.4531-57.6172 67.334-55.8594 71.6309-51.9531C74.3652-49.4629 76.709-48.5352 80.1758-48.5352C85.4004-48.5352 89.0137-51.9043 89.0137-56.7383C89.0137-58.1543 88.8672-59.2773 88.4277-60.3516C85.3516-68.7012 74.2676-73.9746 59.3262-73.9746C41.0645-73.9746 27.7832-64.209 27.7832-49.1211C27.7832-45.8008 28.3691-42.8223 29.5898-40.1855L18.6035-40.1855C15.1855-40.1855 12.4512-37.2559 12.4512-34.082C12.4512-30.9082 15.1855-28.0273 18.6035-28.0273Z"/>
  </g>
  <g id="Heavy-M" transform="matrix(1 0 0 1 2578.1 1126)">
   <path d="M17.627-29.3945L44.9707-29.3945C46.2402-29.0527 47.5586-28.7598 48.9258-28.5156L58.7891-26.6113C67.5293-24.9023 70.7031-23.0469 70.7031-18.9453C70.7031-14.502 65.7715-11.3281 57.959-11.3281C51.1719-11.3281 45.8008-14.209 42.0898-18.7012C39.9902-20.9473 38.1348-22.0215 35.3516-22.0215C30.7129-22.0215 27.6855-19.0918 27.6855-14.6484C27.6855-13.3789 27.9297-12.0605 28.3691-10.6934C31.4941-2.24609 42.7734 2.97852 57.7637 2.97852C77.3438 2.97852 89.7949-6.49414 89.7949-21.0938C89.7949-24.2188 89.3066-27.002 88.2812-29.3945L99.6094-29.3945C102.49-29.3945 104.736-31.8359 104.736-34.5215C104.736-37.207 102.49-39.6484 99.6094-39.6484L76.9043-39.6484C74.3652-40.6738 71.4355-41.4551 68.1152-42.0898L58.252-43.8477C50.3418-45.4102 46.875-47.5586 46.875-51.5625C46.875-56.0547 51.3672-58.9844 57.9102-58.9844C63.623-58.9844 67.2363-56.7871 71.1426-52.1973C73.3887-49.8535 75.4395-48.9258 78.5645-48.9258C83.1543-48.9258 86.3281-51.8555 86.3281-56.1523C86.3281-57.373 86.1328-58.3984 85.7422-59.4238C82.9102-67.8711 72.168-73.3398 57.7637-73.3398C40.332-73.3398 27.6855-63.916 27.6855-49.6094C27.6855-45.8496 28.5156-42.4805 30.127-39.6484L17.627-39.6484C14.7461-39.6484 12.4512-37.207 12.4512-34.5215C12.4512-31.8359 14.7461-29.3945 17.627-29.3945Z"/>
  </g>
  <g id="Bold-M" transform="matrix(1 0 0 1 2283.39 1126)">
   <path d="M16.5039-30.957L44.2383-30.957C45.459-30.6152 46.7773-30.2734 48.1445-30.0293L57.7148-28.0273C66.9434-26.0742 70.5078-23.6816 70.5078-18.9941C70.5078-13.6719 64.7949-9.81445 56.1523-9.81445C48.584-9.81445 42.7734-13.1348 39.4531-18.457C37.7441-20.6543 36.1816-21.6797 33.6426-21.6797C29.6875-21.6797 27.1484-19.1895 27.1484-15.4297C27.1484-14.2578 27.3926-13.0859 27.7344-11.8652C30.6641-3.17383 41.5527 2.29492 56.0547 2.29492C74.4141 2.29492 86.1816-6.78711 86.1816-20.752C86.1816-24.8047 85.3027-28.1738 83.5449-30.957L96.6309-30.957C98.9258-30.957 100.732-32.8613 100.732-35.0098C100.732-37.1582 98.9258-39.0625 96.6309-39.0625L72.2168-39.0625C70.0195-39.8438 67.5781-40.4785 64.8438-41.0645L55.6641-42.8711C47.0215-44.7266 43.3105-47.168 43.3105-51.6602C43.3105-56.9824 48.584-60.5469 56.1035-60.5469C62.7441-60.5469 67.1875-57.8125 70.5566-52.4902C72.3145-50.293 74.0723-49.3652 76.7578-49.3652C80.6641-49.3652 83.252-51.8066 83.252-55.4688C83.252-56.4941 83.1055-57.4707 82.8125-58.3496C80.1758-66.9922 69.7754-72.7051 56.0059-72.7051C39.502-72.7051 27.5879-63.623 27.5879-50.1953C27.5879-45.8008 28.7109-42.0898 31.0059-39.0625L16.5039-39.0625C14.2578-39.0625 12.4512-37.1582 12.4512-35.0098C12.4512-32.8613 14.2578-30.957 16.5039-30.957Z"/>
  </g>
  <g id="Semibold-M" transform="matrix(1 0 0 1 1988.07 1126)">
   <path d="M15.7715-32.0312L43.7012-32.0312C44.9219-31.6895 46.2402-31.3477 47.6074-31.0547L56.9824-29.0039C66.5527-26.8555 70.3613-24.1699 70.3613-19.043C70.3613-13.0859 64.1113-8.78906 54.8828-8.78906C46.8262-8.78906 40.625-12.4023 37.5977-18.3105C36.2305-20.459 34.8145-21.4355 32.4707-21.4355C29.0039-21.4355 26.8066-19.2871 26.8066-15.9668C26.8066-14.8926 27.002-13.8184 27.3438-12.6953C30.127-3.80859 40.7715 1.80664 54.834 1.80664C72.4121 1.80664 83.6914-7.03125 83.6914-20.5566C83.6914-25.2441 82.4707-29.0039 79.834-32.0312L94.6289-32.0312C96.4844-32.0312 97.9492-33.5938 97.9492-35.3516C97.9492-37.1094 96.4844-38.6719 94.6289-38.6719L68.8965-38.6719C66.9922-39.3066 64.8926-39.8438 62.5977-40.332L53.8574-42.1875C44.7754-44.2383 40.8691-46.875 40.8691-51.7578C40.8691-57.6172 46.6797-61.6699 54.834-61.6699C62.1582-61.6699 67.1387-58.4961 70.166-52.6367C71.582-50.5859 73.0957-49.6582 75.5371-49.6582C78.9551-49.6582 81.1523-51.7578 81.1523-54.9805C81.1523-55.9082 81.0059-56.7871 80.7617-57.666C78.2715-66.3574 68.1152-72.2168 54.7852-72.2168C38.9648-72.2168 27.4902-63.4277 27.4902-50.5371C27.4902-45.752 28.9551-41.7969 31.8848-38.6719L15.7715-38.6719C13.916-38.6719 12.4512-37.1094 12.4512-35.3516C12.4512-33.5938 13.916-32.0312 15.7715-32.0312Z"/>
  </g>
  <g id="Medium-M" transform="matrix(1 0 0 1 1692.43 1126)">
   <path d="M15.1855-32.8613L43.3105-32.8613C44.5312-32.4707 45.8496-32.1289 47.2168-31.8359L56.4453-29.7363C66.2598-27.4902 70.2148-24.5117 70.2148-19.043C70.2148-12.6465 63.623-7.95898 53.9551-7.95898C45.459-7.95898 39.0137-11.8164 36.2305-18.2129C35.0586-20.3125 33.7891-21.2891 31.5918-21.2891C28.4668-21.2891 26.5137-19.3359 26.5137-16.3574C26.5137-15.3809 26.6602-14.3555 27.002-13.3301C29.6875-4.29688 40.1367 1.41602 53.9551 1.41602C70.8984 1.41602 81.7871-7.17773 81.7871-20.4102C81.7871-25.6836 80.1758-29.7363 76.7578-32.8613L93.0664-32.8613C94.6289-32.8613 95.8008-34.1309 95.8008-35.5957C95.8008-37.1094 94.6289-38.3301 93.0664-38.3301L66.4062-38.3301C64.6973-38.8672 62.8906-39.3555 60.8887-39.7949L52.4902-41.6992C43.0176-43.8965 39.0137-46.6797 39.0137-51.8066C39.0137-58.0566 45.2148-62.4512 53.9062-62.4512C61.6699-62.4512 67.0898-59.0332 69.873-52.7832C71.0449-50.8301 72.3633-49.9023 74.6094-49.9023C77.6367-49.9023 79.541-51.7578 79.541-54.6387C79.541-55.4688 79.4434-56.2988 79.1992-57.0801C76.8555-65.8691 66.8457-71.875 53.8574-71.875C38.5254-71.875 27.4414-63.2324 27.4414-50.8301C27.4414-45.6543 29.1504-41.5039 32.7148-38.3301L15.1855-38.3301C13.6719-38.3301 12.4512-37.1094 12.4512-35.5957C12.4512-34.1309 13.6719-32.8613 15.1855-32.8613Z"/>
  </g>
  <g id="Regular-M" transform="matrix(1 0 0 1 1397.09 1126)">
   <path d="M14.4531-33.9355L42.7734-33.9355C43.9941-33.5449 45.3125-33.1543 46.7285-32.8613L55.7129-30.7129C65.8691-28.2715 70.1172-24.9512 70.1172-19.0918C70.1172-12.0605 62.9395-6.93359 52.7344-6.93359C43.7012-6.93359 36.9141-11.084 34.4238-18.0176C33.5449-20.1172 32.4707-21.0449 30.4199-21.0449C27.7832-21.0449 26.1719-19.4336 26.1719-16.8945C26.1719-16.0156 26.3184-15.0879 26.5625-14.1602C29.1504-4.93164 39.3066 0.927734 52.7344 0.927734C68.9453 0.927734 79.3457-7.42188 79.3457-20.166C79.3457-26.2695 77.0996-30.6641 72.168-33.9355L91.0645-33.9355C92.1875-33.9355 93.0664-34.8145 93.0664-35.9375C93.0664-37.0605 92.1875-37.9395 91.0645-37.9395L63.0371-37.9395C61.6699-38.3789 60.2051-38.7695 58.6914-39.1113L50.7324-41.0156C40.8203-43.4082 36.6211-46.4355 36.6211-51.8555C36.6211-58.6914 43.3594-63.5254 52.6855-63.5254C61.084-63.5254 67.0898-59.7168 69.4824-52.9785C70.2637-51.123 71.4355-50.2441 73.3887-50.2441C75.9277-50.2441 77.4902-51.709 77.4902-54.1504C77.4902-54.8828 77.3926-55.6641 77.1973-56.3965C75-65.2832 65.2344-71.4355 52.6855-71.4355C37.9883-71.4355 27.3926-63.0371 27.3926-51.2207C27.3926-45.459 29.541-41.1621 34.1309-37.9395L14.4531-37.9395C13.3301-37.9395 12.4512-37.0605 12.4512-35.9375C12.4512-34.8145 13.3301-33.9355 14.4531-33.9355Z"/>
  </g>
  <g id="Light-M" transform="matrix(1 0 0 1 1101.86 1126)">
   <path d="M14.2578-33.9355L45.6055-33.9355C45.752-33.9355 45.8496-33.8867 45.9961-33.8379L54.7852-31.7383C65.7715-29.0527 70.4102-25.4395 70.4102-18.8965C70.4102-10.8887 62.6465-4.93164 51.3672-4.93164C41.4551-4.93164 33.7402-10.0098 31.543-17.7246C30.8594-19.5801 30.127-20.4102 28.418-20.4102C26.416-20.4102 25.2441-19.1895 25.2441-17.1875C25.2441-16.4551 25.3418-15.6738 25.5371-14.8438C27.9785-5.17578 38.0371 1.02539 51.3184 1.02539C67.0898 1.02539 77.3438-7.37305 77.3438-19.6289C77.3438-26.123 74.6094-30.6641 68.6035-33.9355L88.3301-33.9355C89.4043-33.9355 90.0879-34.7168 90.0879-35.6934C90.0879-36.6699 89.4043-37.4023 88.3301-37.4023L59.6191-37.4023C58.7891-37.6465 57.9102-37.8906 56.9824-38.0859L48.9258-40.0391C38.2812-42.627 33.5938-46.0449 33.5938-52.1973C33.5938-59.9609 41.1621-65.5273 51.1719-65.5273C60.6445-65.5273 67.5293-60.8887 69.5312-53.418C70.0684-51.9043 70.9473-51.1719 72.5098-51.1719C74.4141-51.1719 75.6348-52.2949 75.6348-54.1992C75.6348-54.7852 75.5371-55.6641 75.3418-56.3965C73.1934-65.2344 63.7207-71.4844 51.1719-71.4844C37.207-71.4844 26.6602-63.2324 26.6602-51.7578C26.6602-45.3125 29.5898-40.6738 35.8887-37.4023L14.2578-37.4023C13.1836-37.4023 12.4512-36.6699 12.4512-35.6934C12.4512-34.7168 13.1836-33.9355 14.2578-33.9355Z"/>
  </g>
  <g id="Thin-M" transform="matrix(1 0 0 1 807.081 1126)">
   <path d="M13.9648-33.9844L49.9512-33.9844L53.5156-33.1055C65.6738-30.127 70.8008-26.0254 70.8008-18.6035C70.8008-9.375 62.2559-2.29492 49.5605-2.29492C38.4766-2.29492 29.4922-8.59375 27.7832-17.2852C27.3926-18.7988 27.002-19.5801 25.8301-19.5801C24.6582-19.5801 23.9746-18.8477 23.9746-17.627C23.9746-17.041 24.0234-16.4062 24.1699-15.7715C26.4648-5.51758 36.377 1.17188 49.4629 1.17188C64.6973 1.17188 74.707-7.32422 74.707-18.8965C74.707-25.9766 71.1426-30.7129 63.3789-33.9844L84.7656-33.9844C85.6934-33.9844 86.2305-34.5703 86.2305-35.3516C86.2305-36.1328 85.6934-36.7188 84.7656-36.7188L54.9316-36.7188C54.834-36.7188 54.7852-36.7676 54.6875-36.7676L46.5332-38.7207C34.9121-41.5527 29.6387-45.6055 29.6387-52.6367C29.6387-61.6211 38.2812-68.1152 49.1699-68.1152C60.0098-68.1152 68.1641-62.3535 69.5312-53.9551C69.7266-52.9785 70.2637-52.3926 71.3379-52.3926C72.4609-52.3926 73.1445-53.0762 73.1445-54.248C73.1445-54.6387 73.0469-55.6641 72.9004-56.3965C70.8496-65.1367 61.7188-71.582 49.1699-71.582C36.1816-71.582 25.6836-63.4766 25.6836-52.4902C25.6836-44.9219 30.127-39.9902 39.7461-36.7188L13.9648-36.7188C13.0371-36.7188 12.4512-36.1328 12.4512-35.3516C12.4512-34.5703 13.0371-33.9844 13.9648-33.9844Z"/>
  </g>
  <g id="Ultralight-M" transform="matrix(1 0 0 1 511.371 1126)">
   <path d="M13.8184-34.0332L52.0508-34.0332L52.832-33.8379C65.625-30.7129 70.9961-26.3184 70.9961-18.5059C70.9961-8.59375 62.0605-0.927734 48.6328-0.927734C36.9629-0.927734 27.2949-7.86133 25.8301-17.041C25.5859-18.4082 25.3906-19.1406 24.5117-19.1406C23.7305-19.1406 23.291-18.6523 23.291-17.8223C23.291-17.334 23.3887-16.7969 23.4863-16.2109C25.6836-5.66406 35.498 1.26953 48.5352 1.26953C63.4766 1.26953 73.3398-7.27539 73.3398-18.5059C73.3398-25.9766 69.2383-30.7129 60.4004-34.0332L82.9102-34.0332C83.7891-34.0332 84.2285-34.5215 84.2285-35.2051C84.2285-35.8398 83.7891-36.377 82.9102-36.377L52.3926-36.377L45.3125-38.0859C33.2031-41.0156 27.6367-45.3613 27.6367-52.832C27.6367-62.4512 36.8164-69.4824 48.1445-69.4824C59.7168-69.4824 68.5059-63.1348 69.5312-54.248C69.5801-53.5156 69.9707-53.0273 70.752-53.0273C71.4355-53.0273 71.875-53.5156 71.875-54.248C71.875-54.5898 71.8262-55.6641 71.6309-56.3965C69.6289-65.0879 60.6445-71.6797 48.1445-71.6797C35.6445-71.6797 25.1953-63.623 25.1953-52.8809C25.1953-44.6777 30.6641-39.5996 42.7246-36.377L13.8184-36.377C12.9395-36.377 12.4512-35.8398 12.4512-35.2051C12.4512-34.5215 12.9395-34.0332 13.8184-34.0332Z"/>
  </g>
  <g id="Black-S" transform="matrix(1 0 0 1 2886.18 696)">
   <path d="M14.502-29.6875L35.6934-29.6875C36.6699-29.4434 37.7441-29.1992 38.8184-29.0039L46.7285-27.5879C53.2715-26.416 55.5176-25.2441 55.5176-22.4609C55.5176-19.5312 52.1484-17.4805 46.582-17.4805C41.748-17.4805 37.8906-19.4824 34.7168-22.4121C32.7637-24.2188 31.1523-25.0977 28.8086-25.0977C24.707-25.0977 22.0215-22.5098 22.0215-18.6035C22.0215-17.5293 22.2656-16.4062 22.6562-15.2344C25.1953-8.78906 34.2773-4.83398 46.3867-4.83398C62.4512-4.83398 72.6562-12.5 72.6562-24.3652C72.6562-26.3184 72.4121-28.0762 71.9727-29.6875L79.9316-29.6875C82.5684-29.6875 84.668-31.9336 84.668-34.375C84.668-36.8164 82.5684-39.0625 79.9316-39.0625L63.1836-39.0625C60.9863-39.9902 58.4473-40.7227 55.4688-41.2598L47.3145-42.627C41.5527-43.6523 39.0137-45.1172 39.0137-47.9492C39.0137-50.9277 42.041-52.832 46.5332-52.832C50.4395-52.832 52.7344-51.4648 56.1035-48.3398C58.2031-46.3867 60.0098-45.6543 62.6953-45.6543C66.748-45.6543 69.5801-48.291 69.5801-52.0508C69.5801-53.125 69.4336-54.0039 69.0918-54.834C66.6992-61.377 58.0566-65.5273 46.3867-65.5273C32.1289-65.5273 21.7773-57.9102 21.7773-46.1426C21.7773-43.5059 22.2656-41.1621 23.2422-39.0625L14.502-39.0625C11.8652-39.0625 9.76562-36.8164 9.76562-34.375C9.76562-31.9336 11.8652-29.6875 14.502-29.6875Z"/>
  </g>
  <g id="Heavy-S" transform="matrix(1 0 0 1 2590.69 696)">
   <path d="M13.7695-30.7617L34.8633-30.7617C35.9863-30.4199 37.1582-30.127 38.3789-29.9316L46.0938-28.418C52.8809-27.0996 55.3223-25.6348 55.3223-22.5098C55.3223-19.0918 51.5137-16.6504 45.5078-16.6504C40.2344-16.6504 36.1328-18.8477 33.2031-22.3145C31.543-24.0723 30.0781-24.9512 27.8809-24.9512C24.1699-24.9512 21.7773-22.6074 21.7773-19.0918C21.7773-18.1152 21.9727-17.041 22.3633-15.9668C24.7559-9.375 33.5938-5.32227 45.3613-5.32227C60.6445-5.32227 70.4102-12.7441 70.4102-24.2188C70.4102-26.6602 70.0195-28.8574 69.2383-30.7617L78.2227-30.7617C80.4688-30.7617 82.2266-32.666 82.2266-34.7168C82.2266-36.8164 80.4688-38.7207 78.2227-38.7207L60.4004-38.7207C58.3984-39.5508 56.0547-40.1855 53.418-40.6738L45.752-42.041C39.5996-43.2617 36.9141-44.873 36.9141-47.998C36.9141-51.416 40.3809-53.7109 45.459-53.7109C49.9023-53.7109 52.6367-52.0508 55.7129-48.4863C57.4707-46.582 59.1309-45.8496 61.5723-45.8496C65.1855-45.8496 67.7246-48.1934 67.7246-51.5625C67.7246-52.5391 67.5781-53.3691 67.2852-54.1016C65.0391-60.7422 56.5918-65.0391 45.3613-65.0391C31.6406-65.0391 21.7773-57.666 21.7773-46.4844C21.7773-43.5547 22.4121-40.9668 23.6816-38.7207L13.7695-38.7207C11.5723-38.7207 9.76562-36.8164 9.76562-34.7168C9.76562-32.666 11.5723-30.7617 13.7695-30.7617Z"/>
  </g>
  <g id="Bold-S" transform="matrix(1 0 0 1 2295.35 696)">
   <path d="M12.9883-31.9336L33.9844-31.9336C35.2051-31.543 36.5234-31.2012 37.8906-30.957L45.4102-29.3945C52.4414-27.8809 55.127-26.123 55.127-22.5586C55.127-18.6035 50.8301-15.7715 44.2871-15.7715C38.5254-15.7715 34.1797-18.1641 31.543-22.168C30.1758-23.9746 28.8574-24.7559 26.8066-24.7559C23.584-24.7559 21.4844-22.7539 21.4844-19.6777C21.4844-18.75 21.6797-17.7734 21.9727-16.7969C24.3164-10.0586 32.8613-5.9082 44.1895-5.9082C58.6914-5.9082 67.8711-12.9883 67.8711-24.0234C67.8711-27.1484 67.2363-29.7363 65.918-31.9336L76.3184-31.9336C78.0762-31.9336 79.4922-33.4473 79.4922-35.1562C79.4922-36.8164 78.0762-38.3301 76.3184-38.3301L57.1777-38.3301C55.4199-39.0137 53.418-39.5508 51.123-39.9902L43.9941-41.4062C37.3535-42.8223 34.5703-44.6289 34.5703-48.0469C34.5703-51.9531 38.5254-54.6387 44.2871-54.6387C49.2676-54.6387 52.5391-52.6855 55.2734-48.6328C56.6895-46.8262 58.1055-46.0938 60.3027-46.0938C63.4766-46.0938 65.625-48.0469 65.625-51.0742C65.625-51.9043 65.4785-52.6367 65.2344-53.3203C63.1836-60.0586 54.9805-64.5508 44.1895-64.5508C31.1523-64.5508 21.7773-57.4219 21.7773-46.8262C21.7773-43.5059 22.6074-40.6738 24.2676-38.3301L12.9883-38.3301C11.1816-38.3301 9.76562-36.8164 9.76562-35.1562C9.76562-33.4473 11.1816-31.9336 12.9883-31.9336Z"/>
  </g>
  <g id="Semibold-S" transform="matrix(1 0 0 1 1999.57 696)">
   <path d="M12.4023-32.7637L33.4473-32.7637C34.7168-32.3242 36.084-31.9824 37.5488-31.6406L44.9707-30.0293C52.1484-28.418 55.0293-26.416 55.0293-22.6074C55.0293-18.2617 50.3418-15.1367 43.457-15.1367C37.4023-15.1367 32.8613-17.6758 30.3711-22.0703C29.1992-23.877 28.0273-24.6094 26.0742-24.6094C23.1445-24.6094 21.3379-22.8027 21.3379-20.0195C21.3379-19.1895 21.4844-18.3105 21.7285-17.3828C23.9746-10.5469 32.3242-6.29883 43.4082-6.29883C57.2754-6.29883 66.1621-13.1836 66.1621-23.9258C66.1621-27.4902 65.2344-30.4199 63.3789-32.7637L75-32.7637C76.4648-32.7637 77.6367-33.9844 77.6367-35.4004C77.6367-36.8652 76.4648-38.0859 75-38.0859L54.9805-38.0859C53.3691-38.623 51.5625-39.1113 49.5605-39.5508L42.7734-41.0156C35.8398-42.5293 32.959-44.4824 32.959-48.0469C32.959-52.3438 37.2559-55.3223 43.457-55.3223C48.8281-55.3223 52.4414-53.125 54.9805-48.7305C56.1523-47.0215 57.4219-46.2402 59.4238-46.2402C62.3047-46.2402 64.1602-47.998 64.1602-50.6836C64.1602-51.4648 64.0625-52.0996 63.8184-52.7832C61.8652-59.6191 53.8086-64.1602 43.4082-64.1602C30.7617-64.1602 21.7773-57.2266 21.7773-47.0703C21.7773-43.457 22.8027-40.4785 24.8535-38.0859L12.4023-38.0859C10.9375-38.0859 9.76562-36.8652 9.76562-35.4004C9.76562-33.9844 10.9375-32.7637 12.4023-32.7637Z"/>
  </g>
  <g id="Medium-S" transform="matrix(1 0 0 1 1703.56 696)">
   <path d="M12.0117-33.3984L33.0078-33.3984C34.3262-32.9102 35.7422-32.5195 37.3047-32.1777L44.5801-30.5176C51.9531-28.8574 54.9316-26.6602 54.9316-22.6562C54.9316-17.9688 49.9512-14.6484 42.8223-14.6484C36.4746-14.6484 31.8359-17.2852 29.4922-22.0215C28.5156-23.7793 27.3926-24.5605 25.5371-24.5605C22.8516-24.5605 21.1914-22.9004 21.1914-20.3125C21.1914-19.5312 21.2891-18.7012 21.582-17.8223C23.7305-10.8887 31.9336-6.5918 42.8223-6.5918C56.25-6.5918 64.8438-13.2812 64.8438-23.8281C64.8438-27.832 63.7207-30.957 61.2305-33.3984L73.9746-33.3984C75.1953-33.3984 76.2207-34.4238 76.2207-35.6445C76.2207-36.8652 75.1953-37.8906 73.9746-37.8906L53.2227-37.8906C51.7578-38.3789 50.1465-38.8184 48.3887-39.209L41.8457-40.6738C34.7168-42.334 31.7383-44.3359 31.7383-48.0957C31.7383-52.6367 36.2793-55.8105 42.8223-55.8105C48.4863-55.8105 52.3926-53.4668 54.7363-48.8281C55.7129-47.1191 56.8848-46.3867 58.7891-46.3867C61.377-46.3867 63.0371-47.9492 63.0371-50.3906C63.0371-51.123 62.9395-51.709 62.793-52.3438C60.8887-59.2285 52.9785-63.916 42.7734-63.916C30.5176-63.916 21.8262-57.0801 21.8262-47.2656C21.8262-43.4082 22.9492-40.332 25.3418-37.8906L12.0117-37.8906C10.791-37.8906 9.76562-36.8652 9.76562-35.6445C9.76562-34.4238 10.791-33.3984 12.0117-33.3984Z"/>
  </g>
  <g id="Regular-S" transform="matrix(1 0 0 1 1407.78 696)">
   <path d="M11.4258-34.1797L32.4707-34.1797C33.8379-33.6914 35.3027-33.252 36.9629-32.8613L44.1406-31.1523C51.6602-29.3945 54.7852-26.9531 54.7852-22.6562C54.7852-17.627 49.4629-14.0625 41.9922-14.0625C35.3516-14.0625 30.5176-16.8457 28.3691-21.9238C27.5879-23.6816 26.6113-24.4141 24.8047-24.4141C22.4609-24.4141 20.9961-22.9492 20.9961-20.7031C20.9961-19.9219 21.0938-19.1895 21.3379-18.3594C23.3887-11.377 31.4453-6.98242 42.041-6.98242C54.8828-6.98242 63.1348-13.4766 63.1348-23.6816C63.1348-28.2715 61.5723-31.6406 58.1543-34.1797L72.6562-34.1797C73.584-34.1797 74.3652-34.9609 74.3652-35.8887C74.3652-36.8652 73.584-37.5977 72.6562-37.5977L50.9766-37.5977C49.707-38.0371 48.3398-38.4277 46.8262-38.7695L40.625-40.2344C33.2031-41.9922 30.127-44.1895 30.127-48.0957C30.127-53.0273 35.0098-56.4453 41.9922-56.4453C48.0957-56.4453 52.3438-53.9062 54.4434-48.9258C55.1758-47.3145 56.2012-46.5332 57.9102-46.5332C60.2051-46.5332 61.6211-47.8516 61.6211-50.0488C61.6211-50.6836 61.5234-51.2207 61.377-51.8066C59.6191-58.7891 51.8555-63.5254 41.9922-63.5254C30.1758-63.5254 21.8262-56.9336 21.8262-47.5098C21.8262-43.3105 23.2422-40.0879 26.1719-37.5977L11.4258-37.5977C10.5469-37.5977 9.76562-36.8652 9.76562-35.8887C9.76562-34.9609 10.5469-34.1797 11.4258-34.1797Z"/>
  </g>
  <g id="Light-S" transform="matrix(1 0 0 1 1112.39 696)">
   <path d="M11.2305-34.2285L34.5703-34.2285C35.1562-34.082 35.7422-33.8867 36.3281-33.7891L43.3105-32.0801C51.5625-30.0781 55.0293-27.3926 55.0293-22.5098C55.0293-16.6016 49.2188-12.2559 40.7715-12.2559C33.3496-12.2559 27.6855-15.8691 25.8301-21.6309C25.2441-23.1934 24.5117-23.877 23.0469-23.877C21.2402-23.877 20.166-22.7539 20.166-20.9961C20.166-20.3613 20.2148-19.6777 20.4102-18.9941C22.3633-11.5723 30.3223-6.88477 40.7715-6.88477C53.2715-6.88477 61.377-13.4277 61.377-23.1934C61.377-28.1738 59.4238-31.6406 55.1758-34.2285L70.2637-34.2285C71.0938-34.2285 71.7285-34.8633 71.7285-35.6934C71.7285-36.5234 71.0938-37.1582 70.2637-37.1582L48.0469-37.1582C47.168-37.4023 46.2402-37.6465 45.3125-37.8418L39.0625-39.3555C30.957-41.3086 27.4902-43.8477 27.4902-48.3887C27.4902-54.1016 33.1055-58.2031 40.6738-58.2031C47.6562-58.2031 52.7344-54.8828 54.4434-49.3164C54.9805-47.998 55.7617-47.3633 57.1289-47.3633C58.8867-47.3633 59.9609-48.3887 59.9609-50.0977C59.9609-50.5859 59.8633-51.2207 59.7168-51.8066C58.0566-58.7402 50.5371-63.623 40.6738-63.623C29.4434-63.623 21.1426-57.0801 21.1426-47.998C21.1426-43.2129 23.1445-39.6973 27.3926-37.1582L11.2305-37.1582C10.4004-37.1582 9.76562-36.5234 9.76562-35.6934C9.76562-34.8633 10.4004-34.2285 11.2305-34.2285Z"/>
  </g>
  <g id="Thin-S" transform="matrix(1 0 0 1 817.384 696)">
   <path d="M10.9863-34.2285L38.3301-34.2285L42.1875-33.3008C51.4648-31.0547 55.3711-27.8809 55.3711-22.2656C55.3711-15.2832 48.877-9.91211 39.209-9.91211C30.7129-9.91211 23.9258-14.5996 22.4609-21.2402C22.1191-22.5098 21.7773-23.1445 20.752-23.1445C19.6777-23.1445 19.043-22.4609 19.043-21.3379C19.043-20.8496 19.0918-20.3125 19.2383-19.7754C21.0449-11.8652 28.8086-6.73828 39.1113-6.73828C51.1719-6.73828 59.0332-13.3789 59.0332-22.5586C59.0332-28.0273 56.3965-31.6895 50.7324-34.2285L67.0898-34.2285C67.8223-34.2285 68.3105-34.7656 68.3105-35.4004C68.3105-36.0352 67.8223-36.5234 67.0898-36.5234L43.9453-36.5234C43.75-36.5723 43.5059-36.6211 43.3105-36.6699L36.9141-38.2324C27.9785-40.3809 23.9746-43.457 23.9746-48.7793C23.9746-55.5664 30.5664-60.498 38.916-60.498C47.168-60.498 53.3203-56.2012 54.4922-49.8047C54.7363-48.9258 55.2246-48.4375 56.1035-48.4375C57.1777-48.4375 57.7637-49.0723 57.7637-50.0977C57.7637-50.4883 57.7148-51.2207 57.5684-51.8066C55.957-58.6914 48.7305-63.7207 38.916-63.7207C28.5645-63.7207 20.3125-57.3242 20.3125-48.6328C20.3125-42.9199 23.4863-39.1113 30.2734-36.5234L10.9863-36.5234C10.2539-36.5234 9.76562-36.0352 9.76562-35.4004C9.76562-34.7656 10.2539-34.2285 10.9863-34.2285Z"/>
  </g>
  <g id="Ultralight-S" transform="matrix(1 0 0 1 521.576 696)">
   <path d="M10.8887-34.2773L40.2344-34.2773L41.6016-33.9355C51.416-31.543 55.5664-28.1738 55.5664-22.168C55.5664-14.5508 48.6816-8.74023 38.3789-8.74023C29.3457-8.74023 21.9727-13.9648 20.752-21.0449C20.5078-22.168 20.3613-22.7539 19.5801-22.7539C18.8477-22.7539 18.457-22.3145 18.457-21.5332C18.457-21.1426 18.5059-20.6543 18.6035-20.2148C20.3125-12.0117 28.0762-6.64062 38.2812-6.64062C50.0488-6.64062 57.8613-13.3301 57.8613-22.2656C57.8613-27.9785 54.7852-31.6895 48.1445-34.2773L65.4785-34.2773C66.1621-34.2773 66.5039-34.668 66.5039-35.2539C66.5039-35.791 66.1621-36.1816 65.4785-36.1816L41.748-36.1816L35.8398-37.6465C26.4648-39.8926 22.168-43.2129 22.168-48.9746C22.168-56.2988 29.248-61.6699 37.9883-61.6699C46.875-61.6699 53.6133-56.8848 54.4922-50.0488C54.5898-49.4141 54.8828-48.9746 55.5664-48.9746C56.25-48.9746 56.6406-49.4141 56.6406-50.1465C56.6406-50.3906 56.5918-51.2207 56.4453-51.8066C54.8828-58.6426 47.8027-63.7695 37.9883-63.7695C28.0762-63.7695 19.873-57.4219 19.873-48.9258C19.873-42.7246 23.877-38.7695 32.6172-36.1816L10.8887-36.1816C10.1562-36.1816 9.76562-35.791 9.76562-35.2539C9.76562-34.668 10.1562-34.2773 10.8887-34.2773Z"/>
  </g>
 </g>
</svg>
